<?xml version="1.0" standalone="no"?>
<!DOCTYPE svg PUBLIC "-//W3C//DTD SVG 1.1//EN" "http://www.w3.org/Graphics/SVG/1.1/DTD/svg11.dtd" >
<svg xmlns="http://www.w3.org/2000/svg">
<metadata>
This is a custom SVG webfont generated by Font Squirrel.
Copyright   : Typeface  your company 2011 All Rights Reserved
Designer    : Julia Martinez Diana ANTIPIXEL
</metadata>
<defs>
<font id="SaviaRegular" horiz-adv-x="1014" >
<font-face units-per-em="2048" ascent="1638" descent="-410" />
<missing-glyph horiz-adv-x="508" />
<glyph unicode=" "  horiz-adv-x="508" />
<glyph unicode="&#x09;" horiz-adv-x="508" />
<glyph unicode="&#xa0;" horiz-adv-x="508" />
<glyph unicode="!" horiz-adv-x="412" d="M0 1088q0 100 80 100l4 -4q4 12 24 12q92 -31 92 -84q8 -99 16 -120l-4 -4v-4q11 -50 16 -200l4 -4l-4 -40l8 -92h-8v-8h8q4 -169 16 -224l-4 -4l8 -52l-4 -12l4 -12h-4l4 -4v-4l-4 -12l4 -20v-28l-12 -32l4 -16q0 -34 -92 -48h-24q-44 0 -44 56q-10 116 -24 172h8v8 l-4 -4h-4v8h8v4l-8 12l4 12h-4q-7 0 -8 20v12l4 -4h4v4l-4 4v4l4 4l-12 4l8 12l-8 32h8v8q-12 0 -12 32h8v4l-8 12h8v4l-4 4l4 4v4l-8 12l4 4l-4 4v16l4 4l-4 4v16h8v4h-8l-4 -4l-4 20l8 20h-4l-8 8l4 4v4l-4 20h4l-8 56l4 28h-4l4 12l-4 12h4l-8 28h4zM44 708h4v16h-4v-16z M96 76q0 64 60 64l24 -4l40 4q44 -11 44 -68q0 -72 -36 -72h-72q-56 0 -56 60z" />
<glyph unicode="&#x22;" horiz-adv-x="672" />
<glyph unicode="#" horiz-adv-x="1019" d="M0 524v4l16 16h28l172 16l8 8l-4 4l4 16l-8 68l4 4l-8 164q26 16 60 16q56 0 56 -112l4 -60h-4q10 -74 20 -80l28 4h24l4 20l-4 80l4 4v4l-4 4l4 28v36l-4 48q18 24 48 24h20q44 0 44 -76v-48l-4 -4l8 -32v-68q0 -36 40 -36h20l12 4v-4l28 8v-4l4 4h4l84 -4q16 -6 16 -28 v-12l-4 -48h8v-8q0 -12 -28 -12q0 -12 -8 -12h-32q-69 -20 -120 -20l-4 -12q0 -44 20 -44q50 0 96 16l32 -4l20 4q26 0 40 -116q0 -24 -24 -24l-144 -16v-48l8 -128v-28q0 -20 -76 -20q-32 0 -40 72l4 4l-8 44h4l-4 4v32l-8 64h-20q-32 -9 -32 -48l-4 -44l4 -20v-16l-4 -4 l4 -4v-60q0 -44 -44 -44h-20q-48 0 -48 48q-19 81 -24 180q-51 20 -108 20h-80q-48 0 -48 28l-4 36q0 49 88 64l60 4h16l28 8v56l-108 8l-52 -12q-44 10 -44 48q-9 0 -16 36zM256 260h20v4h-20v-4zM352 444q0 -56 24 -56h8l44 8q-4 44 -12 44q-36 3 -36 8l-4 -4h-16l-4 4h-4 v-4z" />
<glyph unicode="$" d="M78 1096l4 28v36l4 4l-4 4q0 76 164 76l120 12v-4l4 4h4l16 -4l4 4l-8 40q0 44 64 44h24q56 0 56 -64l-4 -20l4 4h64l24 -4l64 8q56 0 56 -52l4 -4l-4 -4l4 -20v-88q0 -52 -88 -52l-72 4h-24l-24 -8l-32 8h-4v-44q8 -56 36 -56h4l4 4h4q31 -12 148 -16q51 -15 72 -56 q20 -69 20 -96v-8q0 -88 -8 -88l4 -4v-4l-4 -12l4 -4v-4l-4 -4v-4l4 -4v-4l-4 -4q18 -396 24 -396l-4 -20v-28q0 -92 -64 -92l-12 -8l-32 4l-84 -12h-80v-60q0 -21 -16 -28h-88q-28 0 -28 80v12l-52 4l-24 -4l-4 4h-4l-24 -4h-16l-4 4l-4 -4h-4l-12 4l-76 -8q-64 18 -64 92 v36q10 32 84 32l192 -12h20l32 32l-4 4l4 12l-24 428h4l-4 4v28l-16 -4l-32 4l-64 -4q-77 4 -136 20h-12l-32 36q-23 79 -36 280h4zM262 1040l20 -92l16 -4h40l24 -4q24 0 24 40v44l4 4q-9 33 -20 40q-108 -14 -108 -28zM534 680l20 -164h-4l4 -4v-4q12 -256 24 -256l12 4 l4 -4q5 13 32 24l16 40l-4 4l4 20v56q0 22 -16 32l4 28v8l-4 40h4l-4 4v20q0 99 -12 176h4q0 68 -80 76l-4 -20v-80z" />
<glyph unicode="%" horiz-adv-x="1610" />
<glyph unicode="&#x26;" horiz-adv-x="1683" />
<glyph unicode="'" horiz-adv-x="346" />
<glyph unicode="(" horiz-adv-x="758" />
<glyph unicode=")" horiz-adv-x="758" />
<glyph unicode="*" horiz-adv-x="690" d="M143 1146v16q9 18 84 40v4q-44 62 -44 92l68 56h16q35 -24 52 -84h8q23 88 56 88h16q48 -9 48 -40l-20 -88l68 40h24q17 0 40 -76h-4l4 -4v-8q-5 -23 -88 -56l-4 -12q20 -27 40 -108l-12 -12v12l-16 -24h-8l-4 4l-40 -8q-10 0 -28 32q-5 0 -24 56h-4q-25 -92 -72 -92 q0 8 -36 20q-28 14 -28 40h4l-4 4v4l20 48h-8l-68 -8h-4q-16 0 -32 64z" />
<glyph unicode="+" horiz-adv-x="806" d="M117 555v12q0 48 84 48q76 4 80 20l-8 76l4 20l-4 4v4l8 32l-4 4v4q0 53 100 60h16q68 -22 68 -56q12 0 12 -120v-44l48 4h40q52 0 52 -104v-4q0 -60 -120 -60q0 -5 -28 -12l-4 -16l4 -4v-8l-4 -4l4 -4v-4l8 -140q0 -64 -72 -64l-48 -4q-40 0 -40 112q0 124 -40 124 q-7 7 -108 12l-20 16q-28 50 -28 96z" />
<glyph unicode="," horiz-adv-x="557" d="M119 57l8 16l-4 4q0 68 48 68l16 -4l24 4v-4l4 4h48q53 0 64 -88v-16q-3 -124 -24 -124h-32q-52 0 -52 36l-8 48l4 4l-24 16q-72 19 -72 36z" />
<glyph unicode="-" horiz-adv-x="670" d="M108 108v16l4 4l-4 4v8q13 32 144 32l60 4h4l16 4l4 -4l60 4h76q51 0 68 -32v-44l4 -36q-5 -60 -44 -60h-24l-4 4h-4l-4 -4l-12 -4v-4l-20 4h-28l-48 4l-108 -8q-128 13 -128 40z" />
<glyph unicode="." horiz-adv-x="472" d="M136 148q34 20 124 20q16 0 28 -152q-22 -16 -40 -16q-96 0 -96 20q-16 87 -16 128z" />
<glyph unicode="/" horiz-adv-x="569" d="M0 28v32l4 4l-4 4l56 236l-4 4q13 0 124 436q9 0 64 208q25 111 56 204q23 20 36 20v-4l4 4h16l4 -4l28 8l36 -4h8l16 4q30 -15 36 -28v-8l-4 -4l4 -12q-68 -221 -240 -864q-59 -193 -100 -256l-20 -8q-120 0 -120 28zM284 552h4l4 16v4h-4l-4 -12v-8z" />
<glyph unicode="0" horiz-adv-x="764" d="M0 1084l4 4v4l-4 16l4 4v4l-4 4q0 70 84 96h4v-4l4 4h32l4 -4l128 16l4 -4v-4l4 4q268 -10 268 -40q0 -10 36 -56q40 -58 40 -204h-4l4 -4v-52l-4 -16l4 -4v-4q-12 -98 -12 -200v-112l-4 -4l12 -80h-4l4 -4v-4l-4 -4l4 -4v-36l-4 -4l4 -4v-60q0 -60 -8 -60l4 -20v-32 q0 -26 -12 -40l8 -48l-4 -4v-4l4 -12q0 -89 -176 -104l-64 -4h-12q-52 0 -128 16l-4 -4q-90 12 -132 44l-20 52l4 12q-7 3 -20 188l-8 52h4l-16 280l-12 156l4 20l-8 144h4l-4 4l4 20q0 45 -12 100zM192 976l24 -224h-4l4 -12l4 -148l4 -12h-4l4 -4v-292l4 -20h-4 q0 -27 48 -64l12 4q48 -2 48 -8q100 0 100 140v16l-4 44l4 12l-4 4l8 164l-16 216l4 4v4l-12 84h4q-10 128 -56 128v4q-168 -12 -168 -36v-4z" />
<glyph unicode="1" horiz-adv-x="577" d="M0 1040l8 68v40q7 36 24 36l264 -16h20q100 -18 100 -100q12 -54 12 -152v-64l4 -16l-4 -16v-16l4 -44l-4 -20l4 -12h-4l4 -4l-4 -40v-8l4 -24l-4 -12l4 -20l-4 -4v-4l4 -4l-4 -20v-36l4 -16l-4 -16v-4l-4 -76l4 -12h-4l4 -12l-8 -92l4 -4v-4q-3 -32 -8 -32l4 -4v-12 l-4 -4l4 -4v-16l-4 -4l4 -4v-4l-8 -8v8h-4v-8l12 -12v-4l-4 -4l4 -4l-4 -60v-72q0 -68 -20 -68h-4l-12 4l-44 -4h-12l-4 4l-4 -4h-12l-16 4l-4 -4h-4l-4 4h-4l-4 -4h-4q-29 0 -40 44l4 4v4l-4 4l4 24l12 240l4 4l-4 4l4 28v112l-4 20h4l-4 4l8 72l-4 4l4 88v104l-4 20h4 l-4 4v100q0 120 -56 120q-173 22 -188 36z" />
<glyph unicode="2" horiz-adv-x="787" d="M0 144l260 412q160 295 160 324l4 44v20l4 4q0 88 -60 88l-36 8l-4 4l-4 -4h-4l-164 24l-4 -4l-20 4h-36q-60 0 -60 36l-4 36h4l-12 40v32q5 16 36 16h64l36 -4l4 4h4l24 -4h12l20 4v-4l52 8v-4l12 4l188 -16h4q0 -7 28 -20q100 -132 100 -172v-48q0 -78 -120 -332 q-68 -154 -172 -348q-20 -51 -40 -80v-4q0 -13 192 -24h100l4 -4l4 4q48 0 48 -36l4 -28l-4 -24l4 -20l-4 -16l4 -40q-16 -24 -40 -24h-8l-12 8h-12l-20 -4l-48 8l-4 -4h-20l-4 4l-4 -4q-44 16 -332 24q0 5 -104 12q-7 9 -20 100z" />
<glyph unicode="3" horiz-adv-x="831" d="M0 1156v40l20 20h172l108 -8h32l4 -4l4 4l20 -4h60l20 4l24 -4l52 4l44 -12l16 4l4 -4l4 4q28 -4 28 -16l4 4h4q35 -15 60 -60q13 -20 28 -20l-4 -4v-4q12 -8 12 -44h4l-4 -20v-28l4 -12l-4 -20v-32q-16 -136 -48 -136q0 -8 -16 -8q36 -51 36 -104h-4l4 -4v-48l4 -12 l-4 -20v-12l-12 -192l4 -12h-4l4 -4v-16l-4 -4l4 -4l-4 -20q-3 -156 -12 -156l4 -4v-4l-4 -4v-4l4 -12q-4 -49 -16 -68l12 -12q0 -56 -88 -76l-116 -8l-16 4h-8v-4l-200 12l-4 -4h-4l-4 4l-36 -4q-164 6 -164 40q0 30 -16 80q0 64 56 64h12l4 -4l4 4l184 -16l12 4v-4 q136 19 136 44l16 224l4 16l-4 4l4 28v56l4 4l-4 4v32q0 136 -44 136q-196 19 -196 56l-4 28q0 68 44 68h32q164 0 164 36l4 20l-4 4l4 20q0 60 -48 60l-16 4l-4 -4q-154 32 -272 32q-92 14 -92 84z" />
<glyph unicode="4" horiz-adv-x="674" d="M0 1176q20 5 20 12l4 -4h40q120 0 120 -104l4 -68v-128q0 -79 32 -92l4 4h4l16 -4l4 4h4l16 -4q44 0 44 28l-4 24l4 4l-4 4v4l4 4l-4 12q2 52 8 52l-4 16l-4 124q0 108 52 120v-4l4 4h4q128 0 128 -36h4l-4 -20l4 -424l-8 -8l8 -8v-12h-8l8 -92h-4l4 -4v-48l-4 -4l4 -4 v-8l-4 -4l4 -4l-4 -52l4 -340l4 -4v-4q-9 -104 -36 -104l-36 -4q-20 0 -20 8l-28 -4h-4q-44 0 -44 20l-8 36v104l-4 24l4 4l-8 44l4 16v4l-4 20h4l-4 4v4l4 4l-4 4v4l4 12l-12 140l4 4l-16 124l4 24q-19 76 -60 76h-48q-151 0 -188 100l-4 16l8 200l-4 12h4l-4 4v20l-4 36 l4 4v4z" />
<glyph unicode="5" horiz-adv-x="811" d="M77 1028q0 49 60 88q76 80 96 80l160 -4v-4l4 4l64 -12l4 4q132 0 132 -52l4 -28q-10 -84 -28 -84h-16l-72 4l-48 -8v4l-88 -12l-48 4l-12 -4v4l-48 -8q0 -132 56 -132q112 0 112 -8l4 4q145 0 176 -44q40 -57 40 -128v-28l-12 -128v-8l4 -28h-4l4 -12l8 -224l-4 -36 l4 -4v-4l-4 -4v-4l8 -128q-46 -68 -80 -68l-76 -20q-46 16 -212 16l-120 -4q-28 0 -28 96l-4 4v4q9 68 68 68l76 -8l4 4l24 -4q79 0 156 40q27 22 40 100v20l-4 4l4 20v16l-4 16l4 12l-4 28h4l-4 4v84q-7 7 -16 88q-16 48 -48 64l-128 36l-4 -4l-64 8l-12 -4v4l-4 -4h-76 q-36 0 -36 68v8l4 4l-4 4v56l-4 12l4 24l-4 140l-4 4h-4z" />
<glyph unicode="6" horiz-adv-x="879" d="M77 284l4 204l-4 24l4 36v28l4 4l-8 16l8 156l-4 80q16 81 20 152l-8 84l4 20l-4 12h4l-4 4v24l52 44q90 16 216 16h44l24 -4l20 4h20l4 -4l4 4h12l4 -4l4 4h92l48 4v-4l4 4h4q52 0 52 -28l8 -52l-4 -4v-4l12 -48q0 -20 -32 -36l-12 4v-4l-4 -4v-4h-8v4l-40 -4h-232 l-24 -4l-20 4h-16v-8l-12 -376q0 -192 44 -192q24 -3 24 -8l16 4l224 -8l60 4h16q72 0 72 -152q-5 -236 -28 -236h-24q-13 -40 -92 -40l-4 4h-4l-24 -4h-12l-20 4l-24 -4q-80 0 -216 20l-4 -4l-100 8v4l-12 -4q-104 0 -104 88q-12 0 -24 172zM297 272q0 -30 28 -104h76l4 -4 l4 4l20 -4h4l16 4l16 -4l12 4l24 -4l20 4v-4l4 4h36q73 0 84 32v12q0 56 -36 56h-68q-148 0 -148 12l-4 -4l-28 4h-32z" />
<glyph unicode="7" horiz-adv-x="763" d="M96 1160h4l-4 4q0 44 32 44h16l4 -4l4 4h4l244 -16l4 4q184 -10 184 -40q28 -25 28 -64v-12q-76 -464 -120 -616h-4l4 -4l-96 -412l4 -4v-12q-16 -32 -76 -32h-16l-12 8l-4 -4h-4q-76 12 -76 32q32 165 64 272l-4 4v8l56 240l-4 4v8q11 0 24 92l16 64l-4 4v4l32 172l-4 4 l8 8v64l-40 16l-4 -4h-4q-6 8 -84 12q-160 17 -160 76q-12 40 -12 76z" />
<glyph unicode="8" horiz-adv-x="796" d="M77 960l4 16l-4 4q0 176 48 176h4l44 -4h12l40 4v-4l4 4h88q68 0 68 8l20 -4h100q71 0 84 -52q20 -49 20 -172l-4 -64v-16q0 -48 -56 -76l-28 -8v-4q56 -17 56 -48l4 -20q28 0 28 -12v-4h-12v-4q24 0 24 -72l12 -112h-4l4 -12l8 -112l-4 -64l4 -4v-4q-12 -52 -12 -144 v-16l-4 -4l4 -4v-12l-4 -4l4 -4v-4q0 -12 -12 -12l4 -16q0 -21 -20 -32l-4 4l-8 -8l4 -4v-8q-48 -20 -80 -20l-4 4q0 -10 -260 -16v4l-4 -4h-60q-80 0 -80 100l-4 132l-4 4v4l4 4v4q-3 28 -8 28l4 4v20l-4 20l4 4l-12 12l4 12l-4 12h4l-4 4v4l4 4l-4 20v96l4 4l-4 4v4l4 12 l-4 4v4l4 4l-4 20v8l4 4l-4 4v4l4 12l-4 32l4 4v4l-4 12q9 0 12 28q10 67 48 96l-8 8l4 4q-49 0 -60 64zM209 312h4v24h-4v-24zM229 416l8 -96v-64q0 -132 32 -132l28 -8h40l52 -4q100 0 100 64l-4 24l4 12l-4 20v36l-4 4l8 28l-4 4v88l-4 16l4 12q0 212 -28 212 q-5 11 -44 20h-36l-24 -4l-16 8l-24 -4v4q-76 -18 -76 -72l-8 -152v-16zM241 936l60 -12l4 4h4l136 -12q7 7 12 48l-4 4v4l4 4q0 48 -40 48l-64 4h-24l-4 4l-4 -4l-12 4q-68 0 -68 -68v-28zM553 816h4l16 16v4h-4q0 -12 -12 -12l-4 -4v-4z" />
<glyph unicode="9" horiz-adv-x="849" d="M77 1076l4 16l-4 12q7 64 60 64l68 4q88 -2 88 -8l48 12v-4l12 4q62 0 112 -16l4 4l20 -4h40q92 0 92 -144h-4q24 -146 32 -272h-4l4 -4v-60l28 -360h-4l4 -4v-40q0 -268 -44 -268l-48 -8v4l-4 -4h-36q-56 7 -56 48l4 4l-8 8q-12 396 -44 636l-4 32h-4q-217 40 -296 40 q-24 0 -48 116h4l-4 4v4l-8 128h4l-4 4v36zM245 1024q0 -104 60 -104h20l36 4q17 -8 64 -8h20q28 23 28 60q0 68 -52 68h-16q-160 -4 -160 -20zM621 36h8q0 19 8 28v4h-8zM633 408h4v20h-4v-20z" />
<glyph unicode=":" horiz-adv-x="459" d="M122 688q0 19 124 28q52 0 52 -116q-11 -40 -48 -40h-20q-92 5 -92 40l-8 8v32l4 4zM158 320q34 20 124 20q16 0 28 -152q-22 -16 -40 -16q-96 0 -96 20q-16 87 -16 128z" />
<glyph unicode=";" horiz-adv-x="441" d="M112 651l4 16v32q0 11 108 24h4q48 0 48 -52l8 -64v-8q0 -40 -92 -40h-28q-42 0 -52 92zM116 255v12q0 28 8 44l-4 12q66 28 152 28q28 0 32 -44l4 -196q0 -30 -64 -36q-44 4 -44 12v8h-4l4 28v60q0 21 -12 24h-12l-16 -4q-44 19 -44 52z" />
<glyph unicode="&#x37e;" horiz-adv-x="441" d="M112 651l4 16v32q0 11 108 24h4q48 0 48 -52l8 -64v-8q0 -40 -92 -40h-28q-42 0 -52 92zM116 255v12q0 28 8 44l-4 12q66 28 152 28q28 0 32 -44l4 -196q0 -30 -64 -36q-44 4 -44 12v8h-4l4 28v60q0 21 -12 24h-12l-16 -4q-44 19 -44 52z" />
<glyph unicode="&#x3c;" />
<glyph unicode="=" horiz-adv-x="649" d="M87 310v16l4 4l-4 4v8q13 32 144 32l60 4h4l16 4l4 -4l60 4h76q51 0 68 -32v-44l4 -36q-5 -60 -44 -60h-24l-4 4h-4l-4 -4l-12 -4v-4l-20 4h-28l-48 4l-108 -8q-128 13 -128 40zM87 565v16l4 4l-4 4v8q13 32 144 32l60 4h4l16 4l4 -4l60 4h76q51 0 68 -32v-44l4 -36 q-5 -60 -44 -60h-24l-4 4h-4l-4 -4l-12 -4v-4l-20 4h-28l-48 4l-108 -8q-128 13 -128 40z" />
<glyph unicode="&#x3e;" />
<glyph unicode="?" horiz-adv-x="748" d="M132 1144q13 36 72 36l80 12l48 -8l60 8l44 -4l68 4q84 0 84 -100v-68l4 -20h-4l4 -4v-4l-4 -4l4 -4v-4l-4 -4l4 -4v-72l-4 -4l4 -4v-44l-4 -44l4 -4v-4l-4 -4v-4l4 -20q0 -72 -80 -72h-4l-52 4l-52 -8v4q-88 -10 -88 -64q-8 -100 -16 -120l4 -4l-4 -12l-4 -144l4 -16h-4 l4 -4v-72q0 -44 -20 -44l-80 -8q-60 0 -60 80v8h4l-4 4v4l4 12l-4 12h4l-4 4v4l4 4l-4 4v80l4 4l-4 12l-4 104h4l-4 4l4 20v72l-4 16l8 52l-4 4v4q0 84 120 92l64 12v-4l4 4h4l16 -4l4 4l20 -4h24q36 0 36 28v24l-4 20h4l-4 4v4l4 4l-8 24h4q-10 88 -84 88l-172 4 q-36 23 -36 112zM140 84v12q0 33 124 36q40 -20 40 -76v-12q0 -44 -36 -44h-80q-48 0 -48 84z" />
<glyph unicode="@" horiz-adv-x="2019" />
<glyph unicode="A" horiz-adv-x="768" d="M0 1068h4l-4 4v4q0 76 64 104q86 28 108 28h44q80 -1 80 -8l4 4l68 -8l56 4q61 0 100 -44q24 -57 32 -104l-4 -4l24 -212l-4 -20l4 -4v-4l-4 -24v-8l4 -28h-4l4 -4v-8l4 -96l-4 -4v-4l8 -44h-4l4 -4l-4 -60v-32l4 -20h-4q20 -154 28 -324h-4l4 -4v-4q-10 -132 -64 -132 h-8q-128 0 -128 100l-4 28h4l-4 4v32h8v8l-4 -4h-4l-4 4v4l4 4l-4 4v12q-8 158 -16 180l4 12l-4 12h4l-8 52h4l-8 52h4l-8 56h4l-4 4v4l4 4l-4 4v32l-4 28l4 36v76l-4 16l4 4q-14 96 -52 96h-16q-60 0 -60 -20h-8q0 -8 -12 -8l-12 -56v-40l4 -184l-4 -4v-4l4 -16h-4l4 -4 v-12l-4 -4l4 -4v-8l-4 -4l4 -4v-20l-4 -84l16 -208h-4l4 -4v-96l-4 -4l4 -4q-13 -80 -60 -80l-28 4l-12 -4v4l-4 -4h-24q-56 0 -56 160l-8 96l4 16l-4 12h4l-8 52l4 20l-4 4v4l4 4l-8 76h4l-4 4v60l-4 20h4l-4 4v60l-4 28l8 8l-8 8l4 4v4l-4 16l4 16l-8 8v24l8 12l-8 8v8 l4 4l-8 20h8v8h-8v196l-4 20h4l-4 4v8zM20 812h4v20h-4v-20zM20 836h4v16h-4v-16zM232 1008l24 -12q84 4 84 16v12q0 40 -36 40h-8l-32 -4v4l-20 -8l4 -4v-8q-16 0 -16 -36z" />
<glyph unicode="B" horiz-adv-x="742" d="M0 216v68l4 4l-4 4l4 16l4 152h4l-4 4v24l4 4l-4 4l4 40v48l4 4l-4 4v4l4 12l-4 4l4 20v36l4 4l-4 4v4l4 44v8h8v8h-8l4 224l4 24l-4 4l4 20v4l-4 12l4 20v16l-8 24q0 91 60 108l68 20l36 -4l4 4h4l4 -4l60 4h68q168 0 200 -44q25 -53 36 -132h-4l4 -4l-4 -20v-28l-4 -4 l4 -12q0 -20 -12 -20l8 -20q-26 -128 -72 -128l-12 -16q72 -33 72 -208q5 0 12 -96h-4l4 -4v-4l-4 -4l12 -112h-4l4 -4v-4l-4 -4l4 -4v-100l4 -44l-12 -60l4 -4v-4l-4 -4l4 -4q0 -116 -64 -116l-84 -8q-38 0 -252 32l-4 -4h-8l-4 4l-4 -4h-12l-4 4l-4 -4h-4q-108 0 -108 80 h4l-4 4v36l4 4q-8 17 -8 64zM20 684h8v12h-4zM196 1020l20 -56l-4 4h-4v-12h4l4 4h4q5 -24 44 -24h24q32 0 32 52v52q0 21 -20 28l-40 -12q0 8 -12 8q-36 0 -52 -24l4 -20h-4zM220 240q0 -60 20 -60l24 -16l4 4l8 -8h32l16 8l-4 4q12 21 20 80l-4 4v8l4 4l-4 4v4l4 4l-4 4v4 l4 4l-16 116v24q0 68 -8 68l4 20v52q0 76 -16 76h-44q-40 -6 -40 -164v-156l4 -16l-4 -16v-56z" />
<glyph unicode="C" horiz-adv-x="820" d="M0 260h4l-4 4v200l4 16l-4 4l4 20v8h-4l4 20v56l4 4l-4 4v20l4 16l-4 4v4l4 16l-4 4v4l4 4l-4 20v48l4 4l-4 4v176l-4 20h4l-4 4v16l4 4l-4 4v8l4 4l-4 4l8 64l-4 20v88q0 19 132 24l48 -4l152 4h292q60 0 60 -44q8 0 16 -68q-9 -68 -64 -68l-52 4l-128 -8l-4 4h-4 l-40 -8v4q-204 -19 -204 -36l-28 -80l4 -4l-12 -136l4 -4v-4l-4 -12v-8h4l-4 -32l4 -92h-4l4 -4l-4 -40v-24l4 -16l-4 -12l4 -24h-4l4 -4v-4l-4 -4l4 -4v-32l4 -20h-4l20 -132q0 -36 336 -48h12v-4l4 4h56q84 0 84 -68l-8 -56l4 -16h-4l4 -4q-6 -52 -12 -52l4 -4v-4 q0 -8 -36 -16q-40 2 -40 8l-4 -4l-12 4l-148 -8v4l-4 -4h-12l-4 4l-4 -4h-28l-4 4l-4 -4l-200 24l-4 -4q-144 0 -144 56q-6 0 -12 36h4q-20 52 -20 148z" />
<glyph unicode="D" horiz-adv-x="727" d="M0 1080q0 104 72 104v-4l4 4h4l220 4q101 0 148 -144q60 -105 84 -196l32 -148l-4 -4l8 -8l-4 -4l8 -48h-4l8 -36l-4 -20v-8l4 -40h-4l4 -4v-4q-3 -52 -8 -52l4 -4l-4 -20v-12q0 -53 -20 -148l4 -4q-6 0 -20 -80h-4l4 -4v-4q0 -28 -16 -28l4 -16q-28 -81 -84 -108 l-68 -20l-20 4l-76 -16v4l-64 -16l-12 4l-20 -4q-5 16 -36 16h-4l-16 -4q-68 0 -68 56l-8 36h4l-8 40l4 4l-16 144h4l-20 100l12 8l-4 4v16l4 4l-8 24q3 28 8 28l-8 36l4 4l-4 48v40l4 16l-4 4l4 40v52l4 4l-4 4v8l4 4l-8 48l4 4v4l-4 24l4 4l-8 44h4l-4 4v36l4 4 q-16 20 -16 172zM188 812l4 -4v-4l12 -300v-44l-4 -4l4 -4v-4l-4 -16l4 -4v-4l-4 -4l4 -16l-4 -116v-48q0 -36 28 -36q112 15 112 72q12 16 12 32h12l-4 4v4l8 8l-4 4v8l20 56l-4 4v4l4 16l-4 4v4l4 4v4l-4 4l4 20q-8 142 -16 176l4 -4h4v8h-4l-4 -4h-4q-48 236 -88 236 l-52 4h-32v-56z" />
<glyph unicode="E" horiz-adv-x="831" d="M0 216l4 76v24l-4 20l4 24v60l4 4l-4 4v20l8 44h-4l4 4v12l-8 12l4 4l-4 4v144l-4 16l8 28l-4 20q0 20 8 20l-4 4l4 20v36l4 4l-4 4l20 176v68l4 4l-4 4v4l-4 88q3 36 8 36l-4 4v4q0 17 124 20l32 -8l112 4v-4l12 4q92 -7 92 -12l4 4h4l124 -4l36 4l32 -8l4 4 q76 0 76 -56v-84q0 -57 -72 -64v4l-4 -4l-56 8l-104 -8l-4 4h-4l-16 -4l-4 4l-4 -4h-48l-60 -4v4l-4 -4h-64l-4 4l-4 -4l-20 4h-48l-8 -8h4l-8 -24v-8l4 4q10 -8 76 -20h48l224 -40q23 0 32 -84q-19 -88 -88 -88l-312 -24v-4l-4 -32q16 -66 28 -224l-4 -4v-4l8 -56l-4 -16 l4 -36l-4 -4v-4q0 -92 28 -92l84 -16l20 4q299 -29 332 -40q20 -30 20 -44v-32q0 -112 -72 -112l-40 -4l-8 12l-20 -4h-84l-24 -4l-16 4l-16 -4l-144 20l-4 -4h-4q-9 7 -88 12l-4 -4v8l-16 -4l-80 24l-4 -4h-8v8h8q-12 15 -12 56v4l4 4l-8 32l4 20l-4 4v4l4 4v4zM64 12v8h12 v-4z" />
<glyph unicode="F" horiz-adv-x="794" d="M0 872l4 16l-4 12h4l-4 4v4l4 4l-4 4l4 48v68q0 106 40 136l12 -4l68 4h152l4 -4l4 4l16 -4l44 4l56 -4l44 4l56 -12l68 8q100 0 100 -56l-4 -24l8 -56v-20l-24 -24h-4q-64 0 -128 -12v4l-4 -4l-84 8l-12 -4l-16 4l-12 -4v4l-4 -4l-48 8l-4 -4l-12 4l-84 -4h-28l-24 4 q-52 -13 -52 -56v-16l4 -28h-4q11 -48 48 -48l68 4l132 -8h16q48 0 48 -64q0 -72 -104 -72q-168 0 -168 -48v-8l4 -20h-4l8 -32l-4 -64l4 -12l-4 -12l4 -20h-4l4 -4v-4l-4 -4l8 -64h-4l8 -40l-4 -4v-16l4 -12l-8 -128l-4 -4v-4l4 -12h-4l4 -4v-28l-4 -4l4 -4v-48l-4 -24 l4 -4v-4q-16 -60 -60 -60l-28 -4v4l-4 -4q-72 6 -72 20v12l4 4l-4 4v4l4 4q-8 18 -8 52v56l4 4l-8 36l4 28v188l-4 24l4 20v88l-4 16l4 16v28l-4 40l4 20l-4 32h4l-8 48l4 4v4l-4 16l4 4l-4 4v4l4 4z" />
<glyph unicode="G" horiz-adv-x="839" d="M0 464l4 20l4 136l-4 12l4 16l-4 24l4 4v4l-4 4l4 20v32l-4 12l4 20v88l4 4l-4 4v4l4 48l-4 96v16l4 4v4l-8 8q12 128 72 128h76l84 4l16 -4l4 4l20 -4h48q58 0 216 20l24 -4h64q108 -9 108 -64v-48q0 -92 -80 -92l-96 -12h-44l-16 -4l-76 8l-4 -4l-104 12q-80 0 -80 -44 v-16q-12 0 -12 -20v-60l-4 -4l4 -4l-8 -36l4 -4v-4l-4 -4v-4l4 -4l-8 -104l4 -4v-4l-4 -12q9 -288 16 -288l-4 -4v-4q14 -128 56 -128q39 -24 164 -24l60 4q16 26 16 60q0 100 -52 100q-100 11 -100 60l-4 20q9 100 72 100h8v-4l4 4l16 -4l108 12q100 -10 100 -52 q12 0 20 -76q-8 -48 -12 -204l4 -4l-4 -20v-64q-11 -124 -56 -124q0 -10 -132 -16v4l-4 -4l-128 8l-4 -4l-212 24l-16 -4l-84 24l-28 32l4 4v4l-4 4l4 20v8l-4 40h8v8h-8l-4 40h4l-4 4v4l4 4l-4 4v52l4 4l-4 12l-8 156h4zM20 260l4 -12h4v36l-4 4l4 4v8h-4v-8h-4l4 -4v-12z M24 328h4v20h-4v-20z" />
<glyph unicode="H" horiz-adv-x="779" d="M0 828h8v8h-8l8 240l-4 72q9 60 28 60l36 12l96 -8l4 4q112 -12 112 -60l-4 -20l4 -4v-4l-4 -20q6 -48 16 -48l12 4v-4l4 4h48l8 32l-4 28q0 80 32 80l16 4q58 0 84 -8l4 4l36 -8l12 4q36 -27 36 -216l-8 -120l4 -4l-4 -28v-184l-4 -4l4 -4v-16l-4 -4l4 -4v-4l-4 -64 l4 -64h-4l4 -4v-4l-4 -4v-4l4 -4l-4 -20v-88l-4 -4l4 -12l4 -184q0 -152 -88 -152h-16q-128 9 -128 76v4h4l-12 64l4 28v88l4 4l-4 4v4l4 4v4l-4 4l4 20v56q0 122 12 196l-4 4l4 20v60l-4 28h4l-4 4l4 16l8 212q0 27 -32 44l-4 -4h-8l-4 4q-40 0 -40 -32q-8 -24 -8 -136 l-4 -4v-4l4 -16v-28l-4 -4l4 -4q-8 -23 -12 -108l4 -4l-4 -20v-12l4 -36l-4 -40v-32l-4 -4l4 -4l-20 -224l4 -4l-4 -20v-12l4 -20l-4 -24v-24q0 -120 -52 -120q-19 -12 -52 -12h-16q-108 0 -108 96v8h4l-4 4l4 20l-4 4l4 20v184l-4 20h4l-4 4l4 20v4l-4 48l4 60v80l-4 20h4 l-4 4v4l4 20l-4 4v4l4 4l-4 20z" />
<glyph unicode="I" horiz-adv-x="390" d="M0 212l4 20v32q1 68 8 68l-4 4v12l4 4l-4 4v4l4 24l-4 4l4 12l-4 216v76l4 16l-4 4l12 192v24q0 80 -8 80l4 20q0 164 60 164q40 4 40 12q95 0 104 -56l8 -92h-4l4 -4v-4l-4 -4l4 -4v-52l-4 -4l4 -4l-4 -80v-92l-4 -4l4 -4l-4 -16l4 -12l-4 -28l4 -4l-4 -20v-104l-4 -16 l4 -4l-4 -28v-52l-4 -4l4 -4l-8 -40l4 -4l-4 -20v-56l-4 -56l4 -4l-4 -20v-44l-4 -4l4 -4l-8 -52l4 -4l-4 -20v-76q0 -100 -44 -100l-4 4l-76 -8q-68 13 -68 60l4 12l-4 4l4 16l-4 48h4l-4 4v56zM36 568h4v16h-4v-16z" />
<glyph unicode="J" horiz-adv-x="742" d="M0 104h4l-4 4v20q0 44 84 44v-4l4 4h96l4 -4h4l4 4l8 -8q140 10 140 52q7 0 28 124l24 216l-4 4l12 92l-4 4h-4q8 52 16 52l-4 20v28l4 164l4 4v4l-4 4v4l4 28l-4 4l4 20v96q0 104 40 104l124 8l20 -16v-100l4 -80l-4 -40l4 -20h-4l4 -4l-8 -252l4 -12h-4l4 -4 q-8 -419 -16 -480q12 -4 12 -24v-20q-15 -108 -48 -108q0 -17 -184 -32h-76l-20 -4v4l-4 -4h-40l-20 4l-16 -4q-164 0 -164 28q-24 27 -24 76z" />
<glyph unicode="K" horiz-adv-x="805" d="M0 216l4 24v96l4 36l-4 12l4 4l-4 20l8 84l-4 4l4 20v52l4 76l-4 4v4q8 44 8 136v172l4 24l-4 20v56l4 4l-4 4v48q6 84 56 84l80 12h12q60 0 60 -88l4 -16h-4l4 -4v-20l4 -48h4l92 124l60 52l28 -4l40 4v-4l4 4q180 -14 180 -40v-16q0 -38 -184 -176l-76 -72 q20 -65 152 -340q180 -471 180 -508q-24 -60 -40 -60h-8q-184 27 -184 56q-25 0 -84 176q-28 61 -136 428l-48 140h-4q-8 -58 -12 -348h-4l4 -4l-4 -20v-32l-4 -4l4 -4v-36l-4 -4l4 -4l-4 -28v-8l4 -12l-4 -20v-44q0 -196 -44 -196l-64 -4q-52 12 -72 44q-8 16 -8 44v76z " />
<glyph unicode="L" horiz-adv-x="682" d="M0 1036v8l4 148q0 8 76 12v-4l4 4h8l60 -12h28q40 -13 40 -80l4 -56v-60l4 -40h-4l4 -12q-16 -236 -16 -352v-172q0 -196 24 -196l16 -4l56 8h76q168 -13 168 -48l16 -132q0 -44 -176 -44l-48 -4l-12 4l-4 -4h-4q-108 9 -108 16l-4 -4l-20 4h-4l-68 -4q-96 0 -96 56v140 l-8 256l-4 4v4l4 4v8h-4l4 60v64l-4 32l4 32v24l-4 16l4 4l-4 28v28l4 16l-8 64l4 4v4l-4 4v12h4q-12 85 -12 160z" />
<glyph unicode="M" horiz-adv-x="790" d="M0 756h4l-4 4l4 68v112l4 4l-4 4l4 48v28l-4 20h4l-4 4q10 132 68 132h24l4 -4l44 8l40 -4l24 4l12 -8l32 8h16q14 -14 60 -132q8 0 8 -16h8q32 148 52 148l52 4q200 0 200 -24l4 -20l-8 -92v-96l-4 -4l4 -4l-4 -20v-64l-4 -4l4 -4v-4l-4 -100l4 -60l-4 -4l4 -20v-36 l-4 -56l4 -4v-4l-4 -4l4 -24l-8 -140l4 -4l-4 -40v-124l8 -128q-9 -96 -32 -96l-12 4l-84 -12v4l-4 -4q-92 9 -92 64h4q-8 21 -8 84v132l4 16l-4 4l4 20v32l4 4l-4 4v4l4 4v4l-4 24v4l4 4l-4 4v4l4 156l-4 24l4 4l-4 40v68l4 16l-4 16v8h4l-4 20v24l4 4q-8 16 -8 44v56h-4 q-40 -140 -76 -140q-27 0 -68 120l-16 20v-52l-4 -12l4 -20v-108l-4 -112l8 -52l-4 -40l4 -100l-4 -32l4 -4l-4 -28v-44l-4 -36l4 -4v-4l-4 -20l4 -20h-4l4 -4l-4 -20l4 -72q-10 -96 -36 -96l-36 4l-44 -4l-40 4l-44 -4q-36 0 -36 52l-4 152v100l4 24l-4 20l4 12l-4 12 l-4 264h4l-4 4v4z" />
<glyph unicode="N" horiz-adv-x="888" d="M0 128l4 4l-4 28v12l4 4l-4 12l4 176h4l-4 4l4 16l4 120l4 4v4l-4 12l4 52l-4 36h4l-4 4v60l-4 16l4 4v12h-4l4 28v24l4 4l-4 4l12 160v36l4 4l-4 4l4 20l-4 4l4 20v16l-4 36l4 4v4l-4 32q6 116 16 116l24 -8q32 8 132 12l36 -4l28 4q80 -14 80 -68q16 -17 72 -240 l28 -152h-4l48 -236q10 -5 28 -96h4v56l4 4l-4 12l4 4v4l-4 4v4l4 4l-4 12l4 48l-4 116h4l-4 12q0 191 -12 304l4 12l-4 16l4 4v4l-4 20q2 40 8 40l-4 4q9 72 32 72l32 8h136q40 0 40 -64v-176l-4 -16l4 -4l-8 -80l4 -12h-4l4 -4v-4l-12 -308h-4l4 -4l-4 -20v-40l-4 -80 l4 -24l-4 -16l12 -60q0 -264 -48 -264q0 -7 -152 -24q-136 9 -136 32q-7 8 -20 8q-12 16 -20 60h4q-28 73 -108 580q0 54 -24 164h-4v-60l4 -40l-4 -36v-28l-4 -4l4 -4v-128l-12 -200v-168q-7 -156 -40 -156h-8l-116 -4q-48 0 -52 112z" />
<glyph unicode="O" horiz-adv-x="652" d="M0 944q0 240 48 240l24 8v-4q18 8 52 8h60l4 -4l4 4h4l20 -4l32 4q49 -4 56 -12l44 8h24l4 -4l4 4h4l4 -4l64 12q68 -14 68 -56v-76l4 -36l-4 -4v-4l4 -44v-44l-4 -4l4 -4l-4 -40v-76l-4 -44l4 -4v-4l-20 -264l4 -4v-4l-4 -4v-4l4 -4l-8 -48l4 -4q-24 -380 -48 -380 q-19 -44 -44 -44h-8l-68 4l-48 -4h-8v4l-20 -4h-60l-36 4l-40 -4h-68q-44 15 -44 76l-4 12l4 240v68l4 4l-4 4v48l4 36l-4 12h4l-4 4l4 20v36l-4 12l4 20v172l-4 40h4l-4 4v12l4 4q-12 34 -12 120zM100 956h4l8 -8h-4zM200 780l4 -4v-156l4 -20h-4l4 -4l-4 -44l4 -120 l-4 -12l4 -4v-4l-4 -4v-4l4 -12l-4 -16l4 -16h-4l4 -12l-4 -24l4 -4l-4 -28l4 -60l20 -4q52 0 52 56l-4 44h4l-4 4l4 28v60l8 68l-4 40l4 76v20l4 16l-4 4v4l4 4l-8 76l8 216l4 16l-8 32l-4 -4h-4l-20 4q-44 0 -44 -64q-7 0 -8 -28v-40q0 -80 -8 -80z" />
<glyph unicode="P" horiz-adv-x="697" d="M0 1104l4 16l-4 20q7 92 16 92q9 8 56 16v-4l4 4h4l64 4l108 -8l24 4l8 -8h64l16 -4l4 4q116 -8 216 -24q32 -35 32 -120l-4 -16v-16l4 -32l-4 -44v-20q0 -180 -24 -180q-45 -12 -88 -12l-32 4l-12 -4v4l-4 -4h-96l-96 -8h-76v-12l8 -300l-8 -268l4 -12l-4 -4l4 -20v-76 q0 -72 -48 -72l-36 -4v4l-4 -4q-72 8 -72 20l4 4l-4 12l4 12l-4 24l4 4l-4 4v4l4 16l-4 4v4l4 12l-4 12h4l-4 4v12h8v4l-8 16l4 4l-4 28v12l4 4l-4 4v4l4 4l-4 4v8l4 4l-4 4v4l4 12l-4 12h4l-4 4v48l-4 16l4 32l-4 368l-4 20l4 4v4l-8 100l4 4v4l-8 56l4 20l-12 60v20l4 16z M192 976q0 -64 44 -76l160 8v-4l28 8v-4q32 11 32 88l-4 72l-48 16h-20l-12 -8h-68l-4 4l-4 -4h-4l-12 4q-84 0 -84 -28l-4 -20l4 -24v-4l-4 -4l4 -4v-16z" />
<glyph unicode="Q" horiz-adv-x="772" d="M8 210q1 52 8 52l-4 4v4q8 218 16 260l-4 4l4 48v60l-4 16l4 4v4l-8 88l4 48l-8 196l-4 4v4l4 16l-4 4q18 160 96 160q18 16 36 16q128 -3 128 -12l4 4l24 -4q205 0 256 -72q21 -25 32 -148v-8l-4 -40l4 -12h-4l4 -4l-4 -28v-56l-4 -52l4 -44v-4l-4 -24l4 -4l-4 -28v-16 l4 -16l-4 -4v-4l4 -36h-4l4 -4v-4l-16 -228l4 -4l-4 -20v-52l-4 -44l4 -28h-4l4 -4l-16 -168v-28l-4 -24l4 -4l-4 -20v-60q-13 -36 -60 -36l-76 -4h-20q-16 0 -24 100q0 32 -300 64q-35 0 -48 36q-12 37 -12 152zM188 350l4 -20v-48q0 -104 32 -104l52 -12l4 4l68 -8 q3 20 20 20l-4 4v4l8 8l-4 4v12h8v12h-8v4q0 8 12 8v8h-8v20l4 84l-4 60h4l-4 4l8 60l-4 36l4 16l-4 4l4 20v128l4 4l-4 4l4 48v24l4 4l-4 4v4l4 16l-4 16h4l-4 4l4 16q-11 164 -56 164l-44 -8l-4 4h-4l-12 -4l-4 4h-4q-60 -18 -60 -40l4 -60v-180l4 -16q-12 -22 -12 -76 l4 -4v-4l-8 -20l4 -4l-4 -20l-4 -144l4 -16l-4 -20v-8l4 -16z" />
<glyph unicode="R" horiz-adv-x="772" d="M0 452l4 16v28l4 4l-4 4v32l4 4l-4 4v68l-4 24l4 4l-4 28v28l8 236l4 40l-4 4h-4q0 188 28 188l20 4l4 -4l28 4l216 4l12 -4l108 12l4 -4h4l4 4h4l56 -4h16l4 -4l4 4h4q97 -16 100 -48q16 -53 32 -184v-64q-10 -136 -60 -136q0 -9 -84 -20l-64 4h-8q-104 0 -104 -12v-4 q76 -273 156 -448q72 -158 72 -248l-16 -12h-44l-4 4l-4 -4h-8q-116 9 -116 20l-4 -4h-4q-36 0 -112 364l-44 168h-4l-4 -24l4 -4l-8 -60l4 -4q-8 -39 -8 -108v-12l-4 -4l4 -4v-4l-4 -4l4 -20l-4 -16l4 -4l-4 -16l4 -84v-72l-4 -4l4 -4q0 -85 -52 -100l-60 -4q-39 0 -60 52 l4 4l-8 96h4l-12 100h4l-4 4v180zM196 936q13 -56 40 -56l4 4h4l44 -4h12l4 -4l4 4h8l76 -4q18 0 28 48q-8 100 -32 100l-4 -4h-4l-12 4l-4 -4l-20 4h-8l-20 -4v4l-48 -8v4q-10 -8 -40 -8l-4 -4q-24 0 -24 -20h-4l4 -4v-44z" />
<glyph unicode="S" horiz-adv-x="787" d="M0 148h4l-4 4v4q0 52 68 56l216 -24q182 0 192 20v16l16 200q-5 188 -24 188l-40 4h-8l-156 4l-4 4h-4l-4 -4l-40 4h-32q-116 0 -116 40q-20 16 -20 84v112l-4 32l4 32v24q0 240 44 240q0 14 108 20v-4l4 4h4l4 -4l4 4h8l4 -4l4 4h64l4 -4l4 4q24 -3 24 -8l4 4h32l4 -4 l36 8l20 -4l12 4v-4l4 4h152l4 -4l12 4q68 0 68 -88v-24q0 -87 -48 -104h-8v-4l-28 4h-68l-40 -4v4l-4 -4h-56l-16 4l-16 -4h-16l-4 4l-4 -4h-56l-16 -4l-16 4l-20 -4l-4 4q-20 -26 -20 -40v-44q0 -72 16 -72l32 -12l4 4h4l4 -4l4 4h8l4 -4l4 4l20 -4l52 4l100 -8l16 4v-4 l12 4l16 -4l12 4v-4l4 4l16 -4l12 4q80 -18 80 -56l12 -228q-4 -98 -16 -140q8 -55 8 -192v-20l-4 -4l4 -4v-8l-4 -16l4 -4v-4l-4 -16l4 -4q-9 -88 -48 -100l-92 -12v4l-4 -4h-24l-152 -12l-68 4l-20 -4l-20 4l-20 -4l-4 4h-4l-4 -4l-48 8l-4 -4h-48l-40 -4v4l-4 -4h-24 q-28 0 -28 148z" />
<glyph unicode="T" horiz-adv-x="869" d="M0 1120l4 40v12q5 16 36 16h20l4 -4l4 4l100 -4h20l4 -4l4 4h20l284 4l4 4h4l44 -8l12 4l4 -4h4l4 4l20 -4l32 4v-4l4 4l92 -8l4 4h4q30 0 40 -120l8 -84q0 -9 -168 -20l-120 12v-4l-8 -148l8 -104l-4 -16l4 -16h-4l4 -4v-4q5 -280 12 -280l-4 -16l4 -4q-8 -53 -8 -152 v-132l-4 -4l4 -4q0 -76 -40 -76l-60 -8h-8q-7 8 -60 12q-24 16 -24 48l12 200v84l4 4l-4 12l4 16l-4 4v4l4 4l-4 20v12l4 16l-4 4l4 40q-4 416 -16 416h4l-4 4v56q-12 12 -12 28l-4 -4h-12v4l-28 -4q-52 2 -52 8l-12 -4l-4 4l-20 -4h-36q-112 7 -112 24v4l8 12l-12 16v4z " />
<glyph unicode="U" horiz-adv-x="745" d="M0 716l4 4v4l-4 20l4 36l-4 92l4 12l-4 4l4 60v92l4 4l-4 4v12l4 56l-4 4l4 20v40q2 9 32 24l76 -4h20l4 -4l32 8q11 -13 16 -44l-4 -4v-4l16 -96h-4l8 -40l-4 -4q15 -113 24 -556l4 -4l-4 -12l4 -12v-8h-4q11 -220 24 -220q10 -12 72 -24h52q52 0 52 112l-4 16l4 4v4 l-4 28l4 20l-8 92v56l4 4l-4 4l4 68l-4 252h4l-4 4l4 48v168l-4 36l4 4l-4 20v16l4 4l-4 4v4l4 12l-4 4v4l4 12l-4 4v4q7 28 16 28h24l4 -4l4 4h4l4 -4l4 4l64 -8l32 4h4l12 -12v-116l4 -24l-4 -4l4 -28v-236q0 -150 16 -276h-4l4 -4v-8h-4l4 -68v-4l-4 -56l4 -4v-4l-4 -4 v-4l4 -44h-4l4 -4v-132l-4 -4l4 -4l-20 -116q0 -52 -96 -52q-412 23 -412 52q-45 19 -56 240l-8 80l4 4v4q-4 112 -16 184h4l-4 4v132z" />
<glyph unicode="V" horiz-adv-x="798" d="M0 1160l4 12l-4 16l12 12l40 -4l56 8h24q54 0 68 -152q24 -70 36 -172q24 -154 52 -248l-4 -4v-4q15 -55 44 -248q9 0 36 180q0 37 104 596q18 52 76 52l52 -8l56 8q18 -8 20 -16v-4q-24 -97 -52 -320l-56 -248q-28 -81 -72 -284l-76 -280q-24 -52 -72 -52q-40 0 -52 12 l-4 -4q-92 0 -92 64q-32 116 -108 628z" />
<glyph unicode="W" horiz-adv-x="1079" d="M0 1192q0 13 48 16q124 0 124 -32q63 -165 116 -448q12 -29 52 -244l4 -4v-4h-4l44 -128h4l36 60l44 36h8q44 -36 44 -60l44 -72h4q16 0 36 184q45 115 96 416q40 292 92 292q1 8 28 12l32 -4l4 4h4l60 -8l12 4q24 -10 24 -28q-48 -202 -48 -328l-52 -328h-4l4 -4 q-40 -247 -40 -292v-16l-12 -48l4 -12l-48 -112q-21 -40 -96 -40l-4 4h-4l-100 -8q-34 0 -76 112l-4 16h-4q-45 -116 -112 -116l-48 12l-4 -4h-68q-51 0 -64 108l-4 28h4l-28 240l-48 248l4 16q-13 0 -36 196q-50 304 -68 336z" />
<glyph unicode="X" horiz-adv-x="798" d="M0 40q24 39 88 220q6 0 20 52q98 257 116 320l-4 4v20h8v-8h4v8l-4 12h8q0 32 -28 56q-43 131 -148 356q-16 27 -28 88l4 12l-4 16l16 8l180 -4q21 0 52 -144q13 -15 48 -168q16 -64 32 -80q45 119 64 248q20 43 28 116h-4q0 33 48 40l56 -12l4 4h20l60 -4l32 4 q24 -8 24 -16v-12q0 -26 -124 -336l-40 -132v-32q0 -72 88 -336l64 -224l28 -76v-8l-16 -12l-4 4h-4l-12 -4l-36 12v-4l-4 4l-20 -4l-4 4q-12 0 -12 -12h-8l-4 12l-72 -16q-44 0 -44 44l-64 352q-16 29 -24 72h-8l-56 -172q-32 -116 -48 -144l4 -4l-8 -8l8 -8l-4 -12h-8v8 h-4q-37 -144 -64 -144l-152 4q-40 11 -40 36z" />
<glyph unicode="Y" horiz-adv-x="846" d="M0 28l32 80q148 353 188 476v8l-36 100q-145 322 -152 448v32q0 39 92 48h8v-4l4 4h4q100 -13 100 -48q72 -185 72 -280q16 -29 24 -80h8q24 49 84 220l64 188q16 12 44 12l4 -4h4l20 4q120 -17 120 -36v-40q-40 -135 -144 -360q-72 -163 -188 -484q-22 -33 -64 -184 q-30 -53 -48 -104q-22 -24 -72 -24l-28 4l-52 -4h-16q-72 4 -72 28z" />
<glyph unicode="Z" horiz-adv-x="831" d="M0 228v16q0 68 204 400q0 11 144 208l96 140v4l-12 4l-4 -4h-4l-12 4l-12 -4v4l-4 -4h-4l-4 4l-40 -8v4l-4 -4h-56l-84 -8v4l-4 -4h-8l-48 4l-44 -4v4l-4 -4q-80 0 -80 72l-4 40l4 56l-4 12h4l-4 12q2 40 32 40l44 -4l164 16v-4l140 16v-4l4 4h8l4 -4l4 4h4 q196 0 196 -88h-4l32 -216q0 -16 -104 -164q-24 -23 -92 -132q-81 -88 -224 -328q-9 -2 -20 -32q65 16 124 16l24 -4q18 8 52 8l24 -4l16 4v-4l4 4l60 -4h28l4 -4l4 4h12l4 -4l4 4h24q88 0 88 -64l16 -144v-32l-4 -24l4 -12l-12 -16l-136 -4h-12l-4 4l-4 -4l-64 8l-12 -4v4 l-4 -4h-96l-132 4l-28 -4l-40 4l-24 -4l-4 4l-56 -8q-10 0 -48 56l4 4z" />
<glyph unicode="[" horiz-adv-x="758" />
<glyph unicode="\" horiz-adv-x="569" d="M0 1184l12 8h28l12 -8l20 12q156 0 156 -56q35 -85 92 -328q24 -70 80 -328q12 -20 108 -408v-32q0 -44 -120 -44q-47 0 -64 44l-136 548q-54 226 -136 444q-24 52 -52 148z" />
<glyph unicode="]" horiz-adv-x="758" />
<glyph unicode="^" />
<glyph unicode="_" horiz-adv-x="817" d="M0 152l16 20h12l12 -8q21 20 160 20h4l28 4v-4l4 4h48l116 -4l4 4l20 -4h28q196 0 196 -36l12 -84q0 -32 -124 -32l-100 -20v4l-160 -16h-20q-220 11 -220 24q-32 29 -32 104h4z" />
<glyph unicode="`" horiz-adv-x="1024" d="M359 1139l28 -8h65q22 0 37 112l14 4q19 -8 52 -8q51 11 51 56v8q0 38 -14 64l-126 4h-14q-74 -13 -74 -48z" />
<glyph unicode="a" horiz-adv-x="768" d="M0 1068h4l-4 4v4q0 76 64 104q86 28 108 28h44q80 -1 80 -8l4 4l68 -8l56 4q61 0 100 -44q24 -57 32 -104l-4 -4l24 -212l-4 -20l4 -4v-4l-4 -24v-8l4 -28h-4l4 -4v-8l4 -96l-4 -4v-4l8 -44h-4l4 -4l-4 -60v-32l4 -20h-4q20 -154 28 -324h-4l4 -4v-4q-10 -132 -64 -132 h-8q-128 0 -128 100l-4 28h4l-4 4v32h8v8l-4 -4h-4l-4 4v4l4 4l-4 4v12q-8 158 -16 180l4 12l-4 12h4l-8 52h4l-8 52h4l-8 56h4l-4 4v4l4 4l-4 4v32l-4 28l4 36v76l-4 16l4 4q-14 96 -52 96h-16q-60 0 -60 -20h-8q0 -8 -12 -8l-12 -56v-40l4 -184l-4 -4v-4l4 -16h-4l4 -4 v-12l-4 -4l4 -4v-8l-4 -4l4 -4v-20l-4 -84l16 -208h-4l4 -4v-96l-4 -4l4 -4q-13 -80 -60 -80l-28 4l-12 -4v4l-4 -4h-24q-56 0 -56 160l-8 96l4 16l-4 12h4l-8 52l4 20l-4 4v4l4 4l-8 76h4l-4 4v60l-4 20h4l-4 4v60l-4 28l8 8l-8 8l4 4v4l-4 16l4 16l-8 8v24l8 12l-8 8v8 l4 4l-8 20h8v8h-8v196l-4 20h4l-4 4v8zM20 812h4v20h-4v-20zM20 836h4v16h-4v-16zM232 1008l24 -12q84 4 84 16v12q0 40 -36 40h-8l-32 -4v4l-20 -8l4 -4v-8q-16 0 -16 -36z" />
<glyph unicode="b" horiz-adv-x="742" d="M0 216v68l4 4l-4 4l4 16l4 152h4l-4 4v24l4 4l-4 4l4 40v48l4 4l-4 4v4l4 12l-4 4l4 20v36l4 4l-4 4v4l4 44v8h8v8h-8l4 224l4 24l-4 4l4 20v4l-4 12l4 20v16l-8 24q0 91 60 108l68 20l36 -4l4 4h4l4 -4l60 4h68q168 0 200 -44q25 -53 36 -132h-4l4 -4l-4 -20v-28l-4 -4 l4 -12q0 -20 -12 -20l8 -20q-26 -128 -72 -128l-12 -16q72 -33 72 -208q5 0 12 -96h-4l4 -4v-4l-4 -4l12 -112h-4l4 -4v-4l-4 -4l4 -4v-100l4 -44l-12 -60l4 -4v-4l-4 -4l4 -4q0 -116 -64 -116l-84 -8q-38 0 -252 32l-4 -4h-8l-4 4l-4 -4h-12l-4 4l-4 -4h-4q-108 0 -108 80 h4l-4 4v36l4 4q-8 17 -8 64zM20 684h8v12h-4zM196 1020l20 -56l-4 4h-4v-12h4l4 4h4q5 -24 44 -24h24q32 0 32 52v52q0 21 -20 28l-40 -12q0 8 -12 8q-36 0 -52 -24l4 -20h-4zM220 240q0 -60 20 -60l24 -16l4 4l8 -8h32l16 8l-4 4q12 21 20 80l-4 4v8l4 4l-4 4v4l4 4l-4 4v4 l4 4l-16 116v24q0 68 -8 68l4 20v52q0 76 -16 76h-44q-40 -6 -40 -164v-156l4 -16l-4 -16v-56z" />
<glyph unicode="c" horiz-adv-x="820" d="M0 260h4l-4 4v200l4 16l-4 4l4 20v8h-4l4 20v56l4 4l-4 4v20l4 16l-4 4v4l4 16l-4 4v4l4 4l-4 20v48l4 4l-4 4v176l-4 20h4l-4 4v16l4 4l-4 4v8l4 4l-4 4l8 64l-4 20v88q0 19 132 24l48 -4l152 4h292q60 0 60 -44q8 0 16 -68q-9 -68 -64 -68l-52 4l-128 -8l-4 4h-4 l-40 -8v4q-204 -19 -204 -36l-28 -80l4 -4l-12 -136l4 -4v-4l-4 -12v-8h4l-4 -32l4 -92h-4l4 -4l-4 -40v-24l4 -16l-4 -12l4 -24h-4l4 -4v-4l-4 -4l4 -4v-32l4 -20h-4l20 -132q0 -36 336 -48h12v-4l4 4h56q84 0 84 -68l-8 -56l4 -16h-4l4 -4q-6 -52 -12 -52l4 -4v-4 q0 -8 -36 -16q-40 2 -40 8l-4 -4l-12 4l-148 -8v4l-4 -4h-12l-4 4l-4 -4h-28l-4 4l-4 -4l-200 24l-4 -4q-144 0 -144 56q-6 0 -12 36h4q-20 52 -20 148z" />
<glyph unicode="d" horiz-adv-x="727" d="M0 1080q0 104 72 104v-4l4 4h4l220 4q101 0 148 -144q60 -105 84 -196l32 -148l-4 -4l8 -8l-4 -4l8 -48h-4l8 -36l-4 -20v-8l4 -40h-4l4 -4v-4q-3 -52 -8 -52l4 -4l-4 -20v-12q0 -53 -20 -148l4 -4q-6 0 -20 -80h-4l4 -4v-4q0 -28 -16 -28l4 -16q-28 -81 -84 -108 l-68 -20l-20 4l-76 -16v4l-64 -16l-12 4l-20 -4q-5 16 -36 16h-4l-16 -4q-68 0 -68 56l-8 36h4l-8 40l4 4l-16 144h4l-20 100l12 8l-4 4v16l4 4l-8 24q3 28 8 28l-8 36l4 4l-4 48v40l4 16l-4 4l4 40v52l4 4l-4 4v8l4 4l-8 48l4 4v4l-4 24l4 4l-8 44h4l-4 4v36l4 4 q-16 20 -16 172zM188 812l4 -4v-4l12 -300v-44l-4 -4l4 -4v-4l-4 -16l4 -4v-4l-4 -4l4 -16l-4 -116v-48q0 -36 28 -36q112 15 112 72q12 16 12 32h12l-4 4v4l8 8l-4 4v8l20 56l-4 4v4l4 16l-4 4v4l4 4v4l-4 4l4 20q-8 142 -16 176l4 -4h4v8h-4l-4 -4h-4q-48 236 -88 236 l-52 4h-32v-56z" />
<glyph unicode="e" horiz-adv-x="831" d="M0 216l4 76v24l-4 20l4 24v60l4 4l-4 4v20l8 44h-4l4 4v12l-8 12l4 4l-4 4v144l-4 16l8 28l-4 20q0 20 8 20l-4 4l4 20v36l4 4l-4 4l20 176v68l4 4l-4 4v4l-4 88q3 36 8 36l-4 4v4q0 17 124 20l32 -8l112 4v-4l12 4q92 -7 92 -12l4 4h4l124 -4l36 4l32 -8l4 4 q76 0 76 -56v-84q0 -57 -72 -64v4l-4 -4l-56 8l-104 -8l-4 4h-4l-16 -4l-4 4l-4 -4h-48l-60 -4v4l-4 -4h-64l-4 4l-4 -4l-20 4h-48l-8 -8h4l-8 -24v-8l4 4q10 -8 76 -20h48l224 -40q23 0 32 -84q-19 -88 -88 -88l-312 -24v-4l-4 -32q16 -66 28 -224l-4 -4v-4l8 -56l-4 -16 l4 -36l-4 -4v-4q0 -92 28 -92l84 -16l20 4q299 -29 332 -40q20 -30 20 -44v-32q0 -112 -72 -112l-40 -4l-8 12l-20 -4h-84l-24 -4l-16 4l-16 -4l-144 20l-4 -4h-4q-9 7 -88 12l-4 -4v8l-16 -4l-80 24l-4 -4h-8v8h8q-12 15 -12 56v4l4 4l-8 32l4 20l-4 4v4l4 4v4zM64 12v8h12 v-4z" />
<glyph unicode="f" horiz-adv-x="794" d="M0 872l4 16l-4 12h4l-4 4v4l4 4l-4 4l4 48v68q0 106 40 136l12 -4l68 4h152l4 -4l4 4l16 -4l44 4l56 -4l44 4l56 -12l68 8q100 0 100 -56l-4 -24l8 -56v-20l-24 -24h-4q-64 0 -128 -12v4l-4 -4l-84 8l-12 -4l-16 4l-12 -4v4l-4 -4l-48 8l-4 -4l-12 4l-84 -4h-28l-24 4 q-52 -13 -52 -56v-16l4 -28h-4q11 -48 48 -48l68 4l132 -8h16q48 0 48 -64q0 -72 -104 -72q-168 0 -168 -48v-8l4 -20h-4l8 -32l-4 -64l4 -12l-4 -12l4 -20h-4l4 -4v-4l-4 -4l8 -64h-4l8 -40l-4 -4v-16l4 -12l-8 -128l-4 -4v-4l4 -12h-4l4 -4v-28l-4 -4l4 -4v-48l-4 -24 l4 -4v-4q-16 -60 -60 -60l-28 -4v4l-4 -4q-72 6 -72 20v12l4 4l-4 4v4l4 4q-8 18 -8 52v56l4 4l-8 36l4 28v188l-4 24l4 20v88l-4 16l4 16v28l-4 40l4 20l-4 32h4l-8 48l4 4v4l-4 16l4 4l-4 4v4l4 4z" />
<glyph unicode="g" horiz-adv-x="839" d="M0 464l4 20l4 136l-4 12l4 16l-4 24l4 4v4l-4 4l4 20v32l-4 12l4 20v88l4 4l-4 4v4l4 48l-4 96v16l4 4v4l-8 8q12 128 72 128h76l84 4l16 -4l4 4l20 -4h48q58 0 216 20l24 -4h64q108 -9 108 -64v-48q0 -92 -80 -92l-96 -12h-44l-16 -4l-76 8l-4 -4l-104 12q-80 0 -80 -44 v-16q-12 0 -12 -20v-60l-4 -4l4 -4l-8 -36l4 -4v-4l-4 -4v-4l4 -4l-8 -104l4 -4v-4l-4 -12q9 -288 16 -288l-4 -4v-4q14 -128 56 -128q39 -24 164 -24l60 4q16 26 16 60q0 100 -52 100q-100 11 -100 60l-4 20q9 100 72 100h8v-4l4 4l16 -4l108 12q100 -10 100 -52 q12 0 20 -76q-8 -48 -12 -204l4 -4l-4 -20v-64q-11 -124 -56 -124q0 -10 -132 -16v4l-4 -4l-128 8l-4 -4l-212 24l-16 -4l-84 24l-28 32l4 4v4l-4 4l4 20v8l-4 40h8v8h-8l-4 40h4l-4 4v4l4 4l-4 4v52l4 4l-4 12l-8 156h4zM20 260l4 -12h4v36l-4 4l4 4v8h-4v-8h-4l4 -4v-12z M24 328h4v20h-4v-20z" />
<glyph unicode="h" horiz-adv-x="779" d="M0 828h8v8h-8l8 240l-4 72q9 60 28 60l36 12l96 -8l4 4q112 -12 112 -60l-4 -20l4 -4v-4l-4 -20q6 -48 16 -48l12 4v-4l4 4h48l8 32l-4 28q0 80 32 80l16 4q58 0 84 -8l4 4l36 -8l12 4q36 -27 36 -216l-8 -120l4 -4l-4 -28v-184l-4 -4l4 -4v-16l-4 -4l4 -4v-4l-4 -64 l4 -64h-4l4 -4v-4l-4 -4v-4l4 -4l-4 -20v-88l-4 -4l4 -12l4 -184q0 -152 -88 -152h-16q-128 9 -128 76v4h4l-12 64l4 28v88l4 4l-4 4v4l4 4v4l-4 4l4 20v56q0 122 12 196l-4 4l4 20v60l-4 28h4l-4 4l4 16l8 212q0 27 -32 44l-4 -4h-8l-4 4q-40 0 -40 -32q-8 -24 -8 -136 l-4 -4v-4l4 -16v-28l-4 -4l4 -4q-8 -23 -12 -108l4 -4l-4 -20v-12l4 -36l-4 -40v-32l-4 -4l4 -4l-20 -224l4 -4l-4 -20v-12l4 -20l-4 -24v-24q0 -120 -52 -120q-19 -12 -52 -12h-16q-108 0 -108 96v8h4l-4 4l4 20l-4 4l4 20v184l-4 20h4l-4 4l4 20v4l-4 48l4 60v80l-4 20h4 l-4 4v4l4 20l-4 4v4l4 4l-4 20z" />
<glyph unicode="i" horiz-adv-x="390" d="M0 212l4 20v32q1 68 8 68l-4 4v12l4 4l-4 4v4l4 24l-4 4l4 12l-4 216v76l4 16l-4 4l12 192v24q0 80 -8 80l4 20q0 164 60 164q40 4 40 12q95 0 104 -56l8 -92h-4l4 -4v-4l-4 -4l4 -4v-52l-4 -4l4 -4l-4 -80v-92l-4 -4l4 -4l-4 -16l4 -12l-4 -28l4 -4l-4 -20v-104l-4 -16 l4 -4l-4 -28v-52l-4 -4l4 -4l-8 -40l4 -4l-4 -20v-56l-4 -56l4 -4l-4 -20v-44l-4 -4l4 -4l-8 -52l4 -4l-4 -20v-76q0 -100 -44 -100l-4 4l-76 -8q-68 13 -68 60l4 12l-4 4l4 16l-4 48h4l-4 4v56zM36 568h4v16h-4v-16z" />
<glyph unicode="j" horiz-adv-x="742" d="M0 104h4l-4 4v20q0 44 84 44v-4l4 4h96l4 -4h4l4 4l8 -8q140 10 140 52q7 0 28 124l24 216l-4 4l12 92l-4 4h-4q8 52 16 52l-4 20v28l4 164l4 4v4l-4 4v4l4 28l-4 4l4 20v96q0 104 40 104l124 8l20 -16v-100l4 -80l-4 -40l4 -20h-4l4 -4l-8 -252l4 -12h-4l4 -4 q-8 -419 -16 -480q12 -4 12 -24v-20q-15 -108 -48 -108q0 -17 -184 -32h-76l-20 -4v4l-4 -4h-40l-20 4l-16 -4q-164 0 -164 28q-24 27 -24 76z" />
<glyph unicode="k" horiz-adv-x="805" d="M0 216l4 24v96l4 36l-4 12l4 4l-4 20l8 84l-4 4l4 20v52l4 76l-4 4v4q8 44 8 136v172l4 24l-4 20v56l4 4l-4 4v48q6 84 56 84l80 12h12q60 0 60 -88l4 -16h-4l4 -4v-20l4 -48h4l92 124l60 52l28 -4l40 4v-4l4 4q180 -14 180 -40v-16q0 -38 -184 -176l-76 -72 q20 -65 152 -340q180 -471 180 -508q-24 -60 -40 -60h-8q-184 27 -184 56q-25 0 -84 176q-28 61 -136 428l-48 140h-4q-8 -58 -12 -348h-4l4 -4l-4 -20v-32l-4 -4l4 -4v-36l-4 -4l4 -4l-4 -28v-8l4 -12l-4 -20v-44q0 -196 -44 -196l-64 -4q-52 12 -72 44q-8 16 -8 44v76z " />
<glyph unicode="l" horiz-adv-x="682" d="M0 1036v8l4 148q0 8 76 12v-4l4 4h8l60 -12h28q40 -13 40 -80l4 -56v-60l4 -40h-4l4 -12q-16 -236 -16 -352v-172q0 -196 24 -196l16 -4l56 8h76q168 -13 168 -48l16 -132q0 -44 -176 -44l-48 -4l-12 4l-4 -4h-4q-108 9 -108 16l-4 -4l-20 4h-4l-68 -4q-96 0 -96 56v140 l-8 256l-4 4v4l4 4v8h-4l4 60v64l-4 32l4 32v24l-4 16l4 4l-4 28v28l4 16l-8 64l4 4v4l-4 4v12h4q-12 85 -12 160z" />
<glyph unicode="m" horiz-adv-x="790" d="M0 756h4l-4 4l4 68v112l4 4l-4 4l4 48v28l-4 20h4l-4 4q10 132 68 132h24l4 -4l44 8l40 -4l24 4l12 -8l32 8h16q14 -14 60 -132q8 0 8 -16h8q32 148 52 148l52 4q200 0 200 -24l4 -20l-8 -92v-96l-4 -4l4 -4l-4 -20v-64l-4 -4l4 -4v-4l-4 -100l4 -60l-4 -4l4 -20v-36 l-4 -56l4 -4v-4l-4 -4l4 -24l-8 -140l4 -4l-4 -40v-124l8 -128q-9 -96 -32 -96l-12 4l-84 -12v4l-4 -4q-92 9 -92 64h4q-8 21 -8 84v132l4 16l-4 4l4 20v32l4 4l-4 4v4l4 4v4l-4 24v4l4 4l-4 4v4l4 156l-4 24l4 4l-4 40v68l4 16l-4 16v8h4l-4 20v24l4 4q-8 16 -8 44v56h-4 q-40 -140 -76 -140q-27 0 -68 120l-16 20v-52l-4 -12l4 -20v-108l-4 -112l8 -52l-4 -40l4 -100l-4 -32l4 -4l-4 -28v-44l-4 -36l4 -4v-4l-4 -20l4 -20h-4l4 -4l-4 -20l4 -72q-10 -96 -36 -96l-36 4l-44 -4l-40 4l-44 -4q-36 0 -36 52l-4 152v100l4 24l-4 20l4 12l-4 12 l-4 264h4l-4 4v4z" />
<glyph unicode="n" horiz-adv-x="888" d="M0 128l4 4l-4 28v12l4 4l-4 12l4 176h4l-4 4l4 16l4 120l4 4v4l-4 12l4 52l-4 36h4l-4 4v60l-4 16l4 4v12h-4l4 28v24l4 4l-4 4l12 160v36l4 4l-4 4l4 20l-4 4l4 20v16l-4 36l4 4v4l-4 32q6 116 16 116l24 -8q32 8 132 12l36 -4l28 4q80 -14 80 -68q16 -17 72 -240 l28 -152h-4l48 -236q10 -5 28 -96h4v56l4 4l-4 12l4 4v4l-4 4v4l4 4l-4 12l4 48l-4 116h4l-4 12q0 191 -12 304l4 12l-4 16l4 4v4l-4 20q2 40 8 40l-4 4q9 72 32 72l32 8h136q40 0 40 -64v-176l-4 -16l4 -4l-8 -80l4 -12h-4l4 -4v-4l-12 -308h-4l4 -4l-4 -20v-40l-4 -80 l4 -24l-4 -16l12 -60q0 -264 -48 -264q0 -7 -152 -24q-136 9 -136 32q-7 8 -20 8q-12 16 -20 60h4q-28 73 -108 580q0 54 -24 164h-4v-60l4 -40l-4 -36v-28l-4 -4l4 -4v-128l-12 -200v-168q-7 -156 -40 -156h-8l-116 -4q-48 0 -52 112z" />
<glyph unicode="o" horiz-adv-x="652" d="M0 944q0 240 48 240l24 8v-4q18 8 52 8h60l4 -4l4 4h4l20 -4l32 4q49 -4 56 -12l44 8h24l4 -4l4 4h4l4 -4l64 12q68 -14 68 -56v-76l4 -36l-4 -4v-4l4 -44v-44l-4 -4l4 -4l-4 -40v-76l-4 -44l4 -4v-4l-20 -264l4 -4v-4l-4 -4v-4l4 -4l-8 -48l4 -4q-24 -380 -48 -380 q-19 -44 -44 -44h-8l-68 4l-48 -4h-8v4l-20 -4h-60l-36 4l-40 -4h-68q-44 15 -44 76l-4 12l4 240v68l4 4l-4 4v48l4 36l-4 12h4l-4 4l4 20v36l-4 12l4 20v172l-4 40h4l-4 4v12l4 4q-12 34 -12 120zM100 956h4l8 -8h-4zM200 780l4 -4v-156l4 -20h-4l4 -4l-4 -44l4 -120 l-4 -12l4 -4v-4l-4 -4v-4l4 -12l-4 -16l4 -16h-4l4 -12l-4 -24l4 -4l-4 -28l4 -60l20 -4q52 0 52 56l-4 44h4l-4 4l4 28v60l8 68l-4 40l4 76v20l4 16l-4 4v4l4 4l-8 76l8 216l4 16l-8 32l-4 -4h-4l-20 4q-44 0 -44 -64q-7 0 -8 -28v-40q0 -80 -8 -80z" />
<glyph unicode="p" horiz-adv-x="697" d="M0 1104l4 16l-4 20q7 92 16 92q9 8 56 16v-4l4 4h4l64 4l108 -8l24 4l8 -8h64l16 -4l4 4q116 -8 216 -24q32 -35 32 -120l-4 -16v-16l4 -32l-4 -44v-20q0 -180 -24 -180q-45 -12 -88 -12l-32 4l-12 -4v4l-4 -4h-96l-96 -8h-76v-12l8 -300l-8 -268l4 -12l-4 -4l4 -20v-76 q0 -72 -48 -72l-36 -4v4l-4 -4q-72 8 -72 20l4 4l-4 12l4 12l-4 24l4 4l-4 4v4l4 16l-4 4v4l4 12l-4 12h4l-4 4v12h8v4l-8 16l4 4l-4 28v12l4 4l-4 4v4l4 4l-4 4v8l4 4l-4 4v4l4 12l-4 12h4l-4 4v48l-4 16l4 32l-4 368l-4 20l4 4v4l-8 100l4 4v4l-8 56l4 20l-12 60v20l4 16z M192 976q0 -64 44 -76l160 8v-4l28 8v-4q32 11 32 88l-4 72l-48 16h-20l-12 -8h-68l-4 4l-4 -4h-4l-12 4q-84 0 -84 -28l-4 -20l4 -24v-4l-4 -4l4 -4v-16z" />
<glyph unicode="q" horiz-adv-x="772" d="M8 210q1 52 8 52l-4 4v4q8 218 16 260l-4 4l4 48v60l-4 16l4 4v4l-8 88l4 48l-8 196l-4 4v4l4 16l-4 4q18 160 96 160q18 16 36 16q128 -3 128 -12l4 4l24 -4q205 0 256 -72q21 -25 32 -148v-8l-4 -40l4 -12h-4l4 -4l-4 -28v-56l-4 -52l4 -44v-4l-4 -24l4 -4l-4 -28v-16 l4 -16l-4 -4v-4l4 -36h-4l4 -4v-4l-16 -228l4 -4l-4 -20v-52l-4 -44l4 -28h-4l4 -4l-16 -168v-28l-4 -24l4 -4l-4 -20v-60q-13 -36 -60 -36l-76 -4h-20q-16 0 -24 100q0 32 -300 64q-35 0 -48 36q-12 37 -12 152zM188 350l4 -20v-48q0 -104 32 -104l52 -12l4 4l68 -8 q3 20 20 20l-4 4v4l8 8l-4 4v12h8v12h-8v4q0 8 12 8v8h-8v20l4 84l-4 60h4l-4 4l8 60l-4 36l4 16l-4 4l4 20v128l4 4l-4 4l4 48v24l4 4l-4 4v4l4 16l-4 16h4l-4 4l4 16q-11 164 -56 164l-44 -8l-4 4h-4l-12 -4l-4 4h-4q-60 -18 -60 -40l4 -60v-180l4 -16q-12 -22 -12 -76 l4 -4v-4l-8 -20l4 -4l-4 -20l-4 -144l4 -16l-4 -20v-8l4 -16z" />
<glyph unicode="r" horiz-adv-x="772" d="M0 452l4 16v28l4 4l-4 4v32l4 4l-4 4v68l-4 24l4 4l-4 28v28l8 236l4 40l-4 4h-4q0 188 28 188l20 4l4 -4l28 4l216 4l12 -4l108 12l4 -4h4l4 4h4l56 -4h16l4 -4l4 4h4q97 -16 100 -48q16 -53 32 -184v-64q-10 -136 -60 -136q0 -9 -84 -20l-64 4h-8q-104 0 -104 -12v-4 q76 -273 156 -448q72 -158 72 -248l-16 -12h-44l-4 4l-4 -4h-8q-116 9 -116 20l-4 -4h-4q-36 0 -112 364l-44 168h-4l-4 -24l4 -4l-8 -60l4 -4q-8 -39 -8 -108v-12l-4 -4l4 -4v-4l-4 -4l4 -20l-4 -16l4 -4l-4 -16l4 -84v-72l-4 -4l4 -4q0 -85 -52 -100l-60 -4q-39 0 -60 52 l4 4l-8 96h4l-12 100h4l-4 4v180zM196 936q13 -56 40 -56l4 4h4l44 -4h12l4 -4l4 4h8l76 -4q18 0 28 48q-8 100 -32 100l-4 -4h-4l-12 4l-4 -4l-20 4h-8l-20 -4v4l-48 -8v4q-10 -8 -40 -8l-4 -4q-24 0 -24 -20h-4l4 -4v-44z" />
<glyph unicode="s" horiz-adv-x="787" d="M0 148h4l-4 4v4q0 52 68 56l216 -24q182 0 192 20v16l16 200q-5 188 -24 188l-40 4h-8l-156 4l-4 4h-4l-4 -4l-40 4h-32q-116 0 -116 40q-20 16 -20 84v112l-4 32l4 32v24q0 240 44 240q0 14 108 20v-4l4 4h4l4 -4l4 4h8l4 -4l4 4h64l4 -4l4 4q24 -3 24 -8l4 4h32l4 -4 l36 8l20 -4l12 4v-4l4 4h152l4 -4l12 4q68 0 68 -88v-24q0 -87 -48 -104h-8v-4l-28 4h-68l-40 -4v4l-4 -4h-56l-16 4l-16 -4h-16l-4 4l-4 -4h-56l-16 -4l-16 4l-20 -4l-4 4q-20 -26 -20 -40v-44q0 -72 16 -72l32 -12l4 4h4l4 -4l4 4h8l4 -4l4 4l20 -4l52 4l100 -8l16 4v-4 l12 4l16 -4l12 4v-4l4 4l16 -4l12 4q80 -18 80 -56l12 -228q-4 -98 -16 -140q8 -55 8 -192v-20l-4 -4l4 -4v-8l-4 -16l4 -4v-4l-4 -16l4 -4q-9 -88 -48 -100l-92 -12v4l-4 -4h-24l-152 -12l-68 4l-20 -4l-20 4l-20 -4l-4 4h-4l-4 -4l-48 8l-4 -4h-48l-40 -4v4l-4 -4h-24 q-28 0 -28 148z" />
<glyph unicode="t" horiz-adv-x="869" d="M0 1120l4 40v12q5 16 36 16h20l4 -4l4 4l100 -4h20l4 -4l4 4h20l284 4l4 4h4l44 -8l12 4l4 -4h4l4 4l20 -4l32 4v-4l4 4l92 -8l4 4h4q30 0 40 -120l8 -84q0 -9 -168 -20l-120 12v-4l-8 -148l8 -104l-4 -16l4 -16h-4l4 -4v-4q5 -280 12 -280l-4 -16l4 -4q-8 -53 -8 -152 v-132l-4 -4l4 -4q0 -76 -40 -76l-60 -8h-8q-7 8 -60 12q-24 16 -24 48l12 200v84l4 4l-4 12l4 16l-4 4v4l4 4l-4 20v12l4 16l-4 4l4 40q-4 416 -16 416h4l-4 4v56q-12 12 -12 28l-4 -4h-12v4l-28 -4q-52 2 -52 8l-12 -4l-4 4l-20 -4h-36q-112 7 -112 24v4l8 12l-12 16v4z " />
<glyph unicode="u" horiz-adv-x="745" d="M0 716l4 4v4l-4 20l4 36l-4 92l4 12l-4 4l4 60v92l4 4l-4 4v12l4 56l-4 4l4 20v40q2 9 32 24l76 -4h20l4 -4l32 8q11 -13 16 -44l-4 -4v-4l16 -96h-4l8 -40l-4 -4q15 -113 24 -556l4 -4l-4 -12l4 -12v-8h-4q11 -220 24 -220q10 -12 72 -24h52q52 0 52 112l-4 16l4 4v4 l-4 28l4 20l-8 92v56l4 4l-4 4l4 68l-4 252h4l-4 4l4 48v168l-4 36l4 4l-4 20v16l4 4l-4 4v4l4 12l-4 4v4l4 12l-4 4v4q7 28 16 28h24l4 -4l4 4h4l4 -4l4 4l64 -8l32 4h4l12 -12v-116l4 -24l-4 -4l4 -28v-236q0 -150 16 -276h-4l4 -4v-8h-4l4 -68v-4l-4 -56l4 -4v-4l-4 -4 v-4l4 -44h-4l4 -4v-132l-4 -4l4 -4l-20 -116q0 -52 -96 -52q-412 23 -412 52q-45 19 -56 240l-8 80l4 4v4q-4 112 -16 184h4l-4 4v132z" />
<glyph unicode="v" horiz-adv-x="798" d="M0 1160l4 12l-4 16l12 12l40 -4l56 8h24q54 0 68 -152q24 -70 36 -172q24 -154 52 -248l-4 -4v-4q15 -55 44 -248q9 0 36 180q0 37 104 596q18 52 76 52l52 -8l56 8q18 -8 20 -16v-4q-24 -97 -52 -320l-56 -248q-28 -81 -72 -284l-76 -280q-24 -52 -72 -52q-40 0 -52 12 l-4 -4q-92 0 -92 64q-32 116 -108 628z" />
<glyph unicode="w" horiz-adv-x="1079" d="M0 1192q0 13 48 16q124 0 124 -32q63 -165 116 -448q12 -29 52 -244l4 -4v-4h-4l44 -128h4l36 60l44 36h8q44 -36 44 -60l44 -72h4q16 0 36 184q45 115 96 416q40 292 92 292q1 8 28 12l32 -4l4 4h4l60 -8l12 4q24 -10 24 -28q-48 -202 -48 -328l-52 -328h-4l4 -4 q-40 -247 -40 -292v-16l-12 -48l4 -12l-48 -112q-21 -40 -96 -40l-4 4h-4l-100 -8q-34 0 -76 112l-4 16h-4q-45 -116 -112 -116l-48 12l-4 -4h-68q-51 0 -64 108l-4 28h4l-28 240l-48 248l4 16q-13 0 -36 196q-50 304 -68 336z" />
<glyph unicode="x" horiz-adv-x="798" d="M0 40q24 39 88 220q6 0 20 52q98 257 116 320l-4 4v20h8v-8h4v8l-4 12h8q0 32 -28 56q-43 131 -148 356q-16 27 -28 88l4 12l-4 16l16 8l180 -4q21 0 52 -144q13 -15 48 -168q16 -64 32 -80q45 119 64 248q20 43 28 116h-4q0 33 48 40l56 -12l4 4h20l60 -4l32 4 q24 -8 24 -16v-12q0 -26 -124 -336l-40 -132v-32q0 -72 88 -336l64 -224l28 -76v-8l-16 -12l-4 4h-4l-12 -4l-36 12v-4l-4 4l-20 -4l-4 4q-12 0 -12 -12h-8l-4 12l-72 -16q-44 0 -44 44l-64 352q-16 29 -24 72h-8l-56 -172q-32 -116 -48 -144l4 -4l-8 -8l8 -8l-4 -12h-8v8 h-4q-37 -144 -64 -144l-152 4q-40 11 -40 36z" />
<glyph unicode="y" horiz-adv-x="846" d="M0 28l32 80q148 353 188 476v8l-36 100q-145 322 -152 448v32q0 39 92 48h8v-4l4 4h4q100 -13 100 -48q72 -185 72 -280q16 -29 24 -80h8q24 49 84 220l64 188q16 12 44 12l4 -4h4l20 4q120 -17 120 -36v-40q-40 -135 -144 -360q-72 -163 -188 -484q-22 -33 -64 -184 q-30 -53 -48 -104q-22 -24 -72 -24l-28 4l-52 -4h-16q-72 4 -72 28z" />
<glyph unicode="z" horiz-adv-x="831" d="M0 228v16q0 68 204 400q0 11 144 208l96 140v4l-12 4l-4 -4h-4l-12 4l-12 -4v4l-4 -4h-4l-4 4l-40 -8v4l-4 -4h-56l-84 -8v4l-4 -4h-8l-48 4l-44 -4v4l-4 -4q-80 0 -80 72l-4 40l4 56l-4 12h4l-4 12q2 40 32 40l44 -4l164 16v-4l140 16v-4l4 4h8l4 -4l4 4h4 q196 0 196 -88h-4l32 -216q0 -16 -104 -164q-24 -23 -92 -132q-81 -88 -224 -328q-9 -2 -20 -32q65 16 124 16l24 -4q18 8 52 8l24 -4l16 4v-4l4 4l60 -4h28l4 -4l4 4h12l4 -4l4 4h24q88 0 88 -64l16 -144v-32l-4 -24l4 -12l-12 -16l-136 -4h-12l-4 4l-4 -4l-64 8l-12 -4v4 l-4 -4h-96l-132 4l-28 -4l-40 4l-24 -4l-4 4l-56 -8q-10 0 -48 56l4 4z" />
<glyph unicode="{" />
<glyph unicode="|" />
<glyph unicode="}" />
<glyph unicode="~" />
<glyph unicode="&#xa1;" horiz-adv-x="330" d="M0 1148v8q6 20 52 20h72q38 0 56 -56q-23 -72 -56 -72l-52 -4h-16q-56 0 -56 104zM8 924q0 45 52 64l20 -4h32q64 0 64 -64l12 -120h-4l4 -4v-76l4 -40h-4l4 -4v-4l-4 -4l4 -4v-8l-4 -4l4 -4v-12l-4 -4l4 -4v-84l4 -16l-4 -4l8 -68l-4 -16l4 -24l-4 -4l4 -20v-12l-4 -4 l4 -4v-12l-4 -12l4 -20v-60l-4 -4l4 -4v-24l-4 -4l4 -4v-40l4 -28h-4l4 -4l-4 -20v-20q0 -112 -40 -112l-16 -4q-100 0 -100 60l-4 16l4 4l-4 20v164l-4 4v4h4l-4 12l4 4l-8 68h4l-8 56l4 4v4l-8 52l4 4l-4 88v104l-4 4l4 4z" />
<glyph unicode="&#xa2;" horiz-adv-x="1139" />
<glyph unicode="&#xa3;" />
<glyph unicode="&#xa4;" />
<glyph unicode="&#xa5;" horiz-adv-x="1262" />
<glyph unicode="&#xa6;" />
<glyph unicode="&#xa7;" />
<glyph unicode="&#xa8;" horiz-adv-x="1024" d="M215 1215l16 -60q0 -21 32 -36h60q38 0 60 40v4q-8 124 -36 124h-88q-44 0 -44 -68v-4zM555 1263l24 -96l28 -28l92 12q51 0 68 52l-12 80q-14 40 -60 40h-4l-4 -4v4l-64 -8q-68 0 -68 -44v-4l4 -4h-4z" />
<glyph unicode="&#xa9;" horiz-adv-x="1674" />
<glyph unicode="&#xaa;" horiz-adv-x="648" />
<glyph unicode="&#xab;" horiz-adv-x="944" d="M174 479l342 303h14v-37l-205 -266l205 -266v-37h-14zM487 479l342 303h14v-37l-205 -266l205 -266v-37h-14z" />
<glyph unicode="&#xac;" horiz-adv-x="577" d="M75 498v10l5 5l-5 5l5 52v36l16 5l10 -11q0 21 10 21l36 -5l46 5q169 -14 169 -56l21 -165q-6 -41 -31 -41l-72 -15q-30 5 -30 15l-6 -5h-5q-19 0 -30 103q-114 0 -139 41z" />
<glyph unicode="&#xad;" horiz-adv-x="670" d="M108 108v16l4 4l-4 4v8q13 32 144 32l60 4h4l16 4l4 -4l60 4h76q51 0 68 -32v-44l4 -36q-5 -60 -44 -60h-24l-4 4h-4l-4 -4l-12 -4v-4l-20 4h-28l-48 4l-108 -8q-128 13 -128 40z" />
<glyph unicode="&#xae;" horiz-adv-x="1674" d="M100 718q0 148 55.5 283t159.5 238q102 104 238.5 160.5t286.5 56.5q145 0 280 -56.5t239 -160.5q102 -101 158.5 -238t56.5 -283q0 -147 -56.5 -282t-162.5 -240q-105 -105 -239 -159.5t-283 -54.5q-146 0 -278 55.5t-238 160.5q-106 104 -161.5 237.5t-55.5 282.5z M160 718q0 -137 51 -259t148 -219q98 -96 219 -147t256 -51q137 0 259.5 50.5t219.5 145.5q97 98 149 221.5t52 258.5q0 134 -52 259.5t-145 219.5q-96 96 -220 147.5t-258 51.5q-137 0 -262 -51.5t-220 -147.5t-146 -219.5t-51 -259.5zM524 269v50h43q37 0 37 121v538 q0 121 -37 121h-43v70h356q64 -1 125 -42q60 -41 92.5 -114t32.5 -152q0 -78 -32 -150.5t-114 -134.5l82 -116q100 -141 150 -141h34v-50h-346v50h45q30 0 30 22q0 29 -69 114l-75 102q-42 0 -84 42v-159q0 -121 36 -121h53v-50h-316zM751 1099v-374l3 -8q23 -56 56 -81 q29 -22 56 -22h6q31 4 61.5 38.5t46.5 97.5q13 50 13 103q0 13 -1 27q-4 67 -28 124.5t-56.5 76t-63.5 18.5h-93z" />
<glyph unicode="&#xaf;" horiz-adv-x="670" />
<glyph unicode="&#xb0;" horiz-adv-x="674" d="M60 1164q0 116 81.5 197t197.5 81q115 0 196 -81.5t81 -196.5q0 -114 -82 -196t-197 -82q-117 0 -197 81t-80 197zM130 1163q0 -87 61 -147t148 -60t147 60t60 147t-60.5 148t-146.5 61t-147.5 -61t-61.5 -148z" />
<glyph unicode="&#xb1;" horiz-adv-x="644" d="M7 583q0 31 99 31h73l-4 4l4 19l-16 141q0 53 80 53h31q53 0 53 -84l8 -42h-4q8 -20 8 -76h-4l7 -15l103 7q54 0 54 -57v-76q0 -34 -92 -34l-72 -16l4 -76v-34l3 -15q0 -84 -38 -84l-72 -4q-42 0 -42 91q-11 115 -27 115q-148 0 -148 46zM37 568q0 -91 23 -91 q145 -7 145 -23v-19l19 -115h-4q8 -61 19 -61q65 8 65 19v31l-4 141l46 30l118 23l4 38q-2 35 -7 35l-31 7h-30l-16 -4l-11 4l-4 -4q-57 0 -69 42l4 12q-9 160 -26 160l-19 4q-65 0 -65 -38l15 -119q0 -49 -19 -49l-31 -8v4l-3 -4h-19q-58 0 -100 -15zM44 128v4q0 56 284 56 l64 4q76 0 76 -40q12 0 12 -116v-8q-10 -24 -32 -24h-84l-28 -4v4l-4 -4h-64q-204 7 -204 48q-8 80 -20 80zM80 128q14 -72 28 -72q101 -20 140 -20q117 0 168 8l16 -4l12 8q0 104 -32 104l-48 4l-24 -4h-12q-77 0 -116 -8l-24 4z" />
<glyph unicode="&#xb2;" />
<glyph unicode="&#xb3;" />
<glyph unicode="&#xb4;" horiz-adv-x="1024" d="M356 1082q-7 7 -7 18q0 55 168 223l42 48q35 35 59 35q13 0 23 -10q1 1 2 1q15 0 89 -74l5 -6q4 -10 4 -18q0 -12 -9 -22l-60 -59l-17 -23l-2 3v-5l-46 -46q-123 -115 -164 -115q-9 0 -14 5q-54 44 -68 44q-2 0 -3 -1z" />
<glyph unicode="&#xb5;" horiz-adv-x="1180" />
<glyph unicode="&#xb6;" horiz-adv-x="1024" d="M93 1086q0 157 107.5 253t285.5 96h443v-70h-127v-1365h-82v1365h-166v-1365h-84v738q-174 8 -275.5 102.5t-101.5 245.5z" />
<glyph unicode="&#xb7;" horiz-adv-x="508" d="M164 707l28 28l96 24v-4l4 4h4q44 0 44 -68l8 -64h-4l4 -4v-4q0 -46 -40 -60l-80 -12q-52 17 -52 68z" />
<glyph unicode="&#x2219;" horiz-adv-x="508" d="M164 707l28 28l96 24v-4l4 4h4q44 0 44 -68l8 -64h-4l4 -4v-4q0 -46 -40 -60l-80 -12q-52 17 -52 68z" />
<glyph unicode="&#xb8;" horiz-adv-x="1024" d="M360 -290q85 -52 152 -52q66 0 94.5 21.5t28.5 66.5t-49 64q-40 16 -102 16q-16 0 -34 -2l48 176h63l-37 -104q32 4 62 5q86 0 134 -40.5t48 -113.5q0 -76 -58.5 -120.5t-160.5 -44.5q-109 0 -189 32v96z" />
<glyph unicode="&#xb9;" />
<glyph unicode="&#xba;" horiz-adv-x="718" />
<glyph unicode="&#xbb;" horiz-adv-x="944" d="M101 176v37l205 266l-205 266v37h14l342 -303l-342 -303h-14zM414 176v37l205 266l-205 266v37h14l342 -303l-342 -303h-14z" />
<glyph unicode="&#xbc;" horiz-adv-x="1708" />
<glyph unicode="&#xbd;" horiz-adv-x="1964" />
<glyph unicode="&#xbe;" horiz-adv-x="1708" />
<glyph unicode="&#xbf;" horiz-adv-x="667" d="M0 356q0 57 44 68l104 16l16 -4q152 0 152 28l4 60v60l-12 144l4 4l-4 48v144l-4 60h4l-4 4v4q0 52 56 52h40l4 -4l12 4q56 0 56 -16v-16h-20q28 -18 28 -36l-4 -28l8 -108h-4q16 -89 28 -320l-4 -4v-4l4 -4q-4 -192 -32 -192q0 -32 -208 -44q-88 0 -88 -12v-36 q0 -44 60 -44l4 -4h4q142 20 188 20q58 0 68 -84q0 -88 -40 -88q-120 -24 -192 -24q-214 0 -232 36q-23 9 -36 180h4l-4 4v4zM100 1172l12 12l4 -4v-4l-4 -4h-12zM292 1188q23 24 124 24h8q56 0 56 -68l4 -12q0 -48 -44 -48h-60l-4 4l-4 -4q-76 0 -76 60z" />
<glyph unicode="&#xc0;" horiz-adv-x="768" d="M0 1024l8 48l-4 4q0 124 80 124l40 4l4 -4h4l16 4h8v-4l20 4l152 -4l12 4q16 -6 16 -12l32 4q102 0 140 -36l40 -84q20 -123 20 -164v-48l4 -24l-4 -16l4 -12h-4l4 -4v-4q0 -192 24 -404l12 -256l-4 -20l4 -12h-4l4 -4v-4l-4 -4l4 -16q0 -52 -52 -76l-16 -4l-72 12h-64 q-6 0 -16 28q-13 0 -16 104h4l-4 4v48l4 4l-4 4v52l-4 20h4l-4 12l4 168h4l-4 4v4q0 71 -28 256l4 4v4l-8 32v40q0 64 -32 64h-44l-4 4q-72 -12 -72 -28l4 -128l-4 -44l4 -4v-4l-4 -4l12 -148l-4 -4v-4l4 -24v-4l-4 -4l4 -4v-16l4 -68h-4l8 -28h-4l20 -184h-4l8 -36l-4 -4 l4 -20v-40l-4 -4l4 -4q0 -60 -56 -60h-72l-16 -4q-68 0 -68 128q0 85 -8 100l4 4v4l-4 20l4 36l-8 32v8l4 24l-4 4l4 60v32l-12 168l4 4v4q-16 197 -20 396zM61 1500l5 5q67 68 80 68q1 0 2 -1q9 9 20 9q22 0 54 -32l38 -44q152 -152 152 -201q0 -10 -6 -16l-2 -3q-1 1 -3 1 q-13 0 -61 -39q-5 -5 -12 -5q-38 0 -150 105l-41 40v6l-2 -3l-15 21l-54 53q-9 9 -9 20q0 7 4 16zM228 1020l8 -16l-4 -4v-8q0 -8 24 -8v-4l84 12v36l4 4v4l-28 24q-84 -12 -84 -28z" />
<glyph unicode="&#xc1;" horiz-adv-x="768" d="M0 1024l8 48l-4 4q0 124 80 124l40 4l4 -4h4l16 4h8v-4l20 4l152 -4l12 4q16 -6 16 -12l32 4q102 0 140 -36l40 -84q20 -123 20 -164v-48l4 -24l-4 -16l4 -12h-4l4 -4v-4q0 -192 24 -404l12 -256l-4 -20l4 -12h-4l4 -4v-4l-4 -4l4 -16q0 -52 -52 -76l-16 -4l-72 12h-64 q-6 0 -16 28q-13 0 -16 104h4l-4 4v48l4 4l-4 4v52l-4 20h4l-4 12l4 168h4l-4 4v4q0 71 -28 256l4 4v4l-8 32v40q0 64 -32 64h-44l-4 4q-72 -12 -72 -28l4 -128l-4 -44l4 -4v-4l-4 -4l12 -148l-4 -4v-4l4 -24v-4l-4 -4l4 -4v-16l4 -68h-4l8 -28h-4l20 -184h-4l8 -36l-4 -4 l4 -20v-40l-4 -4l4 -4q0 -60 -56 -60h-72l-16 -4q-68 0 -68 128q0 85 -8 100l4 4v4l-4 20l4 36l-8 32v8l4 24l-4 4l4 60v32l-12 168l4 4v4q-16 197 -20 396zM198 1296q-6 6 -6 16q0 49 152 201l38 44q32 32 54 32q12 0 21 -9q1 1 2 1q12 0 80 -68l5 -5q4 -9 4 -16 q0 -11 -9 -20l-54 -53l-15 -21l-3 3v-6l-41 -40q-111 -105 -149 -105q-7 0 -12 5q-49 39 -61 39q-2 0 -3 -1zM228 1020l8 -16l-4 -4v-8q0 -8 24 -8v-4l84 12v36l4 4v4l-28 24q-84 -12 -84 -28z" />
<glyph unicode="&#xc2;" horiz-adv-x="1540" />
<glyph unicode="&#xc3;" horiz-adv-x="1540" />
<glyph unicode="&#xc4;" horiz-adv-x="768" d="M0 1024l8 48l-4 4q0 124 80 124l40 4l4 -4h4l16 4h8v-4l20 4l152 -4l12 4q16 -6 16 -12l32 4q102 0 140 -36l40 -84q20 -123 20 -164v-48l4 -24l-4 -16l4 -12h-4l4 -4v-4q0 -192 24 -404l12 -256l-4 -20l4 -12h-4l4 -4v-4l-4 -4l4 -16q0 -52 -52 -76l-16 -4l-72 12h-64 q-6 0 -16 28q-13 0 -16 104h4l-4 4v48l4 4l-4 4v52l-4 20h4l-4 12l4 168h4l-4 4v4q0 71 -28 256l4 4v4l-8 32v40q0 64 -32 64h-44l-4 4q-72 -12 -72 -28l4 -128l-4 -44l4 -4v-4l-4 -4l12 -148l-4 -4v-4l4 -24v-4l-4 -4l4 -4v-16l4 -68h-4l8 -28h-4l20 -184h-4l8 -36l-4 -4 l4 -20v-40l-4 -4l4 -4q0 -60 -56 -60h-72l-16 -4q-68 0 -68 128q0 85 -8 100l4 4v4l-4 20l4 36l-8 32v8l4 24l-4 4l4 60v32l-12 168l4 4v4q-16 197 -20 396zM50 1328l16 -60q0 -21 32 -36h60q38 0 60 40v4q-8 124 -36 124h-88q-44 0 -44 -68v-4zM228 1020l8 -16l-4 -4v-8 q0 -8 24 -8v-4l84 12v36l4 4v4l-28 24q-84 -12 -84 -28zM312 1336l16 -60q0 -21 32 -36h60q38 0 60 40v4q-8 124 -36 124h-88q-44 0 -44 -68v-4z" />
<glyph unicode="&#xc5;" horiz-adv-x="1540" />
<glyph unicode="&#xc6;" horiz-adv-x="2118" />
<glyph unicode="&#xc7;" horiz-adv-x="1399" />
<glyph unicode="&#xc8;" horiz-adv-x="846" d="M0 92l4 36v48l-4 24l4 4v4l-4 24h4l-4 4v4l4 4l-4 4l4 20v44l-4 56l4 12l-4 4l4 20l8 128l-4 12q5 118 20 188l-4 4l4 20q0 204 36 476l4 4h28q51 -12 108 -12h8l16 4l16 -4h44l4 -4l4 4h4l4 -4l4 4h20l36 4l12 -4l12 4l56 -4h8l32 4l32 -4h20l20 4v-4l4 4l40 -4h44 q55 0 68 -92q0 -120 -88 -120l-36 -4l-12 4l-300 -8l-32 4l-12 -4l-4 4l-20 -4h-20v-8h-4l4 -4l-4 -20v-16q0 -17 16 -24l48 4h28q72 0 92 -8l4 4q184 0 184 -48l4 -20h-4l4 -4v-24l-4 -16l4 -4v-4q0 -80 -56 -80q0 -7 -60 -12v4q-24 -10 -80 -16v4l-12 -4q-72 0 -116 -8 l-12 4q-40 0 -40 -48l-4 -40l8 -200l-4 -148q0 -28 28 -28q420 -36 420 -48q28 -50 28 -124q0 -46 -20 -52h-36l-20 -4v4l-32 -8l-4 4h-4l-24 -4v4q-17 -8 -64 -8h-116l-36 -4l-4 4l-28 -4h-48l-4 4l-4 -4h-4l-16 4l-4 -4h-4l-60 16l-4 -4q-124 11 -124 80zM61 1500l5 5 q67 68 80 68q1 0 2 -1q9 9 20 9q22 0 54 -32l38 -44q152 -152 152 -201q0 -10 -6 -16l-2 -3q-1 1 -3 1q-13 0 -61 -39q-5 -5 -12 -5q-38 0 -150 105l-41 40v6l-2 -3l-15 21l-54 53q-9 9 -9 20q0 7 4 16z" />
<glyph unicode="&#xc9;" horiz-adv-x="809" d="M0 92l4 36v48l-4 24l4 4v4l-4 24h4l-4 4v4l4 4l-4 4l4 20v44l-4 56l4 12l-4 4l4 20l8 128l-4 12q5 118 20 188l-4 4l4 20q0 204 36 476l4 4h28q51 -12 108 -12h8l16 4l16 -4h44l4 -4l4 4h4l4 -4l4 4h20l36 4l12 -4l12 4l56 -4h8l32 4l32 -4h20l20 4v-4l4 4l40 -4h44 q55 0 68 -92q0 -120 -88 -120l-36 -4l-12 4l-300 -8l-32 4l-12 -4l-4 4l-20 -4h-20v-8h-4l4 -4l-4 -20v-16q0 -17 16 -24l48 4h28q72 0 92 -8l4 4q184 0 184 -48l4 -20h-4l4 -4v-24l-4 -16l4 -4v-4q0 -80 -56 -80q0 -7 -60 -12v4q-24 -10 -80 -16v4l-12 -4q-72 0 -116 -8 l-12 4q-40 0 -40 -48l-4 -40l8 -200l-4 -148q0 -28 28 -28q420 -36 420 -48q28 -50 28 -124q0 -46 -20 -52h-36l-20 -4v4l-32 -8l-4 4h-4l-24 -4v4q-17 -8 -64 -8h-116l-36 -4l-4 4l-28 -4h-48l-4 4l-4 -4h-4l-16 4l-4 -4h-4l-60 16l-4 -4q-124 11 -124 80zM198 1296 q-6 6 -6 16q0 49 152 201l38 44q32 32 54 32q12 0 21 -9q1 1 2 1q12 0 80 -68l5 -5q4 -9 4 -16q0 -11 -9 -20l-54 -53l-15 -21l-3 3v-6l-41 -40q-111 -105 -149 -105q-7 0 -12 5q-49 39 -61 39q-2 0 -3 -1z" />
<glyph unicode="&#xca;" horiz-adv-x="1151" />
<glyph unicode="&#xcb;" horiz-adv-x="1151" d="M0 92l4 36v48l-4 24l4 4v4l-4 24h4l-4 4v4l4 4l-4 4l4 20v44l-4 56l4 12l-4 4l4 20l8 128l-4 12q5 118 20 188l-4 4l4 20q0 204 36 476l4 4h28q51 -12 108 -12h8l16 4l16 -4h44l4 -4l4 4h4l4 -4l4 4h20l36 4l12 -4l12 4l56 -4h8l32 4l32 -4h20l20 4v-4l4 4l40 -4h44 q55 0 68 -92q0 -120 -88 -120l-36 -4l-12 4l-300 -8l-32 4l-12 -4l-4 4l-20 -4h-20v-8h-4l4 -4l-4 -20v-16q0 -17 16 -24l48 4h28q72 0 92 -8l4 4q184 0 184 -48l4 -20h-4l4 -4v-24l-4 -16l4 -4v-4q0 -80 -56 -80q0 -7 -60 -12v4q-24 -10 -80 -16v4l-12 -4q-72 0 -116 -8 l-12 4q-40 0 -40 -48l-4 -40l8 -200l-4 -148q0 -28 28 -28q420 -36 420 -48q28 -50 28 -124q0 -46 -20 -52h-36l-20 -4v4l-32 -8l-4 4h-4l-24 -4v4q-17 -8 -64 -8h-116l-36 -4l-4 4l-28 -4h-48l-4 4l-4 -4h-4l-16 4l-4 -4h-4l-60 16l-4 -4q-124 11 -124 80zM155 1328l16 -60 q0 -21 32 -36h60q38 0 60 40v4q-8 124 -36 124h-88q-44 0 -44 -68v-4zM417 1336l16 -60q0 -21 32 -36h60q38 0 60 40v4q-8 124 -36 124h-88q-44 0 -44 -68v-4z" />
<glyph unicode="&#xcc;" horiz-adv-x="412" d="M-67 1500l5 5q67 68 80 68q1 0 2 -1q9 9 21 9q22 0 53 -32l39 -44q152 -152 152 -201q0 -10 -6 -16l-3 -3q-1 1 -3 1q-13 0 -61 -39q-5 -5 -12 -5q-38 0 -149 105l-41 40v6l-3 -3l-15 21l-54 53q-9 9 -9 20q0 7 4 16zM0 36l4 104h4l-4 4v4l4 4l-4 4v4l4 116v16l4 4l-4 4 l4 24l-4 92v12l4 4l-4 4q8 56 8 180v36l-4 60h4l-4 4v84l4 24l-4 4l4 80v44l-4 68h4l-4 4v4l4 12l-4 44q0 104 56 104l100 12v-4q24 8 72 8q23 0 28 -44v-8l-4 -4l4 -4l-4 -28v-96l4 -16l-56 -612v-16h-4l4 -4v-8l-4 -4l4 -4v-24l-4 -4l4 -4l-4 -20v-16q0 -71 -8 -92l4 -4 l-4 -20v-20q0 -148 -72 -148l-12 -4h-16q-96 0 -96 24z" />
<glyph unicode="&#xcd;" horiz-adv-x="427" d="M0 36l4 104h4l-4 4v4l4 4l-4 4v4l4 116v16l4 4l-4 4l4 24l-4 92v12l4 4l-4 4q8 56 8 180v36l-4 60h4l-4 4v84l4 24l-4 4l4 80v44l-4 68h4l-4 4v4l4 12l-4 44q0 104 56 104l100 12v-4q24 8 72 8q23 0 28 -44v-8l-4 -4l4 -4l-4 -28v-96l4 -16l-56 -612v-16h-4l4 -4v-8 l-4 -4l4 -4v-24l-4 -4l4 -4l-4 -20v-16q0 -71 -8 -92l4 -4l-4 -20v-20q0 -148 -72 -148l-12 -4h-16q-96 0 -96 24zM86 1296q-6 6 -6 16q0 49 152 201l38 44q32 32 54 32q12 0 21 -9q1 1 2 1q12 0 80 -68l5 -5q4 -9 4 -16q0 -11 -9 -20l-54 -53l-15 -21l-3 3v-6l-41 -40 q-111 -105 -149 -105q-7 0 -12 5q-49 39 -61 39q-2 0 -3 -1z" />
<glyph unicode="&#xce;" horiz-adv-x="657" />
<glyph unicode="&#xcf;" horiz-adv-x="412" d="M-70 1328l16 -60q0 -21 32 -36h60q38 0 60 40v4q-8 124 -36 124h-88q-44 0 -44 -68v-4zM0 36l4 104h4l-4 4v4l4 4l-4 4v4l4 116v16l4 4l-4 4l4 24l-4 92v12l4 4l-4 4q8 56 8 180v36l-4 60h4l-4 4v84l4 24l-4 4l4 80v44l-4 68h4l-4 4v4l4 12l-4 44q0 104 56 104l100 12v-4 q24 8 72 8q23 0 28 -44v-8l-4 -4l4 -4l-4 -28v-96l4 -16l-56 -612v-16h-4l4 -4v-8l-4 -4l4 -4v-24l-4 -4l4 -4l-4 -20v-16q0 -71 -8 -92l4 -4l-4 -20v-20q0 -148 -72 -148l-12 -4h-16q-96 0 -96 24zM192 1336l16 -60q0 -21 32 -36h60q38 0 60 40v4q-8 124 -36 124h-88 q-44 0 -44 -68v-4z" />
<glyph unicode="&#xd0;" horiz-adv-x="1518" />
<glyph unicode="&#xd1;" horiz-adv-x="850" d="M0 256l8 172l-4 32l12 344l-4 24h4l-4 4l4 32l-4 88h4l-4 4l4 20v128l-4 56q14 72 52 72l76 -4l24 4l4 -4h4l12 4l24 -4l24 4q39 0 72 -144q18 -25 100 -300l108 -356v-4h4l4 20l-4 28v56l-4 16l4 4l-4 20v40l-8 128v48l-4 36l4 4l-4 20v44l4 16l-4 4v4l4 16l-4 4v4 q0 24 32 28h32l20 -4l24 4h44q44 0 44 -160v-16l4 -12h-4l4 -4v-92l-4 -4l4 -4v-8l-4 -124l4 -4v-4l-16 -172l4 -4v-4l-4 -4l8 -68l-4 -4q8 -34 8 -88v-20l4 -28h-4l4 -4l-4 -28v-76q0 -9 -60 -20h-28v-8l-28 4l-12 -12l-28 16l-4 -4h-8l-8 8l-64 -8q-48 0 -56 72l-152 672 q0 39 -28 132h4q-8 16 -8 60h-4q-12 -86 -20 -308l4 -4v-4l-4 -4l4 -28l-4 -16l4 -28v-176l-4 -16l4 -16v-108q-10 -200 -20 -200l-16 -8q-152 11 -152 40v48l-4 16l4 4l-4 20v16zM328 1216q8 7 68 12l4 -4h4l60 8v-4l4 4h8q128 0 204 12q15 0 40 -24l-4 -4l4 -40v-88 q-5 -16 -36 -16h-160l-4 4l-4 -4h-4l-48 4l-16 -4l-4 4l-20 -4h-20l-4 4l-4 -4h-8q-29 0 -60 144z" />
<glyph unicode="&#xd2;" horiz-adv-x="655" d="M0 944q0 240 48 240l24 8v-4q18 8 52 8h60l4 -4l4 4h4l20 -4l32 4q49 -4 56 -12l44 8h24l4 -4l4 4h4l4 -4l64 12q68 -14 68 -56v-76l4 -36l-4 -4v-4l4 -44v-44l-4 -4l4 -4l-4 -40v-76l-4 -44l4 -4v-4l-20 -264l4 -4v-4l-4 -4v-4l4 -4l-8 -48l4 -4q-24 -380 -48 -380 q-19 -44 -44 -44h-8l-68 4l-48 -4h-8v4l-20 -4h-60l-36 4l-40 -4h-68q-44 15 -44 76l-4 12l4 240v68l4 4l-4 4v48l4 36l-4 12h4l-4 4l4 20v36l-4 12l4 20v172l-4 40h4l-4 4v12l4 4q-12 34 -12 120zM61 1500l5 5q67 68 80 68q1 0 2 -1q9 9 20 9q22 0 54 -32l38 -44 q152 -152 152 -201q0 -10 -6 -16l-2 -3q-1 1 -3 1q-13 0 -61 -39q-5 -5 -12 -5q-38 0 -150 105l-41 40v6l-2 -3l-15 21l-54 53q-9 9 -9 20q0 7 4 16zM100 956h4l8 -8h-4zM200 780l4 -4v-156l4 -20h-4l4 -4l-4 -44l4 -120l-4 -12l4 -4v-4l-4 -4v-4l4 -12l-4 -16l4 -16h-4 l4 -12l-4 -24l4 -4l-4 -28l4 -60l20 -4q52 0 52 56l-4 44h4l-4 4l4 28v60l8 68l-4 40l4 76v20l4 16l-4 4v4l4 4l-8 76l8 216l4 16l-8 32l-4 -4h-4l-20 4q-44 0 -44 -64q-7 0 -8 -28v-40q0 -80 -8 -80z" />
<glyph unicode="&#xd3;" horiz-adv-x="674" d="M0 944q0 240 48 240l24 8v-4q18 8 52 8h60l4 -4l4 4h4l20 -4l32 4q49 -4 56 -12l44 8h24l4 -4l4 4h4l4 -4l64 12q68 -14 68 -56v-76l4 -36l-4 -4v-4l4 -44v-44l-4 -4l4 -4l-4 -40v-76l-4 -44l4 -4v-4l-20 -264l4 -4v-4l-4 -4v-4l4 -4l-8 -48l4 -4q-24 -380 -48 -380 q-19 -44 -44 -44h-8l-68 4l-48 -4h-8v4l-20 -4h-60l-36 4l-40 -4h-68q-44 15 -44 76l-4 12l4 240v68l4 4l-4 4v48l4 36l-4 12h4l-4 4l4 20v36l-4 12l4 20v172l-4 40h4l-4 4v12l4 4q-12 34 -12 120zM100 956h4l8 -8h-4zM198 1296q-6 6 -6 16q0 49 152 201l38 44q32 32 54 32 q12 0 21 -9q1 1 2 1q12 0 80 -68l5 -5q4 -9 4 -16q0 -11 -9 -20l-54 -53l-15 -21l-3 3v-6l-41 -40q-111 -105 -149 -105q-7 0 -12 5q-49 39 -61 39q-2 0 -3 -1zM200 780l4 -4v-156l4 -20h-4l4 -4l-4 -44l4 -120l-4 -12l4 -4v-4l-4 -4v-4l4 -12l-4 -16l4 -16h-4l4 -12l-4 -24 l4 -4l-4 -28l4 -60l20 -4q52 0 52 56l-4 44h4l-4 4l4 28v60l8 68l-4 40l4 76v20l4 16l-4 4v4l4 4l-8 76l8 216l4 16l-8 32l-4 -4h-4l-20 4q-44 0 -44 -64q-7 0 -8 -28v-40q0 -80 -8 -80z" />
<glyph unicode="&#xd4;" horiz-adv-x="1614" />
<glyph unicode="&#xd5;" horiz-adv-x="1614" />
<glyph unicode="&#xd6;" horiz-adv-x="659" d="M0 944q0 240 48 240l24 8v-4q18 8 52 8h60l4 -4l4 4h4l20 -4l32 4q49 -4 56 -12l44 8h24l4 -4l4 4h4l4 -4l64 12q68 -14 68 -56v-76l4 -36l-4 -4v-4l4 -44v-44l-4 -4l4 -4l-4 -40v-76l-4 -44l4 -4v-4l-20 -264l4 -4v-4l-4 -4v-4l4 -4l-8 -48l4 -4q-24 -380 -48 -380 q-19 -44 -44 -44h-8l-68 4l-48 -4h-8v4l-20 -4h-60l-36 4l-40 -4h-68q-44 15 -44 76l-4 12l4 240v68l4 4l-4 4v48l4 36l-4 12h4l-4 4l4 20v36l-4 12l4 20v172l-4 40h4l-4 4v12l4 4q-12 34 -12 120zM50 1328l16 -60q0 -21 32 -36h60q38 0 60 40v4q-8 124 -36 124h-88 q-44 0 -44 -68v-4zM100 956h4l8 -8h-4zM200 780l4 -4v-156l4 -20h-4l4 -4l-4 -44l4 -120l-4 -12l4 -4v-4l-4 -4v-4l4 -12l-4 -16l4 -16h-4l4 -12l-4 -24l4 -4l-4 -28l4 -60l20 -4q52 0 52 56l-4 44h4l-4 4l4 28v60l8 68l-4 40l4 76v20l4 16l-4 4v4l4 4l-8 76l8 216l4 16 l-8 32l-4 -4h-4l-20 4q-44 0 -44 -64q-7 0 -8 -28v-40q0 -80 -8 -80zM312 1336l16 -60q0 -21 32 -36h60q38 0 60 40v4q-8 124 -36 124h-88q-44 0 -44 -68v-4z" />
<glyph unicode="&#xd7;" horiz-adv-x="674" d="M56 600l51 56q10 10 23 10q30 0 76 -46q81 -67 101 -67q3 0 4 1q84 85 124 85q12 0 20 -8l85 -74q5 -5 5 -13q0 -27 -56 -83l-54 -54h6l11 -17l116 -93q16 -16 16 -35q0 -29 -36 -64l-22 -23q-15 -15 -34 -15q-30 0 -68 38l-37 26l3 2q-21 10 -62 51l3 3l-17 6l-71 -82 q-19 -19 -39 -19q-21 0 -43 22l-57 56q-7 7 -7 17q0 27 50 76l42 66l-59 53l-26 26l-14 8q-43 43 -43 70q0 12 9 21z" />
<glyph unicode="&#xd8;" horiz-adv-x="1614" />
<glyph unicode="&#xd9;" horiz-adv-x="742" d="M0 716l4 4v4l-4 20l4 36l-4 92l4 12l-4 4l4 60v92l4 4l-4 4v12l4 56l-4 4l4 20v40q2 9 32 24l76 -4h20l4 -4l32 8q11 -13 16 -44l-4 -4v-4l16 -96h-4l8 -40l-4 -4q15 -113 24 -556l4 -4l-4 -12l4 -12v-8h-4q11 -220 24 -220q10 -12 72 -24h52q52 0 52 112l-4 16l4 4v4 l-4 28l4 20l-8 92v56l4 4l-4 4l4 68l-4 252h4l-4 4l4 48v168l-4 36l4 4l-4 20v16l4 4l-4 4v4l4 12l-4 4v4l4 12l-4 4v4q7 28 16 28h24l4 -4l4 4h4l4 -4l4 4l64 -8l32 4h4l12 -12v-116l4 -24l-4 -4l4 -28v-236q0 -150 16 -276h-4l4 -4v-8h-4l4 -68v-4l-4 -56l4 -4v-4l-4 -4 v-4l4 -44h-4l4 -4v-132l-4 -4l4 -4l-20 -116q0 -52 -96 -52q-412 23 -412 52q-45 19 -56 240l-8 80l4 4v4q-4 112 -16 184h4l-4 4v132zM61 1500l5 5q67 68 80 68q1 0 2 -1q9 9 20 9q22 0 54 -32l38 -44q152 -152 152 -201q0 -10 -6 -16l-2 -3q-1 1 -3 1q-13 0 -61 -39 q-5 -5 -12 -5q-38 0 -150 105l-41 40v6l-2 -3l-15 21l-54 53q-9 9 -9 20q0 7 4 16z" />
<glyph unicode="&#xda;" horiz-adv-x="779" d="M0 716l4 4v4l-4 20l4 36l-4 92l4 12l-4 4l4 60v92l4 4l-4 4v12l4 56l-4 4l4 20v40q2 9 32 24l76 -4h20l4 -4l32 8q11 -13 16 -44l-4 -4v-4l16 -96h-4l8 -40l-4 -4q15 -113 24 -556l4 -4l-4 -12l4 -12v-8h-4q11 -220 24 -220q10 -12 72 -24h52q52 0 52 112l-4 16l4 4v4 l-4 28l4 20l-8 92v56l4 4l-4 4l4 68l-4 252h4l-4 4l4 48v168l-4 36l4 4l-4 20v16l4 4l-4 4v4l4 12l-4 4v4l4 12l-4 4v4q7 28 16 28h24l4 -4l4 4h4l4 -4l4 4l64 -8l32 4h4l12 -12v-116l4 -24l-4 -4l4 -28v-236q0 -150 16 -276h-4l4 -4v-8h-4l4 -68v-4l-4 -56l4 -4v-4l-4 -4 v-4l4 -44h-4l4 -4v-132l-4 -4l4 -4l-20 -116q0 -52 -96 -52q-412 23 -412 52q-45 19 -56 240l-8 80l4 4v4q-4 112 -16 184h4l-4 4v132zM198 1296q-6 6 -6 16q0 49 152 201l38 44q32 32 54 32q12 0 21 -9q1 1 2 1q12 0 80 -68l5 -5q4 -9 4 -16q0 -11 -9 -20l-54 -53l-15 -21 l-3 3v-6l-41 -40q-111 -105 -149 -105q-7 0 -12 5q-49 39 -61 39q-2 0 -3 -1z" />
<glyph unicode="&#xdb;" horiz-adv-x="1501" />
<glyph unicode="&#xdc;" horiz-adv-x="734" d="M0 716l4 4v4l-4 20l4 36l-4 92l4 12l-4 4l4 60v92l4 4l-4 4v12l4 56l-4 4l4 20v40q2 9 32 24l76 -4h20l4 -4l32 8q11 -13 16 -44l-4 -4v-4l16 -96h-4l8 -40l-4 -4q15 -113 24 -556l4 -4l-4 -12l4 -12v-8h-4q11 -220 24 -220q10 -12 72 -24h52q52 0 52 112l-4 16l4 4v4 l-4 28l4 20l-8 92v56l4 4l-4 4l4 68l-4 252h4l-4 4l4 48v168l-4 36l4 4l-4 20v16l4 4l-4 4v4l4 12l-4 4v4l4 12l-4 4v4q7 28 16 28h24l4 -4l4 4h4l4 -4l4 4l64 -8l32 4h4l12 -12v-116l4 -24l-4 -4l4 -28v-236q0 -150 16 -276h-4l4 -4v-8h-4l4 -68v-4l-4 -56l4 -4v-4l-4 -4 v-4l4 -44h-4l4 -4v-132l-4 -4l4 -4l-20 -116q0 -52 -96 -52q-412 23 -412 52q-45 19 -56 240l-8 80l4 4v4q-4 112 -16 184h4l-4 4v132zM100 1328l16 -60q0 -21 32 -36h60q38 0 60 40v4q-8 124 -36 124h-88q-44 0 -44 -68v-4zM362 1336l16 -60q0 -21 32 -36h60q38 0 60 40v4 q-8 124 -36 124h-88q-44 0 -44 -68v-4z" />
<glyph unicode="&#xdd;" horiz-adv-x="1233" />
<glyph unicode="&#xde;" horiz-adv-x="1120" />
<glyph unicode="&#xdf;" horiz-adv-x="1251" />
<glyph unicode="&#xe0;" horiz-adv-x="768" d="M0 1024l8 48l-4 4q0 124 80 124l40 4l4 -4h4l16 4h8v-4l20 4l152 -4l12 4q16 -6 16 -12l32 4q102 0 140 -36l40 -84q20 -123 20 -164v-48l4 -24l-4 -16l4 -12h-4l4 -4v-4q0 -192 24 -404l12 -256l-4 -20l4 -12h-4l4 -4v-4l-4 -4l4 -16q0 -52 -52 -76l-16 -4l-72 12h-64 q-6 0 -16 28q-13 0 -16 104h4l-4 4v48l4 4l-4 4v52l-4 20h4l-4 12l4 168h4l-4 4v4q0 71 -28 256l4 4v4l-8 32v40q0 64 -32 64h-44l-4 4q-72 -12 -72 -28l4 -128l-4 -44l4 -4v-4l-4 -4l12 -148l-4 -4v-4l4 -24v-4l-4 -4l4 -4v-16l4 -68h-4l8 -28h-4l20 -184h-4l8 -36l-4 -4 l4 -20v-40l-4 -4l4 -4q0 -60 -56 -60h-72l-16 -4q-68 0 -68 128q0 85 -8 100l4 4v4l-4 20l4 36l-8 32v8l4 24l-4 4l4 60v32l-12 168l4 4v4q-16 197 -20 396zM61 1500l5 5q67 68 80 68q1 0 2 -1q9 9 20 9q22 0 54 -32l38 -44q152 -152 152 -201q0 -10 -6 -16l-2 -3q-1 1 -3 1 q-13 0 -61 -39q-5 -5 -12 -5q-38 0 -150 105l-41 40v6l-2 -3l-15 21l-54 53q-9 9 -9 20q0 7 4 16zM228 1020l8 -16l-4 -4v-8q0 -8 24 -8v-4l84 12v36l4 4v4l-28 24q-84 -12 -84 -28z" />
<glyph unicode="&#xe1;" horiz-adv-x="768" d="M0 1024l8 48l-4 4q0 124 80 124l40 4l4 -4h4l16 4h8v-4l20 4l152 -4l12 4q16 -6 16 -12l32 4q102 0 140 -36l40 -84q20 -123 20 -164v-48l4 -24l-4 -16l4 -12h-4l4 -4v-4q0 -192 24 -404l12 -256l-4 -20l4 -12h-4l4 -4v-4l-4 -4l4 -16q0 -52 -52 -76l-16 -4l-72 12h-64 q-6 0 -16 28q-13 0 -16 104h4l-4 4v48l4 4l-4 4v52l-4 20h4l-4 12l4 168h4l-4 4v4q0 71 -28 256l4 4v4l-8 32v40q0 64 -32 64h-44l-4 4q-72 -12 -72 -28l4 -128l-4 -44l4 -4v-4l-4 -4l12 -148l-4 -4v-4l4 -24v-4l-4 -4l4 -4v-16l4 -68h-4l8 -28h-4l20 -184h-4l8 -36l-4 -4 l4 -20v-40l-4 -4l4 -4q0 -60 -56 -60h-72l-16 -4q-68 0 -68 128q0 85 -8 100l4 4v4l-4 20l4 36l-8 32v8l4 24l-4 4l4 60v32l-12 168l4 4v4q-16 197 -20 396zM198 1296q-6 6 -6 16q0 49 152 201l38 44q32 32 54 32q12 0 21 -9q1 1 2 1q12 0 80 -68l5 -5q4 -9 4 -16 q0 -11 -9 -20l-54 -53l-15 -21l-3 3v-6l-41 -40q-111 -105 -149 -105q-7 0 -12 5q-49 39 -61 39q-2 0 -3 -1zM228 1020l8 -16l-4 -4v-8q0 -8 24 -8v-4l84 12v36l4 4v4l-28 24q-84 -12 -84 -28z" />
<glyph unicode="&#xe2;" horiz-adv-x="922" />
<glyph unicode="&#xe3;" horiz-adv-x="922" />
<glyph unicode="&#xe4;" horiz-adv-x="768" d="M0 1024l8 48l-4 4q0 124 80 124l40 4l4 -4h4l16 4h8v-4l20 4l152 -4l12 4q16 -6 16 -12l32 4q102 0 140 -36l40 -84q20 -123 20 -164v-48l4 -24l-4 -16l4 -12h-4l4 -4v-4q0 -192 24 -404l12 -256l-4 -20l4 -12h-4l4 -4v-4l-4 -4l4 -16q0 -52 -52 -76l-16 -4l-72 12h-64 q-6 0 -16 28q-13 0 -16 104h4l-4 4v48l4 4l-4 4v52l-4 20h4l-4 12l4 168h4l-4 4v4q0 71 -28 256l4 4v4l-8 32v40q0 64 -32 64h-44l-4 4q-72 -12 -72 -28l4 -128l-4 -44l4 -4v-4l-4 -4l12 -148l-4 -4v-4l4 -24v-4l-4 -4l4 -4v-16l4 -68h-4l8 -28h-4l20 -184h-4l8 -36l-4 -4 l4 -20v-40l-4 -4l4 -4q0 -60 -56 -60h-72l-16 -4q-68 0 -68 128q0 85 -8 100l4 4v4l-4 20l4 36l-8 32v8l4 24l-4 4l4 60v32l-12 168l4 4v4q-16 197 -20 396zM50 1328l16 -60q0 -21 32 -36h60q38 0 60 40v4q-8 124 -36 124h-88q-44 0 -44 -68v-4zM228 1020l8 -16l-4 -4v-8 q0 -8 24 -8v-4l84 12v36l4 4v4l-28 24q-84 -12 -84 -28zM312 1336l16 -60q0 -21 32 -36h60q38 0 60 40v4q-8 124 -36 124h-88q-44 0 -44 -68v-4z" />
<glyph unicode="&#xe5;" horiz-adv-x="922" />
<glyph unicode="&#xe6;" horiz-adv-x="1454" />
<glyph unicode="&#xe7;" horiz-adv-x="905" />
<glyph unicode="&#xe8;" horiz-adv-x="846" d="M0 92l4 36v48l-4 24l4 4v4l-4 24h4l-4 4v4l4 4l-4 4l4 20v44l-4 56l4 12l-4 4l4 20l8 128l-4 12q5 118 20 188l-4 4l4 20q0 204 36 476l4 4h28q51 -12 108 -12h8l16 4l16 -4h44l4 -4l4 4h4l4 -4l4 4h20l36 4l12 -4l12 4l56 -4h8l32 4l32 -4h20l20 4v-4l4 4l40 -4h44 q55 0 68 -92q0 -120 -88 -120l-36 -4l-12 4l-300 -8l-32 4l-12 -4l-4 4l-20 -4h-20v-8h-4l4 -4l-4 -20v-16q0 -17 16 -24l48 4h28q72 0 92 -8l4 4q184 0 184 -48l4 -20h-4l4 -4v-24l-4 -16l4 -4v-4q0 -80 -56 -80q0 -7 -60 -12v4q-24 -10 -80 -16v4l-12 -4q-72 0 -116 -8 l-12 4q-40 0 -40 -48l-4 -40l8 -200l-4 -148q0 -28 28 -28q420 -36 420 -48q28 -50 28 -124q0 -46 -20 -52h-36l-20 -4v4l-32 -8l-4 4h-4l-24 -4v4q-17 -8 -64 -8h-116l-36 -4l-4 4l-28 -4h-48l-4 4l-4 -4h-4l-16 4l-4 -4h-4l-60 16l-4 -4q-124 11 -124 80zM61 1500l5 5 q67 68 80 68q1 0 2 -1q9 9 20 9q22 0 54 -32l38 -44q152 -152 152 -201q0 -10 -6 -16l-2 -3q-1 1 -3 1q-13 0 -61 -39q-5 -5 -12 -5q-38 0 -150 105l-41 40v6l-2 -3l-15 21l-54 53q-9 9 -9 20q0 7 4 16z" />
<glyph unicode="&#xe9;" horiz-adv-x="809" d="M0 92l4 36v48l-4 24l4 4v4l-4 24h4l-4 4v4l4 4l-4 4l4 20v44l-4 56l4 12l-4 4l4 20l8 128l-4 12q5 118 20 188l-4 4l4 20q0 204 36 476l4 4h28q51 -12 108 -12h8l16 4l16 -4h44l4 -4l4 4h4l4 -4l4 4h20l36 4l12 -4l12 4l56 -4h8l32 4l32 -4h20l20 4v-4l4 4l40 -4h44 q55 0 68 -92q0 -120 -88 -120l-36 -4l-12 4l-300 -8l-32 4l-12 -4l-4 4l-20 -4h-20v-8h-4l4 -4l-4 -20v-16q0 -17 16 -24l48 4h28q72 0 92 -8l4 4q184 0 184 -48l4 -20h-4l4 -4v-24l-4 -16l4 -4v-4q0 -80 -56 -80q0 -7 -60 -12v4q-24 -10 -80 -16v4l-12 -4q-72 0 -116 -8 l-12 4q-40 0 -40 -48l-4 -40l8 -200l-4 -148q0 -28 28 -28q420 -36 420 -48q28 -50 28 -124q0 -46 -20 -52h-36l-20 -4v4l-32 -8l-4 4h-4l-24 -4v4q-17 -8 -64 -8h-116l-36 -4l-4 4l-28 -4h-48l-4 4l-4 -4h-4l-16 4l-4 -4h-4l-60 16l-4 -4q-124 11 -124 80zM198 1296 q-6 6 -6 16q0 49 152 201l38 44q32 32 54 32q12 0 21 -9q1 1 2 1q12 0 80 -68l5 -5q4 -9 4 -16q0 -11 -9 -20l-54 -53l-15 -21l-3 3v-6l-41 -40q-111 -105 -149 -105q-7 0 -12 5q-49 39 -61 39q-2 0 -3 -1z" />
<glyph unicode="&#xea;" horiz-adv-x="909" />
<glyph unicode="&#xeb;" horiz-adv-x="1151" d="M0 92l4 36v48l-4 24l4 4v4l-4 24h4l-4 4v4l4 4l-4 4l4 20v44l-4 56l4 12l-4 4l4 20l8 128l-4 12q5 118 20 188l-4 4l4 20q0 204 36 476l4 4h28q51 -12 108 -12h8l16 4l16 -4h44l4 -4l4 4h4l4 -4l4 4h20l36 4l12 -4l12 4l56 -4h8l32 4l32 -4h20l20 4v-4l4 4l40 -4h44 q55 0 68 -92q0 -120 -88 -120l-36 -4l-12 4l-300 -8l-32 4l-12 -4l-4 4l-20 -4h-20v-8h-4l4 -4l-4 -20v-16q0 -17 16 -24l48 4h28q72 0 92 -8l4 4q184 0 184 -48l4 -20h-4l4 -4v-24l-4 -16l4 -4v-4q0 -80 -56 -80q0 -7 -60 -12v4q-24 -10 -80 -16v4l-12 -4q-72 0 -116 -8 l-12 4q-40 0 -40 -48l-4 -40l8 -200l-4 -148q0 -28 28 -28q420 -36 420 -48q28 -50 28 -124q0 -46 -20 -52h-36l-20 -4v4l-32 -8l-4 4h-4l-24 -4v4q-17 -8 -64 -8h-116l-36 -4l-4 4l-28 -4h-48l-4 4l-4 -4h-4l-16 4l-4 -4h-4l-60 16l-4 -4q-124 11 -124 80zM155 1328l16 -60 q0 -21 32 -36h60q38 0 60 40v4q-8 124 -36 124h-88q-44 0 -44 -68v-4zM417 1336l16 -60q0 -21 32 -36h60q38 0 60 40v4q-8 124 -36 124h-88q-44 0 -44 -68v-4z" />
<glyph unicode="&#xec;" horiz-adv-x="412" d="M-67 1500l5 5q67 68 80 68q1 0 2 -1q9 9 21 9q22 0 53 -32l39 -44q152 -152 152 -201q0 -10 -6 -16l-3 -3q-1 1 -3 1q-13 0 -61 -39q-5 -5 -12 -5q-38 0 -149 105l-41 40v6l-3 -3l-15 21l-54 53q-9 9 -9 20q0 7 4 16zM0 36l4 104h4l-4 4v4l4 4l-4 4v4l4 116v16l4 4l-4 4 l4 24l-4 92v12l4 4l-4 4q8 56 8 180v36l-4 60h4l-4 4v84l4 24l-4 4l4 80v44l-4 68h4l-4 4v4l4 12l-4 44q0 104 56 104l100 12v-4q24 8 72 8q23 0 28 -44v-8l-4 -4l4 -4l-4 -28v-96l4 -16l-56 -612v-16h-4l4 -4v-8l-4 -4l4 -4v-24l-4 -4l4 -4l-4 -20v-16q0 -71 -8 -92l4 -4 l-4 -20v-20q0 -148 -72 -148l-12 -4h-16q-96 0 -96 24z" />
<glyph unicode="&#xed;" horiz-adv-x="427" d="M0 36l4 104h4l-4 4v4l4 4l-4 4v4l4 116v16l4 4l-4 4l4 24l-4 92v12l4 4l-4 4q8 56 8 180v36l-4 60h4l-4 4v84l4 24l-4 4l4 80v44l-4 68h4l-4 4v4l4 12l-4 44q0 104 56 104l100 12v-4q24 8 72 8q23 0 28 -44v-8l-4 -4l4 -4l-4 -28v-96l4 -16l-56 -612v-16h-4l4 -4v-8 l-4 -4l4 -4v-24l-4 -4l4 -4l-4 -20v-16q0 -71 -8 -92l4 -4l-4 -20v-20q0 -148 -72 -148l-12 -4h-16q-96 0 -96 24zM86 1296q-6 6 -6 16q0 49 152 201l38 44q32 32 54 32q12 0 21 -9q1 1 2 1q12 0 80 -68l5 -5q4 -9 4 -16q0 -11 -9 -20l-54 -53l-15 -21l-3 3v-6l-41 -40 q-111 -105 -149 -105q-7 0 -12 5q-49 39 -61 39q-2 0 -3 -1z" />
<glyph unicode="&#xee;" horiz-adv-x="514" />
<glyph unicode="&#xef;" horiz-adv-x="412" d="M-70 1328l16 -60q0 -21 32 -36h60q38 0 60 40v4q-8 124 -36 124h-88q-44 0 -44 -68v-4zM0 36l4 104h4l-4 4v4l4 4l-4 4v4l4 116v16l4 4l-4 4l4 24l-4 92v12l4 4l-4 4q8 56 8 180v36l-4 60h4l-4 4v84l4 24l-4 4l4 80v44l-4 68h4l-4 4v4l4 12l-4 44q0 104 56 104l100 12v-4 q24 8 72 8q23 0 28 -44v-8l-4 -4l4 -4l-4 -28v-96l4 -16l-56 -612v-16h-4l4 -4v-8l-4 -4l4 -4v-24l-4 -4l4 -4l-4 -20v-16q0 -71 -8 -92l4 -4l-4 -20v-20q0 -148 -72 -148l-12 -4h-16q-96 0 -96 24zM192 1336l16 -60q0 -21 32 -36h60q38 0 60 40v4q-8 124 -36 124h-88 q-44 0 -44 -68v-4z" />
<glyph unicode="&#xf0;" horiz-adv-x="1139" />
<glyph unicode="&#xf1;" horiz-adv-x="850" d="M0 256l8 172l-4 32l12 344l-4 24h4l-4 4l4 32l-4 88h4l-4 4l4 20v128l-4 56q14 72 52 72l76 -4l24 4l4 -4h4l12 4l24 -4l24 4q39 0 72 -144q18 -25 100 -300l108 -356v-4h4l4 20l-4 28v56l-4 16l4 4l-4 20v40l-8 128v48l-4 36l4 4l-4 20v44l4 16l-4 4v4l4 16l-4 4v4 q0 24 32 28h32l20 -4l24 4h44q44 0 44 -160v-16l4 -12h-4l4 -4v-92l-4 -4l4 -4v-8l-4 -124l4 -4v-4l-16 -172l4 -4v-4l-4 -4l8 -68l-4 -4q8 -34 8 -88v-20l4 -28h-4l4 -4l-4 -28v-76q0 -9 -60 -20h-28v-8l-28 4l-12 -12l-28 16l-4 -4h-8l-8 8l-64 -8q-48 0 -56 72l-152 672 q0 39 -28 132h4q-8 16 -8 60h-4q-12 -86 -20 -308l4 -4v-4l-4 -4l4 -28l-4 -16l4 -28v-176l-4 -16l4 -16v-108q-10 -200 -20 -200l-16 -8q-152 11 -152 40v48l-4 16l4 4l-4 20v16zM328 1216q8 7 68 12l4 -4h4l60 8v-4l4 4h8q128 0 204 12q15 0 40 -24l-4 -4l4 -40v-88 q-5 -16 -36 -16h-160l-4 4l-4 -4h-4l-48 4l-16 -4l-4 4l-20 -4h-20l-4 4l-4 -4h-8q-29 0 -60 144z" />
<glyph unicode="&#xf2;" horiz-adv-x="655" d="M0 944q0 240 48 240l24 8v-4q18 8 52 8h60l4 -4l4 4h4l20 -4l32 4q49 -4 56 -12l44 8h24l4 -4l4 4h4l4 -4l64 12q68 -14 68 -56v-76l4 -36l-4 -4v-4l4 -44v-44l-4 -4l4 -4l-4 -40v-76l-4 -44l4 -4v-4l-20 -264l4 -4v-4l-4 -4v-4l4 -4l-8 -48l4 -4q-24 -380 -48 -380 q-19 -44 -44 -44h-8l-68 4l-48 -4h-8v4l-20 -4h-60l-36 4l-40 -4h-68q-44 15 -44 76l-4 12l4 240v68l4 4l-4 4v48l4 36l-4 12h4l-4 4l4 20v36l-4 12l4 20v172l-4 40h4l-4 4v12l4 4q-12 34 -12 120zM61 1500l5 5q67 68 80 68q1 0 2 -1q9 9 20 9q22 0 54 -32l38 -44 q152 -152 152 -201q0 -10 -6 -16l-2 -3q-1 1 -3 1q-13 0 -61 -39q-5 -5 -12 -5q-38 0 -150 105l-41 40v6l-2 -3l-15 21l-54 53q-9 9 -9 20q0 7 4 16zM100 956h4l8 -8h-4zM200 780l4 -4v-156l4 -20h-4l4 -4l-4 -44l4 -120l-4 -12l4 -4v-4l-4 -4v-4l4 -12l-4 -16l4 -16h-4 l4 -12l-4 -24l4 -4l-4 -28l4 -60l20 -4q52 0 52 56l-4 44h4l-4 4l4 28v60l8 68l-4 40l4 76v20l4 16l-4 4v4l4 4l-8 76l8 216l4 16l-8 32l-4 -4h-4l-20 4q-44 0 -44 -64q-7 0 -8 -28v-40q0 -80 -8 -80z" />
<glyph unicode="&#xf3;" horiz-adv-x="674" d="M0 944q0 240 48 240l24 8v-4q18 8 52 8h60l4 -4l4 4h4l20 -4l32 4q49 -4 56 -12l44 8h24l4 -4l4 4h4l4 -4l64 12q68 -14 68 -56v-76l4 -36l-4 -4v-4l4 -44v-44l-4 -4l4 -4l-4 -40v-76l-4 -44l4 -4v-4l-20 -264l4 -4v-4l-4 -4v-4l4 -4l-8 -48l4 -4q-24 -380 -48 -380 q-19 -44 -44 -44h-8l-68 4l-48 -4h-8v4l-20 -4h-60l-36 4l-40 -4h-68q-44 15 -44 76l-4 12l4 240v68l4 4l-4 4v48l4 36l-4 12h4l-4 4l4 20v36l-4 12l4 20v172l-4 40h4l-4 4v12l4 4q-12 34 -12 120zM100 956h4l8 -8h-4zM198 1296q-6 6 -6 16q0 49 152 201l38 44q32 32 54 32 q12 0 21 -9q1 1 2 1q12 0 80 -68l5 -5q4 -9 4 -16q0 -11 -9 -20l-54 -53l-15 -21l-3 3v-6l-41 -40q-111 -105 -149 -105q-7 0 -12 5q-49 39 -61 39q-2 0 -3 -1zM200 780l4 -4v-156l4 -20h-4l4 -4l-4 -44l4 -120l-4 -12l4 -4v-4l-4 -4v-4l4 -12l-4 -16l4 -16h-4l4 -12l-4 -24 l4 -4l-4 -28l4 -60l20 -4q52 0 52 56l-4 44h4l-4 4l4 28v60l8 68l-4 40l4 76v20l4 16l-4 4v4l4 4l-8 76l8 216l4 16l-8 32l-4 -4h-4l-20 4q-44 0 -44 -64q-7 0 -8 -28v-40q0 -80 -8 -80z" />
<glyph unicode="&#xf4;" horiz-adv-x="1010" />
<glyph unicode="&#xf5;" horiz-adv-x="1010" />
<glyph unicode="&#xf6;" horiz-adv-x="659" d="M0 944q0 240 48 240l24 8v-4q18 8 52 8h60l4 -4l4 4h4l20 -4l32 4q49 -4 56 -12l44 8h24l4 -4l4 4h4l4 -4l64 12q68 -14 68 -56v-76l4 -36l-4 -4v-4l4 -44v-44l-4 -4l4 -4l-4 -40v-76l-4 -44l4 -4v-4l-20 -264l4 -4v-4l-4 -4v-4l4 -4l-8 -48l4 -4q-24 -380 -48 -380 q-19 -44 -44 -44h-8l-68 4l-48 -4h-8v4l-20 -4h-60l-36 4l-40 -4h-68q-44 15 -44 76l-4 12l4 240v68l4 4l-4 4v48l4 36l-4 12h4l-4 4l4 20v36l-4 12l4 20v172l-4 40h4l-4 4v12l4 4q-12 34 -12 120zM50 1328l16 -60q0 -21 32 -36h60q38 0 60 40v4q-8 124 -36 124h-88 q-44 0 -44 -68v-4zM100 956h4l8 -8h-4zM200 780l4 -4v-156l4 -20h-4l4 -4l-4 -44l4 -120l-4 -12l4 -4v-4l-4 -4v-4l4 -12l-4 -16l4 -16h-4l4 -12l-4 -24l4 -4l-4 -28l4 -60l20 -4q52 0 52 56l-4 44h4l-4 4l4 28v60l8 68l-4 40l4 76v20l4 16l-4 4v4l4 4l-8 76l8 216l4 16 l-8 32l-4 -4h-4l-20 4q-44 0 -44 -64q-7 0 -8 -28v-40q0 -80 -8 -80zM312 1336l16 -60q0 -21 32 -36h60q38 0 60 40v4q-8 124 -36 124h-88q-44 0 -44 -68v-4z" />
<glyph unicode="&#xf7;" d="M87 647v140h839l1 -1v-139h-840zM382 377q0 15 16 31l82 84q15 14 29 14q13 0 31 -16l80 -86q12 -16 12 -29q0 -15 -14 -31l-80 -88q-20 -20 -29 -20q-16 0 -29 14l-88 101q-10 13 -10 26zM382 1070q0 15 16 31l82 84q15 14 29 14q13 0 31 -16l80 -86q12 -16 12 -29 q0 -15 -14 -31l-80 -88q-20 -20 -29 -20q-16 0 -29 14l-88 101q-10 13 -10 26z" />
<glyph unicode="&#xf8;" horiz-adv-x="1010" />
<glyph unicode="&#xf9;" horiz-adv-x="742" d="M0 716l4 4v4l-4 20l4 36l-4 92l4 12l-4 4l4 60v92l4 4l-4 4v12l4 56l-4 4l4 20v40q2 9 32 24l76 -4h20l4 -4l32 8q11 -13 16 -44l-4 -4v-4l16 -96h-4l8 -40l-4 -4q15 -113 24 -556l4 -4l-4 -12l4 -12v-8h-4q11 -220 24 -220q10 -12 72 -24h52q52 0 52 112l-4 16l4 4v4 l-4 28l4 20l-8 92v56l4 4l-4 4l4 68l-4 252h4l-4 4l4 48v168l-4 36l4 4l-4 20v16l4 4l-4 4v4l4 12l-4 4v4l4 12l-4 4v4q7 28 16 28h24l4 -4l4 4h4l4 -4l4 4l64 -8l32 4h4l12 -12v-116l4 -24l-4 -4l4 -28v-236q0 -150 16 -276h-4l4 -4v-8h-4l4 -68v-4l-4 -56l4 -4v-4l-4 -4 v-4l4 -44h-4l4 -4v-132l-4 -4l4 -4l-20 -116q0 -52 -96 -52q-412 23 -412 52q-45 19 -56 240l-8 80l4 4v4q-4 112 -16 184h4l-4 4v132zM61 1500l5 5q67 68 80 68q1 0 2 -1q9 9 20 9q22 0 54 -32l38 -44q152 -152 152 -201q0 -10 -6 -16l-2 -3q-1 1 -3 1q-13 0 -61 -39 q-5 -5 -12 -5q-38 0 -150 105l-41 40v6l-2 -3l-15 21l-54 53q-9 9 -9 20q0 7 4 16z" />
<glyph unicode="&#xfa;" horiz-adv-x="779" d="M0 716l4 4v4l-4 20l4 36l-4 92l4 12l-4 4l4 60v92l4 4l-4 4v12l4 56l-4 4l4 20v40q2 9 32 24l76 -4h20l4 -4l32 8q11 -13 16 -44l-4 -4v-4l16 -96h-4l8 -40l-4 -4q15 -113 24 -556l4 -4l-4 -12l4 -12v-8h-4q11 -220 24 -220q10 -12 72 -24h52q52 0 52 112l-4 16l4 4v4 l-4 28l4 20l-8 92v56l4 4l-4 4l4 68l-4 252h4l-4 4l4 48v168l-4 36l4 4l-4 20v16l4 4l-4 4v4l4 12l-4 4v4l4 12l-4 4v4q7 28 16 28h24l4 -4l4 4h4l4 -4l4 4l64 -8l32 4h4l12 -12v-116l4 -24l-4 -4l4 -28v-236q0 -150 16 -276h-4l4 -4v-8h-4l4 -68v-4l-4 -56l4 -4v-4l-4 -4 v-4l4 -44h-4l4 -4v-132l-4 -4l4 -4l-20 -116q0 -52 -96 -52q-412 23 -412 52q-45 19 -56 240l-8 80l4 4v4q-4 112 -16 184h4l-4 4v132zM198 1296q-6 6 -6 16q0 49 152 201l38 44q32 32 54 32q12 0 21 -9q1 1 2 1q12 0 80 -68l5 -5q4 -9 4 -16q0 -11 -9 -20l-54 -53l-15 -21 l-3 3v-6l-41 -40q-111 -105 -149 -105q-7 0 -12 5q-49 39 -61 39q-2 0 -3 -1z" />
<glyph unicode="&#xfb;" horiz-adv-x="1059" />
<glyph unicode="&#xfc;" horiz-adv-x="734" d="M0 716l4 4v4l-4 20l4 36l-4 92l4 12l-4 4l4 60v92l4 4l-4 4v12l4 56l-4 4l4 20v40q2 9 32 24l76 -4h20l4 -4l32 8q11 -13 16 -44l-4 -4v-4l16 -96h-4l8 -40l-4 -4q15 -113 24 -556l4 -4l-4 -12l4 -12v-8h-4q11 -220 24 -220q10 -12 72 -24h52q52 0 52 112l-4 16l4 4v4 l-4 28l4 20l-8 92v56l4 4l-4 4l4 68l-4 252h4l-4 4l4 48v168l-4 36l4 4l-4 20v16l4 4l-4 4v4l4 12l-4 4v4l4 12l-4 4v4q7 28 16 28h24l4 -4l4 4h4l4 -4l4 4l64 -8l32 4h4l12 -12v-116l4 -24l-4 -4l4 -28v-236q0 -150 16 -276h-4l4 -4v-8h-4l4 -68v-4l-4 -56l4 -4v-4l-4 -4 v-4l4 -44h-4l4 -4v-132l-4 -4l4 -4l-20 -116q0 -52 -96 -52q-412 23 -412 52q-45 19 -56 240l-8 80l4 4v4q-4 112 -16 184h4l-4 4v132zM100 1328l16 -60q0 -21 32 -36h60q38 0 60 40v4q-8 124 -36 124h-88q-44 0 -44 -68v-4zM362 1336l16 -60q0 -21 32 -36h60q38 0 60 40v4 q-8 124 -36 124h-88q-44 0 -44 -68v-4z" />
<glyph unicode="&#xfd;" horiz-adv-x="868" d="M0 28l32 80q148 353 188 476v8l-36 100q-145 322 -152 448v32q0 39 92 48h8v-4l4 4h4q100 -13 100 -48q72 -185 72 -280q16 -29 24 -80h8q24 49 84 220l64 188q16 12 44 12l4 -4h4l20 4q120 -17 120 -36v-40q-40 -135 -144 -360q-72 -163 -188 -484q-22 -33 -64 -184 q-30 -53 -48 -104q-22 -24 -72 -24l-28 4l-52 -4h-16q-72 4 -72 28zM198 1296q-6 6 -6 16q0 49 152 201l38 44q32 32 54 32q12 0 21 -9q1 1 2 1q12 0 80 -68l5 -5q4 -9 4 -16q0 -11 -9 -20l-54 -53l-15 -21l-3 3v-6l-41 -40q-111 -105 -149 -105q-7 0 -12 5q-49 39 -61 39 q-2 0 -3 -1z" />
<glyph unicode="&#xfe;" horiz-adv-x="1010" />
<glyph unicode="&#xff;" horiz-adv-x="794" d="M0 28l32 80q148 353 188 476v8l-36 100q-145 322 -152 448v32q0 39 92 48h8v-4l4 4h4q100 -13 100 -48q72 -185 72 -280q16 -29 24 -80h8q24 49 84 220l64 188q16 12 44 12l4 -4h4l20 4q120 -17 120 -36v-40q-40 -135 -144 -360q-72 -163 -188 -484q-22 -33 -64 -184 q-30 -53 -48 -104q-22 -24 -72 -24l-28 4l-52 -4h-16q-72 4 -72 28zM152 1328l16 -60q0 -21 32 -36h60q38 0 60 40v4q-8 124 -36 124h-88q-44 0 -44 -68v-4zM414 1336l16 -60q0 -21 32 -36h60q38 0 60 40v4q-8 124 -36 124h-88q-44 0 -44 -68v-4z" />
<glyph unicode="&#x152;" horiz-adv-x="1483" d="M0 944q0 240 48 240l24 8v-4q18 8 52 8h60l4 -4l4 4h4l20 -4l32 4q49 -4 56 -12l44 8h24l4 -4l4 4h4l4 -4l64 12q68 -14 68 -56v-76l4 -36l-4 -4v-4l4 -44v-44l-4 -4l4 -4l-4 -40v-76l-4 -44l4 -4v-4l-20 -264l4 -4v-4l-4 -4v-4l4 -4l-8 -48l4 -4q-24 -380 -48 -380 q-19 -44 -44 -44h-8l-68 4l-48 -4h-8v4l-20 -4h-60l-36 4l-40 -4h-68q-44 15 -44 76l-4 12l4 240v68l4 4l-4 4v48l4 36l-4 12h4l-4 4l4 20v36l-4 12l4 20v172l-4 40h4l-4 4v12l4 4q-12 34 -12 120zM100 956h4l8 -8h-4zM200 780l4 -4v-156l4 -20h-4l4 -4l-4 -44l4 -120 l-4 -12l4 -4v-4l-4 -4v-4l4 -12l-4 -16l4 -16h-4l4 -12l-4 -24l4 -4l-4 -28l4 -60l20 -4q52 0 52 56l-4 44h4l-4 4l4 28v60l8 68l-4 40l4 76v20l4 16l-4 4v4l4 4l-8 76l8 216l4 16l-8 32l-4 -4h-4l-20 4q-44 0 -44 -64q-7 0 -8 -28v-40q0 -80 -8 -80zM652 216l4 76v24l-4 20 l4 24v60l4 4l-4 4v20l8 44h-4l4 4v12l-8 12l4 4l-4 4v144l-4 16l8 28l-4 20q0 20 8 20l-4 4l4 20v36l4 4l-4 4l20 176v68l4 4l-4 4v4l-4 88q3 36 8 36l-4 4v4q0 17 124 20l32 -8l112 4v-4l12 4q92 -7 92 -12l4 4h4l124 -4l36 4l32 -8l4 4q76 0 76 -56v-84q0 -57 -72 -64v4 l-4 -4l-56 8l-104 -8l-4 4h-4l-16 -4l-4 4l-4 -4h-48l-60 -4v4l-4 -4h-64l-4 4l-4 -4l-20 4h-48l-8 -8h4l-8 -24v-8l4 4q10 -8 76 -20h48l224 -40q23 0 32 -84q-19 -88 -88 -88l-312 -24v-4l-4 -32q16 -66 28 -224l-4 -4v-4l8 -56l-4 -16l4 -36l-4 -4v-4q0 -92 28 -92 l84 -16l20 4q299 -29 332 -40q20 -30 20 -44v-32q0 -112 -72 -112l-40 -4l-8 12l-20 -4h-84l-24 -4l-16 4l-16 -4l-144 20l-4 -4h-4q-9 7 -88 12l-4 -4v8l-16 -4l-80 24l-4 -4h-8v8h8q-12 15 -12 56v4l4 4l-8 32l4 20l-4 4v4l4 4v4zM716 12v8h12v-4z" />
<glyph unicode="&#x153;" horiz-adv-x="1483" d="M0 944q0 240 48 240l24 8v-4q18 8 52 8h60l4 -4l4 4h4l20 -4l32 4q49 -4 56 -12l44 8h24l4 -4l4 4h4l4 -4l64 12q68 -14 68 -56v-76l4 -36l-4 -4v-4l4 -44v-44l-4 -4l4 -4l-4 -40v-76l-4 -44l4 -4v-4l-20 -264l4 -4v-4l-4 -4v-4l4 -4l-8 -48l4 -4q-24 -380 -48 -380 q-19 -44 -44 -44h-8l-68 4l-48 -4h-8v4l-20 -4h-60l-36 4l-40 -4h-68q-44 15 -44 76l-4 12l4 240v68l4 4l-4 4v48l4 36l-4 12h4l-4 4l4 20v36l-4 12l4 20v172l-4 40h4l-4 4v12l4 4q-12 34 -12 120zM100 956h4l8 -8h-4zM200 780l4 -4v-156l4 -20h-4l4 -4l-4 -44l4 -120 l-4 -12l4 -4v-4l-4 -4v-4l4 -12l-4 -16l4 -16h-4l4 -12l-4 -24l4 -4l-4 -28l4 -60l20 -4q52 0 52 56l-4 44h4l-4 4l4 28v60l8 68l-4 40l4 76v20l4 16l-4 4v4l4 4l-8 76l8 216l4 16l-8 32l-4 -4h-4l-20 4q-44 0 -44 -64q-7 0 -8 -28v-40q0 -80 -8 -80zM652 216l4 76v24l-4 20 l4 24v60l4 4l-4 4v20l8 44h-4l4 4v12l-8 12l4 4l-4 4v144l-4 16l8 28l-4 20q0 20 8 20l-4 4l4 20v36l4 4l-4 4l20 176v68l4 4l-4 4v4l-4 88q3 36 8 36l-4 4v4q0 17 124 20l32 -8l112 4v-4l12 4q92 -7 92 -12l4 4h4l124 -4l36 4l32 -8l4 4q76 0 76 -56v-84q0 -57 -72 -64v4 l-4 -4l-56 8l-104 -8l-4 4h-4l-16 -4l-4 4l-4 -4h-48l-60 -4v4l-4 -4h-64l-4 4l-4 -4l-20 4h-48l-8 -8h4l-8 -24v-8l4 4q10 -8 76 -20h48l224 -40q23 0 32 -84q-19 -88 -88 -88l-312 -24v-4l-4 -32q16 -66 28 -224l-4 -4v-4l8 -56l-4 -16l4 -36l-4 -4v-4q0 -92 28 -92 l84 -16l20 4q299 -29 332 -40q20 -30 20 -44v-32q0 -112 -72 -112l-40 -4l-8 12l-20 -4h-84l-24 -4l-16 4l-16 -4l-144 20l-4 -4h-4q-9 7 -88 12l-4 -4v8l-16 -4l-80 24l-4 -4h-8v8h8q-12 15 -12 56v4l4 4l-8 32l4 20l-4 4v4l4 4v4zM716 12v8h12v-4z" />
<glyph unicode="&#x178;" horiz-adv-x="846" d="M0 28l32 80q148 353 188 476v8l-36 100q-145 322 -152 448v32q0 39 92 48h8v-4l4 4h4q100 -13 100 -48q72 -185 72 -280q16 -29 24 -80h8q24 49 84 220l64 188q16 12 44 12l4 -4h4l20 4q120 -17 120 -36v-40q-40 -135 -144 -360q-72 -163 -188 -484q-22 -33 -64 -184 q-30 -53 -48 -104q-22 -24 -72 -24l-28 4l-52 -4h-16q-72 4 -72 28zM274 1450l16 -60q0 -21 32 -36h60q38 0 60 40v4q-8 124 -36 124h-88q-44 0 -44 -68v-4zM614 1498l24 -96l28 -28l92 12q51 0 68 52l-12 80q-14 40 -60 40h-4l-4 -4v4l-64 -8q-68 0 -68 -44v-4l4 -4h-4z " />
<glyph unicode="&#x2c6;" horiz-adv-x="1024" d="M221 1079l232 355h118l232 -355h-58l-233 216l-233 -216h-58z" />
<glyph unicode="&#x2dc;" horiz-adv-x="1024" d="M234 1132q19 106 68 158.5t129 52.5q46 -1 113 -24q64 -23 112 -23h4q36 0 58 20t36 66h54q-20 -103 -68.5 -154t-126.5 -51h-4q-50 0 -113 23q-66 24 -114 24q-39 0 -60.5 -20.5t-33.5 -71.5h-54z" />
<glyph unicode="&#x2013;" horiz-adv-x="1108" d="M56 419v120h996v-120h-996z" />
<glyph unicode="&#x2014;" horiz-adv-x="2048" d="M0 419v120h2048v-120h-2048z" />
<glyph unicode="&#x2018;" horiz-adv-x="557" d="M186 1233q0 109 71 226.5t139 117.5v-43q-73 -43 -87 -190q0 -119 129 -161v-42l-119 -125q-44 0 -88.5 65.5t-44.5 151.5z" />
<glyph unicode="&#x2019;" horiz-adv-x="557" d="M119 1410v42l119 125q44 0 88.5 -65.5t44.5 -151.5q0 -109 -71 -226.5t-139 -117.5v43q73 43 87 190q0 119 -129 161z" />
<glyph unicode="&#x201a;" horiz-adv-x="557" d="M119 114v42l119 125q44 0 88.5 -65.5t44.5 -151.5q0 -109 -71 -226.5t-139 -117.5v43q73 43 87 190q0 119 -129 161z" />
<glyph unicode="&#x201c;" horiz-adv-x="910" d="M186 1233q0 109 71 226.5t139 117.5v-43q-73 -43 -87 -190q0 -119 129 -161v-42l-119 -125q-44 0 -88.5 65.5t-44.5 151.5zM539 1233q0 109 71 226.5t139 117.5v-43q-73 -43 -87 -190q0 -119 129 -161v-42l-119 -125q-44 0 -88.5 65.5t-44.5 151.5z" />
<glyph unicode="&#x201d;" horiz-adv-x="910" d="M119 1410v42l119 125q44 0 88.5 -65.5t44.5 -151.5q0 -109 -71 -226.5t-139 -117.5v43q73 43 87 190q0 119 -129 161zM472 1410v42l119 125q44 0 88.5 -65.5t44.5 -151.5q0 -109 -71 -226.5t-139 -117.5v43q73 43 87 190q0 119 -129 161z" />
<glyph unicode="&#x201e;" horiz-adv-x="910" d="M119 114v42l119 125q44 0 88.5 -65.5t44.5 -151.5q0 -109 -71 -226.5t-139 -117.5v43q73 43 87 190q0 119 -129 161zM472 114v42l119 125q44 0 88.5 -65.5t44.5 -151.5q0 -109 -71 -226.5t-139 -117.5v43q73 43 87 190q0 119 -129 161z" />
<glyph unicode="&#x2022;" horiz-adv-x="1024" d="M216 718q0 123 87 209t210 86q122 0 208.5 -86.5t86.5 -208.5t-87.5 -209.5t-209.5 -87.5q-123 0 -209 87t-86 210z" />
<glyph unicode="&#x2026;" horiz-adv-x="2048" d="M136 148q34 20 124 20q16 0 28 -152q-22 -16 -40 -16q-96 0 -96 20q-16 87 -16 128zM863 148q34 20 124 20q16 0 28 -152q-22 -16 -40 -16q-96 0 -96 20q-16 87 -16 128zM1552 148q34 20 124 20q16 0 28 -152q-22 -16 -40 -16q-96 0 -96 20q-16 87 -16 128z" />
<glyph unicode="&#x2039;" horiz-adv-x="631" d="M174 479l342 303h14v-37l-205 -266l205 -266v-37h-14z" />
<glyph unicode="&#x203a;" horiz-adv-x="631" d="M101 176v37l205 266l-205 266v37h14l342 -303l-342 -303h-14z" />
<glyph unicode="&#x20ac;" d="M-44 653l17 60h87v29q0 16 1 31h-71l17 60h58q14 145 76 281q81 178 226 274t298 96q43 0 87 -8q40 -10 82 -29q8 -6 16 -6q20 0 34 45h41l84 -281l-40 -1q-49 134 -138 178q-43 22 -81 32v3q-50 16 -101 16q-17 0 -34 -2q-120 -12 -226 -113.5t-157 -273.5 q-32 -104 -39 -211h706l-17 -60h-692q0 -30 2 -60h674l-17 -60h-652q17 -158 83 -298q74 -157 193 -236q102 -68 216 -69q186 3 256 91q74 91 74 185h48v-143q0 -70 -111 -127q-105 -54 -267 -56q-181 0 -325.5 98t-223.5 274q-62 135 -76 281h-108z" />
<glyph unicode="&#x2122;" horiz-adv-x="1497" />
<glyph unicode="&#xe000;" horiz-adv-x="1210" d="M0 1210h1210v-1210h-1210v1210z" />
<glyph unicode="&#xf001;" horiz-adv-x="1073" />
<glyph unicode="&#xfb01;" horiz-adv-x="1073" />
<glyph unicode="&#xf002;" horiz-adv-x="1081" />
<glyph unicode="&#xfb02;" horiz-adv-x="1081" />
<glyph unicode="&#xfb03;" horiz-adv-x="1978" d="M0 872l4 16l-4 12h4l-4 4v4l4 4l-4 4l4 48v68q0 106 40 136l12 -4l68 4h152l4 -4l4 4l16 -4l44 4l56 -4l44 4l56 -12l68 8q100 0 100 -56l-4 -24l8 -56v-20l-24 -24h-4q-64 0 -128 -12v4l-4 -4l-84 8l-12 -4l-16 4l-12 -4v4l-4 -4l-48 8l-4 -4l-12 4l-84 -4h-28l-24 4 q-52 -13 -52 -56v-16l4 -28h-4q11 -48 48 -48l68 4l132 -8h16q48 0 48 -64q0 -72 -104 -72q-168 0 -168 -48v-8l4 -20h-4l8 -32l-4 -64l4 -12l-4 -12l4 -20h-4l4 -4v-4l-4 -4l8 -64h-4l8 -40l-4 -4v-16l4 -12l-8 -128l-4 -4v-4l4 -12h-4l4 -4v-28l-4 -4l4 -4v-48l-4 -24 l4 -4v-4q-16 -60 -60 -60l-28 -4v4l-4 -4q-72 6 -72 20v12l4 4l-4 4v4l4 4q-8 18 -8 52v56l4 4l-8 36l4 28v188l-4 24l4 20v88l-4 16l4 16v28l-4 40l4 20l-4 32h4l-8 48l4 4v4l-4 16l4 4l-4 4v4l4 4zM794 872l4 16l-4 12h4l-4 4v4l4 4l-4 4l4 48v68q0 106 40 136l12 -4l68 4 h152l4 -4l4 4l16 -4l44 4l56 -4l44 4l56 -12l68 8q100 0 100 -56l-4 -24l8 -56v-20l-24 -24h-4q-64 0 -128 -12v4l-4 -4l-84 8l-12 -4l-16 4l-12 -4v4l-4 -4l-48 8l-4 -4l-12 4l-84 -4h-28l-24 4q-52 -13 -52 -56v-16l4 -28h-4q11 -48 48 -48l68 4l132 -8h16q48 0 48 -64 q0 -72 -104 -72q-168 0 -168 -48v-8l4 -20h-4l8 -32l-4 -64l4 -12l-4 -12l4 -20h-4l4 -4v-4l-4 -4l8 -64h-4l8 -40l-4 -4v-16l4 -12l-8 -128l-4 -4v-4l4 -12h-4l4 -4v-28l-4 -4l4 -4v-48l-4 -24l4 -4v-4q-16 -60 -60 -60l-28 -4v4l-4 -4q-72 6 -72 20v12l4 4l-4 4v4l4 4 q-8 18 -8 52v56l4 4l-8 36l4 28v188l-4 24l4 20v88l-4 16l4 16v28l-4 40l4 20l-4 32h4l-8 48l4 4v4l-4 16l4 4l-4 4v4l4 4zM1588 212l4 20v32q1 68 8 68l-4 4v12l4 4l-4 4v4l4 24l-4 4l4 12l-4 216v76l4 16l-4 4l12 192v24q0 80 -8 80l4 20q0 164 60 164q40 4 40 12 q95 0 104 -56l8 -92h-4l4 -4v-4l-4 -4l4 -4v-52l-4 -4l4 -4l-4 -80v-92l-4 -4l4 -4l-4 -16l4 -12l-4 -28l4 -4l-4 -20v-104l-4 -16l4 -4l-4 -28v-52l-4 -4l4 -4l-8 -40l4 -4l-4 -20v-56l-4 -56l4 -4l-4 -20v-44l-4 -4l4 -4l-8 -52l4 -4l-4 -20v-76q0 -100 -44 -100l-4 4 l-76 -8q-68 13 -68 60l4 12l-4 4l4 16l-4 48h4l-4 4v56zM1624 568h4v16h-4v-16z" />
<glyph unicode="&#xfb04;" horiz-adv-x="2270" d="M0 872l4 16l-4 12h4l-4 4v4l4 4l-4 4l4 48v68q0 106 40 136l12 -4l68 4h152l4 -4l4 4l16 -4l44 4l56 -4l44 4l56 -12l68 8q100 0 100 -56l-4 -24l8 -56v-20l-24 -24h-4q-64 0 -128 -12v4l-4 -4l-84 8l-12 -4l-16 4l-12 -4v4l-4 -4l-48 8l-4 -4l-12 4l-84 -4h-28l-24 4 q-52 -13 -52 -56v-16l4 -28h-4q11 -48 48 -48l68 4l132 -8h16q48 0 48 -64q0 -72 -104 -72q-168 0 -168 -48v-8l4 -20h-4l8 -32l-4 -64l4 -12l-4 -12l4 -20h-4l4 -4v-4l-4 -4l8 -64h-4l8 -40l-4 -4v-16l4 -12l-8 -128l-4 -4v-4l4 -12h-4l4 -4v-28l-4 -4l4 -4v-48l-4 -24 l4 -4v-4q-16 -60 -60 -60l-28 -4v4l-4 -4q-72 6 -72 20v12l4 4l-4 4v4l4 4q-8 18 -8 52v56l4 4l-8 36l4 28v188l-4 24l4 20v88l-4 16l4 16v28l-4 40l4 20l-4 32h4l-8 48l4 4v4l-4 16l4 4l-4 4v4l4 4zM794 872l4 16l-4 12h4l-4 4v4l4 4l-4 4l4 48v68q0 106 40 136l12 -4l68 4 h152l4 -4l4 4l16 -4l44 4l56 -4l44 4l56 -12l68 8q100 0 100 -56l-4 -24l8 -56v-20l-24 -24h-4q-64 0 -128 -12v4l-4 -4l-84 8l-12 -4l-16 4l-12 -4v4l-4 -4l-48 8l-4 -4l-12 4l-84 -4h-28l-24 4q-52 -13 -52 -56v-16l4 -28h-4q11 -48 48 -48l68 4l132 -8h16q48 0 48 -64 q0 -72 -104 -72q-168 0 -168 -48v-8l4 -20h-4l8 -32l-4 -64l4 -12l-4 -12l4 -20h-4l4 -4v-4l-4 -4l8 -64h-4l8 -40l-4 -4v-16l4 -12l-8 -128l-4 -4v-4l4 -12h-4l4 -4v-28l-4 -4l4 -4v-48l-4 -24l4 -4v-4q-16 -60 -60 -60l-28 -4v4l-4 -4q-72 6 -72 20v12l4 4l-4 4v4l4 4 q-8 18 -8 52v56l4 4l-8 36l4 28v188l-4 24l4 20v88l-4 16l4 16v28l-4 40l4 20l-4 32h4l-8 48l4 4v4l-4 16l4 4l-4 4v4l4 4zM1588 1036v8l4 148q0 8 76 12v-4l4 4h8l60 -12h28q40 -13 40 -80l4 -56v-60l4 -40h-4l4 -12q-16 -236 -16 -352v-172q0 -196 24 -196l16 -4l56 8h76 q168 -13 168 -48l16 -132q0 -44 -176 -44l-48 -4l-12 4l-4 -4h-4q-108 9 -108 16l-4 -4l-20 4h-4l-68 -4q-96 0 -96 56v140l-8 256l-4 4v4l4 4v8h-4l4 60v64l-4 32l4 32v24l-4 16l4 4l-4 28v28l4 16l-8 64l4 4v4l-4 4v12h4q-12 85 -12 160z" />
</font>
</defs>
</svg>
