<?xml version="1.0" standalone="no"?>
<!DOCTYPE svg PUBLIC "-//W3C//DTD SVG 1.1//EN" "http://www.w3.org/Graphics/SVG/1.1/DTD/svg11.dtd" >
<svg xmlns="http://www.w3.org/2000/svg">
<metadata>
This is a custom SVG webfont generated by Font Squirrel.
Copyright   : Typeface  your company 2011 All Rights Reserved
Designer    : Julia Martinez Diana ANTIPIXEL
</metadata>
<defs>
<font id="SaviaRegular" horiz-adv-x="1014" >
<font-face units-per-em="2048" ascent="1638" descent="-410" />
<missing-glyph horiz-adv-x="508" />
<glyph unicode=" "  horiz-adv-x="508" />
<glyph unicode="&#x09;" horiz-adv-x="508" />
<glyph unicode="&#xa0;" horiz-adv-x="508" />
<glyph unicode="!" horiz-adv-x="412" d="M188 1156q60 -19 60 -68l4 -12v-8l-4 -4l8 -32h-4q8 -20 8 -92v-48h4q0 16 8 16q8 -17 8 -64v-68l4 -16l-4 -16l4 -20h-4l4 -4v-80l4 -24l-4 -12l8 -40h-4l12 -72l-4 -4l8 -60l-4 -4l4 -20v-76q0 -84 -28 -120l-8 -28h4q33 0 44 -68q-8 -54 -20 -76l4 -4v-4 q0 -19 -88 -28h-68q-58 0 -68 92q0 34 60 72v4q-52 0 -52 48q-16 23 -40 208q-44 302 -44 604q61 124 168 124zM92 1096v-32l8 -140h-4l4 -4v-4l-4 -4l4 -12l-4 -4v-4l4 -16v-4l-4 -4l4 -12l44 -452l-4 -16l12 -84l-4 -4v-4l4 -4v-4l-4 -16l4 -12h-4q0 -20 20 -20l8 -8 l-4 -4h20l36 8l4 -4h4q44 0 44 64v32l4 4l-4 4v4l4 4l-4 28v52l-20 268q-20 0 -28 256l4 16q-11 160 -56 160l-24 4q-38 0 -64 -32zM32 1012v-20l32 28l-4 20zM32 952l4 -12q20 20 32 20l-4 28zM32 900v-36q27 28 40 28v48zM32 828v-28l44 44l-4 28zM36 768v-24q36 36 44 36 l-4 20l4 4v4h-4zM76 752l-36 -48v-8l44 36l-4 20h-4zM44 656v-24h4q0 11 44 48l-4 28q-22 -17 -44 -52zM48 592v-16q36 36 48 36v36h-4zM52 548l4 -32h4q0 15 44 44l-4 32q-38 -44 -48 -44zM60 480l4 -12l-4 -4l4 -4h4q26 40 44 40l-4 36zM68 424l4 -20l44 36l-4 32zM76 376 v-12h4q29 28 40 28v20h-4q-31 -36 -40 -36zM84 332l4 -24h4l32 32l-4 20q-26 -28 -36 -28zM120 296q-6 -20 -24 -20v-20h4q28 16 28 36l-4 4h-4zM104 216l4 -4h4q0 8 12 8l4 4v16zM228 204v-4h24v8h-4zM140 196h12l8 8h-12zM168 144h-8v-8l4 -16l-4 -16q0 -28 48 -28l20 8 l4 -4q52 0 60 24l-4 4v4l4 4q-9 36 -20 36l-44 8zM124 92l-8 -16h4q8 0 8 12v4h-4zM212 52q0 -13 -20 -20v-8q20 0 20 16l12 4v4z" />
<glyph unicode="&#x22;" horiz-adv-x="672" />
<glyph unicode="#" horiz-adv-x="1019" d="M592 993q48 0 48 -84l-4 -24l4 -12h-4l4 -4v-40l4 -68l-4 -4q36 -1 36 -8q0 11 104 20q56 0 56 -88h-4l8 -28q-48 -60 -80 -60h-4v-4l20 -4h24l16 4q52 -15 52 -52l4 -40h-4l4 -4v-16l-8 -12l4 -4v-4q-41 -60 -88 -60l-24 -4v4l-4 -4h-64v-20l4 -40h-4q8 -17 8 -64v-8 l4 4h4l4 -4h4q0 -27 -56 -88l-40 4l-12 -4q-40 0 -40 28l-8 44h-12q0 -10 -20 -32q0 -48 -44 -48l-80 16q-16 33 -24 152q-7 0 -8 20v12q-16 0 -16 8l-4 -4h-8l-12 8l-4 -4l-112 8v4l-4 -4h-4q-64 0 -64 28l-8 72q0 19 40 48l24 32q-68 0 -68 28l-8 24q0 59 56 96l4 -4h4 q0 24 72 24h40l8 8l-4 4v4l4 4l-12 60h4l-4 4v4l4 4l-8 52l8 36l-4 4q37 51 60 64h8l4 -4q8 7 68 12q36 0 36 -80h4q0 41 68 84zM548 953l8 -88l-4 -16l8 -88q0 -32 -72 -32q-29 0 -44 36l4 4v4l-4 16l4 4l-4 4v52l-4 16l4 4v4q-2 80 -16 80l-12 4l-36 -8l8 -100l-4 -24v-28 l4 -24q0 -60 -52 -60l-4 4q0 -9 -68 -16l-4 4h-4l-4 -4h-4l-4 4h-4q-52 -4 -52 -16v-28l8 -20h20l12 8l8 -8l4 4h104q40 0 40 -60q0 -44 -40 -44h-12l-120 -4l-4 -32l4 -12h-4q7 -40 20 -40h176q48 -33 48 -172l4 -4q0 -12 16 -24l-4 -4v-4h4q39 0 52 16l-12 128h-4 q0 64 40 64l32 4q28 0 40 -196h32q20 0 20 8q-2 80 -12 80l4 16l-8 48h4l-4 4v16q0 40 96 40l4 -4l88 12v36q0 40 -32 40l-156 -4l-12 60q0 39 92 44v-4l4 4h20q48 0 48 8q0 76 -20 76h-8v4l-104 -20h-12l-16 4l-20 -8q-20 6 -20 28v4l8 8l-4 20v44l-4 20h4l-4 4v4l4 4l-4 4 v4l4 4l-4 12l4 12l-8 48h4q-2 20 -24 20h-28zM500 917v-8l24 16l-4 16zM316 865v-12q40 31 40 52v20q-40 -42 -40 -60zM496 865h4q16 16 28 16l-4 20q-28 -20 -28 -36zM320 833v-20q9 0 36 32h4v20q-32 -32 -40 -32zM500 825l4 -12l24 8v4l-4 16l4 12zM468 841q2 -80 16 -80 v8l-8 44l4 4v4l-4 20h-8zM324 789l4 -20h4l28 20v32q-21 -24 -32 -24l-4 -4v-4zM508 785v-8h8q0 12 16 12v16q-16 -5 -24 -20zM328 745v-4h20l12 12v12h-4q-17 -20 -28 -20zM148 625v-8h4q16 7 16 28zM516 649h24q40 0 40 -56v-4q-32 -28 -88 -28l-12 16v20l4 4l-4 4v4l4 4 l-4 4v16q5 16 36 16zM704 625l-12 -20h20v12zM180 621l-28 -36h48v4q-20 0 -20 8l16 20zM256 597v-12h24q0 16 24 36q-36 0 -48 -24zM328 621l-28 -32h4q20 0 40 28zM220 617q-16 -17 -16 -32q28 0 48 32h-8l-20 -4zM500 609v-12l8 -8h8l20 4v4q-28 0 -28 20zM720 589v-4h16 v4h-16zM320 573v-4l12 -4l12 4v4h-24zM148 481v-4l36 36v4zM156 445h8q4 28 20 32v8q-20 -10 -28 -40zM788 437h4l8 8v4zM824 449l-4 -12h4l4 4v8h-4zM724 445l-8 -20h8l8 16l-4 4h-4zM748 425v-12h16l-4 12l8 20h-4zM684 437v-16h4l4 16h-8zM200 433l-16 -28h16l20 12v8 l-16 8h-4zM796 433l-12 -16h4l20 4v8zM560 421l12 -4v12h-4zM228 405v-4l20 4l4 -4l16 20v4h-20zM272 405v-8q21 0 36 24v4h-8zM324 417v-16l16 -4l20 28h-20zM400 353h4q12 4 12 24zM580 345v-20h4l4 20h-8zM404 309h8l12 20v12q-13 -10 -20 -32zM544 329v-28l4 -12h4v4 l-4 36h-4zM584 297l-8 -24v-4h4l8 16v12h-4zM420 289l-8 -20l4 -4h4l8 24h-8zM548 281v-20h4v20h-4zM588 253l-4 -16l4 -4h4l4 16l-4 4h-4zM664 221v-4h4l8 16v4zM600 209q12 4 12 24q-12 -4 -12 -24zM620 197h4q9 0 20 32h-4zM416 221l4 -20h12v4l-4 12l4 4h-16zM476 193 h20l4 28q-12 -2 -24 -28z" />
<glyph unicode="$" d="M482 1300q68 0 68 -28q3 -44 12 -44q196 0 196 -32l12 -92q-17 -124 -40 -124l-12 -12h-8l-36 4l-4 -4h-4l-68 8l-16 -4h-24l-4 4h-4v-4l8 -60h104q82 -10 116 -32q32 -33 32 -172v-4h-4l4 -4v-4l-4 -4l4 -4l-4 -108v-4q0 -102 8 -124l-4 -4v-4l8 -128v-32 q0 -68 -28 -104q-32 -76 -80 -76l-20 4l-16 -4l-4 4h-4q-72 -11 -72 -16q0 -12 -36 -52q0 -24 -24 -40h-8l-44 8h-52q-16 0 -20 52h4q-6 16 -12 16h-12l-28 -4v4l-4 -4h-4l-4 4h-4l-4 -4h-4l-4 4l-20 -4l-168 28q-11 0 -20 92q0 31 60 72q12 0 28 16l20 4q156 -4 156 -16 l56 8v68l-4 16l4 16l-4 12l4 20l-4 92h4l-4 4v4l4 4l-4 4v80l-4 20h4l-12 44h4q0 40 -72 40h-16l-4 4l-4 -4l-20 4h-4l-32 -4q-172 15 -172 56q-20 65 -20 108l4 4v4q-12 31 -16 96h4l-4 4l4 60v40q0 18 64 88q27 35 192 56v-4l40 12q0 49 52 64h8l4 -4q0 9 40 16zM462 1260 l4 -20q-6 -40 -20 -40l-16 4l-36 -12l-20 4l-32 -12l-12 4l-144 -36q-12 -20 -20 -72l8 -20l-4 -20v-12l4 -20h-4q8 -18 8 -52v-32l4 -16l-4 -4q12 -112 56 -112l12 -4l4 4h4l28 -4l20 4v-4l152 20q64 0 64 -108l-4 -32l4 -4l-4 -20v-80l4 -16l-4 -16v-4l4 -40l-4 -20l4 -12 l-4 -28l4 -36h-4l4 -4v-56q0 -26 -12 -40l4 -4v-4q-18 -40 -68 -40l-4 4l-20 -4l-168 12q-32 -4 -32 -28q0 -59 32 -68l136 -8l4 4h4l4 -4l20 4h36q18 0 36 -24l-4 -20v-4q8 -9 8 -28h8v-4q41 4 56 20l-4 28q0 48 60 48l40 12v-4q132 21 132 56l-4 4l8 60q-5 141 -16 200 l4 4l-4 80v20l4 36l-4 4l4 20v28l4 4l-4 4v60q0 104 -44 104q0 11 -148 20l-44 -4q-16 0 -28 136q9 36 20 36q204 10 204 24v4q0 108 -16 108h-8v4l-4 -4l-56 8h-20l-4 4l-12 -4l-4 4h-4l-4 -4l-20 4h-40l-24 28l4 20l-4 20h-52zM402 1232h8l12 20v4q-20 -6 -20 -24z M130 1108q-20 -29 -20 -40v-4h8l20 36v8h-8zM442 1068q28 0 28 -132q-8 -36 -40 -36q-128 0 -128 32l-8 76v28q17 28 24 28h68zM114 1028l4 -4h4l16 20v12q-7 0 -24 -28zM358 1040l-8 -16v-4h4l12 4l4 -4l8 20h-20zM402 1040v-8l20 -4v12h-4l-12 -4zM710 1036l4 -4v-4 l-20 -36h8q12 0 12 24l20 24zM662 1032q0 -17 -12 -36h24l16 32v4h-28zM606 996h16l20 28v4h-4q-20 0 -32 -32zM566 1000v-4h8q6 0 20 28h-8zM110 1020v-16h4l4 16h-8zM394 1000l4 -4h8l8 20v4zM138 1012l-24 -52h8q0 11 20 32v20h-4zM326 1000v-8q0 -56 28 -56l32 -4l-4 16 l4 4q0 34 -24 48h-36zM142 960l-28 -64l4 -4h8q0 12 20 44l4 24h-8zM106 948v-4h8v12zM142 888l-16 -48l4 -4h4q8 36 16 36l-4 16h-4zM122 832v-12l8 8v4h-8zM154 832l-20 -56h8q0 13 16 36v20h-4zM586 804q92 0 92 -108q9 -30 12 -204q-10 -240 -48 -240q0 -6 -52 -8 q-40 0 -40 88l4 52l-4 20l4 4l-4 28l-4 300l-4 20q0 48 44 48zM166 792l-12 -40h4l16 -4q0 10 16 28l-20 16h-4zM410 772v-4q12 0 12 -8l-20 -36l20 -4l40 44h8v-16q-24 -28 -24 -48q8 0 8 -16h4q0 35 28 40q0 48 -36 48h-40zM362 764l4 -4v-4l-16 -20v-8h32q0 18 20 40h-8z M570 768v-16h4l4 16h-8zM606 768l-24 -44l4 -4v-4l-4 -4v-4l12 -4l32 60zM206 764l-12 -24l28 -4l8 20zM310 736v-4h12q7 0 16 28h-8zM254 756l-8 -20l40 -8v4l4 20h-16zM630 732l-20 -40h4l-4 -12v-4h4l20 52v4h-4zM482 692q-11 -39 -20 -48v-8l24 8l-4 4v4l8 40h-8z M642 692l-16 -44q12 16 24 16l-4 28h-4zM574 688v-8h-4l12 -324l-4 -28l8 -20l-4 -4v-4l8 -24h16v60l-4 20h4l-4 4v92l-4 16l4 16l-4 4v4l4 4l-4 20q0 130 -20 172h-4zM618 640v-16h4v16h-4zM650 640l-20 -52v-8h4q0 16 12 16l8 -8v52h-4zM478 616l-12 -44l12 -12l-8 -12 v-16h16l-4 16l4 16l-4 16h4l-4 36h-4zM650 580q0 -18 -24 -76l16 12h8v-4l-24 -88v-32h4q0 34 28 64v44l-4 80h-4zM470 496l4 -4v-4l-4 -16l8 -8l-4 -44v-8l12 4v8h-4l4 40v20l-4 16l4 12q-8 0 -8 -12l-4 -4h-4zM482 384l-8 -36v-24l12 12l-4 4l4 20v24h-4zM642 380l-16 -36 v-8l8 -8l16 52h-8zM158 200h8q0 18 16 20v8q-17 -10 -24 -28zM166 164l4 -12l-12 -12l4 -4h4q28 36 28 64h-4q-8 0 -24 -36zM714 132h4q19 0 44 40q-36 0 -48 -40zM686 156l-12 -20v-8h8q12 3 20 28h-16zM198 152l-12 -32h12l12 -4v4l8 8v8l-16 16h-4zM626 124h4q24 6 24 24 h-12q-8 0 -16 -24zM590 132v-12h8l4 20h-4zM238 132l-8 -20h20l4 4l4 -4h8v12zM346 128l-12 -28h40q12 4 12 24h-32l-4 4h-4zM290 124l-4 -20h4l24 -4l-8 12q12 0 12 8v4h-28zM410 124v-16l24 -4l4 4v16h-28zM454 104q0 -13 -12 -28v-12h4l12 32v8h-4zM466 56l-8 -12v-8h20 v8zM502 36v-4l28 -4v8q-8 0 -8 12q-20 -5 -20 -12z" />
<glyph unicode="%" horiz-adv-x="1610" />
<glyph unicode="&#x26;" horiz-adv-x="1683" />
<glyph unicode="'" horiz-adv-x="346" />
<glyph unicode="(" horiz-adv-x="758" />
<glyph unicode=")" horiz-adv-x="758" />
<glyph unicode="*" horiz-adv-x="690" d="M329 1354h20l36 -4l16 4q64 -9 64 -32h4l-8 -48q23 20 48 20q48 -15 84 -92v-8q-19 -33 -104 -68q52 -78 52 -104v-12l-32 -56q-41 -20 -68 -20q-8 0 -56 56h-4q0 -21 -60 -72l-28 -4q-76 10 -76 64l16 8l-4 28l4 24h-40q-14 11 -60 16l-20 56h4l-4 4v8q0 32 84 48v4 l-64 84q25 72 88 72q20 -5 20 -12l4 4h20q32 -30 32 -40h4q3 32 8 32l-8 20q6 20 28 20zM345 1330v-4h16v8h-4zM325 1206q-24 11 -76 84h-4q-26 -12 -28 -24q0 -18 80 -108v-4q-16 -11 -108 -40q4 -48 16 -48l28 -4q31 0 68 40l28 4l4 -4v-4q0 -16 -32 -88v-16l52 -8 q12 18 32 80q12 0 12 20l16 8q12 0 12 -16q60 -72 68 -72l24 8v12l-56 96q0 19 100 68l4 16l-24 28q-12 0 -100 -52h-12l-12 12l20 124q-16 8 -44 8q-13 -7 -32 -108q-15 -12 -36 -12zM329 1270v-4h12v8zM165 1262l4 -4v-4q16 6 16 12h-4zM449 1238l-4 -20l28 12l-8 8h-16z M185 1234l12 -12h4v4l-8 8h-8zM205 1206l12 -12l8 8l-4 4h-16zM225 1174l-8 -20h4q19 12 36 12l-8 8l-20 -4zM141 1130v-4h12v8zM149 1098l8 -8l4 4v4h-12zM261 1018v-8l12 4v4h-12zM425 990l8 -8l12 12l12 -4q0 8 -12 8zM481 978v-8l12 4v8zM253 958v-4l16 -4h8v4l-20 4h-4 z" />
<glyph unicode="+" horiz-adv-x="806" d="M388 808l16 -4l40 4q44 0 56 -156l-4 -4q0 -64 32 -64q24 -3 24 -8l80 8q27 -4 32 -72q0 -39 -40 -112q-18 -15 -116 -32l-4 -4v-4l8 -88q-16 -27 -16 -52q-26 -48 -44 -48l-32 -8l-4 4h-4l-40 -4q-60 0 -68 96l-4 12h4l-16 76h4q0 22 -36 28l-40 -8q-80 0 -80 84 q-6 0 -12 52q1 20 52 60q26 36 88 36h20l-8 68h4l-4 4v4l4 4v4l-4 28q41 96 112 96zM364 772v-4l-4 -32l8 -52h-4l8 -36q0 -76 -52 -76h-80l-36 -12q8 -9 16 -92q24 -16 44 -16l40 4v-4l4 4h20q39 0 56 -76l12 -132l32 -4q37 0 52 56q-12 54 -12 92h4l-4 4q0 60 68 60 q92 13 92 48v24l-4 20h-44l-24 -4q-88 8 -88 80v4h4l-4 12q0 67 -16 104l4 4v4l-12 28zM304 688h4l12 12v4zM308 648l4 -12q7 0 24 28v20q-28 -24 -28 -36zM336 636l-20 -28v-4h8q11 0 16 28v4h-4zM156 492q19 28 32 28l-4 12q-28 -18 -28 -40zM160 452v-4l24 16h4l4 -4h4 l-4 28h-4q-6 0 -28 -36zM176 408v-4l12 -4l20 44h-8zM592 416h4q6 0 20 28h-4zM228 428l-12 -28h4q36 0 36 20zM288 424l-8 -24h4l20 -8l20 32h-36zM552 412v-4h4l8 8v8zM504 400l20 20h-4q-16 -4 -16 -20zM316 364l8 -8q0 14 28 36l-4 16q-9 -4 -32 -44zM352 352l-24 -56 l4 -4h4l20 40l-4 4v4l4 4v8h-4zM340 232h8l12 20v20q-9 0 -20 -40zM360 200v-4h16v32zM416 212l-4 -12h4q30 0 32 12h-4l-4 -4h-4l-16 4h-4z" />
<glyph unicode="," horiz-adv-x="557" d="M205 184l36 -4l20 4v-4l4 4h32q76 0 76 -64l-4 -24l4 -80h-4l4 -4v-16l-4 -4l4 -4v-4l-8 -12l4 -16l-44 -60l-36 -8h-24q-28 0 -28 100h4l-4 12q-80 0 -80 44l-8 64h4l-4 4v20zM225 104l4 4h8l4 -4l4 -12h4l12 4q47 0 64 -44l-8 -40l4 -4v-4l-4 -4l4 -12h4l20 4v20 l-4 108h4q-6 36 -32 36q-88 0 -88 -28v-24zM181 92v-24l16 16v24zM281 64l-36 -36l4 -4h8l20 16h4l4 -4h4l4 4v12zM213 56q0 -9 -20 -24h16l16 24h-12zM269 -24v-4l24 20l-4 16q-20 -10 -20 -32zM289 -52v-12h4l4 12h-8z" />
<glyph unicode="-" horiz-adv-x="670" d="M504 232h36q68 0 68 -120q-1 -25 -52 -104l-28 -4h-16l-4 4l-4 -4h-44l-16 -4l-16 4l-48 -4l-44 4l-36 -4l-48 4h-8l-16 -4q-108 0 -108 56l-12 80q0 14 76 76h8l16 -12q42 16 296 32zM420 192l-4 4l-120 -12v4q-84 -11 -84 -20v-24l-4 -24q0 -36 112 -36l184 12l4 -4h4 l28 4l4 -4h4l24 8l4 12l-4 4v20q0 46 -20 64h-48q-63 0 -84 -8zM184 88q-11 -32 -28 -32v-12l12 -4q3 13 24 28h4l-4 20h-8zM532 68l-12 -32h4l12 -4l24 32zM224 64l-16 -24v-8h28l-4 20l8 8v4h-16zM400 64l-24 -36l28 4h8l12 28zM460 64l-20 -32v-4l20 4h12l4 -4h4 q0 17 12 36h-32zM280 60l-16 -24v-4h28l8 20v4zM320 32h20l16 24l-4 4q-17 -4 -32 -28z" />
<glyph unicode="." horiz-adv-x="472" d="M304 256h16q56 -15 56 -108q8 0 8 -40q-29 -99 -40 -104l-24 -4q-172 0 -172 44l-12 88v8q0 53 124 108zM220 176q15 -84 20 -84h8v-4q104 9 104 20v4q0 49 -28 108h-16q-84 0 -84 -40zM192 120v-12l8 8l-4 4h-4zM180 96l-4 -12v-4h4l4 12v4h-4zM212 72l-24 -32h36l8 16z M256 36l44 -4l-4 4v4q7 0 12 20h-12q-29 0 -40 -24z" />
<glyph unicode="/" horiz-adv-x="569" d="M484 1244q72 -9 72 -36q-21 -75 -28 -80l4 -4v-4l-12 -20l4 -4v-4q0 -21 -24 -52l4 -4v-4q-36 -114 -220 -872l-16 -44q-8 0 -12 -32q-52 -75 -88 -84q-168 0 -168 60v8l4 4l-4 4v4q28 101 32 148h4l-4 4v4q80 332 204 784l-4 4v4q25 99 112 180l16 16h16l20 -4 q0 10 84 24h4zM96 100l48 -8h44q52 0 72 100l84 336l116 468q14 16 64 212l-12 4q-100 0 -128 -36l-44 -136l-124 -468q-76 -243 -116 -444zM312 1116v-4l8 8v4zM304 1108l-28 -52v-4h4l28 52v4h-4zM252 956v-4h4l16 28v4q-14 0 -20 -28zM244 880h12q0 10 12 20l12 32 q-17 -14 -36 -52zM244 816l-36 -64h4l20 8l4 -4l12 56v4h-4zM156 612h8q0 11 48 52l4 12l-4 4v8h8v16q-44 -45 -64 -92zM156 540v-4q26 0 36 56q-6 0 -36 -52zM140 516l-12 -20v-4h8q0 10 12 20v4h-8zM152 472q0 -12 -48 -72l-4 -24v-4h4l24 44l16 4l12 48v4h-4zM112 344 l-36 -60v-12q38 30 44 72h-8zM48 152v-4h4q0 18 28 32l12 52q-36 -36 -44 -80zM64 120l-32 -56l4 -16h4q0 9 32 36l-4 36h-4zM88 72l-24 -36h20l24 28v4zM148 64l-24 -32l24 -4q11 1 28 36h-28z" />
<glyph unicode="0" horiz-adv-x="764" d="M268 1224l4 -4l20 4l148 -12h8l64 8h28q72 -16 72 -136q8 -16 40 -324h-4q7 0 16 -156h-4l4 -4v-8l-4 -4l4 -4v-44l4 -16l-4 -4l12 -84h-4l4 -4v-8l-4 -4l8 -24l-4 -4l4 -60v-40l4 -20h-4l4 -4v-36l-4 -4l4 -4v-4q-10 -80 -36 -80q0 -65 -80 -116q-116 -20 -156 -20 l-52 4l-8 -8h-4l-12 8h-12l-16 -4l-172 28q-48 27 -72 116l-24 232h4l-4 4v36l-4 16l4 4l-12 76l4 4v4l-4 12l4 40v16l-20 216l-4 88l-4 4h-4l4 48v16l4 4l-4 4v20l4 4l-4 12q0 87 72 136l36 40h8l4 -4h4l16 20h20q72 0 104 24zM132 1052l4 -12h-4l4 -4v-16l-4 -4l4 -4v-56 q12 -75 16 -216l-4 -116l16 -172l-4 -4v-4l12 -76l-4 -4l20 -128h-4l12 -48h-4q0 -36 40 -36l20 4l8 -8h100l84 4l28 -8q180 7 180 48v52l-4 176l-4 12h4l-24 316l-32 284h4q-19 160 -64 160h-8l-64 -8h-44q-43 0 -96 12h-16q-62 -20 -152 -28q-20 -48 -20 -116zM40 1060 q72 61 72 84q-72 -65 -72 -84zM32 1020v-12q54 56 72 56l-4 4v12l4 4v4h-4zM376 1068q104 0 136 -96q8 -51 8 -140l4 -12h-4l4 -4v-12l12 -112l-4 -4q16 -147 16 -328q-15 -132 -64 -132l-16 -4q-184 0 -184 68v8h4l-40 312l4 12l-12 340q0 84 72 84zM32 964v-8l48 48l16 4 v-4q0 -12 -64 -84v-12q64 69 76 72l-4 20v48q-48 -41 -72 -84zM360 1036l-44 -68v-4h8q0 13 48 64v4zM388 1036l8 -16h8v8l-8 8h-8zM376 948l4 -12l60 60h8l8 -8v-4l-28 -32h4q27 32 40 32v4l-32 36h-8q-56 -67 -56 -76zM380 1004v-4h8l8 16h-4zM296 996l-20 -32h4l24 32h-8 zM404 868v-20l72 84q12 0 12 -16q-11 -23 -80 -104v-12h8q0 17 76 92v48q0 30 -12 32q-15 -9 -76 -104zM96 952l-60 -80v-4h4q39 60 68 60v4l-4 20h-8zM396 908v-4h4q0 12 12 12q0 24 16 24v8q-32 -25 -32 -40zM264 940v-60l-4 -4l4 -4v-4l20 -308h-4l40 -284l64 -16h48 l-8 56l4 4l-16 180l-8 8l8 16q-4 32 -12 32l4 20l-12 100h4l-8 44h4l-4 12q-11 196 -36 196q0 6 -88 12zM108 920l-68 -92v-4q65 76 72 76h4l-4 20h-4zM112 880q-72 -94 -72 -108v-4q9 1 56 60h4l12 -4l8 16l-4 40h-4zM416 764v-24h8q39 67 72 76v48zM492 796l-72 -96v-36 q68 88 76 88h4v36zM72 772l-16 -28v-4l24 32h-8zM56 672v-16h4l64 72l-4 4v4l4 12zM44 728v-4l8 8v4zM428 628v-16h8l52 72l20 -4l-4 20v32q-21 -20 -76 -104zM120 696q-64 -76 -64 -108h8l52 60l8 44v4h-4zM436 576v-12l8 -8q17 35 56 68l8 -12l-68 -100v-16l52 64l-4 4h4 l24 -8l-8 116q-7 0 -72 -96zM60 552v-24h4q0 13 60 68l-4 20q-19 -13 -60 -64zM60 500l4 -24h4l60 72l-4 16q-55 -64 -64 -64zM444 460l4 -20h4q0 9 60 76l4 -4v40q-44 -48 -72 -92zM124 508l-20 -32h8q0 16 20 16v4l-4 12h-4zM448 408l4 -28q23 21 48 68l20 12l-4 28 q-60 -80 -68 -80zM100 440v-4h4q15 16 32 16l-8 12q-18 -7 -28 -24zM64 460v-20h8l8 16l-4 4h-12zM92 432l-24 -28l4 -4h4q13 28 24 28v4h-8zM456 348l4 -4h12q34 61 48 68l-4 12zM120 380l20 -4v28zM516 376q-40 -72 -56 -72v-28q60 54 60 96v4h-4zM140 372l-12 -20l16 4 v16h-4zM456 340v-12h4l4 12h-8zM88 252h8l52 60l-4 20q-7 0 -56 -80zM88 216v-16h4q38 52 64 52l-4 32zM120 196l4 -4h4q16 24 28 24v20q-27 -20 -36 -40zM104 128v-8q7 1 56 72v4zM92 164l4 -4h4l20 28v4h-4zM160 160l-40 -64h4q33 44 44 44l-4 20h-4zM140 76h4l52 44v4 l-8 8zM492 44h4q15 0 32 20l4 -4h4l52 64h-12q-28 0 -84 -80zM164 64v-8l24 -4l48 60v8h-8q-51 -56 -64 -56zM396 112l4 -12q-36 -28 -56 -60h16q8 24 68 80h-4q-28 -3 -28 -8zM264 116q-20 -38 -44 -64v-4q19 5 52 56v12h-8zM356 116q0 -13 -36 -48v-4h8q38 44 52 44v8h-24 zM448 116l-60 -76v-4h8q0 11 28 32l40 44zM432 36h8q13 0 80 80h-12q-28 -20 -76 -80zM608 116l-32 -44h4q26 24 32 40v4h-4zM308 112l-48 -64v-4q64 58 64 68h-16zM300 44h4l12 4v8h-4z" />
<glyph unicode="1" horiz-adv-x="577" d="M188 1184q260 -11 260 -40q36 -43 36 -216l4 -72v-24l4 -20h-4l4 -4v-92l4 -20h-4l4 -4v-64l-4 -12l4 -20v-80l-4 -4l4 -4l-4 -28v-120l-4 -60h4l-12 -92l4 -16l-4 -4l4 -4v-16l-4 -4l4 -4v-4l-4 -16l4 -4q0 -42 -68 -124l-40 -12l-84 12l-4 -4h-4q-64 7 -64 52 q0 18 -12 32v4l12 40q-8 0 -8 12l-4 4h-4l8 36l-8 16l8 44l-12 12l16 52l-4 16l4 24l-4 4v4l4 12l-12 8q11 19 16 52l-4 24v4l8 12l-4 4l4 20v40l4 4l-4 4v40l4 4l-4 4v4l4 28l-4 4l4 20v56l-4 12l4 20v92q0 108 -44 108q-1 9 -72 24l-8 -8h-12q-8 0 -8 12h-20l-20 4l-8 -8 q-36 42 -36 84q2 40 20 40v8q0 79 136 92h32zM128 1156h-4v-80q0 -8 20 -8v-4l4 4q176 -12 176 -60q17 0 32 -136l-4 -36l4 -48l-4 -32l4 -76v-8l-4 -32l4 -16l-4 -120v-16l-4 -4l4 -4v-4q-26 -55 -28 -152l-4 -4l4 -4q-8 -46 -12 -200l-4 -4h4l44 4l12 -4q15 8 84 16v32 l4 16l-4 16l4 16l-4 4l4 20l-4 28l8 20l-4 4l4 28v36l4 16l-4 16l4 16l-4 4l4 28v60l4 4l-4 4l4 48l-4 16l4 4l-4 28l4 92l-4 16l4 4v4l-4 24h4l-4 4v12l4 4l-8 56h4l-4 4v84l-4 40h4q-15 180 -32 180q0 22 -104 32l-4 -4l-96 16l-4 -4h-4l-24 4l-4 -4h-4l-12 4zM84 1116v-4 q16 6 16 12v4q-16 -6 -16 -12zM64 1048h4q20 20 32 20v20zM100 1040h4l8 8h-4zM96 988h8l64 48h-28q-44 -37 -44 -48zM196 1032l-20 -24h4l36 16v4zM236 1024q0 -17 -44 -40l-8 -16h8q57 48 68 48l-8 8h-16zM160 996h4l8 8v4zM244 972h8q28 20 48 20v4l-12 12 q-31 -17 -44 -36zM244 920l8 -8q48 40 60 40l-4 28q-27 -14 -64 -60zM232 964l-4 -4v-4l12 4v4h-8zM256 872v-24h4q50 40 64 40l-4 44zM260 804v-20h4q33 44 56 44l4 -4v36h-4q-7 0 -60 -56zM300 776l24 4v28q-7 -1 -24 -32zM316 756q-19 -38 -56 -60h-4v-28q56 56 68 56v32 h-8zM316 688v-4h8v12zM248 556v-8h4l72 92v16q-23 -17 -64 -72q-12 0 -12 -28zM288 540h8q0 20 16 20v16q-24 -19 -24 -36zM248 508v-8h8q0 11 28 36v4h-4zM244 460l4 -4v-4l-4 -12h4q48 56 60 56v16h-4zM236 392v-4l8 -8l8 8l-4 4v4q60 44 60 56l-4 4h-4q-64 -57 -64 -64z M236 336v-4h16q14 40 48 40v28zM232 276l4 -4l40 40q16 0 16 12l4 20q-55 -49 -64 -68zM280 280q0 -8 -44 -52v-16h8q0 12 24 32h8l4 -4h4l4 20v20h-8zM268 204v-4h16v16h-4zM252 192q0 -12 -12 -20l-4 -12l20 24v8h-4zM240 120l4 -24h4q36 40 36 68v4zM280 96 q0 -10 -24 -36l4 -4v-4l-4 -12h12l4 -4l4 4l32 40v4q-20 0 -20 12h-8zM432 92l-48 -60h4q45 32 52 60h-8zM304 36v-4l44 -4q0 12 40 52v4l-20 -4h-4l-4 4l-52 -48h-4z" />
<glyph unicode="2" horiz-adv-x="787" d="M384 1228h52q184 -16 184 -56q18 0 68 -136q20 0 20 -28v-16q0 -43 -96 -228q-100 -226 -172 -344q-56 -88 -72 -136v-4l100 -4h20l20 4v-4l24 8v-4q18 8 52 8h88q48 0 48 -72v-36l-4 -16q12 -55 20 -60q-43 -104 -104 -104l-548 56q-24 13 -24 68v8l4 36l-4 16 q100 106 232 312q120 175 120 208q11 11 56 124q24 38 24 60q-23 88 -72 88l-248 28q-96 8 -96 40l-8 64q7 68 44 68q22 20 68 40q152 4 204 12zM432 1200l-240 -8v-20l4 -16l-4 -4v-4l12 -52h116q166 0 212 -56q16 -24 16 -68v-4q0 -38 -40 -136q-117 -256 -184 -340 q-37 -43 -136 -200q-15 -5 -32 -52l4 -92h44l92 -16l12 12q13 -13 48 -20l8 8h4l16 -12h24l12 8h8q8 0 8 -12h24l12 8h12l12 -8l160 -4q44 0 44 12v8l-4 4l4 4v8h-8l4 56q-5 60 -16 60h-60q-51 0 -144 -16h-28l-4 4l-4 -4h-16l-4 4l-4 -4q-80 5 -80 28v12l32 56l-4 4 q83 121 160 296q152 306 152 340v16q-19 27 -68 148q0 34 -168 56l-4 -4h-4zM108 1104v-8q12 5 40 44v4zM104 1048l32 -12q16 37 32 48l-4 36q-32 -27 -60 -72zM164 1040v-4l32 -8l24 36v4h-32q-7 0 -24 -28zM220 1024l28 -4h4l40 48h-36zM292 1036q0 -24 24 -24q5 15 44 56 h-24zM384 1060q-29 -40 -40 -40v-8h36l40 48l-36 4v-4zM408 1008l24 -4l32 44v4h-16zM464 992h4l32 32l-4 12h-8q-14 0 -24 -44zM488 968q8 0 8 -12l16 16v28zM12 224v-4l-8 -8l-4 4v4l4 4h8zM92 112v-20h4l28 52v8zM140 124l-24 -48h28l12 40zM176 92l4 -4v-4l-8 -12l20 -4 h8q0 15 28 48h-16q-18 0 -36 -24zM248 108l-24 -44h20q6 0 28 40l-4 4h-20zM300 104l-28 -40v-4h36l24 40l-28 4h-4zM332 56l48 -4v16l8 28h-24q-10 -4 -32 -40zM424 96l-28 -48h20l24 40zM448 52q0 -8 24 -12l32 52h-12q-25 0 -44 -40zM500 36h20q8 0 20 40q9 0 16 16h-8 q-16 -3 -48 -56zM592 92l-40 -52q0 -7 28 -12q0 18 32 60zM616 48l4 -20h8q0 14 44 64q-30 0 -56 -44z" />
<glyph unicode="3" horiz-adv-x="831" d="M92 1216q29 -8 432 -24h76q120 0 120 -116h-4l8 -28l-4 -20v-12l4 -92q-9 -88 -48 -88v-4q32 -39 32 -96l-4 -16l4 -16l-4 -12l4 -20l-4 -4v-4l4 -4l-4 -28v-24l4 -12l-4 -20v-72l-4 -4l4 -4v-4q-2 -36 -8 -36l4 -4l-4 -20l4 -4l-4 -20v-72l4 -16l-4 -12v-8h4 q0 -136 -44 -172l-64 -76q-36 -52 -116 -52l-136 12l-4 -4l-60 8l-4 -4l-20 4h-16l-12 -8h-4q0 9 -148 20q-72 0 -72 128q0 49 72 108h4l4 -4v-4l20 4h12l104 4l36 -4l64 4l16 -4l12 4l40 -4l12 44l-4 12l4 56l-4 4v4l8 44l-4 4l4 48v60l4 4l-4 4v20l4 4l-4 4v16l4 4l-4 4v4 l4 4q0 116 -92 116q-116 0 -116 24l-12 56q0 68 104 104h16l96 4l12 -4l4 4v4l-4 4h-4l4 20v8l-4 40q-119 16 -352 32q-36 12 -36 72h4l-4 12q0 75 72 112v4zM132 1180q-3 -32 -8 -32l4 -4v-4l-4 -4v-4q11 -39 20 -40h4l12 8h4q0 -11 88 -24v-4l4 4l20 -4h72l4 -4l4 4h4 l32 -8l24 8q9 -12 64 -16q32 -34 32 -56l-4 -16l4 -4l-4 -20v-48l-32 -28h-36l-20 -4v4l-4 -4h-36l-4 4l-4 -4h-32q-52 0 -52 -20l-4 -36v-12l20 -8l4 4h4l12 -8l28 4h16l4 -4l12 4q124 0 124 -88v-40l4 -20h-4l16 -80l-8 -32v-68l-12 -84l4 -4q0 -117 -72 -144q0 -5 -24 -8 v4l-4 -4h-56l-4 -4l-4 4h-76l-24 -4l-20 4l-4 -4h-4l-4 4h-4l-52 -4v4l-4 -4h-24l-4 4l-24 -12q14 -96 20 -96l12 4q76 -16 340 -24l12 4v-4l12 4l4 -4q126 9 128 36q10 25 28 32q12 34 16 84l-4 160l8 92v136l4 24l-4 20h4l-4 4v64q0 56 -80 68l-8 12l8 12l20 -4h16 q64 0 64 72l4 32l-4 20v60l-4 20h4l-8 40h4q0 29 -36 60q-24 4 -24 12l-4 -4l-20 4h-48l-16 -4l-12 4l-36 -4v4l-4 -4h-4l-12 4l-4 -4q-34 8 -88 8h-16l-4 4l-4 -4q-50 8 -200 12l-4 -4h-4l-16 4h-4zM56 1088v-20h4q24 56 36 56v8q-13 0 -36 -44h-4zM104 1088q0 -10 -28 -44 l28 -4l24 28zM140 1036l28 -4h4l16 28h-16q-22 0 -32 -24zM208 1028h24l16 20l-28 4q-12 -4 -12 -24zM268 1028l4 -4h20q16 8 16 24h-4q-25 0 -36 -20zM332 1024v-4l28 -4h4l12 24l-20 4q-16 -5 -24 -20zM412 1036l-8 -12v-16l16 -4l16 24zM468 1024l-4 -4v-8l12 4z M452 1008l-8 -16h8l4 12v4h-4zM440 908h8l20 44q-28 -16 -28 -44zM268 784l-16 -36h28l12 32zM324 776l-12 -32h32l16 32h-36zM392 776l-4 -28h-4l-4 4h-4v-12l12 -12l28 44zM452 764q0 -12 -8 -12v-12l20 20zM416 700v-4h4q0 11 16 24l4 16v4q-13 -5 -24 -40zM472 732 l-4 -16l4 -4h4l4 4v16h-8zM444 612v-4h4q0 18 36 40v28h-4l-20 -36q-8 0 -16 -28zM480 616l-4 -20l4 -4l-4 -4h-4l-4 4l-12 -32h8q6 28 28 28v8l-4 20h-8zM436 604l-4 -12v-4h4l4 12v4h-4zM448 556l-16 -32v-4h4l20 36h-8zM484 536l-4 -12h8v12h-4zM476 512h4l8 8h-4z M460 496v-4h4l4 16q-8 0 -8 -12zM476 460l-4 -4v-4l4 -4q-16 0 -16 -24q-40 -32 -40 -68h4q7 0 28 56l32 24v16zM428 452v-12h4l4 12h-8zM472 392q0 -26 -52 -92v-4h8q0 20 44 32l4 36v28h-4zM72 184q-36 -48 -36 -60v-4l4 -20h4q0 11 36 56v20zM52 60l24 -8h4q0 12 28 48 q-16 4 -16 16q-24 -22 -40 -56zM136 100q0 -12 -20 -32l-4 -16v-4h36q0 11 32 48v4l-24 -4zM180 48l32 -8h4q8 0 32 48h-36zM284 88l-32 -48l40 -4l32 48zM348 84l4 -4v-4l-28 -40h24l36 48h-36zM420 84l-40 -52q33 0 40 -8l28 56zM512 32h4q44 4 44 40l12 12h-24 q-9 -4 -36 -52zM476 80l-28 -52h32l24 52h-28z" />
<glyph unicode="4" horiz-adv-x="674" d="M424 1200q120 0 120 -44l12 -116v-8l4 -180h-4l4 -4v-8l-4 -4l4 -4v-4l-4 -4l4 -20l-4 -12l4 -4v-4l-4 -4l4 -28l-4 -216l4 -4v-4l-4 -16v-16l4 -40l-4 -28l4 -28h-4l4 -4v-132l4 -24l-4 -4l4 -20v-36l-4 -24l4 -4v-4l-4 -24v-8l8 -32v-4q-40 -80 -56 -80q-184 5 -184 36 q-15 0 -20 84l4 4v4l-4 20l4 20l-8 48h4l-4 12l-8 148h4l-4 4v104l4 4v4h-4l4 4v12l-4 20h4l-8 16l4 36v8q0 8 -12 8q-12 24 -20 24l-32 -4q0 11 -176 28q-40 25 -40 100q-16 97 -16 228v36l4 4l-4 4q0 120 88 172l24 -12l4 4h40l16 4q88 0 88 -80l12 -56l-4 -16l4 -36h-4 l4 -4v-80l4 -20h-4l4 -4v-40l20 -4h8l-4 20v8l4 44l-4 4l4 20v44l-4 16q0 126 72 176zM400 1152v-20l-4 -4l4 -4v-216q0 -96 -40 -96l-4 -4q-108 0 -108 36l-8 100v52l-4 24l4 4v4q-9 124 -40 124l-24 4l-4 -4h-68q14 -380 32 -380q29 -28 56 -28l72 4q100 -18 100 -44 q52 -89 52 -464v-40l-4 -4l4 -4v-4l-4 -4l4 -4v-4l-4 -4q11 -64 20 -64l24 4l4 -4h4l48 12l12 -4v4l8 16v116l-4 48l4 48v40l-4 16l4 4l-4 28v204l4 16l-4 4l4 28v56l-4 16l4 4v4l-4 16l4 4v4l-4 12l4 12v8h-4l4 44l-4 124h4l-4 4v40q-8 128 -16 128l-36 -4l-48 4zM360 1128 l-24 -52l32 36v16h-8zM32 1076v-4h8l8 36q-10 0 -16 -32zM72 1100l-28 -72q24 40 36 40l-4 32h-4zM332 1024v-32h4q0 18 16 28h4l12 -8v52l4 4v4h-4q-13 -6 -36 -48zM76 1036l-32 -72h4q17 28 32 28v44h-4zM364 1004l-32 -64v-12l36 36v40h-4zM80 972q0 -13 -48 -92l-4 -12 h12q18 51 48 68l-4 36h-4zM40 960l-4 -12v-4h4l8 16h-8zM332 872v-4l4 -20h4q8 40 28 40v40zM84 904l-48 -92v-16h4q16 35 48 76l4 16l-4 16h-4zM56 768l24 24h4l8 -8l-40 -88l12 -16q0 25 44 72q-16 54 -16 80q-7 0 -36 -64zM124 744l-32 -60v-4l8 -8q27 0 40 36l12 16 l-24 20h-4zM148 664h32l32 44l-8 8h-24q-32 -40 -32 -52zM244 716l-32 -52v-4l28 -4q0 9 44 56zM296 708l4 -4v-8l-32 -40v-4l24 -4v4l32 48v4zM340 680l-28 -44v-4l8 -20l32 44v4l-8 20h-4zM356 620q0 -12 -32 -48l4 -32h4q23 56 32 56l-4 24h-4zM364 552l-8 -20h4l12 4v16 h-8zM344 512v-4l8 8v4zM372 500l-44 -76h4q12 5 32 44h8l8 12l-4 4v8l4 4v4h-8zM376 440l-28 -52v-4h4l28 32v24h-4zM328 352v-4h4l16 32h-4q-6 0 -16 -28zM336 312l8 -8l-16 -16l8 -8h4q31 60 44 60l-4 16l4 4v4l-4 12q-21 -18 -44 -64zM380 308q0 -21 -36 -56l4 -20h8 q0 21 32 48l-4 28h-4zM360 192h4l8 8h4l4 -4h4v40zM332 224v-16h4q6 0 12 16h-16zM356 112l4 -12l-20 -16q4 -24 12 -24l36 68l-4 4v44q-28 -41 -28 -64zM396 100l-12 -28l4 -4v-4l-12 -24l28 -4l24 48q-14 0 -32 16zM508 88q-32 -43 -32 -56h32l28 56h-28zM432 40l16 -4 l20 48h-8z" />
<glyph unicode="5" horiz-adv-x="811" d="M373 1176l140 -8l12 4v-4l4 4h4l4 -4l20 4h12q72 -10 72 -64v-36l-4 -4l4 -4v-20q0 -14 -28 -44q0 -72 -188 -72v4l-4 -4l-28 4h-28l-24 -4l-20 4h-16q7 -48 40 -48h32l24 4l4 -4l20 4h12q200 -14 200 -48q28 -40 28 -128h-4l4 -4v-4l-4 -16l4 -12h-4l4 -4v-8l-4 -16 l4 -4l-4 -20v-28l-4 -36l4 -12h-4l4 -4v-8l-4 -4l4 -4l-4 -20v-32l-4 -128h-4l4 -4v-56q0 -105 8 -132q-39 -152 -80 -152l-72 -4q-347 10 -372 28q-16 26 -16 40v16q-16 0 -16 12v4l16 72l64 60l4 -4h4q0 16 56 16l4 -4l4 4h4l16 -4l12 4h8v-4q152 8 152 32v4l-12 16v8 l12 40v16l-12 16l12 40l-8 56l4 16l-4 32l-12 4l4 40q0 13 -12 28v24l-52 16l-12 -4l-4 4h-4l-4 -4l-76 8l-4 -4h-4l-32 8l-16 -4q-112 12 -112 60l-20 108l4 76l-8 44q0 91 152 216q36 36 52 36h56zM173 1048l12 -112v-108l4 -24l-8 -60l16 -8l4 4h4l4 -4l4 4h44l4 -4l4 4 h184q73 0 84 -104v-56l-4 -4l4 -4v-52l-4 -4l4 -4v-4l-4 -16l4 -4l-4 -20v-40l4 -16l-4 -16v-8h4l-4 -20v-24q0 -96 -52 -96q-41 -40 -164 -40l-40 4h-20q-44 0 -44 -20l-8 -32v-48l40 -4h12l160 -8l164 12h28q13 5 24 40l-8 136h4l-4 4l4 20v4l-4 16l4 4v4l-4 12l8 60l-4 4 v4l4 4v4l-4 20h4l-4 4l4 20v8h-4l4 20v44l4 4l-4 4v4l4 4v4l-4 12h4l-4 4l4 28v36l4 16l-4 16v12l4 4l-4 12q0 136 -56 136l-112 16h-52l-16 -4l-16 4l-32 -4q-61 0 -76 96v16q0 76 80 76l48 4l4 -4l20 4l44 -8l140 8v36l4 24q-5 36 -40 36q-132 0 -204 8q-108 0 -132 -44 q-8 0 -64 -56zM413 960h28q0 13 28 44l-4 4h-4q-48 -40 -48 -48zM561 1008l-36 -40h4q23 0 44 36v4h-12zM301 972l28 32h-4q-22 0 -24 -32zM469 960h4l44 44h-4zM129 1000l-8 -16v-4h4l8 20h-4zM361 1000l-32 -36l-4 -4v-4h16l4 4h4l-4 4v4l24 32h-8zM109 916v-24 q48 67 48 84v4q-28 -27 -48 -64zM377 964v-4l8 8v4zM153 912q-34 -51 -44 -88l4 -4h4q0 15 40 76v16h-4zM153 840l-32 -56l4 -4h4q10 40 28 40v20h-4zM109 772l4 -16h4l4 16h-12zM149 772l-28 -48v-4l8 -8q24 36 24 56v4h-4zM161 716q-20 -27 -20 -40l20 -4l20 32 q0 9 -20 12zM189 672v-4h44q0 12 16 36l-28 4q-10 -1 -32 -36zM257 672v-8h8l28 -4l20 48h-8q-32 0 -48 -36zM341 708l-24 -48h24q0 18 24 44v4h-24zM365 660v-4h40l32 48v4q-51 0 -68 -44zM425 644l20 -4v4l32 48l-8 8zM453 612l4 -16h4q24 48 40 48v8l-4 20zM497 612 l-36 -64l4 -16h4q0 9 32 48v32h-4zM473 480v-20h4q0 22 24 24v16l4 40q-32 -43 -32 -60zM477 404v-16l24 16v44q-24 -25 -24 -44zM497 368l-20 -44h4l20 8l-4 4v4l4 24v4h-4zM165 148q0 -9 -24 -36l4 -12h4q0 16 24 32l-4 16h-4zM173 100q-20 -35 -20 -48h8q0 11 20 36v4z M205 80l-16 -32h4l16 4l16 -4h4q0 10 16 28zM509 32h20q6 0 28 40v8h-8q-19 -13 -40 -48zM565 36h12q12 4 28 44h-8q-20 -19 -32 -44zM273 76l-12 -20v-4q0 -8 28 -12l16 36h-8l-20 -4zM333 76l-20 -36h36q0 15 12 32zM441 36v-4h32q7 1 28 40h-28zM377 48v-12h36l12 32h-16 q-22 0 -32 -20z" />
<glyph unicode="6" horiz-adv-x="879" d="M593 1192q152 -6 152 -40l4 -24h-4l4 -12v-8h-4l4 -28v-32q-89 -108 -116 -108l-180 -16l-16 4q-40 0 -40 -24l-12 -140v-8h4l-4 -40v-132q0 -96 52 -96q0 -8 44 -8q131 0 204 16v-4l4 4h4l4 -4l4 4q84 0 84 -104l4 -56v-48l4 -16l-4 -4l4 -20q0 -120 -16 -120h-4v-4 l4 -4q-29 -70 -112 -116h-20l-4 4h-4l-8 -8h-92l-188 20l-12 -4v4l-4 -4l-28 4h-24l-4 4l-12 -4q-120 0 -136 56q-24 50 -24 124v36l-12 20l12 20v4l-4 28l4 36q0 61 -12 152l4 16l-8 44l4 24v20q-12 0 -12 8l8 28l-8 100v64l-4 16l4 4l-4 28v60q0 113 84 196q29 52 48 52 l4 -4h4q36 11 128 20v-4l12 4l128 8h4l20 4v-4zM473 1152v4l-4 -4h-8l-176 -16v4q-68 0 -68 -56v-12l4 -28h-4l4 -4l-4 -28v-44l-4 -4l4 -4v-20l-4 -16l4 -12l-12 -8l4 -20h-4l4 -4l-4 -68v-44l-4 -4l4 -4l-4 -16l-4 -136l-4 -16l4 -20l-4 -44l4 -4v-4l-4 -4v-12h4l-4 -28 v-20l4 -20l-4 -24v-40l4 -28h-4l4 -4v-32q0 -160 64 -180q262 -32 400 -32q108 10 108 52l4 16l-4 4v4q-4 252 -12 252h4q-17 44 -28 44h-16l-216 -16q-120 11 -120 40l-20 40l-4 72l4 4l-4 20v52l4 76l-4 60h4l-4 12l8 48l-4 4l4 20v28l-8 12v8q8 5 8 48l4 28q0 20 140 20 h84l4 -4l4 4h28q96 0 96 16v4q0 92 -20 92l-128 8zM169 1072v-8l16 8v12l-12 -12h-4zM133 1016q28 25 28 40q-28 -26 -28 -40zM105 928v-16q72 79 72 120q-72 -73 -72 -104zM481 1016q0 -16 -44 -64h28q0 12 36 60zM497 960v-4h20q0 12 40 60h-12zM589 1016q0 -9 -40 -56h12 l48 56h-20zM397 956v-8h8q0 10 40 60h-8zM605 964h8l16 28q-24 -9 -24 -28zM105 864v-24h4l68 92l-4 24q-57 -58 -68 -92zM121 824l8 -8q20 43 44 60v12zM121 776l12 -8h4q0 15 40 52l-4 16zM105 800v-8l8 8v8zM173 784l-56 -80h4q8 0 40 44h12v16l4 16v4h-4zM105 744v-12h4 l4 12h-8zM169 728q0 -13 -52 -84l-4 -20l4 -4h4l52 84v24h-4zM129 592v-4h8q10 32 36 32v32zM165 592l-48 -96l4 -4h4q19 51 36 60l4 -4h4l4 32l-4 12h-4zM165 524l-20 -48h8l16 28v20h-4zM133 460l-4 -12v-4h4l4 12v4h-4zM165 460l-40 -72v-12l44 52v32h-4zM129 332v-8 q26 32 40 32v32zM609 356l36 -4l4 4h4q44 -9 44 -20v-36l4 -56q0 -36 -60 -36l-80 8l-40 -8q-144 0 -144 64l-16 40q0 30 84 36zM129 264v-8q34 52 44 52v28q-44 -50 -44 -72zM537 324l-12 -20v-4h20l20 20zM597 324l-20 -28l12 -12q0 8 28 36l-4 4l-4 -4h-4l-4 4h-4z M649 324q0 -9 -36 -48v-8q10 3 44 52l-4 4h-4zM481 320l-8 -16v-4h20q9 0 12 20h-24zM421 312v-12h20l12 16h-4zM661 288q0 -14 -28 -36l-4 -12h12q0 16 28 36l-4 12h-4zM401 272q7 -32 124 -32h28q8 0 8 12l-4 20l-44 4zM169 272l-40 -64v-20h8l36 76v8h-4zM173 212 q0 -11 -24 -48l4 -20l32 48l-4 20h-8zM193 160l-36 -60l4 -4v-4l-4 -16v-4h4l44 68q-5 20 -12 20zM137 136l4 -12h4l4 16h-4l-4 -4h-4zM217 116l-24 -36h4q35 17 40 28zM273 100l-24 -32l4 -4v-8l-8 -12h4q33 0 52 44l8 8zM305 44h36l32 48l-28 4h-4q-29 -29 -36 -52z M405 88q-32 -31 -32 -48h44l28 36v8zM453 32l20 -4l4 4h4l4 -4h4q0 21 24 48l-20 4h-12q-16 -6 -28 -48zM521 44l4 -16l-4 -4h40q0 18 28 48l-28 4h-12zM193 52h20l8 20h-4zM597 44l4 -16l-8 -8q28 0 28 16q24 25 24 36h-8q-22 0 -40 -28zM653 28h4q11 0 28 44 q-29 -29 -32 -44z" />
<glyph unicode="7" horiz-adv-x="763" d="M200 1204l76 -8l24 4h12q49 0 140 -16l4 4q188 -10 188 -32l8 -36q-3 -56 -8 -56l4 -4l-16 -100l4 -12l-4 -4v-4l4 -16h-4l4 -4q0 -91 -56 -324q-36 -186 -52 -232l4 -4q-7 0 -24 -104q-12 -19 -12 -44l-4 -4l-4 -12l4 -4v-4q-3 -24 -8 -24l4 -4v-4q-12 -53 -40 -76 q-31 -80 -92 -80q-72 9 -88 20l-4 -4h-4q-52 0 -52 48l76 356q20 59 80 392l-4 4v4l16 64v20q0 40 -104 40q-152 5 -152 32l-24 96q0 44 48 68q42 64 56 64zM272 1164l-24 4h-40v-4l-4 -32q0 -53 40 -92l32 -4l8 8q184 -18 184 -28l12 -48l-16 -124l4 -4v-16 q-15 -33 -40 -220q-68 -251 -96 -420l-12 -72h84l24 4l16 -4l16 48l-4 4v4q20 58 92 400l4 36l-8 8q28 72 44 180q11 0 16 88v28l4 16l-4 4v4l24 180q0 40 -36 40q-233 12 -268 20zM128 1100v-16h4l4 16h-8zM156 1056v-12q9 0 24 48v8q-24 -23 -24 -44zM176 1008h8 q8 0 16 24l-4 12h-4q-10 0 -16 -36zM224 1016l-20 -32v-8h32l16 36h-4zM260 976l4 -4l4 4l20 -4q7 1 28 36v4h-24q-23 -17 -32 -36zM348 1008l-28 -40l16 -4l32 44h-20zM360 960l24 -8l36 48l-4 4h-16zM156 988v-4l16 -4l4 4v16zM400 932l4 -20h8q0 34 40 56l-4 20zM444 924 l-8 -20v-4q12 0 12 16v8h-4zM404 788l4 -4h4l28 52v4h-4q-36 -37 -36 -52h4zM372 708v-4h4q0 19 32 68v8q-32 0 -32 -48zM372 632v-8q18 32 36 32l4 4v28zM356 608v-8l12 16h-4zM388 596l-12 -28l12 -4l4 24v8h-4zM372 512l-16 -36h4q10 0 16 32v4h-4zM328 440l-20 -44v-8h4 l20 40l4 12h-8zM340 392l-32 -56h12l28 48v8h-8zM304 332l-12 -16l4 -4h4l12 4v8zM284 280v-4h4l12 32q-16 -4 -16 -28zM304 260h16v20zM244 100q38 72 60 72v12l4 28q-64 -71 -64 -112zM288 116q0 -9 -32 -48v-4h4q32 6 32 16v36h-4zM324 72v-4h24l8 8v4h-24zM388 64h4 l12 12v4h-4zM304 44v-8l32 -4v8h-12zM364 32h16l-8 8z" />
<glyph unicode="8" horiz-adv-x="796" d="M298 1199l109 -8l13 4l25 -4h12l29 4q180 0 180 -54q15 -24 29 -159h-4l8 -34l-4 -4v-4l4 -4v-4q0 -71 -54 -101q-25 -4 -25 -12q84 -32 84 -159l-5 -100q30 -117 34 -201h-4l4 -4v-4l-4 -4l4 -4v-55l4 -21h-4l4 -4v-12l-4 -5l4 -4v-4q0 -128 -104 -230l-25 -8h-59l-17 4 l-4 -4l-21 4l-21 -4v4l-4 -4h-42l-4 4l-4 -4h-54q-63 0 -63 8l-4 -4h-4l-59 4l-25 -4q-92 0 -92 96l-16 126l4 4v4l-9 54l5 4v5l-5 79v4l-4 17l4 4v4l-16 159h4l-4 4v9l4 4l-4 4v29q0 38 50 125q-54 7 -54 51l4 96l-4 21h4l-17 91l21 76q69 108 104 108q96 12 96 17z M190 1086q0 -259 25 -259l79 -12h50l13 -13v-4q-17 -18 -113 -59q-29 -16 -29 -50q-5 0 -8 -25l4 -4v-4l-9 -46l5 -4l-9 -46l4 -13l-4 -83l4 -4l-4 -21v-96q0 -112 9 -155h-5q6 -32 17 -46v-8l-8 -9l16 -29q9 7 59 13l12 -5l13 5v-5l4 5h29l80 -5l175 21v-4l4 4h59 q37 7 37 50l-37 435l-8 58h4l-4 5v4l4 4l-4 4v4l4 4v5q-22 96 -84 96q-46 6 -46 21q0 14 121 54q17 31 17 54v9l-4 16l4 5v4l-8 29h4l-8 46h4l-9 37h5q-15 84 -46 84l-180 13l-13 -5l-54 5q-163 0 -163 -25zM445 1090l4 -4h4l4 4h4l5 -4h4l4 4h4q88 0 88 -117h-4l4 -4v-4 q-11 -54 -42 -54l-113 8l-21 -4q-92 0 -92 83v46q11 42 30 42l4 -4zM119 1032v-21l37 50v21zM369 1053l-12 -25h21l21 25v4l-4 -4h-26zM428 1053l-17 -25h21q0 18 17 21v4h-21zM474 1053l-17 -29l9 -9l29 38h-21zM323 1044v-16h9l8 16h-17zM511 1040q0 -11 -33 -54l4 -17h9 q0 10 33 50v13l-8 8h-5zM156 1024l-37 -59v-25l25 46l17 8v30h-5zM323 1003v-5q0 -50 72 -50l37 5l21 -5v9q-13 0 -13 8v8l9 13v4q-3 13 -34 13h-62l-17 -5zM495 948v-4h16l17 21v17q-25 -34 -33 -34zM156 957l-33 -71v-5h8l30 55v21h-5zM148 869l-8 -21h8l13 21h-13z M127 831h8l9 9h-9zM144 785h4l-4 -4v-8h17q0 11 20 29l-12 29q-25 -28 -25 -46zM207 794l-13 -17h8q25 4 25 13l-20 8v-4zM516 714q26 0 46 -41q4 -53 21 -105h-5q12 -36 30 -196l-5 -71q2 -50 9 -50q0 -101 -63 -101l-29 -4l-4 4h-5l-66 -4h-42l-4 4l-4 -4h-34 q-45 0 -67 84l4 4v4l-8 42l-8 154h4l-4 5v21l-4 33l4 33v5l-4 16l4 17v8l-4 17q11 96 33 96q0 8 67 21l4 -4l38 8v-4l4 4h29l4 -4q19 8 59 8zM148 685l-4 -12v-5h4l4 13v4h-4zM478 681q0 -24 -12 -38l16 -8l25 46h-29zM156 635l17 17h4v16q-10 0 -21 -33zM432 668l-4 -20h4 l17 8v12h-17zM495 614l12 -17l21 38v21zM144 622v-4l8 -8l4 21h-4zM319 627l-4 -63v-96l4 -29h-4l4 -5v-29l4 -83h-4l4 -4v-5l-4 -4l4 -4v-4l-4 -4q10 -80 30 -109l25 -8h129v12q-17 0 -17 121l-4 5l4 25v62l5 4l-5 5l5 41v25l-9 71h4q-17 63 -54 63l-71 8h-21zM165 597 q0 -20 -17 -41v-9h13l8 21l-4 4v5l8 20h-8zM528 577h9l4 4h4l-4 16q-10 0 -13 -20zM127 593v-16h4l4 16h-8zM520 572v-21h4l4 21h-8zM524 497v-25h4q0 31 29 46l-4 33zM131 510l4 -13h5v13h-9zM557 485l-33 -67l4 -13l-4 -4v-8h4l38 62l-4 30h-5zM165 434l-25 -79l29 54 l-4 5v4l4 12v4h-4zM566 418l-46 -96q8 0 8 -13q9 0 46 59l-4 50h-4zM161 338l-17 -54v-21q25 38 25 75h-8zM524 238v-12h4q27 33 46 33v25l-4 17l4 17q-50 -61 -50 -80zM165 246q-7 -37 -17 -37l4 -38h4q5 38 17 38l-4 37h-4zM570 238q0 -9 -38 -54v-4l30 4h8l4 42v12h-4z M173 155l-12 -46v-21h4l16 37l-4 30h-4zM612 92l-46 -67h4l17 -4q6 22 71 79h-4q-42 -2 -42 -8zM666 100l4 -12h4l5 12h-13zM482 25h55q0 12 46 67v4q-67 -10 -67 -29zM190 84l-9 -21l9 -9l-9 -12l17 -4q0 29 13 29l-17 17h-4zM407 38v-5l8 -8h38l42 59h-4q-80 -8 -80 -42z M378 79q-29 -24 -29 -46v-8h25q5 1 25 50zM282 38l8 -9q28 0 42 42l4 4h-21q-27 -18 -33 -37zM236 63l-9 -17v-4h5l29 16v5h-25z" />
<glyph unicode="9" horiz-adv-x="849" d="M349 1188l4 -4h4l4 4h4l12 -4l36 4l48 -8q152 0 152 -24q36 -31 36 -92h-4l4 -4v-24q0 -52 8 -72h-4l8 -32h-4q24 -65 24 -208h-4l4 -4v-4l-4 -104v-8l-4 -4l4 -4v-4l-4 -24l4 -4l-4 -20v-120l4 -60h-4l4 -4v-4l8 -116q-12 -123 -28 -148l4 -4v-4q-12 -31 -64 -84h-20 l-8 8l-4 -4h-12q-82 0 -100 40q-20 79 -20 132v16l-4 16l8 32l-4 24v12q-16 0 -16 8v20q12 15 12 36v8q0 20 -8 20l4 12l-8 96l4 36l-8 120l-8 8v4l4 4l-4 4l4 20q0 40 -64 40l-148 20l-4 -4q-88 10 -88 32l-16 60h4q-12 45 -12 96v32l-4 16l4 4v4l-4 12h4l-4 4v64 q0 31 80 116h8l4 -4q30 16 76 16l4 -4zM373 1152l-32 4q-168 -6 -168 -28l-8 -76v-36l4 -20h-4l4 -4v-4l-4 -4q15 -140 36 -140q14 -12 168 -24h68q52 0 72 -76h-4l8 -32h-4l4 -12l16 -340h-4l4 -4v-12l-4 -4l4 -4l-4 -20v-84l-4 -4l16 -72l-4 -4v-4q0 -28 72 -28h4 q32 0 32 28q8 17 8 64l-4 108l4 16l-8 188q5 108 12 108l-4 4v12l4 4l-4 4l4 24q0 131 -32 344q0 124 -60 124l-4 -4l-76 8l-16 -4h-12q-29 0 -36 12zM433 1088l12 -4l16 4q68 0 68 -44l4 -48q0 -76 -64 -76l-20 4l-40 -4q-120 0 -120 48l-16 92q8 0 8 12l4 4h4l4 -4h4 q0 12 136 16zM425 1024v-4l8 -8h4l32 48v4h-4l-36 -40h-4zM345 1028q12 0 12 24h8v8q-10 0 -20 -32zM397 1040h4q0 12 12 12v8q-8 -2 -16 -20zM133 1040v-4l8 8v4zM497 1044l-4 -12h8v12h-4zM473 1012v-4l8 8v4zM109 1008v-12h4l4 12h-8zM453 988v-8h8l8 16v8zM313 992 q0 -40 48 -40l68 -4v4q0 36 -20 36l-44 8h-4l-16 -4l-16 4h-8l-4 -4h-4zM501 996l-4 -16h8v16h-4zM141 992l-12 -20v-4h4q7 0 12 20v4h-4zM121 964q0 -10 -16 -20v-16h8l16 36h-8zM465 948h8l8 8h-8zM141 932l-8 -16v-8q7 0 12 20v4h-4zM109 880v-20l20 28h-4zM145 860v-4h8 v12zM121 816v-4h4l12 28q-7 0 -16 -24zM169 836q0 -18 -36 -52l4 -4v-4l-4 -12h8q0 14 40 64zM205 812l-36 -48l20 -4l32 48zM257 808l-36 -52h12q10 4 32 44zM301 800l-32 -44l-4 -4v-4l28 -4l28 52h-4zM325 748v-8h20l36 48v4h-20zM381 740v-4l28 -4l36 56l-4 4h-20z M425 720l4 -12q48 48 48 56l-4 4h-4q-35 -48 -44 -48zM437 652v-4l8 -8q0 19 40 60l-4 20q-44 -47 -44 -68zM441 580v-4l8 -8l40 84h-4q-22 -21 -44 -72zM489 592q0 -10 -44 -72v-12h4l44 80v4h-4zM485 520q0 -13 -44 -76l4 -16l48 68l-4 12l4 12h-8zM489 444l-40 -60v-16h4 q20 54 44 60l-4 16h-4zM453 308v-4l48 56l-4 24q-44 -58 -44 -76zM469 268v-4q16 16 28 16v16h-4zM489 232v-4l8 8v4zM493 188q0 -12 -8 -12v-8l12 12v8h-4zM461 128v-4h4l8 28q-12 -4 -12 -24zM501 132q0 -12 -32 -48l4 -12h8q0 17 12 24q12 17 12 32v4h-4zM617 92v-4l8 -8 l8 12v4zM521 88q-20 -32 -20 -44l8 -8h4l20 48l-4 4h-8zM537 32v-4l4 4h4l4 -4h4l32 60h-4z" />
<glyph unicode=":" horiz-adv-x="459" d="M282 438q41 0 56 -40l16 -100q-10 -13 -32 -88l-24 -8q-164 0 -164 40l-12 80v8q0 50 116 104zM202 362l12 -64l-4 -4l12 -8q100 0 100 20q0 40 -24 100h-12q-84 0 -84 -44zM174 314v-12l8 8l-4 4h-4zM190 266l-16 -24l28 -4l8 16l-16 12h-4zM238 238l20 -4h12l12 24h-8 q-29 0 -36 -20zM282 843q41 0 56 -40l16 -100q-10 -13 -32 -88l-24 -8q-164 0 -164 40l-12 80v8q0 50 116 104zM202 767l12 -64l-4 -4l12 -8q100 0 100 20q0 40 -24 100h-12q-84 0 -84 -44zM174 719v-12l8 8l-4 4h-4zM190 671l-16 -24l28 -4l8 16l-16 12h-4zM238 643l20 -4 h12l12 24h-8q-29 0 -36 -20z" />
<glyph unicode=";" horiz-adv-x="441" d="M272 843q41 0 56 -40l16 -100q-10 -13 -32 -88l-24 -8q-164 0 -164 40l-12 80v8q0 50 116 104zM192 767l12 -64l-4 -4l12 -8q100 0 100 20q0 40 -24 100h-12q-84 0 -84 -44zM164 719v-12l8 8l-4 4h-4zM180 671l-16 -24l28 -4l8 16l-16 12h-4zM228 643l20 -4h12l12 24h-8 q-29 0 -36 -20zM160 381l40 -4l16 4v-4l4 4h28q72 0 72 -60l-4 -20l4 -76h-4l4 -4v-16l-4 -4l4 -4v-4l-8 -8l4 -4v-8q-28 -60 -48 -60l-28 -8h-20q-21 0 -28 88l4 12q-76 6 -76 44l-8 60h4l-4 4v20zM184 305l4 4h8l8 -8l-4 -4q72 0 72 -36l4 -4q-2 -36 -8 -36l4 -4v-4l-4 -4 l4 -12q17 0 24 16l-8 84l4 12l-4 12h4l-4 4v4l4 4q-6 20 -28 20q-76 -2 -76 -16zM144 297v-20l16 12l-4 4v8l4 4v4h-4zM204 241v-8h8q11 12 32 12v12l-8 8zM156 245v-4h12q0 12 12 12l4 4v4h-8q-6 0 -12 -16h-8zM224 185l20 12v16h-4q-16 -6 -16 -28z" />
<glyph unicode="&#x37e;" horiz-adv-x="441" d="M272 843q41 0 56 -40l16 -100q-10 -13 -32 -88l-24 -8q-164 0 -164 40l-12 80v8q0 50 116 104zM192 767l12 -64l-4 -4l12 -8q100 0 100 20q0 40 -24 100h-12q-84 0 -84 -44zM164 719v-12l8 8l-4 4h-4zM180 671l-16 -24l28 -4l8 16l-16 12h-4zM228 643l20 -4h12l12 24h-8 q-29 0 -36 -20zM160 381l40 -4l16 4v-4l4 4h28q72 0 72 -60l-4 -20l4 -76h-4l4 -4v-16l-4 -4l4 -4v-4l-8 -8l4 -4v-8q-28 -60 -48 -60l-28 -8h-20q-21 0 -28 88l4 12q-76 6 -76 44l-8 60h4l-4 4v20zM184 305l4 4h8l8 -8l-4 -4q72 0 72 -36l4 -4q-2 -36 -8 -36l4 -4v-4l-4 -4 l4 -12q17 0 24 16l-8 84l4 12l-4 12h4l-4 4v4l4 4q-6 20 -28 20q-76 -2 -76 -16zM144 297v-20l16 12l-4 4v8l4 4v4h-4zM204 241v-8h8q11 12 32 12v12l-8 8zM156 245v-4h12q0 12 12 12l4 4v4h-8q-6 0 -12 -16h-8zM224 185l20 12v16h-4q-16 -6 -16 -28z" />
<glyph unicode="&#x3c;" />
<glyph unicode="=" horiz-adv-x="649" d="M487 418q48 0 60 -76v-44q-23 -65 -52 -92h-12l-56 -4l-4 4h-4l-16 -4l-36 4l-32 -4l-36 4l-36 -4l-48 4l-24 -4l-12 4l-4 -4q-80 0 -80 56l-8 76q0 8 68 64h8l16 -12q24 11 164 24v-4l4 4h4zM183 358l-4 -48q9 -32 96 -32l180 12v-4l4 4h16l16 -4l24 8l4 12 q-11 80 -24 80h-12q-178 0 -300 -28zM155 282q-5 -28 -24 -28v-12l12 -4q0 10 24 32l-4 12h-8zM479 258l-12 -24h4l4 -4h4l20 28l-20 4v-4zM179 238v-8h24l-4 20l8 8h-8zM355 258q-9 -28 -20 -28v-4l20 4h12l8 28h-20zM391 230v-4l20 4h20q0 19 8 28h-24zM231 234v-4h28 l-4 4v4l8 12l-4 4h-12zM299 254l-16 -24h16l16 24h-16zM487 725q48 0 60 -76v-44q-23 -65 -52 -92h-12l-56 -4l-4 4h-4l-16 -4l-36 4l-32 -4l-36 4l-36 -4l-48 4l-24 -4l-12 4l-4 -4q-80 0 -80 56l-8 76q0 8 68 64h8l16 -12q24 11 164 24v-4l4 4h4zM183 665l-4 -48 q9 -32 96 -32l180 12v-4l4 4h16l16 -4l24 8l4 12q-11 80 -24 80h-12q-178 0 -300 -28zM155 589q-5 -28 -24 -28v-12l12 -4q0 10 24 32l-4 12h-8zM479 565l-12 -24h4l4 -4h4l20 28l-20 4v-4zM179 545v-8h24l-4 20l8 8h-8zM355 565q-9 -28 -20 -28v-4l20 4h12l8 28h-20z M391 537v-4l20 4h20q0 19 8 28h-24zM231 541v-4h28l-4 4v4l8 12l-4 4h-12zM299 561l-16 -24h16l16 24h-16z" />
<glyph unicode="&#x3e;" />
<glyph unicode="?" horiz-adv-x="748" d="M344 1132v-4l12 4l4 -4l12 4l104 -4h8v-4l20 4h56q38 0 48 -56h-4l20 -104l-4 -72l4 -12l-4 -24v-12l4 -32l-4 -32v-20l-4 -4l4 -4q0 -59 -52 -76q-204 -15 -204 -28l-12 -64l4 -12h-4l4 -4v-4l-4 -4l4 -4v-12l-4 -4l4 -4v-12l-4 -4l4 -4l-4 -20v-80l-4 -4l4 -4l-4 -40 v-4l4 -36q-4 -63 -24 -120q0 -22 -24 -36h-112q-60 0 -60 144v108l4 4l-4 4l4 28v28l4 84l-4 16h4l-4 4v60q0 26 92 100q0 19 128 28h4l48 -4v44l-4 20h4q-10 60 -36 60l-32 4l-4 -4h-4l-88 8l-48 -4q-47 0 -60 120h4l-4 4v24q0 24 60 64h16l4 -4l32 8h12l4 -4zM252 1096 h-24l-8 -52l4 -4v-4l-4 -4v-4q0 -40 32 -40l148 4q104 0 104 -96v-8l-4 -48l4 -16q0 -35 -48 -60l-176 -16q-41 0 -48 -120v-44q0 -166 -12 -252l4 -4v-4l-4 -16q0 -56 20 -56l68 -4v4q16 25 16 68l4 308q12 64 48 64l124 4l12 4v-4q80 14 80 40v40q1 40 8 40l-4 40v56l4 60 l-20 116l4 4q-11 0 -20 12l-16 -4l-232 4zM196 988q0 -16 -20 -16v-4l4 -4v-4l24 12v16h-8zM328 932h16q0 7 36 36l-4 4h-12zM232 964q-15 -24 -24 -24v-4h8q16 18 36 20v4zM276 940h4l32 24h-16zM424 964l-36 -36v-4h4q20 0 52 36zM420 900l4 -12l52 48l-12 8 q-44 -34 -44 -44zM432 860v-12q34 28 48 28v24h-4q-8 -1 -32 -40h-12zM436 824v-12l12 4v8h-12zM164 608h4l8 8h-4zM188 576v-8l16 8v20zM168 560v-4h4l12 4v12zM164 496l4 -4h4l28 32l4 -4v24q-40 -36 -40 -48zM160 400v-24q40 21 40 48h-4q-27 -24 -36 -24zM184 356 q0 -10 -28 -28l8 -8l28 28v8h-8zM160 276l8 -16l24 16l-4 4v4l4 16h-4zM172 220l8 -8q0 19 24 20v12h-4l-28 -20v-4zM212 208l8 -8h12q36 18 36 24h-12zM332 156l16 -12l-12 -12l12 -64v-8q-13 -44 -36 -44l-68 -8v4l-44 -12q-17 1 -60 68q0 28 64 60q0 12 128 28zM228 108 q0 -40 28 -40l28 -4l40 8q-10 52 -16 52q-70 -8 -80 -16zM204 64l-8 -28v-4h20l4 20q-8 0 -8 12h-8z" />
<glyph unicode="@" horiz-adv-x="2019" />
<glyph unicode="A" horiz-adv-x="768" d="M272 1196q76 0 240 -40l4 4q67 0 92 -104l12 -60h-4l8 -32h-4l12 -68l-4 -4l16 -180l-4 -4v-4l4 -4l-4 -28v-92l4 -20h-4l4 -4v-36l-4 -4l4 -4v-8l-4 -16l4 -12l-4 -4v-4l4 -4v-4l-4 -20l4 -44h-4l4 -4l-4 -20l8 -184v-12l-8 -32l16 -8q-47 -120 -88 -120h-8 q-164 0 -164 36q-9 0 -12 28l-12 400l-8 8l8 12v36l-8 12q3 28 8 28l-4 4v4l4 24l-4 24h4l-4 4v28l4 16l-4 4l4 20v4l-4 12l4 20v16q0 14 -16 28v4l4 12h-4l-12 4l-20 -4l-8 8h-12v-24q0 -47 -16 -120l8 -112h-4l4 -4v-60q0 -69 -8 -108l8 -88h-4l4 -4v-32l4 -112 q-19 -83 -52 -120q-35 -24 -48 -24q-160 21 -160 52l-12 72h4l-8 52h4l-4 4v4l-12 224l4 20l-4 4h-4l4 4v4l-4 16l4 16l-4 4h-4l4 12l-4 4l4 20v12l-4 16l4 4v4l-4 16l4 4l-8 72l4 4v4l-4 24l4 4l-4 12l4 4v4l-4 16h4l-4 12l4 4v4l-4 4l4 20v60l4 4l-4 4l4 48v88l4 4l-4 4v4 q13 92 48 124l72 60l44 20zM312 1172l-8 -8h-48l-20 -4l-4 4v4q-100 -16 -100 -72l-4 -4v-4l8 -96l-4 -4v-4l4 -12l-4 -16l4 -16l-8 -8v-12l-4 -64l4 -16h-4l8 -44l-4 -4l8 -64l-4 -52l4 -4v-4l-4 -16l4 -16h-4l4 -4v-12l-4 -4l4 -4v-4q5 -232 12 -232h-4l4 -4l-4 -40v-44 l4 -36l-4 -4l12 -104h-4l12 -40h16l12 8h8q8 0 8 -12q64 14 64 40v48l-4 20h4l-4 12l4 16l-4 4v8h4l-4 72l4 200l-4 48h4l-8 20l4 16l-4 44q2 48 12 48l-4 4l4 60v24l4 4l-4 4l8 56l-4 4q0 60 88 60h24q56 0 64 -68v-20l4 -120h-4l4 -4v-4l-4 -16l4 -16h-4l4 -4v-8l-4 -4 l4 -4v-40l-4 -4l4 -4v-76l4 -16l-4 -4l12 -136l-4 -16l4 -20h-4l4 -4v-84q4 -102 24 -112h40l20 4l8 -8l36 4h4l16 24q0 16 8 16l-8 36l4 16v8l-4 20h4l-4 4v4l4 4l-4 4v16l4 4l-4 4l-4 108v192l-4 16l4 4v4l-4 52h4l-4 4l4 20v8l-8 100h4l-4 4v12l4 4l-4 4v16l4 4v4l-8 8v4 l4 4l-4 4v4l4 4l-4 4v4l4 4v4l-8 8v4l4 4l-4 4v8l4 4l-16 92h4q-25 120 -68 120zM48 1040v-4q60 43 60 80q-52 -54 -52 -64zM364 1088v-4l4 4h4q56 -12 56 -24q1 -44 8 -44q-3 -56 -32 -56v4l-64 -12q-48 0 -48 40l-8 36v32q0 15 80 24zM96 1060q0 -10 -56 -60l-4 -28 q59 55 68 72v16h-8zM308 1040v-4h16l4 4v4h-4zM376 1044l-4 -4v-4l12 4v4h-8zM308 1020q5 -36 12 -36h12l20 4l4 -4l4 4v4q0 25 -28 32zM100 1016q0 -11 -68 -80v-24l76 76l-4 28h-4zM388 996v-4h16l4 20l-16 -16h-4zM32 884v-12h4q68 52 68 84zM96 904q0 -11 -64 -60 l-4 -40l72 72v28h-4zM324 836v-4h16q55 48 64 48v8l-4 -4l-20 4l-52 -52h-4zM308 852h4l32 32h-8q-28 0 -28 -32zM368 828v-8l16 -8q31 36 44 36v8l-8 16h-4zM28 776v-24l72 72v20zM392 792l8 -36q21 20 32 20l-4 28h4l-4 4v4l4 12h-4zM96 796q0 -12 -72 -76v-20l80 72 l-4 24h-4zM396 720l4 -24l-4 -12l4 -4h4l32 24l-4 20v32zM24 680l4 -4v-4l-4 -4l4 -28q80 73 80 84l-4 4v4l4 12h-4q-62 -64 -80 -64zM100 688q-4 -21 -72 -76v-28l80 68l-4 36h-4zM396 644v-60q27 24 36 24v72zM100 624q-21 -39 -68 -60l4 -4l-4 -20v-4q45 30 76 64l-4 4v4 l4 16h-8zM400 556l4 -4l-4 -20v-8q17 20 32 20l-4 4l4 20v20zM100 572q-3 -20 -68 -64v-32q44 32 76 76v20h-8zM36 456v-28l80 68l-4 28q-59 -68 -76 -68zM400 488v-48l36 20v60h-4zM36 404l4 -4v-4l-4 -4v-4l4 -16l76 68l-4 4v4l4 4l-4 12q-60 -56 -76 -60zM432 440 q-20 -28 -32 -28v-32l4 -4v-4q23 16 40 16l-4 20v4l4 4q-5 24 -12 24zM44 352v-36l72 68v36q-62 -68 -72 -68zM400 336l4 -16h-4l4 -16l44 32l-4 4v28h-8zM44 284l4 -12h4q58 60 68 60v28zM404 272v-16l4 -16l-4 -12l44 40l-4 12l4 4v4l-4 4v4l4 12zM48 244v-32q68 61 68 80 v12q-53 -60 -68 -60zM52 192v-16l68 68v4h-4q-48 -56 -64 -56zM440 236q0 -14 -36 -36l4 -36l40 36l-4 4v4l4 4v4l-4 16l4 4h-8zM116 216q-27 -52 -64 -68v-24h4q58 60 68 60l-4 32h-4zM444 172q0 -11 -36 -44v-28h4q44 44 44 52l-8 20h-4zM56 92v-16h8q0 13 64 68l-4 16z M256 136v-12h-4l-8 8l4 4h8zM460 124q0 -8 -48 -56v-4l16 -8l40 48l-4 12l4 4l-4 4h-4zM120 112l-4 -16h4l12 12v4h-12zM548 44h16q25 0 48 60h-8q-29 -21 -56 -60zM448 52l16 -4l44 52h-16zM536 100l-40 -48v-4l24 -4l44 56h-28zM72 56l8 -8q21 32 32 32v12h-4zM196 28h8 q52 35 52 60h-4q-7 0 -56 -60zM128 72v-12h8q0 9 16 24h-8l-12 -12h-4zM148 40l20 -8l32 40h-24zM120 60q0 -12 -16 -12v-4l12 -4l12 16l-4 4h-4z" />
<glyph unicode="B" horiz-adv-x="742" d="M256 1228h28l44 -4l4 4h4l16 -4l16 4l4 -4l24 4q40 -2 40 -8l4 4q136 -19 136 -64q11 -21 24 -112h-4l4 -4v-52l-4 -4l4 -4v-28l-4 -4l4 -4q0 -108 -120 -108h-8v-4q120 -37 120 -148v-24l4 -16l-4 -4v-4l16 -100h-4q8 -17 8 -64v-4l-4 -16l4 -16v-4l-4 -16l4 -12l-4 -4 v-4l4 -12h-4l4 -4v-4l-4 -4l4 -4l-4 -48v-72l-4 -4l4 -4l-4 -20v-36q0 -55 -48 -88q0 -31 -72 -84q-100 -16 -176 -16q-103 0 -280 40q-20 25 -20 40h4l-4 4v80l-4 16l8 72l-4 4l4 20v96l-4 36l4 4v4l-4 24h4l-4 4v48l-4 16l4 16l-4 44h4l-8 40h4l-4 4v8l4 4l-4 4l4 20l-4 4 v4l4 4v4l-4 4l4 20v28l8 236l-8 28q0 24 16 52l-8 32v28q22 100 80 100q13 0 40 20l16 -4q0 12 108 20zM132 1112l4 -164l-8 -180h-4l4 -4v-8l-4 -4l4 -4l-4 -20v-120l-4 -16l4 -4l-4 -12l4 -112l-4 -20l4 -4l-8 -76l4 -4l-4 -20v-88l-4 -4l4 -4v-36l4 -16l-4 -4v-4 q0 -16 24 -20v-4l-4 -4v-4l20 4h12q67 0 216 -28l48 -4l60 12l4 -4v-4l-4 -4h24q26 0 48 32h12l4 32l-4 12l12 148l-4 12l4 4l-4 20v20l4 16l-4 4v4l4 36l-24 260q-24 60 -100 88l-60 16l-4 -4h-12l-4 4l-4 -4q-44 4 -44 16l16 16l4 -4l168 20v-4q42 0 48 84l-4 4v4l8 48 q-3 65 -12 72v12q0 100 -96 100q-37 12 -84 12h-12l-16 -4l-4 4h-4l-20 -4l-76 4q-108 0 -108 -44q-7 0 -12 -48zM68 1104q44 22 44 52q-44 -30 -44 -52zM288 1112l20 -4h52q56 0 56 -64l4 -32v-20q-13 -36 -72 -36h-28q-64 0 -64 44l-4 56q0 31 36 56zM60 1064v-12 q48 28 48 40l-4 12q-30 -19 -44 -40zM320 1064h8l8 16v4h-4q-9 0 -12 -20zM280 1076v-8h16l8 8v4zM348 1064v-8q18 16 28 16l-8 8l-16 -16h-4zM52 1012v-12h4q39 32 48 32v28zM372 1052v-8h4l12 12h-4zM276 1044q0 -64 28 -64l4 4l20 -4h8l8 8v44q-26 12 -52 12h-16z M372 1004v-8q20 11 20 32l-16 -24h-4zM44 960v-8h4v12h8v-12l56 40l-4 24zM44 916l4 -4v-8l-4 4h-4v-16l32 28l4 -4q18 24 32 24v24q-55 -48 -64 -48zM40 940h4l8 8h-4zM36 864v-36l72 60v32q-62 -56 -72 -56zM32 800v-20h4l68 52v24q-62 -56 -72 -56zM68 772v-4h4 q28 14 28 20v12zM32 744v-8q22 24 32 24v4h-4q-28 -14 -28 -20zM32 712v-16q58 44 68 44v20zM32 668v-16l68 48l-4 12l4 4h-4q-53 -48 -64 -48zM368 720q56 0 56 -108v-20l4 -16l-4 -4v-4l4 -60l-4 -60l4 -44l-4 -4l4 -20v-44l-4 -44l4 -12q-8 -52 -40 -52h-32q-88 0 -88 52 v16l4 4l-4 4v4l4 12l-4 12l8 8v56l4 4l-4 4v4l4 4v4l-4 4l4 20l-4 16l4 16l-4 16l8 32l-4 4l4 20v4l-4 12l4 20v72q0 68 84 68zM308 664h4l28 28h-4q-19 -9 -28 -28zM368 692l-24 -28h8l28 20v4zM28 624l4 -4v-8l-4 -4l4 -16l68 52v32zM368 636l28 20l-4 16q-24 -14 -24 -36 zM308 640v-4l4 -20l-4 -16l8 -36l-8 -8v-4l4 -16l-8 -32l4 -4v-4l-4 -12l4 -4l-4 -20v-8l4 -12l-4 -20l-8 -156h4l40 -8l4 4l-4 4l4 16l-4 20h4l-4 4v4l4 4l-4 20v8l4 52l-4 12l4 44v44l4 4l-4 4v80l4 4l-4 4v52h-36zM372 608v-4h4l24 16l-4 12zM32 576v-28l64 52l4 16h-4 q-43 -40 -64 -40zM372 576v-20h4l24 20v16h-4zM44 532l-12 8v-4l4 -20h4q25 12 56 44v8zM396 548q-6 -16 -24 -16v-12h4l28 24l-4 4h-4zM36 488v-16h4q33 27 60 36l-4 20q-45 -40 -60 -40zM372 496v-12l28 24h-4q-13 -12 -24 -12zM36 436v-12q29 17 60 48v16zM372 456v-8h4 l24 16v12l-24 -20h-4zM36 396v-12h8q37 28 52 28v32zM368 408v-4h4q16 16 28 16v16zM364 356h4l32 28v12q-32 -23 -36 -40zM40 352v-20q56 34 56 60h-8zM392 352q0 -10 -24 -28l4 -4v-4q28 14 28 20v8zM36 304v-20q45 32 56 32v32q-43 -44 -56 -44zM368 280v-16q32 16 32 40 h-4zM36 252v-16l56 44v16zM32 200v-16h8q35 36 52 36v24h-4q-19 -6 -56 -44zM84 200q0 -8 -52 -52h8q0 12 16 12q0 11 36 20v12zM32 96h4l60 48v16h-4q-60 -31 -60 -64zM104 132q0 -14 -64 -64v-4l20 -4h8l76 64zM104 56l4 -4h8l80 72v4h-8q-22 -10 -84 -72zM164 64h4l68 60 l-4 4h-4zM180 40l4 -4h12l88 84h-20zM296 112l-68 -80l4 -4h8q0 19 72 84h-16zM264 28h16q0 8 68 76v4h-8q-7 0 -76 -80zM400 100l-8 -12h8l4 12h-4zM412 36v-4l24 4l-4 4v4l56 56h-16zM472 48v-4h4q48 30 48 56zM424 96v-12l12 12h-12zM144 44h12l8 16h-4zM308 28v-4h8v12z " />
<glyph unicode="C" horiz-adv-x="820" d="M656 1212q100 -6 100 -44q9 0 12 -36h4q0 -64 -24 -92l4 -4v-4q-71 -112 -184 -112q-124 -4 -212 -16v4l-4 -4h-60v-80l-4 -4l4 -4l-8 -100l4 -36h-4l4 -4l-4 -48q7 -232 20 -232l-4 -16l16 -4l-4 -12q23 -36 52 -36q0 -8 24 -8v-4l12 4l56 -4l4 4l20 -4h40l4 -4l4 4 q39 -8 116 -8h12l4 -4l12 4q76 0 76 -80v-20l-4 -24l4 -12h-4l4 -4v-12q-13 -12 -24 -56l-100 -84h-4l-4 4h-4q0 -13 -24 -16l-24 4h-12l-12 -8h-4l-8 8l-4 -4h-4l-4 4l-32 -8h-76l-152 8v4l-4 -4l-20 4h-4q-71 0 -92 8l-8 -8q-8 0 -8 12h-16l-16 4l-16 -4q0 10 -28 20 q-16 31 -16 52l8 12l-4 4v4l4 4v4l-8 8v32l-4 16l4 12l-8 16l4 4l-4 40v72l4 4l-8 24h4l-4 4v4l4 4l-4 4l4 16l-8 68l4 12l-4 16h4l-12 88h4l-4 4l-4 112l4 192l4 4v4l-4 4l8 72l-4 12h4l-4 4v20l4 4l-4 4v4q0 64 32 92q5 25 84 96l4 -4v-4l36 12l44 -8l4 4h4l196 8l4 -4 l20 4h40l16 4l4 -4l28 4h24zM612 1184l-20 4h-56l-16 -4l-4 4l-232 -16l-4 4h-4l-60 -8l-28 4l-44 -4v-152l4 -28h-4l4 -4q-12 -82 -12 -244v-132l4 -16l-4 -4q8 -36 8 -96l-4 -4l4 -4v-4l-4 -144l8 -76l-4 -4q0 -76 44 -76q0 -43 240 -56q32 -3 32 -8l4 4l40 -4h80l20 4v-4 q120 10 120 24l8 32l-4 4v4l4 4v4l-8 32l4 24q0 44 -60 44l-28 -4l-192 12l-20 -4l-12 4l-36 -4q-64 14 -88 48q0 13 -12 24l4 24q-12 33 -20 120l4 4v4l-4 4v4l4 12l-4 12h4l-8 52l4 4v4l-4 4l4 20v76l-4 16l4 16v52l4 16l-4 4v4l4 20l-4 20l4 36l-4 4l4 20v32l4 4l-4 4v4 q19 64 64 64l48 4l4 -4l28 4h72l224 24v-4l4 4h8l4 -4h4q16 17 16 40v28l4 4q-11 68 -44 68l-16 4l-4 -4h-8l-24 4l-20 -4v4zM108 1152l4 -4v-4q-20 -58 -64 -132h-8v-24h4q20 58 76 116l-4 12l4 16l-4 12l4 12h-4l-4 -4h-4zM48 1052v-4h4l32 72q-15 -2 -36 -68zM116 1084 l-76 -132h-4v-24q76 124 84 124h4l-4 32h-4zM116 1032q-64 -115 -64 -128v-4q32 52 56 76h8q0 -10 -72 -128l-8 -20v-12h4q0 14 80 128l4 28l-4 56l4 4h-8zM700 1028l-8 -24v-4q20 12 20 28h-12zM644 1016l4 -4v-4l-20 -56q28 0 48 72h-12q-20 -1 -20 -8zM584 948h16 q5 0 32 72q-11 0 -36 -56zM584 1012l-32 -68h8q0 13 40 68h-16zM516 944h12l32 64h-8q-15 -14 -36 -64zM364 936l4 -4h4l28 72h-4q-13 0 -28 -48q-8 0 -8 -20h4zM424 1004q-12 -38 -32 -68h20q0 19 28 68h-16zM432 940h12q13 0 36 64h-12q-15 -12 -36 -64zM476 944h8 q20 8 36 60h-12zM348 1000l-28 -68h8q14 7 28 48l-4 4l8 8v8h-12zM296 932l32 64h-8q-24 -24 -24 -64zM112 908l-60 -108l12 -8q36 72 52 88v28h-4zM36 888v-8h8l4 20zM52 736l4 -12h4q0 14 56 92l-4 4v4l4 20zM36 772v-12h8l12 28zM108 776q-43 -68 -64 -124l-4 -4l4 -4v-4 l-4 -4v-8h4q20 51 60 96l4 -12q-68 -124 -68 -136h8q49 100 68 100v48l-4 16l4 4l-4 32h-4zM36 712l4 -4v-4l-4 -12q7 0 12 20h-12zM108 656l-52 -104l-12 -28v-4h4q33 59 48 68l4 -4h4l-56 -104v-16h4l24 52q32 44 44 44l-4 4v4l4 4l-8 64l4 16v4h-8zM116 552l-64 -132 l4 -4v-4l-4 -16q48 89 68 100l4 -4v40l-4 20h-4zM56 352l4 -20h4q0 22 56 100l4 12l-4 12l4 28q-8 -2 -68 -132zM64 284h8q28 68 48 68v44q-8 0 -56 -112zM116 336q-3 -27 -48 -96l4 -4h8l40 68l4 32h-8zM120 272q-48 -85 -48 -116l4 -4h4q29 70 44 72v48h-4zM40 244v-24 l8 8l-4 16h-4zM64 224l-8 -16l-4 4h-12l8 -44h4l20 56h-8zM120 196q-39 -82 -48 -124l-4 -4l8 -8q38 97 64 112l-12 24h-8zM148 168l-56 -112l36 -8l48 100zM48 120l4 -20h4l20 48q-20 -28 -28 -28zM144 44l20 -4q0 17 44 84l-12 12zM224 120l-28 -64v-4h4l32 68h-8z M252 116l-28 -64l4 -16h4l44 80h-24zM292 112q0 -12 -36 -76v-4h20l36 76v4h-20zM300 40v-4q0 -9 20 -12v4l44 76h-24zM380 104q0 -22 -36 -80l4 -4h16l40 80zM668 100h-16l-16 -40v-4l52 40v8zM384 24v-8l4 4h4l16 -4l40 80l-4 4h-12zM608 56v-4h4l20 48q-7 0 -24 -44z M472 96l-36 -68v-4l8 -8h4v8l-4 4q36 33 36 64l-4 4h-4zM472 20h20l40 72h-20zM524 24h4q10 3 40 68h-8q-36 -51 -36 -68zM596 92l-28 -52h8l28 52h-8z" />
<glyph unicode="D" horiz-adv-x="727" d="M380 1204q96 0 136 -100q128 -282 128 -556v-40h-4l4 -4q-24 -233 -68 -336q-51 -83 -84 -120q-18 -28 -72 -28q-78 -9 -92 -20h-4q-6 8 -44 8v4l-4 -4h-4l-48 8q0 -12 -8 -12h-12l-4 16l-4 -4q-144 8 -144 72l-12 132h4l-8 68h4l-8 48h4l-4 4v28l4 4l-4 4 q-6 272 -16 272l4 4l-12 156l4 56l-4 24l4 12l-4 4l4 20v8l-12 20l12 20v36l4 4l-4 4v4q44 120 104 164l84 12v-4l4 4h4zM300 1168l-4 4h-4l-68 -8v4l-4 -4h-16q-73 -2 -84 -12l12 -260h-4l4 -4l-4 -20v-48l4 -20h-4l4 -4l4 -260v-16l4 -96l-4 -4v-4q8 -39 8 -108v-64l4 -16 l-4 -16v-16q0 -68 40 -68l64 -12l48 4q240 0 240 44q44 54 76 352l-4 20h4l-4 4l4 24l-4 28l4 4l-4 20v52l4 4l-12 48h4q-25 117 -36 136l4 4l-32 104l4 4l-48 116q-27 51 -44 68q-50 24 -88 24zM88 1128q-31 -51 -40 -84v-4h4l40 84v4h-4zM88 1076q0 -12 -48 -92v-40 q6 1 48 92h8v12l-4 28h-4zM96 1000l-60 -120l4 -20h4l56 136v4h-4zM96 928q0 -24 -32 -68l4 -4v-4q-28 -40 -28 -68v-8h4l40 92q0 24 16 24v36h-4zM344 928h12q56 0 96 -220l8 -80l-4 -24l4 -4l-4 -20v-44q-9 -224 -76 -268q0 -8 -28 -12v4l-44 -8v4l-4 -4q-44 4 -44 36h4 q-8 16 -8 44v56l-4 16l4 16v48l4 16l-4 4v4l4 16v8h-4l4 40v52l-4 12l4 20v148q-20 15 -20 96q0 16 64 28q13 16 40 16zM356 892l4 -12h8v4l-8 8h-4zM284 828h4l40 56h-8zM352 816l4 -4v-4q7 0 28 28v12h-4q-6 0 -24 -32h-4zM96 840l-52 -108l4 -16l-4 -16q24 31 56 108v32 h-4zM392 804q0 -11 -20 -32l4 -20h4q0 14 24 48l-4 4h-8zM284 796v-72l4 -24l-4 -4l4 -20v-128l-4 -164l4 -24h-4l4 -4v-48q0 -24 20 -24q28 0 28 16l8 40l-4 4l20 160l-4 12h4l-4 4v4l4 116q-11 147 -32 152l-24 4h-20zM384 720v-24l32 32l-4 28q-11 -5 -28 -36zM48 632 l4 -12h8l32 72l-4 4v4l16 28l-4 4v4l4 12q-56 -76 -56 -116zM416 688q0 -16 -28 -16v-12l4 -28h4q28 41 28 52v4h-8zM100 668l-28 -80q9 0 24 44h8v36h-4zM388 592v-24h4q0 9 36 52v8zM100 592v-24q-15 -4 -36 -76h8q19 65 32 72v28h-4zM60 560v-4h4l8 28q-7 0 -12 -24z M420 568q0 -9 -32 -48v-8l40 52l-4 4h-4zM100 504l-12 -44v-4h4q0 12 16 20l-4 28h-4zM60 484l-4 -20v-4q8 0 12 24h-8zM388 472v-12h4l4 12h-8zM380 416v-32h4q36 48 36 68q-23 -36 -40 -36zM60 400h8l12 36q-7 0 -20 -36zM100 424l-36 -104v-36h4q32 76 32 104l4 4h4 l-4 32h-4zM392 360q0 -11 -20 -20v-12l4 4h4l4 -4h4l8 28v4h-4zM104 328q0 -16 -36 -108v-20l44 104v24h-8zM104 236l-28 -100v-16h12l24 84v32h-8zM112 140l-16 -76l12 -4q11 37 24 52l-12 28h-8zM148 100l-12 -36v-12l4 4h4l8 -8l16 48l-20 8v-4zM484 100l-28 -44v-4 q40 33 40 44zM192 92l-16 -44h36l16 40l-20 4h-16zM352 40h24q40 39 40 52h-4q-41 0 -60 -44v-8zM440 92q0 -14 -24 -44v-4h16v20l16 24v4h-8zM240 44l16 -4h8l24 48h-28q-12 0 -24 -44h4zM288 36h40q0 17 24 52h-36q-7 0 -28 -52z" />
<glyph unicode="E" horiz-adv-x="831" d="M416 1220l4 -4h4l36 4q183 -8 196 -16l4 4h4l4 -4h4l4 4h4l16 -8l12 4l20 -8v-4l-8 -8l-4 4v-8h-4l-20 8l-4 -4v-4l-36 8l-4 -4l-20 4l-180 4l-4 -4h-4l-4 4l-64 -8l-4 4l-48 -4h-52l-28 -4v4l-4 -4h-12l-60 -4l-12 -40l8 -20l-4 -20v-36l-4 -4l4 -4v-8l-4 -4l4 -4v-12 l-4 -16l4 -4l-4 -12l-20 -396h-4l8 -40l-4 -20v-4q0 -107 -8 -160l4 -4l-4 -28v-60l4 -16l-4 -16v-72q15 -44 60 -44l176 -16l12 4l40 -8l4 4h72l60 4v-4q46 5 52 12q7 -12 52 -12v-4q12 0 28 28l-8 68h4q0 38 -56 44h-12l-12 -4l-20 4h-16l-264 20v4l-4 -4h-4q-44 3 -44 16 v12l4 4v4q-12 0 -24 52l4 4v4l-4 20l4 4l-4 28v120l-4 20h4l-4 4v4l4 4l-4 4v4l4 4v4l-8 28l4 4v4l-8 48l4 4l-4 40v20q10 32 44 32h84l4 -4l12 4l128 8h80l16 28v84h8v8q-33 12 -76 12h-12l-4 4l-4 -4l-56 8h-44l-4 4l-4 -4l-48 8l-4 -4q-116 7 -116 40l-4 28q8 0 12 40 l4 4h4l116 4l196 -8v-4l4 4l48 -4q132 0 132 28l4 32l-12 92l12 8q16 -36 16 -100v-24q0 -29 -40 -60q-14 -44 -56 -44l-196 -4l-60 4l-12 -4l-8 8h-8l-28 -8v-4q240 -20 240 -28l-4 -4v-8h4v8h8l12 -40v-48q-44 -176 -140 -176q0 -6 -92 -12l-76 8l-4 -4h-4l-44 8l4 -4 v-148l4 -16l-4 -16q0 -156 20 -156l404 -40q36 -14 44 -92q0 -76 -76 -116q0 -26 -128 -64h-144l-4 4l-4 -4q-312 24 -328 32q-28 25 -28 80l12 360v52l4 24l-4 20v44l-4 16l8 36l-4 4v8h4l-4 48v96l4 4l-4 4v4l4 4l-4 4l4 24l-4 36l12 228q0 32 104 76l8 8h8l8 -8l76 8 l4 -4l20 4q102 0 164 8zM48 1104l4 -4v-4l-4 -12q14 8 72 88h-4q-64 -26 -64 -68h-4zM116 1128l-68 -76l-4 -20h8q0 14 72 80v16h-8zM120 1072l-80 -76v-32h4q0 10 52 76q20 24 32 24zM60 948l48 48l20 4v32q-68 -68 -68 -84zM312 1012l-4 -4v-8l20 4v4zM356 1004l8 -8 l-4 -4v-4l4 -4h4l12 20v8l-16 -8v8zM412 1008v-8h4l8 8h-12zM456 1008l-12 -28l24 -4l8 28h-4zM648 976q32 0 48 32h-4q-29 0 -44 -32zM260 1004l-4 -12h16zM496 980l4 -4l4 4h4l12 -4l12 28h-16zM552 980l4 -4h16q8 0 12 24h-16q-8 -2 -16 -20zM612 1000l-4 -20h4l12 -4v4 l8 20h-20zM36 876l4 -12l-4 -12q35 45 92 96v32q-83 -79 -88 -104h-4zM276 964l-4 -4v-4h20v4zM296 952h24v8h-16zM324 952h12v8h-4zM36 928v-4h4l16 16h-4q-16 -6 -16 -12zM116 908l-68 -80l4 -4h4q15 25 56 60h4l4 -4h4v28h-8zM32 744h8q60 84 84 84v36q-92 -97 -92 -120z M36 816v-8l12 4v4h-12zM36 712v-36l84 96l-4 4v4l4 20zM440 672h4q31 0 40 48q9 0 16 32h-16zM528 752v-12l8 8v4h-8zM396 672l16 -4h8q0 22 28 72v8q-35 0 -44 -44l-12 -32h4zM244 712q6 0 20 28h-8q-8 0 -12 -28zM288 740l-20 -48l4 -4h4l-4 -4v-8h8q0 23 24 60v4h-16z M308 676l12 -4l12 4v12l16 52h-4q-12 0 -40 -64h4zM376 740l-20 -56l4 -4l-8 -8h20l-4 4v8l20 56h-12zM40 644h8q26 48 52 48l4 -12q-72 -85 -72 -108q22 19 32 44l20 12h4q8 0 8 -12l-64 -80l4 -20q38 33 72 80v44l-4 4l8 24l-4 4l4 20v32zM516 724l-16 -36h8l16 36h-8z M36 480l4 -12h-4l-4 -4l4 -12l-4 -4l4 -4h4q25 56 48 56l4 -4v-8q0 -16 -44 -64q-12 -14 -16 -36v-4h4q0 8 48 60h8l12 -8l8 64l-4 12h4l-4 4l4 28v16h-4zM96 428q0 -10 -64 -80l-4 -32h4q8 0 8 16q12 0 52 52q12 0 12 40l-4 4h-4zM28 256v-4q47 60 64 60l4 -4v-12l-68 -80 l-4 -28v-4h4q0 16 48 60h12v-4q0 -9 -64 -100v-24h4q56 72 68 72h4l-4 40v24l4 4l-4 4l4 28v32l-4 16l4 16v4q-72 -69 -72 -100zM96 164l-68 -88v-8l16 -16h4q0 11 64 84l-12 28h-4zM124 112l-56 -64h40q44 43 44 60h-4l-24 8v-4zM184 104l-48 -60l28 -4h4q23 18 52 60z M200 40v-4l40 -4v4l40 56v4l-24 4q-8 0 -48 -60h-8zM540 96q0 -14 -48 -72l16 -4q24 0 24 24l40 52h-32zM264 28h36l-4 4v4l44 56h-24q-7 0 -52 -64zM368 92l-52 -64v-4l12 4l12 -4l48 64v4h-20zM368 20l4 4h4l24 -4q10 1 56 72h-20q-29 0 -68 -72zM484 92l-48 -68l28 -4 q2 13 52 72h-32zM596 92l-32 -48v-4q31 10 72 52h-40z" />
<glyph unicode="F" horiz-adv-x="794" d="M156 1164l48 -4l48 4v-4l4 4h8l4 -4l4 4l72 -8l12 4l4 -4h4l4 4l80 -8l80 4l32 -4l12 4l12 -4l36 4h20l4 -4l4 4l40 -8l-8 -12h8v8h4q22 0 28 -104l-12 -4l8 -12q-80 -92 -88 -92l-72 -12l-4 4h-4l-24 -4l-4 4l-12 -4l-92 -4v4l-4 -4h-88l-4 4l-4 -4h-12l-4 4l-4 -4h-4 l-56 4h-8l4 -40v-8h100l4 -4l12 4h8v-4l32 4l72 -8l12 4q36 -15 36 -60l-4 -4v-4l4 -12h-4l4 -4q-16 -68 -44 -68q-42 -68 -72 -68v4l-64 -8v4l-4 -4l-20 4h-4q-18 -16 -28 -16l-4 4v-52l-4 -4l4 -4l-4 -88v-72l4 -16l-16 -144l4 -4v-4l-4 -4v-4l4 -4l-4 -20v-28l-4 -36 l4 -4v-4q-17 -70 -60 -136l-24 -8q-36 0 -108 20l-4 -4h-4q-32 0 -32 124v452l-4 16l4 12l-12 128l4 20v8l-12 16v4l12 16l4 56l-8 160q3 32 8 32l-4 4v4q0 56 144 96zM112 1068l4 -12l-4 -4v-4l4 -12l-4 -44v-4l4 -16l-4 -4l8 -68l-4 -12l4 -28h-4l4 -4v-4l4 -108l-4 -104 l4 -28h-4l4 -4v-24l-4 -52l4 -12l-8 -208l4 -12h-4l4 -4v-12q0 -90 8 -112l-4 -24v-8l8 -40h56l20 4l4 -4l20 36l-4 4l4 20v32q1 80 8 80l-4 4v8l8 12v4l-4 20h4l-4 4l4 24l-4 20l4 36v52l4 4l-4 4v4l4 4l-8 28l4 12l-4 4v4q3 32 8 32l-4 4v12l4 36l-4 12h4l-4 4l4 20l-8 16 l4 16l-4 4v4q2 23 12 36l-12 12l12 12h44q67 0 168 16l4 -4l8 12l-8 8l8 56l-4 16l-60 4l-80 -4h-68l-24 -4q-31 0 -44 28l4 20v84q0 44 80 44h64l16 -4l12 4v-4l4 4h196l84 8l12 -4l8 8h4l4 -4q16 0 16 20h4l-4 4v8l8 12q-9 0 -20 56q-8 8 -32 8v4l-4 -4h-8l-68 -4v4l-4 -4 l-60 4h-36l-16 -4l-60 8l-12 -4v4l-4 -4l-28 4h-64l-4 4l-4 -4h-4l-4 4h-4l-28 -4l-4 4l-20 -4h-44l-4 4q-56 0 -56 -44zM80 1072l-8 -16v-4l16 8l-4 12h-4zM84 1032l-8 -20l-4 4h-4l-8 -8h8v-4h-12l4 -12l32 24l-4 4v4l4 4v4h-8zM560 944h4q17 3 72 52h4v8h-4 q-19 0 -76 -60zM504 940h16q0 13 64 56v4h-4l-12 -4v4q-12 0 -12 -20q-20 -5 -52 -40zM412 992q-13 0 -52 -32q-12 0 -12 -16h8q0 15 64 44h12l8 -8l-44 -36v-4h4q19 21 72 48l-4 4v4l-4 -4h-52zM508 996q0 -15 -64 -52v-4h12q19 7 76 56h-24zM284 944h8q45 40 60 40v4h-12 q-55 -37 -56 -44zM56 940l36 32h-8q-28 -13 -28 -32zM248 952v-4h12l-4 12zM84 932l4 -4v-8l-4 4h-8l-8 -8h4l12 4l8 -12v-12q-8 0 -8 -12l-4 4q-28 -18 -28 -36l-4 4h-8v-24q44 36 56 36v40l-4 28l-4 -4h-4zM36 772q52 52 64 52l-4 4v4l4 4v4l-4 4q-43 -27 -60 -60v-12z M36 736v-12l68 48l-4 20h-4zM36 684h4q53 40 64 40v20q-64 -50 -68 -60zM268 716v-20h4l16 16v4h-20zM316 716q0 -10 -28 -40h8l36 36v4h-16zM332 680v-8l44 40h-8zM96 696q0 -7 -56 -44l4 -4v-8l-4 -4v-4h4q50 40 60 40l-4 24h-4zM376 676h12l8 16h-4zM44 596v-8h4l56 36 l-4 24zM44 552v-20h4l56 36v4l-4 20q-53 -30 -56 -40zM44 496v-16l60 36l-4 4v4l4 4v4l-4 4q-27 -11 -56 -40zM44 432l60 36l-4 20q-60 -41 -60 -56h4zM44 388q45 29 56 48v4q-56 -40 -56 -48v-4zM44 364v-20q43 36 52 36v12q-34 -28 -52 -28zM44 316v-20h4l40 36l12 -4v4 l-4 16h-4q-32 -32 -48 -32zM44 244q47 40 56 40h4l-4 24h-4q-52 -46 -52 -64zM44 208v-20q48 48 60 48l-4 20zM44 164v-16l8 -8l52 48v20q-43 -44 -60 -44zM100 156l-16 -24h4l20 8l-4 16h-4zM44 108l4 -12q23 13 32 28v8zM48 60v-4l8 -8l56 48l-4 20zM172 84l-40 -56h4 q11 0 36 44h4v12h-4zM92 44v-8h4l40 40h-4q-31 -16 -40 -32z" />
<glyph unicode="G" horiz-adv-x="839" d="M644 1196l20 -4l28 4v-4l4 4h40q44 -8 44 -44h-4l12 -48l-4 -16l4 -20q-39 -144 -112 -144l-108 -8v4l-4 -4h-16l-4 4l-4 -4l-28 4h-36l-16 4l-12 -4v4l-4 -4h-4l-120 8q-3 -88 -12 -88v-8h4l-4 -40l8 -224h-4l4 -4v-4l-4 -4l4 -4l-4 -12l12 -140h-4q0 -71 44 -80l16 -8 l4 4l64 -12l12 4l36 -4h16v8l-12 56l4 4v4q-5 25 -24 32l-48 -8q-60 0 -60 40v12l8 12v16q0 104 24 104l56 20l4 -4h4q13 12 68 16v-4l4 4h4l4 -4h4l4 4l104 -12h4l4 -4l4 4h4q52 0 52 -52l16 -108l-4 -4v-4l4 -4l-8 -88l4 -16l-4 -40v-12l-4 -4l4 -4v-4q-9 -115 -32 -172 q-9 -3 -40 -56q-48 -24 -64 -24v4l-80 -16l-204 4l-80 -4l-124 32q-84 0 -84 44l-12 60h4l-8 40l4 4l-4 20v8l4 4q-7 0 -12 160l4 36l-4 4v4l4 16v12l-4 16q8 18 8 52v4l-4 12l4 20v56l4 4l-8 40l4 4v4l-8 112l4 12l-4 36v56l-4 20h4l-4 4l4 12l-4 64v20l4 24l-4 4 q0 84 148 168h8v-4l24 4l144 -4l56 8l4 -4l40 4h116zM400 1164l-76 -8l-32 4l-12 -4l-48 8l-16 -4l-4 4l-4 -4h-4l-4 4h-4q-44 0 -68 -80l-4 -88l8 -8v-8q0 -12 -16 -12l4 -12l-4 -20l4 -24l-4 -4h-4l4 -16l-4 -140h-4l4 -4l-4 -28l4 -116h4l-4 -4v-4l8 -152v-40l4 -16 l-4 -16l4 -16l-4 -4v-4l4 -4l-4 -24l8 -36l-4 -4l8 -60l-4 -4q0 -64 36 -64q24 -24 136 -24h112l16 -4l16 4h12l4 -4l4 4l40 -8l4 4h4l4 -4h4l4 4h4l12 -4q8 16 24 16l4 -16l64 12l4 -4h4q56 7 56 44l16 156l-4 4l4 20v40l4 4l-4 4v16l4 16l-4 12h4l-4 4v52q-9 76 -36 76 h-12l-4 -4h-4l-28 8l-4 -4l-56 8h-16l-4 4l-4 -4h-48q-20 -8 -20 -32l-4 -4h-4l12 -64l24 4q88 -17 88 -68l8 -36l-4 -72l4 -12q0 -18 -36 -24l-36 4l-16 -4l-36 4h-32l-16 4l-4 -4h-4q-116 20 -116 68l-8 52v16l-8 8l4 4v24l-4 20h4l-4 4v100l-4 52l4 44v8l-8 64v44l8 32 l-4 20l8 44l-4 4v4q17 116 28 116q32 20 92 20l84 -4l16 4l4 -4l28 4h68l20 4v-4q128 13 128 32v8h4q-10 96 -24 96h-40l-32 -4l-32 4h-28l-4 4l-4 -4h-112l-16 4l-16 -4v4l-4 -4h-48zM32 1052v-4h4q71 48 72 56q0 15 12 32h-4q-56 -41 -84 -84zM28 1012v-4h8v-4l-12 -4 l4 -16q72 59 72 72v4q-43 -21 -72 -48zM72 992v-4l4 -4v-4h-4l-4 4q-20 -6 -20 -28h8q0 15 36 24l-8 12q12 0 12 12h-4zM576 948h28l64 56h-4q-28 0 -88 -56zM348 952l16 -4q0 16 16 16l44 36h-20q-38 -24 -56 -48zM468 948h16q24 0 72 48l-20 4q-21 0 -68 -52zM468 996 l-4 -4v-4h4l12 4v4h-12zM328 984v-8h4l20 12v4h-4zM416 956l4 -4h4l36 32h-12zM656 960v-8l4 4h4l12 -4v4l16 24v4h-4q-24 -24 -32 -24zM24 956l4 -4v-4l-4 -4v-4h4l8 8l-8 8h-4zM28 912v-4l4 -16l-4 -12q47 40 60 40v24h-4l-52 -32h-4zM32 852v-12l56 40v8zM32 808v-20h12 l44 28v28h-8zM80 780q0 -8 -16 -8q0 -8 -36 -24l8 -12l-4 -4h4q48 19 48 40v8h-4zM32 700q5 -28 12 -28q30 15 36 28v24zM36 636l4 -12h-4l4 -20h4l40 32v32zM36 568l4 -20l-4 -12l48 36v28zM36 488l4 -4v-4l-4 -16h4q41 40 52 40l-4 32h-4q-41 -21 -48 -48zM420 496l4 -4 v-4l-8 -12l8 -8l8 16l-4 12h-8zM32 428l4 -12l-4 -12l60 44v28q-50 -48 -60 -48zM476 436h8l16 8v8q-20 0 -24 -16zM532 408v-8h4l28 8v16h-4q-18 -16 -28 -16zM84 420q0 -11 -52 -48v-28l64 48l-4 4v24h-8zM532 368v-16h4q22 0 32 20v20zM88 356l-56 -48l4 -4v-4l-4 -4v-4 l4 -16l-4 -4h4q60 45 60 56l-4 12l4 12l-4 4h-4zM544 320h12q0 8 12 8v8h-4zM92 284q0 -12 -16 -12l-32 -28l-4 4v-20l56 44v12h-4zM92 236q-30 -32 -52 -32v-12l4 -20h-4l4 -12l48 36v4h-8v8h4l12 -4l4 4v16zM48 128v-12l4 -4v-4q23 12 60 48l-4 16q-12 0 -60 -44zM52 80 q6 -16 12 -16h4q74 60 84 60q-4 12 -24 12h-4q-53 -56 -72 -56zM168 116l-56 -48l-4 -4v-4q16 -1 16 -8l64 52h4v8zM216 104l-48 -52l4 -4l-4 -4l12 -8l76 64l-24 4l-4 -4h-4l-4 4h-4zM660 104l-36 -56h4q8 0 44 52v4h-12zM216 32l20 -4h8l80 68l-20 4q-41 -20 -88 -68z M288 36v-4h20q43 44 56 44l16 20v4q-26 0 -76 -56zM544 36h8q35 0 76 60v4q-33 -4 -84 -64zM348 32h28q0 15 56 56v4l-4 4h-8q-52 -39 -72 -64zM400 36v-4l40 -4q0 22 32 40l24 24l-4 4h-16q-48 -40 -56 -56zM532 92l-68 -64h4l12 4l20 -4h16q0 15 44 60l-4 4l-4 -4h-4z" />
<glyph unicode="H" horiz-adv-x="779" d="M216 1208h36q100 0 100 -76l-4 -4v-4q9 -56 20 -56h4v20q0 100 52 100q0 8 80 16v-4l4 4h12l4 -4l4 4l52 -8l24 4v-4l4 4h24l8 -8v-12l-8 -12q11 0 24 -256h-4l4 -4l-4 -20v-28l-4 -4l4 -4l-4 -60v-16l-4 -4l4 -4v-4l-4 -24l4 -16h-4l4 -4v-32l4 -16l-4 -4l4 -20v-20 l-4 -24l4 -12h-4l4 -4v-12l-4 -24l4 -20h-4l4 -4v-20l-4 -4l4 -12l-4 -44l4 -4v-4l-4 -4v-4l4 -4l-4 -20v-124l-4 -4l4 -4v-4l-4 -24l4 -4l-8 -104l4 -16q-70 -120 -124 -120q-50 0 -120 16l-4 -4l-16 24v48l-4 16l4 12q-8 0 -8 12l4 4l-4 20v116l4 16l-4 16h4l-4 4l4 20v24 l-4 16l4 16l-4 16q8 18 8 52v36l4 16l-4 4q3 32 8 32l-4 4v8l4 4l-4 4v4q3 28 8 28l-4 4v4l4 24l-4 20l8 40l-4 4l12 156v20q0 36 -36 36l-4 4q-32 -6 -32 -16l4 -16l-4 -4l4 -20v-60l-4 -16l4 -4v-4l-4 -12v-8h4q-28 -605 -40 -652q-7 -1 -52 -76l-24 -8h-72l-24 -4 q-88 25 -88 60h4l-12 68l4 16l-8 24l8 20l-4 24h4l-4 4v60l-4 16l4 16v8l-4 16l4 16l-8 8l4 40v8l-8 16l8 12l-8 96l4 4v4l-4 4v4l4 4l-4 20v96l4 4l-4 4v48l-8 12h4l-4 12l4 16l-4 4l4 20v20l-4 28h4l-4 4v4l-8 132l8 32l-8 52q1 24 76 96q0 25 80 52zM128 1176 q-16 -24 -16 -44v-88l4 -32l-8 -76l4 -32h-4l4 -4v-4l-4 -24l4 -4v-4l-4 -4v-4l4 -4v-4l-4 -4l8 -52l-4 -4l4 -12l-8 -248l4 -28l-4 -4v-4l4 -12h-4l4 -4v-116q13 -240 40 -240v-4l-4 -4v-4l12 -4l84 4h12l12 -8l12 52l-4 4l4 28v32l4 4l-4 4l4 20v28l4 4l-4 4v4l4 4l-4 4v4 l4 24l-4 4q6 56 12 56l-4 4v12l4 4l-4 4l8 144h4l-4 4l4 20l-4 4v4l4 16h-4l4 4v16l4 96l-4 4l4 20v52l4 4l-4 4v108q0 72 84 72h16q62 0 68 -148v-20q-16 -203 -16 -292h-4l4 -4v-68l-4 -4l4 -4v-4l-4 -4l4 -4l-4 -40v-72l4 -16l-4 -16l4 -12l-4 -40v-52q0 -32 28 -40v-8 h48l32 16h52l4 20l-4 4l4 20v32l4 4l-4 4l4 20v112l-4 16l4 16v80l4 4l-4 12l4 4l-4 20v28l4 16l-4 16v20l4 4l-4 4v216l4 4l-4 4l8 60l-4 4l4 20v24l-4 28h4l-4 4v80l-4 20h4l-4 12q-2 92 -12 92l-92 8l-12 -4l-16 4l-28 -8l4 -4v-4l-4 -4l4 -28v-48q0 -35 -52 -40h-24 q-64 0 -64 44q0 88 -32 88l-68 8zM396 1112l44 28l-4 12q-40 -24 -40 -40zM88 1140l-8 -20h4l8 16v4h-4zM412 1092l4 -4l24 12v16zM64 1104l-36 -44h8l32 44h-4zM28 1024l4 -32l-4 -4h8l44 64l8 12v40q-60 -71 -60 -80zM396 1080v-4l8 8v4zM84 1032l-36 -56v-4l12 -4l28 36 v28h-4zM32 900v-8h8v-4l-4 -12q52 53 52 96l-52 -72h-4zM32 956v-24h4q0 11 20 32h-8zM352 924v-4h8l4 4h4l4 -4h4l40 20l-8 8h-4q-13 0 -52 -24zM408 912h8v-4l16 8l-4 12q-18 -8 -20 -16zM80 904q-13 -32 -20 -32l4 -12h4q0 12 12 12l4 4v28h-4zM424 892l4 -20v-16h4l12 4 v8q0 28 -8 28zM44 848v-8l-4 4h-4v-24h4l16 28h-12zM36 776l8 -8l40 52v24q-33 -30 -48 -68zM428 828v-16q20 0 20 8l-12 16zM424 768v-16q8 0 24 20l-4 4v4l4 12h-4q-20 0 -20 -24zM80 788l-36 -56v-28h4q40 56 40 68v16h-8zM420 696q20 7 20 40q-18 0 -20 -40zM48 676 l4 -4l-8 -8l4 -4h4l36 48l-4 4v4l4 12zM420 652l16 12v16h-4q-10 0 -16 -28h4zM44 604v-8h4l36 48v24q-40 -47 -40 -64zM416 620v-20l20 4l-4 28h-4zM44 536l40 56v20q-40 -44 -40 -76zM412 576l4 -4v-12l-4 -4v-4h4q20 8 20 32h-4zM80 552l-28 -52h8l24 32v20h-4zM404 484 l28 16v36q-23 0 -28 -52zM48 448l4 -16h8q0 30 28 32l-4 32zM400 456l4 -4v-4l-4 -12q32 14 32 20v20h-4zM84 440l-32 -52l4 -4l-4 -20v-8h8l24 36q0 16 8 16l-4 32h-4zM400 408v-24q32 12 32 44h-4q-28 -14 -28 -20zM400 352v-32h4q28 12 28 24l-4 12h4l-4 4v8l4 4v4h-4z M84 364l-32 -56l4 -12q32 39 32 56v12h-4zM400 296v-24l32 16v24h-4zM84 304l-28 -60v-12h8q11 36 28 36v16l-4 20h-4zM396 240v-16l4 -4v-4q32 14 32 32l-4 12l4 4h-4q-30 -15 -32 -24zM56 188l4 -12l-4 -4l4 -4h4q0 13 36 56l-4 20zM396 188l4 -36q32 14 32 20v12l-4 20 q-17 0 -32 -16zM96 192q-36 -66 -36 -92v-4h4q0 9 40 60l-4 4v4l4 4v4l-4 20h-4zM400 120l12 -4q24 9 24 16l-4 12q-32 -18 -32 -24zM68 56l4 -4h4l44 52l-8 28q-39 -49 -44 -76zM404 76l4 -20l-4 -4l4 -4h4l60 52q-11 0 -24 12q-44 -23 -44 -36zM508 32l12 -4q25 5 88 84 h-12q-88 -73 -88 -80zM440 40l36 -4l72 64h-4l-16 -4l-16 4q-55 -37 -72 -60zM128 88l-28 -44l4 -4l16 -4h8q11 4 32 40zM156 36v-4l4 4l20 -4h4l36 44v4h-4q-34 0 -60 -44zM240 76q0 -13 -28 -44h8q12 8 28 44h-8z" />
<glyph unicode="I" horiz-adv-x="390" d="M172 1188l12 -8h4l28 4v-4l4 4q68 -6 68 -24v-80l-4 -16l8 -48q-12 -237 -40 -508l-4 -112l4 -4l-4 -20v-8l-4 -120h-4l4 -4q0 -182 -112 -240q-112 0 -112 48l-8 36v76l-4 12l4 20v32q0 204 -12 236h4l-4 4v4l4 48l-4 72h4l-4 4v36l4 4l-4 4l4 20v16l-4 16q8 22 8 124 l8 12l-8 8v48l-4 20h4q-8 22 -8 56q0 121 72 176q24 48 92 48zM160 1148l-24 4q-32 0 -32 -124l4 -20h-4l4 -4v-4l-4 -4l4 -12l-4 -64l4 -4l-4 -20v-100l-4 -16l4 -12h-4l4 -4v-40l-4 -24l4 -4v-4l-4 -12l4 -4v-4l-4 -4v-4l4 -36h-4l4 -4v-4l-4 -4l4 -4v-4l-8 -92l4 -12 l-4 -28l4 -12h-4l4 -4v-4l-4 -4v-4l4 -20h-4l8 -28l-4 -4h-4l4 -4l-4 -120v-80l-4 -4l4 -4v-24q0 -68 20 -68l12 -4l16 4v-4q68 15 68 68l8 124h4l-4 4q8 64 8 176v44l4 44l-4 4l24 196v20l4 4l-4 4l4 20v40l4 4l-4 4l8 44l-4 12l4 40l-4 4l4 20v168q0 20 -24 20v4l-4 -4h-4 l-4 4l-4 -4h-4l-4 4zM40 1020l4 -4h8q0 10 28 40v16zM56 976h4q12 0 20 40v4q-8 0 -24 -44zM36 1016l-4 -4v-8l8 -8l4 16l-4 4h-4zM52 972l-4 -12v-4h4l8 16h-8zM36 876h12q12 52 32 52v28q-44 -64 -44 -80zM32 932v-4l8 8v4zM72 888l-20 -48v-4h4q0 12 24 28l-4 24h-4z M44 832l-8 -16v-4h4l8 8v12h-4zM60 796l4 -4l-4 -4h16v28zM72 756l-44 -104q8 1 24 40l28 28l-4 4v8l4 4l-4 4v8l4 4v4h-8zM72 684q-4 -21 -44 -92l4 -4h8q18 56 36 56v40h-4zM72 612q-44 -98 -44 -120v-4h4q30 74 48 80l-4 4v4l4 4l-4 32h-4zM68 516l-32 -84h8l-12 -20 l4 -12h4l8 20v8l-4 4v4q13 0 28 56h4l-4 4v4l4 12l-4 4h-4zM44 356h8q24 44 24 68q-6 0 -32 -68zM72 352q-32 -72 -32 -92q36 44 36 88v4h-4zM68 256q0 -13 -12 -28l4 -4l-24 -40v-40h4q16 65 32 80v32h-4zM68 160l-12 -40h4l12 12v28h-4zM72 88l-16 -36l20 -4l12 28z M156 64v-4l8 -8l12 16h-4zM96 40v-8l4 4l16 -8l12 32h-16zM148 44v-4l8 8v4z" />
<glyph unicode="J" horiz-adv-x="742" d="M664 1204q16 -6 16 -12l-8 -40l4 -4l-8 -68l4 -20h-4l4 -4l-12 -112l4 -12h-4l4 -4v-52q0 -90 -8 -112l4 -16h-4l4 -4v-4l-4 -4l4 -4v-8l-4 -4l4 -4q-2 -36 -8 -36l4 -4v-4l-4 -4l4 -12l-4 -28l4 -144v-184l-4 -16l4 -16l-4 -28l4 -16h-4l4 -12q0 -93 -44 -128 q-74 -80 -100 -80v4l-32 -8h-24q-68 0 -68 8l-4 -4l-76 8l-4 -4l-28 4h-52q-200 18 -200 36l-24 88q0 43 100 128h8l8 -8l4 4h24l4 -4l4 4h4l4 -4l4 4l56 -8l36 4v-4l4 4l20 -4h88l12 12q-9 0 -12 56q6 140 12 140l-4 4v4l4 4l-4 28l4 28l-4 52v8l4 4l-4 4v4l12 96l-4 4 q16 91 16 260v100q0 38 44 76q0 13 40 60l16 -4l28 8l52 -8l52 4h20zM516 1172l-8 -28q8 -24 8 -72h-4l4 -4v-4l-4 -16l4 -4l-24 -372v-24l-4 -16l4 -16l-8 -124l4 -4q-17 -215 -24 -232q-47 -28 -148 -28l-72 8l-20 -4l-96 8l-4 -4v-24l8 -64l16 4l16 -12v-4l-4 -4v-4 l24 -4l4 4h92l16 -4l4 4q28 -3 28 -8l4 4h4l4 -4l4 4l28 -4h48l32 -4l28 4l96 -8h16q44 28 44 56l-4 4v28l4 4l-4 4v4l4 188l-4 24l4 16l-4 4v4l4 4v12h-4l4 28l-4 136l8 92l-4 20l8 128v8l-4 72l4 68v12l4 12l-4 20v76l4 4l-4 4v8l4 20l-68 -4zM440 1060l-12 -20v-12h4 l12 20v12h-4zM448 1016l-20 -36v-4h4l20 36v4h-4zM480 1012l-56 -88l-4 -4v-12q17 16 64 100v4h-4zM476 944v-4l8 8v4zM420 860v-12l28 44v8q-10 -2 -28 -40zM412 772v-4h4q0 13 40 76q0 10 24 28l4 20h-4l-64 -100zM472 828q0 -12 -12 -24l-4 -12q24 17 24 36h-8zM448 788 l-32 -56l-4 4l-4 -28v-20h8l-4 4v4l44 92h-8zM468 756q-19 -42 -44 -68l4 -4v-8h-4l-20 4v-4l-8 -92v-36h4l20 44h-4l-12 12v8l68 140v4h-4zM464 680l-8 -24l12 4v20h-4zM444 644q-24 -33 -24 -44l4 -4h4l20 48h-4zM464 620l-60 -108q-5 0 -8 -28v-4h4q38 78 68 112v28h-4z M464 548l-24 -40v-4l4 4h16v-12q0 -11 -60 -112l-12 -28v-4h4q13 9 44 76l16 8l4 -4h4v8h4l-4 4l4 20v4l4 76v4h-4zM416 476q0 -17 -24 -44v-4h8l20 40v8h-4zM392 304v-8q27 50 44 60h4l8 -8q0 -11 -44 -88h4q30 0 44 20v68l4 60q-64 -93 -64 -104zM92 168v-4l12 12v4z M56 132l-4 4q0 -12 -12 -12l-4 -4v-24h4q0 8 40 52v8zM108 140l-64 -76v-8h28q0 14 52 68q-8 0 -8 12l-4 4h-4zM88 52l36 -4l44 56h-24zM200 104q0 -19 -48 -52v-8l28 -4q0 11 56 64h-36zM204 36h36q0 18 56 68h-28zM320 100q0 -17 -60 -64v-4l4 4h4l4 -4h4q21 28 68 68h-24 zM380 100q0 -8 -64 -60v-4h8v-4l4 4l20 -4l60 68h-28zM376 28h32l64 64v4h-28zM436 24h32q0 23 56 68v4h-12zM536 72l-4 -4v-4l12 4v4h-8zM484 28v-4h24q0 10 16 28v4q-30 -28 -40 -28z" />
<glyph unicode="K" horiz-adv-x="805" d="M224 1196v-4l4 4h36q28 -12 28 -76v-40h4q26 68 72 68q59 40 92 40v-4l4 4h112q101 0 120 -28q0 -28 -164 -152l-108 -100q40 -116 96 -232q84 -176 172 -440l44 -120l-4 -4v-4l4 -12q-9 0 -36 -44q-45 -52 -68 -52h-12l-44 12v-4l-8 -8h-4q-15 22 -40 24l-12 -4l-52 48 q0 42 -16 60l4 16q-7 32 -24 32l4 24l-104 312q-12 47 -52 136h-4q0 -63 -12 -128l4 -4q-13 -408 -60 -408q-19 -41 -44 -52h-8l-80 12l-24 -8q-44 29 -44 124v4l8 116l-4 12h4l-4 4q3 28 8 28l-4 4v4l4 60l-4 12l8 136h4l-4 4l4 20v8h-4l4 20v40l4 4l-4 4v4l4 64l-4 4v4 l4 16v12l-4 16l4 4v4l-4 4l4 12l-4 24l4 24l-12 152q67 129 112 180l76 4h4zM140 1156l-4 -56l4 -4v-4l-4 -4v-4l4 -16h-4l4 -4v-16l-4 -4l4 -4q-20 -223 -28 -512h-4l4 -4l-4 -208v-64q0 -112 24 -112q40 -4 48 -12q28 15 28 36l-4 4l4 4h4l-4 4l16 168h4l-4 4l4 48v12l4 4 l-4 4l16 280l8 24v32l4 36l-4 16q8 52 16 52h4q44 0 88 -184q6 0 12 -32q12 0 12 -8v-12l-4 -4l64 -188l32 -104q50 -131 84 -180l72 -20l12 4q41 -3 60 -20l4 4v4q-68 231 -168 464q-15 19 -132 280l-8 24h4l-8 32q12 0 92 88l176 140q0 10 -72 20l-4 -4h-96q-66 0 -92 -68 l-104 -116h-12q-16 7 -16 28q0 114 -12 164q-62 0 -116 -12zM336 1096v-8h4l8 8h-12zM56 976h8q34 75 40 76l4 -4h4v20q-56 -59 -56 -92zM300 1040l-4 -4v-20l20 20zM800 1020h8v-160h-8v8l4 16l-4 28v68l4 4l-4 4v20l4 4v4zM72 900l4 -4h4l28 44v16q-22 -23 -36 -56z M96 872v-4l8 8v4zM84 852l12 4v8zM68 824v-8h4l12 24v4zM88 788q9 0 12 20q-9 0 -12 -20zM284 804v-20h4v8h4l-4 12h-4zM72 764v-4h4l8 16v4zM276 716l4 -16q7 0 20 28l-4 4v4l8 12v16zM96 752l-24 -52v-4q18 24 28 24v32h-4zM316 716l-12 -48h8l12 36l-4 12h-4zM48 596v-12 h4q0 13 32 60l4 -4h8v36zM332 672q0 -23 -16 -48v-16h4q6 27 24 44l-8 20h-4zM300 664v-16h4v16h-4zM88 604l-16 -32l4 -4h4l8 8l4 -4v32h-4zM360 580l-12 -48v-4h8l12 52h-8zM48 532v-8h4l20 40v4zM376 532l-12 -48v-4l24 40l-4 12h-8zM392 484l-16 -44l8 -8l-4 -16v-4h4 l20 60l-4 12h-8zM84 480l-24 -48v-8l28 16v40h-4zM400 360l4 -4h4l16 56l-4 16q-15 -6 -20 -68zM80 408q-6 -32 -16 -32v-4l20 -8v44h-4zM436 380l-20 -60l8 -8l20 52l-4 16h-4zM68 332q0 -14 -36 -92v-8h8q0 21 32 64l-4 12l12 12zM452 324l-20 -52l4 -20h4l24 52 q-8 0 -8 20h-4zM468 268l-16 -60q5 -20 12 -20q0 23 20 56q-4 24 -12 24h-4zM492 212q-13 -60 -20 -60l4 -20h4q0 17 28 56l-8 24h-8zM64 156h8q0 10 12 20v24q-6 0 -20 -44zM28 164v-12h4l4 12h-8zM60 152l-8 -20v-4h4l8 20v4h-4zM524 144l-24 -72l12 -4l28 56l-8 20h-8z M88 136q0 -14 -12 -24l4 -20h8q10 0 16 36l-12 8h-4zM128 116q0 -19 -12 -28l12 -4q15 0 40 36l-4 -4h-36zM548 48v-4h4v8h4v-12q34 37 36 68l-4 4h-8q-7 0 -32 -64zM588 40l4 -4h4l8 8h-4l28 60h-4zM616 32l4 -4h12q0 21 40 72h-20q-9 -2 -36 -68z" />
<glyph unicode="L" horiz-adv-x="682" d="M160 1196l20 -8l68 8v-4l4 4h4q46 0 52 -92l-4 -136v-4l-4 -36l4 -12h-4l4 -4l-4 -20v-32l-4 -4l4 -4q-3 -52 -8 -52l4 -4l-4 -24l-4 -108h-4l4 -4l-4 -28v-36l-8 -128v-36l4 -128l48 -24l4 4l36 -8l4 4l20 -4h8l36 4l4 -4l24 4q160 0 160 -64v-8l-4 -92q-11 0 -56 -72 q-41 -44 -56 -44l-12 4l-4 -4h-4l-16 8l-4 -4h-40l-4 4q-20 -8 -72 -8h-20q-52 0 -84 12l-4 -4q-54 12 -156 20q-56 14 -56 68l-4 28h4l-4 4v4l4 12l-4 16l-4 120l-4 4v4l4 4l-4 20v4q0 135 -12 296v40l4 4l-4 4v28l4 4l-4 4v24l4 4l-4 4v4l4 4l-4 12l-4 176l-4 4v4l4 4v4 l-4 12q0 121 68 184q33 52 44 56h4l4 -4zM116 932l4 -28h-4l4 -4v-24l-4 -36l4 -4l-4 -20v-68q1 -28 8 -28v-8h-4l8 -136l-4 -12l4 -36v-36l4 -16l-4 -16l4 -4v-4l-4 -4v-4l4 -12l-4 -24l4 -4l-4 -16l-4 -136q0 -81 40 -108q30 -12 64 -12h236l120 -8q12 12 12 76 q0 44 -64 44l-48 4h-8l-48 -4v4l-4 -4h-12l-4 4l-4 -4h-20l-4 4l-4 -4q-117 0 -128 68v52l-4 44l4 4l-4 20v16l4 4l-4 4v8l4 4l-4 4q8 41 8 112h4l-4 4v16l4 4l-4 4v4l4 12l-4 4l12 96l-4 12l4 16l-4 4q12 86 12 164l4 4v4l-4 4l4 48v32l-4 16l8 24v60q0 52 -40 52h-68 q-48 0 -48 -12zM72 1108q-21 -29 -36 -84v-4h4q0 17 36 84v4h-4zM88 1088l-36 -96v-4l40 60v40h-4zM76 976q9 0 12 20q-9 0 -12 -20zM32 976v-40h4l4 20l-4 4l12 12v4l-4 -4h-4l-4 4h-4zM84 940l-4 -12h12v4zM32 908v-8h4l8 8h-12zM88 892l-16 -32v-4h8q0 12 12 12v24h-4z M64 844v-8l8 8v8zM52 824q0 -12 -8 -12l8 -8l8 16l-4 4h-4zM84 824l-4 -20l12 8l-4 12h-4zM68 784v-4h4l4 16q-8 0 -8 -12zM84 764q0 -14 -20 -48h4q9 0 20 40v8h-4zM52 760l-4 -12v-4h4l4 12v4h-4zM48 620l4 -4h4q0 24 40 68l-4 16q-28 -39 -44 -80zM92 648l-16 -40v-4h4 q3 16 20 16l-4 4v4l4 4l-4 16h-4zM44 604l-4 -16q8 0 8 12v4h-4zM72 600q-20 -55 -32 -68l4 -4h4l32 72h-8zM92 572l-32 -76q15 0 36 72v4h-4zM92 500q0 -14 -20 -44h12q0 15 16 36v8h-8zM44 472v-12h4l8 8v8zM68 452l-4 -20q9 0 12 20h-8zM96 444l-48 -116l4 -4h8 q2 23 40 80v40h-4zM48 412v-12l12 12h-12zM88 344l-32 -80v-4h8l32 64v20h-8zM56 176v-32q5 0 32 76l8 8v16l-4 20q-34 -55 -36 -88zM52 256v-12l8 8v4h-8zM96 184q0 -18 -28 -72l4 -16h4l32 72q-6 16 -12 16zM120 144l-28 -72v-12l32 -8l28 64zM172 108l-24 -56l20 -4h8 l28 52v4h-12zM388 104l4 -12l-28 -52l4 -12h8l44 76v4l-4 -4h-12l-4 4zM484 108q0 -14 -36 -68v-8h24l4 -4h4l-4 20l36 56zM292 32h12l36 72h-4q-18 -13 -44 -72zM404 32h16q7 0 16 40q7 1 24 32h-8q-7 -1 -48 -72zM200 52v-8l24 -4l28 60h-20q-7 0 -28 -48h-4zM280 100 l-24 -48l4 -4l-8 -8v-4h16l32 60v4h-20zM496 28h4q24 0 68 68h-28q-35 -39 -44 -68zM64 92v-12l8 -8v20h-8zM336 52l-8 -24h4l8 8v16h-4z" />
<glyph unicode="M" horiz-adv-x="790" d="M464 1184l4 -4v-4l4 4h92l4 -4h4l8 8q116 0 116 -52l4 -32l-24 -448l4 -20l-4 -112l4 -64l-4 -40l4 -4v-4l-8 -112l4 -84l-4 -32l4 -4v-4q-5 -46 -28 -72q-40 -96 -80 -96l-4 -4q-132 18 -132 56l-8 32h4l-4 4v28l-4 36l4 4l-12 96l4 4v4l-8 120h4l-4 4q0 184 20 312 l-4 12q8 0 8 20h4l-4 4v4l4 24l-4 12l4 4v4l-4 28l4 20h-8q-36 -70 -64 -92h-8l-20 20l-4 -4l4 -4v-4l4 -268h-4l4 -4v-4q-17 -356 -44 -356l-52 -80q-37 -28 -56 -28l-4 12l-12 -4l-40 8l-12 -4l-24 8l-4 -4q-68 0 -68 68q-12 71 -12 132v224l-4 16l4 16l-4 120l4 12 l-8 108l4 4l-4 28v20l4 16l-4 4v4l8 12q-12 25 -12 120q12 89 100 240h8l4 -4l4 4h44l12 4l16 -4l140 4q40 -15 40 -44h8q0 56 88 56zM616 1156l-12 -12l-72 8l-24 -4h-16q-26 -57 -76 -132q0 -16 -12 -16h-8l-32 60q-16 0 -16 16l8 28q-14 44 -32 44q-81 0 -124 -8l-4 4h-4 l-56 -4v-4l-4 -36l4 -4q-8 0 -16 -252h-4l4 -4l-4 -20v-36l4 -12l-4 -16l-4 -180h-4l4 -12l-4 -44l4 -4v-4l-4 -12l4 -12v-8h-4q5 -164 12 -200h-4l4 -4v-8l8 -80l-4 -4q18 -8 20 -16l-12 -24v-8l16 -4l24 8l8 -12l92 -4q24 30 24 60v40l4 4l-4 4l8 92h4l-4 4l8 44l-4 4v8 l4 16l-4 4l4 28v152l4 4l-4 4v52l-4 80h4l-4 12l4 4l-4 20v28l4 4l-4 4v4l4 12q-8 0 -8 12l4 12l-4 24h4l-4 4v4l4 4v4l-4 24h4l-4 4v20l4 4v4l-4 4h4l-8 52h4l-4 4v8l12 12h8l48 -68l-4 -4v-4q0 -37 40 -100q38 61 72 172l16 16h12q8 0 16 -68l-4 -4v-4l4 -56v-20l4 -4 l-28 -244l4 -4l-4 -80v-44l4 -20h-4l4 -4v-28l4 -64l-4 -4v-4l8 -80l-4 -4l4 -40v-52l4 -20h-4q12 -64 24 -64l28 4l60 -4q24 0 36 68l-4 20v32l4 4l-4 4v44l4 4l-4 4v28l4 4l-4 4v20l4 4l-4 4v4l4 20l-4 12l4 4v4l-4 4l4 28v4l-4 40l4 36l-4 4v4l4 4v4l-4 20h4l-4 4l8 40 l-4 4v4l8 20l-4 4v84l4 16l-4 4l4 20v44l-4 16l4 16v12l-4 28h4l-4 4v4l4 76v4l4 4l-4 4l4 88v20l-4 20h4q0 60 -36 60zM96 1104q0 -19 -12 -28l4 -4v-8q-15 0 -48 -104v-4h4q34 66 56 144v4h-4zM396 1056v-12h8l24 52zM332 936v-20l4 4h4l-4 16h-4zM88 928l-4 -20l4 -4h4 l4 20l-4 4h-4zM76 904v-20h4v20h-4zM32 900v-24q7 0 12 24h-12zM68 888l-32 -72q13 0 36 68v4h-4zM352 832h4l12 8l-4 12q-9 0 -12 -20zM84 784v-8h-4l4 -4v-4l-8 -16h8q0 12 8 12l-4 20h-4zM44 688q28 31 28 56q-8 0 -28 -56zM80 692l-40 -84l4 -4v-4l-8 -16h8l28 68l-4 4 q18 8 20 16v20h-8zM36 676v-12l8 8v4h-8zM80 608q0 -13 -12 -28h4l12 12h4l-4 16h-4zM64 576l-24 -64h4q28 46 28 64h-8zM436 536v-16h4v16h-4zM80 528l-8 -28h4l8 8v20h-4zM36 508v-16h4l4 16h-8zM48 460l-12 -32q7 0 16 28v4h-4zM80 456l-44 -96h16q12 50 36 80v16h-8z M436 456v-16h4l4 16h-8zM84 380l-28 -64v-4h4l32 52l-4 12l4 4h-8zM468 368h4l8 8h-4zM36 344v-4l8 8v4zM476 324l-12 -40h16v40h-4zM80 292h12v16zM44 292l-8 -20v-4l12 16v8h-4zM80 216h4q12 4 12 24v8q-8 0 -16 -32zM456 172v-4h4q0 13 24 48v16q-9 -2 -28 -60zM36 212 v-20h4l8 20h-12zM96 184l-24 -56l4 -4q-9 -12 -28 -12v-4q0 -52 12 -52q0 27 44 92l-4 28l4 4l-4 4h-4zM484 152l-12 -40v-8h4l12 44v4h-4zM40 140l4 -24h4l4 32h-4zM116 116l-20 -36l4 -16h-8v-12l20 -4q5 28 24 56v8zM164 104l-24 -60h4l32 -8h12l32 68l-24 4l-4 -4h-28z M236 100q0 -20 -8 -32h12l12 24v8h-16zM504 100l-8 -20h12l4 16l-4 4h-4zM452 80v-20h8l8 32zM524 36h8q15 3 24 36h-4q-28 0 -28 -36zM584 72l-12 -36l4 -4h4l28 40h-24z" />
<glyph unicode="N" horiz-adv-x="888" d="M104 1176l8 -8l48 4l56 -4l64 8q100 0 100 -44q33 -32 76 -284l24 -100h4v20l-4 60h4l-4 4v4l4 136l-8 40q0 84 60 108q37 33 92 40q64 -3 64 -8l4 4h4q76 -10 76 -36l-8 -60v-104l-4 -4l4 -4v-24l-4 -36l4 -4l-4 -20v-36l-4 -4l4 -4v-4l-4 -24l4 -16h-4l4 -4v-40l-4 -4 l4 -4l-4 -28v-68l-4 -4l4 -4v-8l-4 -4l4 -12l-4 -4v-4l4 -4l-4 -40v-12l4 -16l-4 -16l4 -16l-4 -4v-4l4 -4l-4 -32l4 -92q-19 -249 -56 -288q0 -18 -48 -60h-240l-24 20l4 4v4q-27 48 -44 100l-4 4v28l4 4q-8 28 -24 44l4 24l-28 104q-12 0 -20 16l12 32v4l-20 4v-4l-4 -224 l-8 -48l4 -12h-4l4 -12q-32 -92 -76 -92h-128q-36 0 -36 64l-4 4h-4l4 24l-16 196v32l-4 24l4 20l-8 16l8 36v56l-4 52l4 36l-4 4v4l4 16v8l-4 12l4 20v132l-4 24l4 12l-4 36h4l-4 4v16l4 4l-4 4v116l4 4l-8 44q0 69 96 148zM124 1124l4 -12q-3 -48 -8 -48l4 -4v-8l-4 -4 l4 -4v-40l4 -20h-4l4 -4v-28l4 -84l-4 -4l4 -20v-140l4 -20h-4l4 -4v-4l-4 -20l4 -12l-4 -4v-4l4 -24l-4 -4l4 -4q-8 0 -12 -360h4l-12 -84l4 -16h-4q4 -48 12 -48l40 -8q68 6 68 32l8 44l-4 4l4 20v76l4 4l-4 4l4 28v200l-8 12l12 32l-4 28l8 52l-4 24l8 24l-4 36v4l4 4 l-4 4v136l4 16l-4 4q2 76 20 76h4q32 0 68 -316h-4l4 -4v-16l20 -168l-4 -4v-4l40 -160l44 -136l12 -8l-4 -20q5 -36 20 -36l4 4l20 -4h32q0 11 140 20q36 5 36 68h4l-4 4q12 54 20 204l-4 64h4l-4 4l4 20v20l-4 32l12 420h4l-4 4l4 28v44l-4 16l4 12l-4 24l4 40v12h-4 l-128 12q-20 -15 -32 -48l4 -4l-4 -32l4 -4v-4l-4 -12l4 -16l-4 -12l4 -16l-4 -72l12 -136h-4l4 -4v-72l-4 -4l4 -4v-16l4 -100q-4 -232 -32 -232q-16 0 -56 196h4q-8 8 -12 68l-48 156h4l-72 312q-26 72 -56 72l-40 8q-18 -8 -52 -8h-12l-64 8h-8q-24 0 -24 -28zM100 1148 l-4 -16l4 -4h4v20h-4zM72 1116q-44 -60 -44 -72l52 72h-8zM28 1000l4 -20l68 92v32q-29 -33 -72 -104zM548 1096l-40 -72v-4h4l36 60l4 12v4h-4zM96 1036l-56 -84l12 -12q0 13 48 76v20h-4zM544 1032l-36 -60l4 -12h4q24 56 36 56v8zM32 876v-20h8q24 44 68 96l-4 32 q-6 0 -72 -108zM544 964q-24 -42 -24 -56v-4h4q28 47 28 60h-8zM32 932v-12h4l4 12h-8zM100 920l-68 -112v-16q69 104 76 104l-4 24h-4zM508 896v-12l8 8v4h-8zM100 856l-60 -104h4l4 -4h4q0 16 44 72q0 8 12 8v20zM284 856v-16h8l-4 16h-4zM284 836v-24h8l4 12l-4 12h-8z M548 836q-40 -64 -40 -100q48 67 48 88v4zM104 796l-48 -84h8q14 12 28 44h16v40h-4zM292 744l12 4v20q-12 -4 -12 -24zM520 684l36 60h4l-4 12l4 12q-40 -55 -40 -84zM32 732v-4l12 12v4zM100 724l-64 -100v-16q46 80 68 80v36h-4zM304 712l-4 -4v-12l12 12l-4 4h-4z M40 684h8l12 20v4h-4q-7 0 -16 -24zM520 608v-4h4l36 64v16h-4q-36 -35 -36 -76zM100 668l-68 -120l12 -4l36 68h12q8 0 8 -12q-64 -119 -64 -136v-4h4q41 88 60 88l4 36v84h-4zM312 668l-8 -20h4l8 8v12h-4zM292 632l-8 -20v-4h4l8 20v4h-4zM280 532l4 -4h4l32 64v24 q-8 -3 -40 -84zM316 536l-24 -60q7 0 28 48l12 4l-8 8h-8zM92 512l-56 -104v-20h8q31 80 52 80h4v44h-8zM328 488q-9 -48 -20 -48l4 -12h4l20 36v4l-4 20h-4zM556 488q0 -20 -8 -20l4 -20h4l4 32v8h-4zM280 448l-4 -12v-4h4l4 12v4h-4zM92 440l-52 -104l-4 -20l60 92h4l-4 4 v4l4 4l-4 4v4l4 12h-8zM336 416q-5 -28 -16 -28l8 -28h4l12 28l-4 28h-4zM72 328v-8l24 24v20zM340 308l4 -32h4l8 32l-4 24q-8 0 -12 -24zM64 316l-20 -44v-4h4l24 44v4h-8zM92 308l-48 -108l4 -4h4q22 53 36 60l4 -4h4v56h-4zM88 224l-28 -64h4l16 12l4 -12q0 -13 -28 -56 v-16h4q0 18 32 36l-4 4v52l4 16l-4 4v4l4 16v4h-4zM396 220v-8l4 -20h8l-8 28h-4zM408 168l8 -44l-12 -16l-4 4h-4l-4 -12l12 -32h4l20 56l-4 12h4l-12 32h-8zM88 96l-20 -40l4 -4v-12l-4 -4v-4h4l28 44q-5 20 -12 20zM436 80q0 -18 -16 -36l8 -24h16q0 18 16 40 q-16 8 -16 20h-8zM664 72l-16 -40h4l28 40h-16zM592 48l12 -16l-8 -12v-4l4 4h4l4 -4h4l20 52h-20zM116 64l-12 -20v-16l16 -4q10 1 28 28v4zM156 28v-4h20l24 8l-4 4v12l8 12h-8q-21 0 -40 -32zM532 20h20q0 16 16 40h-4q-32 -4 -32 -40zM480 52l-8 -28l4 -4h28l12 32h-36z " />
<glyph unicode="O" horiz-adv-x="652" d="M156 1220h28l160 -12l28 4l28 -4q24 12 68 12q84 -11 84 -84v-28l-4 -200h-4l4 -12l-4 -4v-4l4 -4v-4q-20 -177 -20 -276l-4 -12l4 -4l-4 -28v-56l4 -40h-4l4 -4v-68l-4 -16l4 -4l-8 -64l4 -4v-4q-7 -14 -16 -164q-19 0 -32 -44q-65 -84 -84 -84l-76 -8h-16l-4 4l-4 -4 l-180 20l-12 -4q-80 0 -80 48l-12 52h4l-4 4v20l4 36l-4 4l4 12l-4 220l4 60l-4 16l4 16l-4 28l4 32l-4 76l4 20l-8 124l4 4v4l-8 48l4 24v48l4 4l-4 4v92l4 4v4l-8 8q10 0 16 88q62 88 92 88zM112 1140v-72l-4 -4l4 -4l-4 -20v-84l4 -60h-4l4 -4l-4 -20v-112 q20 -302 20 -440v-56l4 -48l-28 -12l4 -4l-4 -28v-16q0 -12 36 -12v-4l4 4h4l60 -8l4 4h4l4 -4h4l4 4h4l4 -4l72 8v-4l4 4h4q32 -3 32 -8l4 4h16l4 -4l4 4l28 -4h24l16 4l16 -4q24 17 24 108v4h4l-4 4q16 115 16 204l-4 12h4l-4 4v4l4 4l-4 12q0 156 12 224l-4 12l4 12 l-4 12l8 8q9 260 16 260l-8 32l4 4l-4 4v4l4 12l-4 36v12l4 16q0 44 -64 48l-80 -8h-40l-156 12q-72 -8 -72 -52zM64 1128q0 -13 -12 -28v-4h4l16 32h-8zM276 1052l36 -4h16q36 -12 36 -80v-80l4 -16l-4 -12l4 -32l-4 -76v-76l4 -40h-4l4 -4l-4 -80v-36l-4 -4l4 -12l-4 -4 v-4l4 -4l-8 -40l4 -4q-10 -168 -40 -168l-40 -4q-64 0 -64 100l4 4l-4 20v8l4 4l-4 4v52l-4 228h4l-4 4v88l4 4l-4 4v36l4 16l-4 4v4q11 192 44 192zM264 1008h4l12 16h-4q-6 0 -12 -16zM276 972v-4h4q21 32 48 32v4l-8 12q-17 0 -44 -44zM148 1016l12 -12h-4l-8 8v4z M72 1008q0 -12 -28 -60l-4 -16l4 -32h4l20 52l12 36l-4 20h-4zM320 972q0 -12 -12 -12l-4 -4v-4l8 -8l20 16l-4 12h-8zM252 940q0 -52 -12 -84l4 -4l-4 -40v-96l4 -28h-4l4 -4v-24l-4 -12l8 -68h-4l4 -4v-176l4 -16l-4 -4q0 -80 36 -80h4v4q0 28 -8 28l4 28v84l4 4l-4 4v172 l4 44l-4 12l12 120q0 140 -28 140h-16zM320 912l4 -28h4v32l-4 -4h-4zM324 848v-20l-4 -4v-4h4l12 4l-4 24h-8zM324 784l4 -4v-4l-8 -8v-12l12 12v24zM316 724v-24l16 4v28zM72 704l-20 -60v-4q6 0 16 36l12 16v12h-8zM32 688v-4l8 8v4zM312 652v-20l20 12v28zM80 628 l-4 -12h12l-4 12h-4zM312 596v-36l20 12v16l4 28zM68 608l-4 -12v-8h4l4 16v4h-4zM52 572l-4 -16h8v16h-4zM32 436h8q28 92 44 92v20q-17 -16 -52 -112zM312 524v-16l20 8v24h-4zM324 480q0 -9 -16 -24l4 -12l-4 -12h4l16 8v32l4 4v4h-8zM80 468l-28 -76v-8h4l28 80v4h-4z M312 392v-28l8 8v28zM36 372l4 -4l-4 -16v-8h4q0 13 12 28h-16zM76 368l-28 -76l32 56v20h-4zM40 184v-32h4l36 84l-4 16h4l-4 4l4 20v4q-24 -28 -40 -96zM36 276v-12l8 8v4h-8zM44 100l4 -4v-28h4l24 48l-4 4l8 8v4l-8 16q-8 0 -20 -48h-8zM108 116q0 -12 -28 -64h4l4 -4h4 q28 50 28 68h-12zM260 112l-32 -56l-4 -12h28q6 0 24 48q21 20 32 20l4 -4v-4l-28 -60h24l28 52l12 16l-36 4zM440 108v-8l8 8v8zM156 112l-32 -60v-4h16q7 31 24 56v8h-8zM340 44h4q33 0 44 36l20 28v4h-28zM196 108q0 -13 -28 -56v-4l28 -4l28 64h-28z" />
<glyph unicode="P" horiz-adv-x="697" d="M160 1248h36l64 -8h56l16 -4l4 4l148 -16l4 4h4l24 -4l8 8q96 -12 96 -20l20 -144q8 0 8 -40v-48l4 -24l-4 -12l4 -28h-4l4 -4l-4 -28v-40q0 -21 -40 -48q-44 -88 -96 -88q-51 -12 -248 -16v-72l-4 -4l4 -4v-76l-4 -24l4 -4v-4l-4 -16v-8h4q-26 -364 -32 -364l4 -4v-8 q-17 -96 -72 -96h-32l-12 -8h-4l-84 20l-8 16l4 16q-12 33 -16 116l4 20l-4 12h4l-4 4v4l4 12l-4 24v8l4 4l-4 4v24l-4 48h4l-4 4l-8 368l4 48l-4 4v8h4l-4 168v44q0 153 28 188q53 76 76 76zM108 1208l-4 -64l4 -92h-4l4 -4v-84l-4 -88l12 -280h-4l8 -32l-4 -32l-4 -120 l4 -16h-4l4 -4v-4l-4 -116v-8l-4 -4l8 -44h-4l4 -12l4 -76l-4 -4q22 -16 68 -16q32 0 32 104q0 32 8 32l-4 4v4l8 40l-4 4v4q12 79 12 132v100l4 4l-4 4v8l4 4l-4 4q3 24 8 24l-4 20v24l4 4l-4 4v4l4 4l-4 12l4 24l-4 28l4 4v4l-4 4v4l4 44v16l4 4l-4 4v4l8 8h4l8 -8l40 16 l16 -4l28 4l4 -4h4l84 12v-4l4 4h8l4 -4q64 16 132 16h8q13 0 28 12l-4 4v80l4 16l-4 16v40q0 60 -16 108l4 4q-9 0 -12 48q-19 40 -48 40q-24 3 -24 8l-4 -4q-97 12 -168 12h-16l-4 4l-4 -4h-40l-96 8zM68 1116l-44 -80l4 -12l-4 -16v-4h4q30 88 48 88l-4 4v4l4 12l-4 4h-4 zM456 1112h8q52 -13 52 -84l8 -52q0 -68 -88 -68l-36 -4l-4 4l-96 -8q-64 11 -64 64v16h4l-4 4v48q0 76 60 76h12l24 -8h48q12 12 76 12zM468 1080q0 -22 -24 -36l4 -12h4q0 9 32 36l-12 12h-4zM364 1060l4 -4q18 4 24 20h-12zM316 1064v-4h12l8 8v4h-12zM72 1048l-8 -32h12 l4 12l-4 20h-4zM388 1032l-4 -4v-4l-20 4h-96v-88l48 -16q21 8 92 8h24l-8 80q-16 0 -16 16zM492 988l-12 -16v-4q10 12 20 12zM36 972l-8 -20v-4h4l8 20v4h-4zM72 972l-8 -20v-4h4l8 8v16h-4zM460 952v-4l8 8v4zM36 908l-12 -28v-12h4l12 36v4h-4zM72 908l-4 -20l4 -4h4v24 h-4zM72 852q0 -17 -40 -104l-8 -28v-8h4q31 79 52 108v24zM32 832l-8 -24v-4h4l8 20v8h-4zM516 736v-4q29 0 68 72h-16zM464 728l12 -4q14 0 24 44l24 28l-4 4h-4q-56 -57 -56 -72h4zM396 728v-4h24l48 68h-4q-34 0 -52 -48zM348 728l4 -4h20q0 15 32 60h-4q-32 0 -32 -16z M308 748l8 -8h-4l-4 4h-4l-16 -24q31 0 48 56l4 4h-4q-13 0 -28 -32zM268 772l4 -4v-4l-4 -16l16 20v4h-16zM80 764l-8 -16v-4h12v20h-4zM68 740l-4 -16q8 0 8 12v4h-4zM52 712q-13 -64 -32 -64l4 -4v-4l-4 -4v-4l4 -20h-4l4 -4v-16l-4 -16l4 -28h4l12 32q-12 0 -12 12 q0 30 32 120h-8zM80 692v-12l8 8l-4 4h-4zM76 676l-4 -16h8l4 16h-8zM80 612l-40 -100h4q7 0 24 52l20 20l-4 28h-4zM80 524l-24 -68q6 0 28 44v24h-4zM24 488v-32h4l12 40h-8zM76 428l-4 -24q8 0 12 24h-8zM24 412v-4l4 -48h4q0 22 12 48zM36 248v-24h4q16 53 44 88v40 q-11 -11 -48 -104zM32 344v-32h4q1 16 8 16zM80 248l-8 -20l12 -8l4 16l-4 12h-4zM44 96v-8h4q8 52 40 52v12l-4 28q-40 -67 -40 -84zM84 120l-28 -76l4 -4h12l28 60q-8 0 -8 20h-8zM120 84l-24 -52h16l28 52h-20zM160 68l-16 -32l4 -4l12 -4v8h4l-4 4v4l8 24h-8z" />
<glyph unicode="Q" horiz-adv-x="772" d="M176 1200l172 -16l4 4h4q224 -30 224 -60q7 0 36 -44q16 -38 20 -72l-4 -20v-32l4 -12l-4 -20v-88l-4 -4l4 -4l-4 -28l-4 -140h-4l4 -4v-8l-4 -16l4 -12h-4l4 -4v-20l-4 -4l4 -4v-92l-4 -4l4 -4l-4 -20l4 -16l-4 -36v-40l-4 -16l4 -4v-4l-4 -44v-12l-4 -4l4 -4v-4l-4 -4 l4 -4q-8 -55 -8 -192v-88q0 -39 -24 -60q-19 -52 -32 -52h-48l-40 -8l-16 4l-36 -4h-8q-6 0 -12 16l4 4v4l-12 48l4 4v4q0 40 -32 40l-12 -4l-44 4h-16l-28 -4v4l-4 -4h-28l-56 12l4 -4v-12h-12q-8 0 -8 20l-28 4l-8 -8h-4q-24 24 -56 24t-32 144l-4 12h4l-4 12l-4 72l4 4v4 l-4 16v8l4 4l-8 44l4 24l-4 4v4l4 4v4l-4 4v4l4 4v4l-4 20l4 52h-4l8 12l-4 4v28l4 24l-4 4l4 20v168l-8 84h4l-8 52h4l-4 4v4l4 4l-4 28v36l4 4l-4 4q0 91 104 176q17 29 44 40q0 10 20 24zM128 1016l8 -116h-4l4 -4v-4l8 -196h-4l4 -4v-32l-4 -4l4 -4v-8l-4 -16l4 -16v-8 l-4 -4l4 -4l-8 -92l4 -4l-4 -20v-36q0 -59 -12 -92l4 -4l-4 -20v-4q0 -80 -8 -80l4 -4v-4l-4 -4q0 -12 12 -12l4 -4v-12q-16 -21 -16 -36v-24q24 0 24 -24q0 -12 236 -20q92 -11 92 -64l4 -48v-20h20q9 -9 44 -12q48 0 48 44v8h-4l4 40v48q0 120 12 208l-4 4q8 36 8 96v12 l4 4l-4 4v4l4 4v4l-4 20h4l-4 4v4l4 4l-4 4l4 40l-4 28h4l-4 4l4 16l-4 112h4l-4 4l4 20l8 136l-4 16l4 4v4l-4 4l4 28v52l4 4l-4 4v32q0 172 -212 172l-160 16q-18 -11 -88 -20q-13 0 -24 -132zM48 1016v-4h4l44 72v8q-43 -49 -48 -76zM36 940v-24l68 104v24 q-68 -81 -68 -104zM396 996h24q40 0 40 -128l8 -104h-4q8 -23 8 -88h-4l4 -4v-4l-4 -148h-4l4 -4v-4l-4 -20l4 -4l-4 -32l-4 -192q-10 -64 -60 -64l-40 4l-16 -4q-84 16 -84 116l-8 280l4 104l-4 20l4 28l-4 64q0 168 24 168q9 8 72 12l24 -8q4 12 24 12zM104 976l-56 -88 l8 -8l52 92v4h-4zM312 932v-16h4q17 10 40 48v4q-28 0 -44 -36zM384 968q0 -11 -32 -60v-4h8q0 11 48 64h-24zM284 960v-12h4l4 12h-8zM376 880v-4l48 48h8v4l-4 28zM104 912l-56 -84l8 -8l52 80v12h-4zM428 904q-5 -25 -44 -76v-8h4q0 12 12 12q13 36 36 36v8l-4 28h-4z M284 892l-8 -40l4 -4v-4l-4 -16l4 -16h-4l4 -4l-4 -20v-4l4 -12l-4 -20v-28l4 -20h-4l4 -4v-20l-4 -16l4 -4l-4 -20v-88l-4 -4l4 -4v-4q0 -296 36 -296q0 -9 64 -16l-8 80h4l-4 4v128l-4 24l4 12l-4 24l4 4v4l-4 4v4l4 4l-4 20v4l4 28l-4 32q0 250 -20 264q-8 12 -60 24z M36 872l4 -12l8 8v4h-12zM104 848l-56 -96h12l32 60q3 16 20 16l-4 4v4l4 4v4l-4 4h-4zM432 844q0 -26 -48 -64v-24h8q4 30 48 60l-4 28h-4zM108 788q0 -10 -16 -28v-4l20 -4v36h-4zM436 788q0 -12 -48 -80v-12h8q0 11 20 24q0 16 28 24l-4 44h-4zM76 740l-8 -20v-4h4l8 16 v8h-4zM108 728l-56 -100l-4 4v-28h4q33 84 60 84h4v16l-4 20l4 4h-8zM388 648v-16h8q19 43 52 64l-4 24q-28 -44 -56 -72zM56 700v-4l12 12h-4zM440 660l-16 -36h8q0 12 8 12l4 -4l4 4l-4 4v4l4 4l-4 12h-4zM108 656q0 -12 -16 -28v-12h4l12 4l4 -4l4 24l-4 16h-4zM412 616 l-8 -8q0 -12 -16 -12l4 -12q9 0 24 28v4h-4zM56 560v-4h8l20 48zM420 564v-8h8q0 12 12 12l4 4v20q-11 0 -24 -28zM104 580l4 -4v-4q-20 -22 -20 -36l24 8v40l-4 -4h-4zM392 540v-24h4l20 36h-4zM48 548l-4 -16l4 -4h4l4 20h-8zM436 536l-20 -44l24 16v28h-4zM80 532 l-24 -52h4q7 0 28 44v8h-8zM48 372q6 0 16 32q8 0 8 20h8l-4 4v4l16 24q20 0 20 8v36q-64 -88 -64 -128zM404 484l-12 -16v-4h4l12 20h-4zM52 476l-4 -24q8 0 12 24h-8zM428 448l12 4v20q-8 0 -12 -24zM104 420q0 -12 -48 -88l-12 -40l4 -4v-4l-4 -16v-4q8 0 16 28l-4 4 q5 0 40 76l12 12v28l4 4v4h-8zM424 400h4l12 12h-4zM428 316q0 -19 -32 -48v-8l36 36v20h-4zM48 228v-20h8q7 33 40 80v8q-13 -12 -32 -52l-8 -16h-8zM424 248l-4 -12v-4h4l4 12v4h-4zM88 224l-24 -56l4 -4l-12 -12v-20h4q0 16 32 60v32h-4zM84 128q-7 -44 -24 -44v-16 l36 48l-4 12h-8zM112 92l-20 -36l16 -4l28 36zM148 52q12 0 12 -8l-4 -4h4q7 1 28 36h-4q-23 -7 -36 -24zM196 40l8 -8h8l28 36h-16l-24 -28h-4zM260 48v-4l12 12v4zM308 56l-20 -28h32l8 24zM356 44v-16l20 -4l16 28v4zM404 20v-8h8q3 28 28 28v8l-8 8zM248 28l12 -4v12h-4 zM440 8q0 -14 -24 -44v-16h4l24 48v12h-4zM456 -44l-24 -48h16q10 0 20 40zM496 -64l-8 -24h4l12 4l4 -4l8 12v12h-20zM548 -68l-8 -16v-4q8 2 16 20h-8z" />
<glyph unicode="R" horiz-adv-x="772" d="M356 1156h12l4 -4l4 4l32 -4l140 -8l4 4h4q108 0 108 -80l16 -176q0 -173 -108 -228l-64 -12l-24 4h-32l-16 -16q72 -206 176 -552q-21 -88 -80 -88l-44 8l-4 -4h-4q-6 7 -128 16l-32 76l4 4q-10 0 -28 84h4l-24 120h-8l4 -4v-4l-4 -16l4 -4l-8 -64l4 -4l-4 -20v-72 q0 -25 -44 -88q0 -25 -60 -28l-4 4l-28 -4h-32q-80 0 -80 88l-16 180l4 4l-4 28v184l4 16l-4 12h4l-4 4v4l4 4l-4 12l4 4l-4 20v44l4 16l-4 4q20 203 24 328l-8 60q16 52 88 132l52 4l4 -4h4l16 4h4l4 -4q59 12 168 12zM264 1128v4l-4 -4h-8l-4 4l-4 -4h-4l-120 -4v-16 l-4 -16l4 -4l-4 -40v-24l-4 -4v-4l8 -8l-8 -8v-12l-16 -200l4 -32l-4 -16l4 -12h-4l4 -12l8 -120h-4l4 -4v-244l-4 -4l4 -4v-4l4 -232l16 -12l84 8l4 -4h4q20 2 20 28l-4 4l4 28v52l4 4l-4 4l4 20v36l4 4l-4 4l4 20v8h-4l8 60l-4 36l8 8v4l-8 12v24l12 52l-4 12l4 4v4l-4 16 h4l-4 4v4l4 4l-4 4v108l16 16h8q24 0 44 -224l60 -228q19 -38 36 -116l16 -8l8 8h4q0 -22 124 -24h8l4 -4v4q-44 167 -124 392l-80 260l8 8h8l4 -4l24 8h60l24 -4l24 12l24 -8h32l8 8l4 -4q48 0 48 108l4 28q-7 84 -12 84l4 20v12l-8 68h4q0 52 -152 52l-4 -4l-24 4l-144 4 v4zM48 1012h4q10 0 20 40q-22 -21 -24 -40zM300 1040h12l4 -4l4 4h8q168 0 168 -24l8 -104q0 -64 -96 -64l-124 -4q-12 12 -12 28q-27 0 -36 56l-4 28q0 84 68 84zM296 980h28l20 36q-32 0 -48 -36zM368 1016l-12 -24v-12h16q9 2 24 32zM404 980v-8q14 7 36 36l-4 4h-12z M268 1000v-8h12l8 16h-4zM460 1000q0 -14 -36 -36v-4q8 0 8 -12q32 40 40 40v4l-8 8h-4zM76 992l-8 -16v-4h8l4 16v4h-4zM56 956v-4h8l4 12h-4zM264 960v-4q16 -84 40 -84h4l88 4l8 24l-4 4v28l4 4q-8 24 -44 24h-96zM440 924v-8q32 28 32 40h-4zM56 948l-4 -12h4l4 4v8h-4z M80 928v-4l8 8v4zM468 920q-3 -20 -12 -20l-4 4l-20 -28h4q14 16 36 16v28h-4zM72 852v-12h8v12h-8zM464 728q-21 -17 -36 -44v-4h4q25 11 52 44l-4 4l-4 -4h-4l-4 4h-4zM44 724l-4 -20l8 8v12h-4zM504 708v-8h4l28 20v4h-16zM496 700l-8 -16v-4h12v20h-4zM72 644l-4 -20h12 l-4 20h-4zM24 612v-12l8 8v4h-8zM76 584l-12 -32l4 4h4l12 -8v36h-8zM76 516l-8 -32l12 4v28h-4zM40 512l-20 -72v-4h4l24 72l-4 4h-4zM292 504l-4 -20l8 8v12h-4zM300 440l-16 -52l4 -16h4q0 29 16 56l-4 12h-4zM76 432l-44 -108h8q15 64 40 64v44h-4zM24 392v-16h4l4 16 h-8zM316 372l-4 -16q8 0 8 12v4h-4zM60 308l8 -8l12 16v28zM20 316l4 -28h4l12 28l-4 4zM332 320v-16h8v8zM28 232v-36h4l28 100q-8 0 -32 -64zM76 256l-12 -36v-4h4q0 8 16 8l-4 32h-4zM332 228l4 -4q-12 0 -16 -44h12q6 48 24 48l-4 28h-4q-6 0 -16 -28zM364 208l-4 -32 l16 -4l-8 36h-4zM48 176q0 -12 -8 -12h-4l-4 4h-4l4 -44h4l16 48v4h-4zM76 172l-36 -104l4 -16h4q26 88 40 88q-4 32 -12 32zM380 160l-28 -80l8 -20h4q10 72 28 72l-8 28h-4zM88 88q0 -15 -16 -44v-12l20 -4l16 40q-16 0 -16 20h-4zM400 88l-12 -40l28 -8l8 20v8l-20 20h-4 zM120 28h36q10 0 20 40q-52 -5 -52 -32l-4 -4v-4zM208 68l-8 -20v-4h4l8 20v4h-4zM440 40h24l8 16v12h-16q-6 0 -16 -28zM504 64l-12 -28l20 -4q9 0 12 28h-4zM552 44v-8h4l24 24h-12z" />
<glyph unicode="S" horiz-adv-x="787" d="M228 1192l4 -4l36 4l44 -4l20 4q89 -12 152 -12v-4l4 4h4l4 -4l4 4l12 -4l188 16q12 -14 20 -80l-4 -16l4 -4v-4q-17 -68 -44 -68q-27 -88 -100 -88h-12l-268 -4l-8 -40l4 -24v-24l28 -4h12l20 4v-4l4 4l20 -4h16l156 -20h96q40 0 40 -76h-4l4 -12q8 -72 12 -304l4 -12 l-8 -24l4 -4v-4l-4 -4v-4l4 -12h-4l4 -4v-24l8 -76l-4 -40l4 -4h4l-8 -60l4 -4q-20 -24 -28 -24v-20q-67 -96 -120 -96v-4l-40 4l-76 -8l-120 4h-28l-24 -4l-168 12l-72 -4q-24 8 -24 32v40l-4 84q0 28 72 80q25 20 60 20l16 -4l4 4h4q73 -16 172 -16q136 0 136 24l-4 12 l4 4h4l-4 4v4l4 4l-4 4l4 20v40l4 16l-4 16l4 4l-12 24v4q3 24 12 24l-4 4v4l4 4l-8 36l12 20l-4 4v12l4 4v4q-20 0 -20 12l4 12l-16 12h-32l-16 4l-12 -4v4l-4 -4h-4l-4 4l-4 -4l-24 4q-288 0 -288 44l-8 76v44l-4 40h4l-4 4v24l4 4l-4 4v124l4 4l-4 4v8l4 4l-4 4v24l4 16 l-4 12q0 38 100 144h4l4 -4q20 13 76 28zM160 1112v-56q1 -108 8 -108l-4 -20v-44l4 -48h-4l4 -4v-32q0 -64 16 -104l4 4h12q8 0 8 -16q56 -3 56 -8l4 4q49 -8 152 -8q48 0 72 8q80 0 80 -80l4 -28l-4 -132l-4 -4v-4l4 -4q-10 -184 -44 -184l-28 -8v4l-32 -8v4l-108 -16 l-16 4l-32 -4l-176 20l-16 -4l4 -4v-4l-4 -4l4 -4v-4l-4 -4l8 -76v-16h44l96 -8h64l4 -4l12 4l180 4l4 4h4l20 -4q116 12 116 56l4 4l-4 4v4l8 12q-8 0 -8 12l4 64l-12 100l4 20l-4 244l-4 12h4l-12 68h4l-4 4v20l-8 48h-20l-4 4l-4 -4h-4l-4 4l-20 -4h-8v4l-12 -4l-172 20 l-40 4l-40 -4q-48 0 -48 44l-4 56v24q0 81 68 92h4v-4l56 8v-4l4 4h44l120 12v-4q21 8 84 8h20l4 -4h4l20 48l-4 4v4l4 4l-4 4v28l-4 28l-192 -8l-212 12h-44q-56 0 -76 -52zM116 1096q-40 -43 -40 -72q15 9 44 72h-4zM128 1076l-40 -80l4 -4l-20 -20v-12h4l56 80v36h-4z M628 1016q0 -8 -24 -28l-12 -20v-4q18 0 48 52h-12zM576 1012q-20 -40 -28 -40v-8l4 4l4 -4h12q0 11 28 48h-20zM532 1008l-24 -40v-4l4 -4h8l28 48h-16zM468 984v-12h16l16 32q-12 -2 -28 -20h-4zM128 1000l-40 -64q0 -24 -20 -24l8 -8h8l52 88v4l-4 4h-4zM324 972h12 l-8 -8l-4 4h-4l-4 -4v-8h24l32 36v4l-4 -4h-8l-4 4q-20 0 -32 -24zM400 996l-24 -36l16 -4l24 40h-4l-4 -4h-4zM440 996l-20 -36h12q0 9 24 36h-16zM460 968v-8h16l-8 8h-8zM132 904q0 -14 -24 -40l-28 -48l4 -4h8q29 64 48 64v28h-8zM100 776q28 44 40 44v28 q-40 -48 -40 -72zM124 760h4l16 8v24q-9 0 -20 -32zM108 736v-4q16 8 16 24zM140 744q0 -10 -32 -60l4 -12h4l32 48l-4 24h-4zM76 696v-4l8 -8v4zM152 688l-32 -44q0 -16 24 -20l28 48zM192 664l-20 -32v-8l20 -4l24 36v4zM220 620h16q7 0 24 28v4l-12 4q-28 -14 -28 -36z M80 648q6 -16 12 -16h4l4 20h-4zM272 628v-4l8 -8h4q11 5 28 36h-20zM320 628v-12h16l24 32h-24zM388 648l-20 -28v-4h36l12 24v4h-8v4l-4 -4h-4zM444 648l-16 -32v-4h12l28 36h-24zM476 620l4 -4v-4l-8 -12h12l36 48h-16zM532 632q-32 -45 -32 -56q28 32 44 40 q-6 16 -12 16zM540 592q-5 -18 -32 -52l4 -4v-4l-4 -12v-4h4q5 21 36 36l-4 40h-4zM540 524l-36 -56v-28h4q21 44 36 44v40h-4zM500 380v-12h4l40 56l-4 20l4 4h-4q-40 -47 -40 -68zM532 368l-32 -60q40 34 40 56v4h-8zM524 300l-16 -32h12l8 16v16h-4zM88 196l-24 -36v-4 l32 28l-4 12h-4zM92 156q-56 -72 -56 -104v-8h4q0 15 60 92l-4 20h-4zM64 48v-4h8l40 52l-4 12zM108 52v-8h12l20 -4l36 48v4h-32q-10 -4 -36 -40zM208 92l-44 -52h32q0 10 32 44v4zM560 44h4l36 48h-4q-36 -32 -36 -48zM420 36h16q0 9 32 48v4h-8zM460 36h28q0 9 36 52h-20 q-16 -9 -44 -52zM216 36h32l32 48h-20q-30 -25 -44 -48zM276 40l4 -4h8q15 9 36 48h-8q-21 -14 -40 -44zM352 84l-36 -52h4q30 0 40 28l20 20v4l-4 -4h-4zM408 84l-32 -48h20q0 12 32 48h-20zM540 76v-8h4l8 8h-12zM520 44v-4h16l8 24h-8z" />
<glyph unicode="T" horiz-adv-x="869" d="M116 1156l4 -4h4l4 4h4l4 -4l28 4l32 -4l12 4v-4l4 4h4l84 -8l12 4v-4l4 4l68 -4h24l4 -4l4 4l20 -4h40l24 4l4 -4l48 4h152l16 -4l4 4q52 0 52 -36v-8l-4 -4l12 -104q-52 -108 -116 -108l-60 -4l-20 4l-32 -4h-16v-68l4 -48h-4l4 -4l-4 -20l-4 -220l4 -4v-4l-4 -16v-44 l-4 -4l4 -4l-4 -20v-104l-4 -4l4 -4l-4 -28v-32l4 -12l-4 -20q0 -152 -24 -152q-11 -35 -60 -64l-8 -8h-8l-8 8l8 16l-24 4q0 -20 -8 -20h-8q-8 0 -8 16l-4 4h-24l-24 -12q0 14 -36 24l-8 60l4 20v132l4 4l-4 4l8 44l-4 4l4 20v80l4 4l-4 4v8l4 24l-4 4v4l4 12v8h-4l4 28v48 l-4 16l4 16l-4 16l8 44l-4 4l4 20v32l-4 12l4 20v84l4 4l-4 4l4 20v36l-16 4l8 20h-4q-76 24 -164 24h-12l-4 4l-4 -4h-8l-52 4l-20 -4q-28 14 -28 20v16l-4 68h4l-4 4v36q0 46 64 72q0 12 52 12zM192 1124l-20 4h-40l-40 -4l8 -76h-4q0 -44 40 -44l60 4q172 -18 172 -40 q13 0 24 -64l-4 -4v-4l4 -24h-4l4 -4v-52l4 -20q-8 0 -8 -12l4 -12h-4l4 -4v-16l-4 -4l4 -4l-4 -20v-192l-4 -4l4 -4v-192l-4 -4l4 -4l-4 -20v-8h4l-4 -20v-20l4 -20h-4l4 -4l-4 -20v-20l-4 -88q24 -2 24 -12l4 4l20 -4h4q64 0 64 16q5 76 12 76l-4 4l4 20l-4 4l4 4v56l4 36 l-4 4l4 20v12l-4 20h4l-8 32l4 16l-4 4v8h4l4 168v164l4 4l-4 4v72l4 4l-4 4v72l4 4l-4 4v4l8 24l-4 12q17 28 92 28l148 8v4l-16 112l4 4l-24 4l-4 -4h-4l-64 4l-16 -4l-36 4l-100 -4l-4 4h-4l-12 -4l-152 8l-20 -4l-64 8zM64 1088q-32 -39 -32 -48q32 40 40 40zM28 980 l40 52v4q-40 -34 -40 -56zM72 1004q0 -22 -32 -44v-4h28q0 17 16 32q-8 0 -8 16h-4zM96 964v-12h16l20 24h4v4h-12q-28 -5 -28 -16zM148 956l8 -8h16l20 28v4h-20q-8 0 -8 -16zM204 952l8 -8h4l28 28v4q-25 0 -40 -24zM684 920h4q13 0 52 52h-20zM256 952v-8l8 -8h4l24 32 h-20zM660 968l-24 -52h20q0 16 24 48v4h-20zM296 936q0 -9 20 -12l20 32l-8 8zM596 920l4 -4h8l16 48h-4q-19 -21 -24 -44zM560 932v-8l20 28v4q-7 0 -20 -24zM336 908l4 -4l-12 -28h8q13 32 28 32l-4 24h-4zM340 852l4 -4v-4q-10 0 -12 -20l-4 -4v-8q22 23 24 40h-12z M360 808q0 -11 -32 -44v-20h4q23 52 36 52l-4 12h-4zM356 740v-4l8 8v4zM324 692v-16h4q0 14 20 44v4q-6 0 -24 -32zM320 560v-4q6 0 24 40h20v40h-4q-39 -51 -40 -76zM360 576l-40 -80v-4h4q7 27 40 52l-4 16l4 12v4h-4zM360 504q0 -13 -16 -28l4 -4v-8q-18 0 -28 -44v-8h4 q0 16 40 68v24h-4zM352 420q-36 -63 -36 -76v-4h4q7 44 28 44l12 -4v4l4 4l-4 12l4 4v4l-4 12h-8zM356 372l-44 -104v-8h4q12 52 44 52l-4 12l8 44l-4 4h-4zM312 192v-4h4q20 60 44 60l-4 4l4 4v36q-46 -78 -48 -100zM312 120v-16h4q0 17 44 88v20q-18 -24 -48 -92zM348 120 q-13 -52 -36 -52v-8l20 -4l20 48v16h-4zM372 76l-12 -20l28 -4q6 0 12 16zM428 64l-4 -12l4 -4h12l16 16h-28z" />
<glyph unicode="U" horiz-adv-x="745" d="M204 1247h8q50 0 57 -96l4 -23l-4 -4l4 -19l8 -147l-4 -11q8 -44 8 -150v-123l4 -27h-4l4 -4v-4l-4 -12l4 -15l-4 -19l8 -70h-4l4 -3v-23l-4 -4l11 -104l-4 -27q0 -116 20 -116q23 -11 80 -11h8v4l-4 11l8 8l-8 8l4 3v4l-4 16h4l-4 4l4 19l-4 19l4 23v12l-4 27l4 34v73 l-8 16l8 34v4q-19 0 -19 12l15 58v30l-4 158l12 143v19l4 4l-4 4l4 15l-4 62q0 86 100 173l19 -8q0 12 43 12h34l20 -4l-4 4v3l4 4h11q27 0 27 -42h-4l4 -4v-35l-4 -3l4 -4v-4l-4 -4l4 -4v-46l4 -135q13 0 19 -46h-4l8 -27l-4 -4v-4l4 -15h-4l4 -4v-81l-4 -61l4 -4v-4 q-12 -17 -12 -177h-3l3 -4l-3 -38v-35l-4 -4l4 -4l-4 -19v-8h4l-4 -27v-38l4 -15q-15 -228 -47 -228q-58 -111 -119 -111h-96l-19 4l-23 -4h-16l-69 -4q-235 12 -235 65q-22 65 -31 181h4l-4 4v54l-4 15l4 4l-7 77l3 23l-15 243l4 15v20l-4 26h4l-4 4l12 312l-4 12l7 30v39 q0 80 58 100q10 19 31 19l8 -7zM123 955h-4l4 -4v-4l-4 -4l4 -4l-4 -38v-23l4 -16l-4 -27v-119q0 -151 20 -273l-4 -4q29 -304 54 -304l111 -12l23 8l4 -12h23q15 12 27 12l4 -16q100 8 100 20h4l8 -8l46 4h31l19 15l11 -7q35 0 35 161q5 0 8 77l-4 4v4l4 23v65l4 4l-4 4v4 l4 50l-8 50l4 4h4l-4 27l4 146v62l-4 15l4 4l-20 277l4 12l-4 11h4l-4 4v4l4 4l-4 4v46l-3 4v3l-50 -7v4q-58 0 -58 -50l7 -100v-70l-3 -4l3 -3v-8l-3 -4l3 -4l-3 -46v-4l3 -354h-3l3 -4l-3 -27v-88l-4 -16l4 -4v-3l-4 -4v-4l4 -4l-4 -19q0 -173 -62 -173q0 -8 -27 -8h-4v8 h-7v-8q-27 0 -27 8l-4 -4h-8q-104 0 -104 73h4l-4 4v27q0 130 -11 284v127l-4 16l4 15v16l-4 15l4 15l-4 35h4l-4 4v35l-4 15l4 4l-8 69l4 4l-4 23q-6 223 -34 223h-8q-66 -4 -66 -15q-11 0 -19 -246zM96 1201q-58 -95 -58 -162v-4h4q25 71 47 93l7 -8h4v12l-4 19l4 23v27 h-4zM54 1174l-4 -12v-3h4l4 11v4h-4zM447 1101l26 42v4q-26 -26 -26 -46zM439 1024v-19h11q16 50 47 80l-4 20v31q-54 -88 -54 -112zM92 1105l-61 -143v-31h4q65 157 65 174h-8zM450 958l8 -7l35 73v19zM35 893l3 -12l-7 -23v-7q11 0 50 111q11 0 15 58q-8 -7 -58 -123z M489 970l-54 -104h8q7 0 27 46l23 16v42h-4zM435 935v-23h4q0 23 11 23v4h-3zM89 931l-47 -119v-8h8l42 97v30h-3zM485 893l-38 -77l-20 -38l12 -8q10 37 54 88l-4 35h-4zM89 851q-54 -123 -54 -139h11q25 85 46 92v47h-3zM27 839v-4l8 8v4zM423 831v-11h4l4 19zM485 816 l-58 -115v-12q40 68 50 73l8 -8v-15q-58 -93 -58 -123v-16q44 81 50 81l8 -7v-12l-35 -77l-19 -35v-7h12l38 77q0 11 12 11v185h-8zM27 785v-23q7 0 11 19l-3 4h-8zM85 758l-39 -100h4l23 43l19 7v50h-7zM89 689q-54 -131 -54 -154v-15h3q32 98 47 111h4l3 -4h4l-4 62h-3z M42 654q-9 -30 -15 -30l4 -20h4l15 50h-8zM92 616q0 -22 -57 -143l3 -38h4q23 86 58 139l-4 42h-4zM450 512l4 -4h4q12 35 35 35v42zM100 539l-46 -139l4 -4h7q23 85 43 85l-4 58h-4zM447 508l-4 -15q7 0 7 11v4h-3zM485 504l-54 -127l4 -15l-4 -4v-8h4q21 67 46 93l12 -4 v58zM435 489v-12h4l4 12h-8zM54 304l4 -27l-12 -4l4 -23h4q0 24 61 139l-3 61q-8 0 -54 -134zM431 285l4 -12h8q22 70 42 70l4 61q-32 -49 -58 -119zM42 373v-30h4l8 30h-12zM69 235h8q29 73 46 73l-4 38q-12 0 -50 -111zM477 296l-23 -54h4q14 0 23 51v3h-4zM119 285 l-46 -104v-4h4q29 69 50 69l-4 39h-4zM50 216v-8h8l-4 -4v-8h4l11 35q-5 0 -11 -15h-8zM123 223l-50 -92l4 -4q-12 0 -12 -8v-4l4 -3v-4l-4 -4l4 -4h8l15 35l-3 4v7q15 0 15 20q9 0 19 19h12l-4 38h-8zM135 169l-43 -80q12 0 12 -8l-15 -23l11 -4q0 10 46 92q-5 23 -11 23z M158 119q-25 -32 -35 -57q12 0 12 -12l4 -4h11l31 62zM204 108l-15 -27q-16 -25 -16 -39l8 -7q9 0 38 61l8 8zM493 35h11q31 0 50 69h-15q-38 -36 -46 -69zM219 46v-11l27 -4h4q0 10 31 58l4 11h-31q-35 -33 -35 -54zM458 65l4 -3v-12q0 -12 -15 -12v-3h19l38 65h-4 q-31 0 -42 -35zM308 96l-27 -46q12 0 12 -8v-4l-4 -3v-4h7q11 4 35 61zM396 58q16 -2 16 -12v-4q-12 0 -12 -7h27l-4 11l24 46h-27q-7 0 -24 -34zM354 89l-23 -43l12 -11h15l31 54h-35z" />
<glyph unicode="V" horiz-adv-x="798" d="M68 1176h4q8 0 8 -12l68 12h28q72 0 132 -500q8 0 12 -76h4l16 56l-4 4v12q8 5 36 180q11 29 40 192q15 25 72 84q0 31 148 36h8l16 4q24 -5 24 -12v-4l-16 -12l4 -12l-40 -232l4 -4q-68 -254 -116 -516q-57 -284 -92 -284q-29 -92 -100 -92h-24l-44 4l-4 -4h-4 q-84 9 -84 40l-20 56h4l-12 24l4 4l-4 4v12l4 4q-48 199 -56 284h4l-4 12l-44 316q-5 79 -16 108l4 4v4l-24 100l-4 4l8 24v36l-8 12l4 4l-4 28v12q0 38 68 84zM92 1148v-68q0 -66 16 -128h-4q16 -132 48 -248h-4l24 -104l-4 -4q49 -300 100 -484l4 -4l4 4h108q52 0 84 200 l16 56h-4q56 267 120 516l40 252h-20l-28 -4v4q-52 0 -52 -28q-8 -9 -24 -96l4 -4q-7 -3 -36 -132q-56 -231 -100 -524q-13 -40 -28 -44q-16 0 -28 104q-40 202 -64 392q-35 246 -84 344l-32 4zM32 1064v-12h8q11 36 28 36v4l-4 28q-12 0 -32 -56zM440 1032h8l28 44h-4 q-18 -15 -32 -44zM36 1000l4 -20h4q9 44 24 60v16zM424 948v-8h4q39 71 64 100v16q-56 -58 -56 -88q-12 0 -12 -20zM428 896v-4h4q52 67 52 96zM76 956q-24 -52 -24 -68v-4h4q0 17 28 48v16zM80 880v-4l8 8v4zM408 880v-8l20 8v8zM408 812v-4q10 0 44 56v16q-44 -47 -44 -68 zM96 804l-20 -52v-4h4q15 36 24 36l-4 20h-4zM392 800v-16l16 16h-16zM384 724v-16q56 71 56 92h-4q-28 -31 -52 -76zM80 676v-4h4q0 33 32 60l-4 20q-8 0 -32 -76zM72 744v-16h4l4 12l-4 4h-4zM120 704l-20 -56v-8h4q0 32 24 32v8l-4 4v4h4l-4 16h-4zM400 688h16v12h-4z M360 628h8l24 44v4q-32 -36 -32 -48zM128 644v-12h8v12h-8zM400 644l-8 -24h4l8 8v16h-4zM356 564v-4q23 24 32 52h-4q-28 -22 -28 -48zM104 588l4 -4h4v12zM136 588l-16 -40v-4l4 4l16 20h4v20h-8zM348 508l4 -12q40 35 40 68zM116 540l-8 -28q8 0 12 24v4h-4zM112 456 l4 -4v-4l-4 -36q11 0 28 72l16 20l-4 28zM360 448h4l4 4h4l-4 4v4l4 12q-7 0 -12 -24zM160 460q-33 -92 -40 -92l4 -36h4q32 92 44 92l-8 36h-4zM172 380q-17 -50 -32 -68l4 -4h4l28 56v16h-4zM436 360q8 -2 16 -20l-4 -4q-20 5 -20 12v4zM180 320l-32 -56v-12l32 56l8 8v4 h-8zM156 200v-12h8q8 52 36 52v12l-8 8l4 4v8q-29 -38 -40 -72zM200 220v-20l8 8l-4 12h-4zM168 136v-8h4l28 68q-32 -43 -32 -60zM228 116l-32 -64v-8l20 -4v4l24 48l-8 24h-4zM188 112l-4 -12h8v12h-4zM256 76l-4 -12l4 -4l-12 -12l4 -12h16q9 0 12 20l-4 4l12 16h-28z M308 76l-8 -44h20l12 44h-24zM356 44h4q19 10 28 32h-20q-12 -2 -12 -32z" />
<glyph unicode="W" horiz-adv-x="1079" d="M796 1180q10 -12 108 -12h20q30 0 40 -32q-52 -270 -64 -384q-40 -154 -68 -320q-12 -36 -20 -108h-4l4 -4l-48 -228l-72 -92q-180 19 -192 32l-40 76h-4q-15 -18 -56 -44q-35 -60 -68 -60l-20 -4v4l-4 -4h-16l-36 4l-4 -4h-4q-56 0 -72 100q-32 83 -64 320h4l-8 28h4 q-8 11 -12 60l4 4q-12 0 -20 112q-52 305 -80 416l-4 28l4 4v4l-4 4v4q0 22 68 84h60l16 4l4 -4h4l4 4l20 -4h48q17 0 56 -108q36 -71 84 -400l52 -224h4q0 26 64 28l32 4l32 -36l40 132l-4 4q12 84 28 136l-8 12q17 0 44 168q35 98 52 228q11 26 44 48zM816 1148 q-14 -14 -64 -160l4 -4v-4q-54 -193 -76 -344l4 -4l-68 -324l4 -4l-12 -8h-4l-20 4v4l4 4v4q-15 0 -20 32q-19 17 -48 76q-10 0 -12 16h-4l-36 -52l-44 -52h-8q-16 0 -96 456q-28 82 -32 140q-64 204 -72 212h-64l-4 4q-44 0 -44 -28v-4q44 -127 72 -312q54 -509 112 -672 q13 -36 24 -36q103 0 128 36q14 52 32 52q0 48 40 48q26 -19 48 -104l20 -28l56 -8l24 4l20 -4q33 16 60 16l4 -4l4 4l-4 4q28 114 64 340q20 60 72 344l4 4l-4 4l12 56l-4 4q32 187 52 260q0 24 -32 24h-52zM716 1044h8q32 10 32 36q8 0 8 20h-4q-35 -18 -44 -56zM72 1096 l-36 -72l4 -20h4q25 72 36 72h4v4l-8 16h-4zM712 1004v-4l20 -4l4 4v12h-8zM100 1008l-24 -56h8l4 4q11 28 24 28l-8 24h-4zM692 924h4q21 0 28 44q-32 -10 -32 -44zM72 856l4 -20h4q0 23 44 100v20l-28 -60q-9 0 -20 -40h-4zM76 948l-8 -16l4 -4h4l8 12zM68 920l-8 -20v-4 h4l8 20v4h-4zM672 884v-24q9 8 28 8l4 28v4zM128 892l-24 -60h4q8 0 8 24l24 4v12l-4 20h-8zM656 804l20 4l12 -8l8 48q-40 -33 -40 -44zM120 796q28 0 28 -8v-4q0 -21 -12 -36h4l12 4l4 -4v4l-8 92q-7 0 -28 -48zM92 724q10 0 28 68q-28 -29 -28 -68zM644 752v-4h4l16 8 l12 -4l8 40q-11 0 -40 -40zM128 736l-8 -20v-4h8l4 20v4h-4zM632 688l32 -4l8 48h-4q-36 -15 -36 -44zM156 720l-48 -116v-20h8q34 92 48 92l-4 44h-4zM100 656q9 0 20 48v4q-11 0 -20 -52zM620 640v-12h4l24 8h12v8l4 28h-4q-28 -12 -40 -32zM164 640l-44 -108l4 -12h4 q27 91 36 92h4v28h-4zM608 584v-12l28 16l12 -8l8 40h-4zM172 572l-24 -64h4q6 0 24 48l4 4v12h-8zM600 524v-8l4 4h12l20 -4l8 44h-4q-20 -9 -40 -36zM184 508l-32 -88h-8l-4 4h-4v-4l8 -52h8q0 16 40 124l-4 16h-4zM592 472v-8l16 4l12 -4l12 36h-8q-18 -7 -32 -28z M128 496v-8q2 -40 12 -40l8 48h-4l-12 -4zM576 416h32l8 32q-27 -14 -40 -32zM196 432l-4 -24h4l4 4h4l-4 20h-4zM184 400l-16 -44v-4h4l20 40zM580 384v-8l8 -28h4l12 40zM160 252l4 -12q8 4 44 96h8v4l-4 28q-10 0 -20 -48q-10 0 -24 -68h-8zM152 336v-32h4l8 32h-12z M220 296l-36 -76l4 -4q-4 -32 -12 -32l8 -20h4q26 100 40 100h4q-4 32 -12 32zM232 228q0 -27 -20 -68v-8h4q8 36 20 36l4 -4h4v4q-3 40 -12 40zM484 144v-12h4q0 18 24 52v8q-28 -29 -28 -48zM244 160l-32 -100l12 -8q20 88 32 88l-8 20h-4zM508 128l-8 -16v-4l16 20h-8z M516 68v-4l8 -8h4q0 12 16 36l-4 20q-24 -25 -24 -44zM264 96l-8 -20v-20h-8v-28h8l8 28h-4l12 36l-4 4h-4zM296 68q0 -28 -8 -28l4 -12h24l12 36h-12zM356 68v-16h8l8 16h-16zM556 68l-4 -24h20q6 0 12 16l-20 8h-8zM652 36v-4l20 -4l16 28l-4 4q-23 0 -32 -24zM608 56 l-4 -16l20 -4l8 20h-24z" />
<glyph unicode="X" horiz-adv-x="798" d="M536 1188h28l4 -4l4 4l16 -4l100 4q64 0 64 -24l-48 -144q-100 -266 -100 -284l-16 -52l12 -80v-8l-4 -4q24 -70 68 -252l92 -232l-68 -88l-4 -4h-4l-28 4l-12 -12h-4q-10 0 -12 16l-20 -4h-4l-4 4l-20 -12h-8q-45 23 -48 32q-27 56 -44 172q-5 2 -20 88l-44 156h-4 q0 -26 -64 -220l-44 -164q-24 0 -72 -64q-17 -8 -68 -12l-60 12h-32l-4 4l-4 -4q-60 11 -60 28v16l92 236q72 163 144 384q-1 9 -24 24l4 20v8q0 8 -24 8q0 52 -20 52h-8v28l-4 4v4l-4 -4h-8l-8 8l4 4v4l-4 12h4q-99 210 -100 260q60 72 96 72l4 4h24q80 -1 80 -8l4 4h28 l24 4q32 -4 32 -12l-4 -28l68 -212h4q8 70 40 180q61 36 92 76zM664 1156l-104 -4q-68 -312 -108 -356l-16 -16h-12q-9 5 -32 88l-4 4l4 4l-28 84l4 4l-48 116q-18 8 -20 16l4 4l-4 28v24l-48 -4h-80l-8 -8q0 -13 48 -120q0 -21 84 -216l44 -108h4q0 -81 -92 -256l-124 -312 l-8 -24l32 -8l4 4h8l92 8l8 -8h4q14 8 48 160l100 304l32 28h12q13 0 36 -80l-4 -4l44 -148q24 -172 40 -236l4 4h4l20 -4l44 4q32 -1 32 -8l20 4h16v4l-32 76h4q-91 213 -132 472q60 210 92 260l72 220h-4l-32 4l-12 -4v4l-4 -4h-4zM480 1100v-4h4q44 20 44 28v8h-4z M72 1100l4 -12q9 0 16 40q-12 -6 -20 -28zM108 1092v-12l8 8v4h-8zM144 1084q0 -19 -24 -48l4 -4v-4l-20 -20l4 -28q22 33 40 84l4 4v8zM460 1056v-4l8 -8q44 21 44 28l4 12h-4q-41 -28 -52 -28zM92 1064l-4 -28q7 0 16 28h-12zM164 1040v-4l4 -20h12zM452 1012l-4 4l-8 -24 h4l60 32v12q-40 -24 -52 -24zM152 1020l-8 -24l4 -4v-4q-14 0 -20 -44l4 -12h4q12 54 32 76zM180 992q0 -17 -12 -32v-24q-12 0 -20 -28l4 -24h4l20 48h-4q0 13 28 28l-12 32h-8zM432 960v-16h4q48 13 48 24l12 24h-4q-47 -32 -60 -32zM204 940q0 -22 -24 -56v-12h8 q0 19 20 32h4q9 0 12 -20q-5 0 -24 -52h-4v-8l8 -8q12 52 36 52q-25 63 -36 72zM420 908l8 -8q44 8 44 32zM432 872l4 -20h4l4 20v4zM244 848l-24 -68q6 -16 12 -16q8 48 28 48l-12 36h-4zM268 788l-20 -52l8 -20h4q0 27 24 52q-8 18 -16 20zM532 752v-12h-4l-8 8l4 4h8z M292 732l-12 -32l4 -4h4l12 20l-4 16h-4zM276 696v-16h8v8zM300 664q0 -11 -72 -96l-8 -28q80 82 80 104l4 16v4h-4zM444 552l-16 -44h4l20 32l-4 12h-4zM256 536l-44 -52q-24 -4 -24 -36q48 60 64 60l8 28h-4zM456 496l4 -20v-4q0 -8 -12 -8v-20h4l16 36q-6 16 -12 16z M472 436l-8 -28v-4h4l8 8q0 12 8 12zM492 396q0 -25 -12 -40v-4h4l16 36zM152 308q36 16 36 52q-36 -37 -36 -52zM504 336l-4 -28h12v28h-8zM512 292l-8 -20h4l-4 -4v-16h8q0 12 12 12l-8 28h-4zM112 216h4q32 17 32 44q-19 -12 -36 -44zM524 232l-12 -40l12 8l4 -4h4v4 l-4 32h-4zM84 196l-4 -16l12 16h-8zM532 172q0 -16 -12 -32l4 -4v-24h8q3 24 12 24l-8 36h-4zM44 100v-4h8q56 24 56 68q-56 -64 -64 -64zM552 100l-4 -20l12 -12l-8 -12v-8h8l20 48h-4l-4 -4h-4zM592 60v-8l20 -4h20l20 44l-4 4q-48 0 -48 -28zM660 56v-12h12l40 48h-4 q-32 0 -48 -36zM44 48v-4l20 4l20 -4q0 9 24 36v4l-20 4q-17 0 -44 -40zM188 36h12q28 15 44 44h-4q-37 0 -52 -44zM116 44l36 -8v4l24 32v4h-4q-36 0 -56 -32z" />
<glyph unicode="Y" horiz-adv-x="846" d="M628 1220h36l24 -4l12 4l28 -16l8 -24q-56 -200 -120 -332q-20 -28 -64 -136q-58 -114 -124 -304l-140 -308q-22 -11 -100 -96l-48 -4q-140 5 -140 52q32 125 100 296l60 152q36 114 36 144q-16 65 -72 176q-10 47 -52 136q-32 79 -32 112v16q28 62 100 120h4l16 -4 l52 12h44q38 0 80 -120q31 -60 48 -160h8l76 220q43 46 96 60h8l4 -4q20 12 52 12zM516 1036l4 -4v-4q-19 -23 -56 -124h4q-22 -73 -60 -96l-4 -4h-4q-23 0 -32 80q-7 0 -24 96q-8 0 -8 16h4q-36 118 -76 188l-52 4l-44 -12h-20l-20 4q16 -12 56 -180l112 -300 q16 -25 16 -48v-4q0 -58 -120 -380q-20 -81 -48 -152q34 -8 88 -8q35 0 56 76q12 0 68 152q15 19 104 244q0 18 112 256q69 114 132 348l-76 8q-68 -15 -68 -56q-30 -88 -44 -100zM496 1140h8q36 12 36 28h-4q-35 -17 -40 -28zM124 1120q-40 -95 -40 -112l4 -16h4 q21 67 40 96l-4 32h-4zM472 1080h4q40 0 44 36q-47 -25 -48 -36zM80 1096l-8 -20v-16h4l8 32v4h-4zM464 1052q0 -15 -12 -32h16q24 12 24 36l-4 -4h-24zM104 948l4 -4h4q20 66 36 92l-4 16q-6 -1 -36 -100zM432 956q36 8 36 36h-4q-32 -10 -32 -36zM152 988l-4 -12l4 -4v-4 l-16 -36l4 -12l-4 -4h12q0 23 16 44v4q0 21 -12 24zM176 928l-16 -44l4 -12q8 0 8 24l4 4l4 12h4l-4 16h-4zM408 892h4q28 0 28 36q-26 0 -28 -32zM192 872l-16 -68l4 -4h4l4 12l-4 4l20 40q-8 0 -8 16h-4zM400 860l4 -12l16 16h-12l-4 -4h-4zM152 844v-12l8 8v12zM200 760 v-12h4l16 44l-4 4l8 8l-4 12q-12 0 -20 -56zM236 768l-24 -68l4 -12h4q0 14 24 60l-4 20h-4zM252 716l-20 -64v-4h4q0 12 28 48q-5 20 -12 20zM272 668l-32 -68v-8q40 28 40 52v24h-8zM228 540h8l24 28v4zM192 512l-4 -20h8l8 16l-4 4h-8zM236 508l-12 -20h4q6 0 12 16v4h-4 zM164 388v-8q53 41 56 64h-4zM140 364v-8l20 20v8zM108 276h4q10 2 72 76v4q-76 -68 -76 -80zM156 284q0 -7 -60 -56q-20 -27 -20 -40q70 72 80 72l4 24h-4zM104 176v-4h4q0 12 12 12l12 -4v4l8 32q-27 -20 -36 -40zM112 148l-76 -80l-4 -16h4q84 71 84 96h-8zM64 44v-4h4 l4 4h4l20 -8l40 44v4l-20 8zM124 32h36q0 10 28 44h-24z" />
<glyph unicode="Z" horiz-adv-x="831" d="M508 1220h32q116 0 116 -32l28 -272q0 -10 -32 -40l-212 -296q-4 -17 -80 -116l-76 -128l16 -4l16 4v-4l4 4h76l96 8l32 -4l4 4l20 -4h80l16 4q76 0 76 -48l8 -32q-12 -80 -12 -168q-49 -92 -92 -92l-48 -4l-16 4h-8l-16 -4l-32 8l-4 -4l-48 8l-48 -8l-44 4l-12 -4v4 l-4 -4h-4l-4 4l-4 -4h-32l-4 4l-4 -4l-152 16l-4 -4l-12 4l-64 -4q-41 0 -48 116h-4l4 24l-4 52h4l-4 4v4q0 55 124 216q48 51 192 292q32 44 104 188l20 24v4l-208 4l-80 -4l-12 4q-38 -12 -72 -12h-36q-40 0 -40 112q0 46 80 136q0 19 80 24h56l16 -4l68 12l24 -4z M324 1180l-28 4q-31 -8 -160 -12v-4l4 -52l-4 -32l4 -20l-4 -4v-4l4 -12l-4 -20h32l28 8q2 -16 32 -16l24 4l28 -4l48 8l12 -4q85 4 152 16q48 -8 48 -20v-16l-88 -116q-66 -129 -116 -200l-172 -280l-28 -52l-16 -56l4 -4v-28l4 -24l-4 -4v-4l8 -52l-4 -12q5 -52 16 -52 l12 12h4q8 0 8 -12h28l60 8l84 -8l12 4l24 -4h8q77 0 116 8l28 -4l4 4h4l4 -4l52 4l80 -4q12 0 12 20h4l-4 20l8 112l-8 32l-56 4l-12 -4l-20 8l-24 -8l-84 8q0 -6 -192 -12q-52 0 -52 32q57 105 336 488l72 108l-16 140h4q-10 124 -24 124l-4 -4l-48 8l-4 -4l-20 4l-4 -4 h-4l-4 4h-4zM100 1164v-4h12v8zM108 1124q0 -11 -68 -80l-12 -24v-4l4 -28h4l32 52l-4 4v8q12 0 40 44q8 0 8 20v8h-4zM64 1116l-32 -44v-4h4l32 48h-4zM108 1060q-3 -19 -72 -96h-4l8 -8h12l44 68q0 8 12 8l4 20v8h-4zM108 1004l-36 -48h20q48 0 48 28l12 12zM436 964v-4h4 q34 0 52 36v4l-12 4q-19 0 -44 -40zM188 1000l-24 -36v-4h4l12 4v-4l4 4h28q0 19 8 28zM324 996l-20 -32l44 -4l20 36l-4 -4h-32l-4 4h-4zM376 968v-8h36q0 10 16 28v8h-28zM248 992l-16 -24v-4h44l12 24zM88 284l-4 -16h8v16h-4zM92 224l-12 -28h8l8 16v12h-4zM64 180 l-28 -52v-12q25 33 36 64h-8zM92 160q0 -10 -36 -60v-20h-12v-4l4 -20l44 88l8 8v8h-8zM100 108q0 -13 -20 -40v-4h8v-4q0 -12 -16 -12v-8l20 4h16l16 36l-24 12l4 12v4h-4zM188 40l40 -4q0 12 28 56h-4q-56 0 -56 -44zM284 92l-32 -56l4 -4h24q0 16 32 52v4h-20l-4 4h-4z M484 92q-13 -32 -24 -32v-4h4l12 4l4 -4v-4l-24 -16l8 -8h32l-4 4v4l20 44v12h-28zM560 92q-24 -28 -36 -60h-4v-4l40 -4l-4 20q8 31 20 44zM616 92l-24 -36l4 -12q-18 -8 -20 -16h24l40 60zM132 44l36 -4q0 15 16 40v8h-24q-14 -12 -28 -44zM308 44l4 -16l16 4l16 -4h8 q0 14 24 48l-4 12h-24zM416 88l-36 -56h4l20 -4q22 0 28 36q8 0 12 24h-4l-20 -4zM636 36h4l44 52h-4z" />
<glyph unicode="[" horiz-adv-x="758" />
<glyph unicode="\" horiz-adv-x="569" d="M72 1196q156 0 156 -56q35 -85 92 -328q24 -70 80 -328q12 -20 108 -408v-32q0 -44 -120 -44q-47 0 -64 44l-136 548q-54 226 -136 444q-24 52 -52 148l12 8h28l12 -8z" />
<glyph unicode="]" horiz-adv-x="758" />
<glyph unicode="^" />
<glyph unicode="_" horiz-adv-x="817" d="M592 220h36q48 0 72 -112q0 -31 -36 -60q0 -24 -36 -48l-160 4l-52 -4l-4 4l-16 -4l-104 4l-12 -4l-28 4l-72 -4v4l-4 -4q-152 0 -152 40l-24 64q71 92 88 92l24 -4l4 4h4l40 -8l80 8v-4l48 8l88 -4zM224 160v4l-4 -4h-92q-24 -2 -24 -12v-4q7 -48 28 -48q30 -12 64 -12 l36 4l48 -8l4 4q44 -8 136 -8h12l28 -4l36 4h156q9 2 20 32q-21 84 -52 84h-36l-20 -4v4q-230 -32 -340 -32zM72 140l-8 -8v-8l12 12v4h-4zM80 92q0 -11 -32 -36q9 -24 24 -24q24 34 24 48q-8 0 -8 12h-8zM128 64l-24 -36h20q24 16 24 32h-4zM156 24h40l8 36q-21 0 -48 -36z M240 60l-16 -36h4l28 4l4 -4l8 28v4h-20l-4 4h-4zM296 56v-20l-8 -12h20l12 28l-4 4h-20zM348 52l-8 -24v-4h44l4 24l-28 4h-12zM544 52l-4 -28h52l8 16v4l-16 8h-40zM408 24h28q7 0 16 24h-24zM488 48l-12 -20v-4h12q21 0 24 12v12h-24z" />
<glyph unicode="`" horiz-adv-x="1024" d="M683 1368q32 0 36 -80q0 -31 -40 -72l-16 -12h-28q-4 -52 -24 -52q0 -18 -32 -36q-92 13 -92 32l-4 28l4 4v4l-8 92q0 20 72 68zM539 1276l8 -40l-4 -4v-4q0 -44 36 -44v-4l24 8l4 44v28q0 17 56 24l16 -4h4q8 0 8 12q-2 44 -8 44l-4 4l-128 -28zM503 1276v-12q7 0 12 20 h-4zM639 1260l-8 -28l12 -8q6 0 16 32zM503 1240v-4l8 -8l4 16zM507 1160l4 -4h4l12 20v4zM535 1152h12v8h-4zM567 1144l4 -4h4l8 12h-8z" />
<glyph unicode="a" horiz-adv-x="768" d="M272 1196q76 0 240 -40l4 4q67 0 92 -104l12 -60h-4l8 -32h-4l12 -68l-4 -4l16 -180l-4 -4v-4l4 -4l-4 -28v-92l4 -20h-4l4 -4v-36l-4 -4l4 -4v-8l-4 -16l4 -12l-4 -4v-4l4 -4v-4l-4 -20l4 -44h-4l4 -4l-4 -20l8 -184v-12l-8 -32l16 -8q-47 -120 -88 -120h-8 q-164 0 -164 36q-9 0 -12 28l-12 400l-8 8l8 12v36l-8 12q3 28 8 28l-4 4v4l4 24l-4 24h4l-4 4v28l4 16l-4 4l4 20v4l-4 12l4 20v16q0 14 -16 28v4l4 12h-4l-12 4l-20 -4l-8 8h-12v-24q0 -47 -16 -120l8 -112h-4l4 -4v-60q0 -69 -8 -108l8 -88h-4l4 -4v-32l4 -112 q-19 -83 -52 -120q-35 -24 -48 -24q-160 21 -160 52l-12 72h4l-8 52h4l-4 4v4l-12 224l4 20l-4 4h-4l4 4v4l-4 16l4 16l-4 4h-4l4 12l-4 4l4 20v12l-4 16l4 4v4l-4 16l4 4l-8 72l4 4v4l-4 24l4 4l-4 12l4 4v4l-4 16h4l-4 12l4 4v4l-4 4l4 20v60l4 4l-4 4l4 48v88l4 4l-4 4v4 q13 92 48 124l72 60l44 20zM312 1172l-8 -8h-48l-20 -4l-4 4v4q-100 -16 -100 -72l-4 -4v-4l8 -96l-4 -4v-4l4 -12l-4 -16l4 -16l-8 -8v-12l-4 -64l4 -16h-4l8 -44l-4 -4l8 -64l-4 -52l4 -4v-4l-4 -16l4 -16h-4l4 -4v-12l-4 -4l4 -4v-4q5 -232 12 -232h-4l4 -4l-4 -40v-44 l4 -36l-4 -4l12 -104h-4l12 -40h16l12 8h8q8 0 8 -12q64 14 64 40v48l-4 20h4l-4 12l4 16l-4 4v8h4l-4 72l4 200l-4 48h4l-8 20l4 16l-4 44q2 48 12 48l-4 4l4 60v24l4 4l-4 4l8 56l-4 4q0 60 88 60h24q56 0 64 -68v-20l4 -120h-4l4 -4v-4l-4 -16l4 -16h-4l4 -4v-8l-4 -4 l4 -4v-40l-4 -4l4 -4v-76l4 -16l-4 -4l12 -136l-4 -16l4 -20h-4l4 -4v-84q4 -102 24 -112h40l20 4l8 -8l36 4h4l16 24q0 16 8 16l-8 36l4 16v8l-4 20h4l-4 4v4l4 4l-4 4v16l4 4l-4 4l-4 108v192l-4 16l4 4v4l-4 52h4l-4 4l4 20v8l-8 100h4l-4 4v12l4 4l-4 4v16l4 4v4l-8 8v4 l4 4l-4 4v4l4 4l-4 4v4l4 4v4l-8 8v4l4 4l-4 4v8l4 4l-16 92h4q-25 120 -68 120zM48 1040v-4q60 43 60 80q-52 -54 -52 -64zM364 1088v-4l4 4h4q56 -12 56 -24q1 -44 8 -44q-3 -56 -32 -56v4l-64 -12q-48 0 -48 40l-8 36v32q0 15 80 24zM96 1060q0 -10 -56 -60l-4 -28 q59 55 68 72v16h-8zM308 1040v-4h16l4 4v4h-4zM376 1044l-4 -4v-4l12 4v4h-8zM308 1020q5 -36 12 -36h12l20 4l4 -4l4 4v4q0 25 -28 32zM100 1016q0 -11 -68 -80v-24l76 76l-4 28h-4zM388 996v-4h16l4 20l-16 -16h-4zM32 884v-12h4q68 52 68 84zM96 904q0 -11 -64 -60 l-4 -40l72 72v28h-4zM324 836v-4h16q55 48 64 48v8l-4 -4l-20 4l-52 -52h-4zM308 852h4l32 32h-8q-28 0 -28 -32zM368 828v-8l16 -8q31 36 44 36v8l-8 16h-4zM28 776v-24l72 72v20zM392 792l8 -36q21 20 32 20l-4 28h4l-4 4v4l4 12h-4zM96 796q0 -12 -72 -76v-20l80 72 l-4 24h-4zM396 720l4 -24l-4 -12l4 -4h4l32 24l-4 20v32zM24 680l4 -4v-4l-4 -4l4 -28q80 73 80 84l-4 4v4l4 12h-4q-62 -64 -80 -64zM100 688q-4 -21 -72 -76v-28l80 68l-4 36h-4zM396 644v-60q27 24 36 24v72zM100 624q-21 -39 -68 -60l4 -4l-4 -20v-4q45 30 76 64l-4 4v4 l4 16h-8zM400 556l4 -4l-4 -20v-8q17 20 32 20l-4 4l4 20v20zM100 572q-3 -20 -68 -64v-32q44 32 76 76v20h-8zM36 456v-28l80 68l-4 28q-59 -68 -76 -68zM400 488v-48l36 20v60h-4zM36 404l4 -4v-4l-4 -4v-4l4 -16l76 68l-4 4v4l4 4l-4 12q-60 -56 -76 -60zM432 440 q-20 -28 -32 -28v-32l4 -4v-4q23 16 40 16l-4 20v4l4 4q-5 24 -12 24zM44 352v-36l72 68v36q-62 -68 -72 -68zM400 336l4 -16h-4l4 -16l44 32l-4 4v28h-8zM44 284l4 -12h4q58 60 68 60v28zM404 272v-16l4 -16l-4 -12l44 40l-4 12l4 4v4l-4 4v4l4 12zM48 244v-32q68 61 68 80 v12q-53 -60 -68 -60zM52 192v-16l68 68v4h-4q-48 -56 -64 -56zM440 236q0 -14 -36 -36l4 -36l40 36l-4 4v4l4 4v4l-4 16l4 4h-8zM116 216q-27 -52 -64 -68v-24h4q58 60 68 60l-4 32h-4zM444 172q0 -11 -36 -44v-28h4q44 44 44 52l-8 20h-4zM56 92v-16h8q0 13 64 68l-4 16z M256 136v-12h-4l-8 8l4 4h8zM460 124q0 -8 -48 -56v-4l16 -8l40 48l-4 12l4 4l-4 4h-4zM120 112l-4 -16h4l12 12v4h-12zM548 44h16q25 0 48 60h-8q-29 -21 -56 -60zM448 52l16 -4l44 52h-16zM536 100l-40 -48v-4l24 -4l44 56h-28zM72 56l8 -8q21 32 32 32v12h-4zM196 28h8 q52 35 52 60h-4q-7 0 -56 -60zM128 72v-12h8q0 9 16 24h-8l-12 -12h-4zM148 40l20 -8l32 40h-24zM120 60q0 -12 -16 -12v-4l12 -4l12 16l-4 4h-4z" />
<glyph unicode="b" horiz-adv-x="742" d="M256 1228h28l44 -4l4 4h4l16 -4l16 4l4 -4l24 4q40 -2 40 -8l4 4q136 -19 136 -64q11 -21 24 -112h-4l4 -4v-52l-4 -4l4 -4v-28l-4 -4l4 -4q0 -108 -120 -108h-8v-4q120 -37 120 -148v-24l4 -16l-4 -4v-4l16 -100h-4q8 -17 8 -64v-4l-4 -16l4 -16v-4l-4 -16l4 -12l-4 -4 v-4l4 -12h-4l4 -4v-4l-4 -4l4 -4l-4 -48v-72l-4 -4l4 -4l-4 -20v-36q0 -55 -48 -88q0 -31 -72 -84q-100 -16 -176 -16q-103 0 -280 40q-20 25 -20 40h4l-4 4v80l-4 16l8 72l-4 4l4 20v96l-4 36l4 4v4l-4 24h4l-4 4v48l-4 16l4 16l-4 44h4l-8 40h4l-4 4v8l4 4l-4 4l4 20l-4 4 v4l4 4v4l-4 4l4 20v28l8 236l-8 28q0 24 16 52l-8 32v28q22 100 80 100q13 0 40 20l16 -4q0 12 108 20zM132 1112l4 -164l-8 -180h-4l4 -4v-8l-4 -4l4 -4l-4 -20v-120l-4 -16l4 -4l-4 -12l4 -112l-4 -20l4 -4l-8 -76l4 -4l-4 -20v-88l-4 -4l4 -4v-36l4 -16l-4 -4v-4 q0 -16 24 -20v-4l-4 -4v-4l20 4h12q67 0 216 -28l48 -4l60 12l4 -4v-4l-4 -4h24q26 0 48 32h12l4 32l-4 12l12 148l-4 12l4 4l-4 20v20l4 16l-4 4v4l4 36l-24 260q-24 60 -100 88l-60 16l-4 -4h-12l-4 4l-4 -4q-44 4 -44 16l16 16l4 -4l168 20v-4q42 0 48 84l-4 4v4l8 48 q-3 65 -12 72v12q0 100 -96 100q-37 12 -84 12h-12l-16 -4l-4 4h-4l-20 -4l-76 4q-108 0 -108 -44q-7 0 -12 -48zM68 1104q44 22 44 52q-44 -30 -44 -52zM288 1112l20 -4h52q56 0 56 -64l4 -32v-20q-13 -36 -72 -36h-28q-64 0 -64 44l-4 56q0 31 36 56zM60 1064v-12 q48 28 48 40l-4 12q-30 -19 -44 -40zM320 1064h8l8 16v4h-4q-9 0 -12 -20zM280 1076v-8h16l8 8v4zM348 1064v-8q18 16 28 16l-8 8l-16 -16h-4zM52 1012v-12h4q39 32 48 32v28zM372 1052v-8h4l12 12h-4zM276 1044q0 -64 28 -64l4 4l20 -4h8l8 8v44q-26 12 -52 12h-16z M372 1004v-8q20 11 20 32l-16 -24h-4zM44 960v-8h4v12h8v-12l56 40l-4 24zM44 916l4 -4v-8l-4 4h-4v-16l32 28l4 -4q18 24 32 24v24q-55 -48 -64 -48zM40 940h4l8 8h-4zM36 864v-36l72 60v32q-62 -56 -72 -56zM32 800v-20h4l68 52v24q-62 -56 -72 -56zM68 772v-4h4 q28 14 28 20v12zM32 744v-8q22 24 32 24v4h-4q-28 -14 -28 -20zM32 712v-16q58 44 68 44v20zM32 668v-16l68 48l-4 12l4 4h-4q-53 -48 -64 -48zM368 720q56 0 56 -108v-20l4 -16l-4 -4v-4l4 -60l-4 -60l4 -44l-4 -4l4 -20v-44l-4 -44l4 -12q-8 -52 -40 -52h-32q-88 0 -88 52 v16l4 4l-4 4v4l4 12l-4 12l8 8v56l4 4l-4 4v4l4 4v4l-4 4l4 20l-4 16l4 16l-4 16l8 32l-4 4l4 20v4l-4 12l4 20v72q0 68 84 68zM308 664h4l28 28h-4q-19 -9 -28 -28zM368 692l-24 -28h8l28 20v4zM28 624l4 -4v-8l-4 -4l4 -16l68 52v32zM368 636l28 20l-4 16q-24 -14 -24 -36 zM308 640v-4l4 -20l-4 -16l8 -36l-8 -8v-4l4 -16l-8 -32l4 -4v-4l-4 -12l4 -4l-4 -20v-8l4 -12l-4 -20l-8 -156h4l40 -8l4 4l-4 4l4 16l-4 20h4l-4 4v4l4 4l-4 20v8l4 52l-4 12l4 44v44l4 4l-4 4v80l4 4l-4 4v52h-36zM372 608v-4h4l24 16l-4 12zM32 576v-28l64 52l4 16h-4 q-43 -40 -64 -40zM372 576v-20h4l24 20v16h-4zM44 532l-12 8v-4l4 -20h4q25 12 56 44v8zM396 548q-6 -16 -24 -16v-12h4l28 24l-4 4h-4zM36 488v-16h4q33 27 60 36l-4 20q-45 -40 -60 -40zM372 496v-12l28 24h-4q-13 -12 -24 -12zM36 436v-12q29 17 60 48v16zM372 456v-8h4 l24 16v12l-24 -20h-4zM36 396v-12h8q37 28 52 28v32zM368 408v-4h4q16 16 28 16v16zM364 356h4l32 28v12q-32 -23 -36 -40zM40 352v-20q56 34 56 60h-8zM392 352q0 -10 -24 -28l4 -4v-4q28 14 28 20v8zM36 304v-20q45 32 56 32v32q-43 -44 -56 -44zM368 280v-16q32 16 32 40 h-4zM36 252v-16l56 44v16zM32 200v-16h8q35 36 52 36v24h-4q-19 -6 -56 -44zM84 200q0 -8 -52 -52h8q0 12 16 12q0 11 36 20v12zM32 96h4l60 48v16h-4q-60 -31 -60 -64zM104 132q0 -14 -64 -64v-4l20 -4h8l76 64zM104 56l4 -4h8l80 72v4h-8q-22 -10 -84 -72zM164 64h4l68 60 l-4 4h-4zM180 40l4 -4h12l88 84h-20zM296 112l-68 -80l4 -4h8q0 19 72 84h-16zM264 28h16q0 8 68 76v4h-8q-7 0 -76 -80zM400 100l-8 -12h8l4 12h-4zM412 36v-4l24 4l-4 4v4l56 56h-16zM472 48v-4h4q48 30 48 56zM424 96v-12l12 12h-12zM144 44h12l8 16h-4zM308 28v-4h8v12z " />
<glyph unicode="c" horiz-adv-x="820" d="M656 1212q100 -6 100 -44q9 0 12 -36h4q0 -64 -24 -92l4 -4v-4q-71 -112 -184 -112q-124 -4 -212 -16v4l-4 -4h-60v-80l-4 -4l4 -4l-8 -100l4 -36h-4l4 -4l-4 -48q7 -232 20 -232l-4 -16l16 -4l-4 -12q23 -36 52 -36q0 -8 24 -8v-4l12 4l56 -4l4 4l20 -4h40l4 -4l4 4 q39 -8 116 -8h12l4 -4l12 4q76 0 76 -80v-20l-4 -24l4 -12h-4l4 -4v-12q-13 -12 -24 -56l-100 -84h-4l-4 4h-4q0 -13 -24 -16l-24 4h-12l-12 -8h-4l-8 8l-4 -4h-4l-4 4l-32 -8h-76l-152 8v4l-4 -4l-20 4h-4q-71 0 -92 8l-8 -8q-8 0 -8 12h-16l-16 4l-16 -4q0 10 -28 20 q-16 31 -16 52l8 12l-4 4v4l4 4v4l-8 8v32l-4 16l4 12l-8 16l4 4l-4 40v72l4 4l-8 24h4l-4 4v4l4 4l-4 4l4 16l-8 68l4 12l-4 16h4l-12 88h4l-4 4l-4 112l4 192l4 4v4l-4 4l8 72l-4 12h4l-4 4v20l4 4l-4 4v4q0 64 32 92q5 25 84 96l4 -4v-4l36 12l44 -8l4 4h4l196 8l4 -4 l20 4h40l16 4l4 -4l28 4h24zM612 1184l-20 4h-56l-16 -4l-4 4l-232 -16l-4 4h-4l-60 -8l-28 4l-44 -4v-152l4 -28h-4l4 -4q-12 -82 -12 -244v-132l4 -16l-4 -4q8 -36 8 -96l-4 -4l4 -4v-4l-4 -144l8 -76l-4 -4q0 -76 44 -76q0 -43 240 -56q32 -3 32 -8l4 4l40 -4h80l20 4v-4 q120 10 120 24l8 32l-4 4v4l4 4v4l-8 32l4 24q0 44 -60 44l-28 -4l-192 12l-20 -4l-12 4l-36 -4q-64 14 -88 48q0 13 -12 24l4 24q-12 33 -20 120l4 4v4l-4 4v4l4 12l-4 12h4l-8 52l4 4v4l-4 4l4 20v76l-4 16l4 16v52l4 16l-4 4v4l4 20l-4 20l4 36l-4 4l4 20v32l4 4l-4 4v4 q19 64 64 64l48 4l4 -4l28 4h72l224 24v-4l4 4h8l4 -4h4q16 17 16 40v28l4 4q-11 68 -44 68l-16 4l-4 -4h-8l-24 4l-20 -4v4zM108 1152l4 -4v-4q-20 -58 -64 -132h-8v-24h4q20 58 76 116l-4 12l4 16l-4 12l4 12h-4l-4 -4h-4zM48 1052v-4h4l32 72q-15 -2 -36 -68zM116 1084 l-76 -132h-4v-24q76 124 84 124h4l-4 32h-4zM116 1032q-64 -115 -64 -128v-4q32 52 56 76h8q0 -10 -72 -128l-8 -20v-12h4q0 14 80 128l4 28l-4 56l4 4h-8zM700 1028l-8 -24v-4q20 12 20 28h-12zM644 1016l4 -4v-4l-20 -56q28 0 48 72h-12q-20 -1 -20 -8zM584 948h16 q5 0 32 72q-11 0 -36 -56zM584 1012l-32 -68h8q0 13 40 68h-16zM516 944h12l32 64h-8q-15 -14 -36 -64zM364 936l4 -4h4l28 72h-4q-13 0 -28 -48q-8 0 -8 -20h4zM424 1004q-12 -38 -32 -68h20q0 19 28 68h-16zM432 940h12q13 0 36 64h-12q-15 -12 -36 -64zM476 944h8 q20 8 36 60h-12zM348 1000l-28 -68h8q14 7 28 48l-4 4l8 8v8h-12zM296 932l32 64h-8q-24 -24 -24 -64zM112 908l-60 -108l12 -8q36 72 52 88v28h-4zM36 888v-8h8l4 20zM52 736l4 -12h4q0 14 56 92l-4 4v4l4 20zM36 772v-12h8l12 28zM108 776q-43 -68 -64 -124l-4 -4l4 -4v-4 l-4 -4v-8h4q20 51 60 96l4 -12q-68 -124 -68 -136h8q49 100 68 100v48l-4 16l4 4l-4 32h-4zM36 712l4 -4v-4l-4 -12q7 0 12 20h-12zM108 656l-52 -104l-12 -28v-4h4q33 59 48 68l4 -4h4l-56 -104v-16h4l24 52q32 44 44 44l-4 4v4l4 4l-8 64l4 16v4h-8zM116 552l-64 -132 l4 -4v-4l-4 -16q48 89 68 100l4 -4v40l-4 20h-4zM56 352l4 -20h4q0 22 56 100l4 12l-4 12l4 28q-8 -2 -68 -132zM64 284h8q28 68 48 68v44q-8 0 -56 -112zM116 336q-3 -27 -48 -96l4 -4h8l40 68l4 32h-8zM120 272q-48 -85 -48 -116l4 -4h4q29 70 44 72v48h-4zM40 244v-24 l8 8l-4 16h-4zM64 224l-8 -16l-4 4h-12l8 -44h4l20 56h-8zM120 196q-39 -82 -48 -124l-4 -4l8 -8q38 97 64 112l-12 24h-8zM148 168l-56 -112l36 -8l48 100zM48 120l4 -20h4l20 48q-20 -28 -28 -28zM144 44l20 -4q0 17 44 84l-12 12zM224 120l-28 -64v-4h4l32 68h-8z M252 116l-28 -64l4 -16h4l44 80h-24zM292 112q0 -12 -36 -76v-4h20l36 76v4h-20zM300 40v-4q0 -9 20 -12v4l44 76h-24zM380 104q0 -22 -36 -80l4 -4h16l40 80zM668 100h-16l-16 -40v-4l52 40v8zM384 24v-8l4 4h4l16 -4l40 80l-4 4h-12zM608 56v-4h4l20 48q-7 0 -24 -44z M472 96l-36 -68v-4l8 -8h4v8l-4 4q36 33 36 64l-4 4h-4zM472 20h20l40 72h-20zM524 24h4q10 3 40 68h-8q-36 -51 -36 -68zM596 92l-28 -52h8l28 52h-8z" />
<glyph unicode="d" horiz-adv-x="727" d="M380 1204q96 0 136 -100q128 -282 128 -556v-40h-4l4 -4q-24 -233 -68 -336q-51 -83 -84 -120q-18 -28 -72 -28q-78 -9 -92 -20h-4q-6 8 -44 8v4l-4 -4h-4l-48 8q0 -12 -8 -12h-12l-4 16l-4 -4q-144 8 -144 72l-12 132h4l-8 68h4l-8 48h4l-4 4v28l4 4l-4 4 q-6 272 -16 272l4 4l-12 156l4 56l-4 24l4 12l-4 4l4 20v8l-12 20l12 20v36l4 4l-4 4v4q44 120 104 164l84 12v-4l4 4h4zM300 1168l-4 4h-4l-68 -8v4l-4 -4h-16q-73 -2 -84 -12l12 -260h-4l4 -4l-4 -20v-48l4 -20h-4l4 -4l4 -260v-16l4 -96l-4 -4v-4q8 -39 8 -108v-64l4 -16 l-4 -16v-16q0 -68 40 -68l64 -12l48 4q240 0 240 44q44 54 76 352l-4 20h4l-4 4l4 24l-4 28l4 4l-4 20v52l4 4l-12 48h4q-25 117 -36 136l4 4l-32 104l4 4l-48 116q-27 51 -44 68q-50 24 -88 24zM88 1128q-31 -51 -40 -84v-4h4l40 84v4h-4zM88 1076q0 -12 -48 -92v-40 q6 1 48 92h8v12l-4 28h-4zM96 1000l-60 -120l4 -20h4l56 136v4h-4zM96 928q0 -24 -32 -68l4 -4v-4q-28 -40 -28 -68v-8h4l40 92q0 24 16 24v36h-4zM344 928h12q56 0 96 -220l8 -80l-4 -24l4 -4l-4 -20v-44q-9 -224 -76 -268q0 -8 -28 -12v4l-44 -8v4l-4 -4q-44 4 -44 36h4 q-8 16 -8 44v56l-4 16l4 16v48l4 16l-4 4v4l4 16v8h-4l4 40v52l-4 12l4 20v148q-20 15 -20 96q0 16 64 28q13 16 40 16zM356 892l4 -12h8v4l-8 8h-4zM284 828h4l40 56h-8zM352 816l4 -4v-4q7 0 28 28v12h-4q-6 0 -24 -32h-4zM96 840l-52 -108l4 -16l-4 -16q24 31 56 108v32 h-4zM392 804q0 -11 -20 -32l4 -20h4q0 14 24 48l-4 4h-8zM284 796v-72l4 -24l-4 -4l4 -20v-128l-4 -164l4 -24h-4l4 -4v-48q0 -24 20 -24q28 0 28 16l8 40l-4 4l20 160l-4 12h4l-4 4v4l4 116q-11 147 -32 152l-24 4h-20zM384 720v-24l32 32l-4 28q-11 -5 -28 -36zM48 632 l4 -12h8l32 72l-4 4v4l16 28l-4 4v4l4 12q-56 -76 -56 -116zM416 688q0 -16 -28 -16v-12l4 -28h4q28 41 28 52v4h-8zM100 668l-28 -80q9 0 24 44h8v36h-4zM388 592v-24h4q0 9 36 52v8zM100 592v-24q-15 -4 -36 -76h8q19 65 32 72v28h-4zM60 560v-4h4l8 28q-7 0 -12 -24z M420 568q0 -9 -32 -48v-8l40 52l-4 4h-4zM100 504l-12 -44v-4h4q0 12 16 20l-4 28h-4zM60 484l-4 -20v-4q8 0 12 24h-8zM388 472v-12h4l4 12h-8zM380 416v-32h4q36 48 36 68q-23 -36 -40 -36zM60 400h8l12 36q-7 0 -20 -36zM100 424l-36 -104v-36h4q32 76 32 104l4 4h4 l-4 32h-4zM392 360q0 -11 -20 -20v-12l4 4h4l4 -4h4l8 28v4h-4zM104 328q0 -16 -36 -108v-20l44 104v24h-8zM104 236l-28 -100v-16h12l24 84v32h-8zM112 140l-16 -76l12 -4q11 37 24 52l-12 28h-8zM148 100l-12 -36v-12l4 4h4l8 -8l16 48l-20 8v-4zM484 100l-28 -44v-4 q40 33 40 44zM192 92l-16 -44h36l16 40l-20 4h-16zM352 40h24q40 39 40 52h-4q-41 0 -60 -44v-8zM440 92q0 -14 -24 -44v-4h16v20l16 24v4h-8zM240 44l16 -4h8l24 48h-28q-12 0 -24 -44h4zM288 36h40q0 17 24 52h-36q-7 0 -28 -52z" />
<glyph unicode="e" horiz-adv-x="831" d="M416 1220l4 -4h4l36 4q183 -8 196 -16l4 4h4l4 -4h4l4 4h4l16 -8l12 4l20 -8v-4l-8 -8l-4 4v-8h-4l-20 8l-4 -4v-4l-36 8l-4 -4l-20 4l-180 4l-4 -4h-4l-4 4l-64 -8l-4 4l-48 -4h-52l-28 -4v4l-4 -4h-12l-60 -4l-12 -40l8 -20l-4 -20v-36l-4 -4l4 -4v-8l-4 -4l4 -4v-12 l-4 -16l4 -4l-4 -12l-20 -396h-4l8 -40l-4 -20v-4q0 -107 -8 -160l4 -4l-4 -28v-60l4 -16l-4 -16v-72q15 -44 60 -44l176 -16l12 4l40 -8l4 4h72l60 4v-4q46 5 52 12q7 -12 52 -12v-4q12 0 28 28l-8 68h4q0 38 -56 44h-12l-12 -4l-20 4h-16l-264 20v4l-4 -4h-4q-44 3 -44 16 v12l4 4v4q-12 0 -24 52l4 4v4l-4 20l4 4l-4 28v120l-4 20h4l-4 4v4l4 4l-4 4v4l4 4v4l-8 28l4 4v4l-8 48l4 4l-4 40v20q10 32 44 32h84l4 -4l12 4l128 8h80l16 28v84h8v8q-33 12 -76 12h-12l-4 4l-4 -4l-56 8h-44l-4 4l-4 -4l-48 8l-4 -4q-116 7 -116 40l-4 28q8 0 12 40 l4 4h4l116 4l196 -8v-4l4 4l48 -4q132 0 132 28l4 32l-12 92l12 8q16 -36 16 -100v-24q0 -29 -40 -60q-14 -44 -56 -44l-196 -4l-60 4l-12 -4l-8 8h-8l-28 -8v-4q240 -20 240 -28l-4 -4v-8h4v8h8l12 -40v-48q-44 -176 -140 -176q0 -6 -92 -12l-76 8l-4 -4h-4l-44 8l4 -4 v-148l4 -16l-4 -16q0 -156 20 -156l404 -40q36 -14 44 -92q0 -76 -76 -116q0 -26 -128 -64h-144l-4 4l-4 -4q-312 24 -328 32q-28 25 -28 80l12 360v52l4 24l-4 20v44l-4 16l8 36l-4 4v8h4l-4 48v96l4 4l-4 4v4l4 4l-4 4l4 24l-4 36l12 228q0 32 104 76l8 8h8l8 -8l76 8 l4 -4l20 4q102 0 164 8zM48 1104l4 -4v-4l-4 -12q14 8 72 88h-4q-64 -26 -64 -68h-4zM116 1128l-68 -76l-4 -20h8q0 14 72 80v16h-8zM120 1072l-80 -76v-32h4q0 10 52 76q20 24 32 24zM60 948l48 48l20 4v32q-68 -68 -68 -84zM312 1012l-4 -4v-8l20 4v4zM356 1004l8 -8 l-4 -4v-4l4 -4h4l12 20v8l-16 -8v8zM412 1008v-8h4l8 8h-12zM456 1008l-12 -28l24 -4l8 28h-4zM648 976q32 0 48 32h-4q-29 0 -44 -32zM260 1004l-4 -12h16zM496 980l4 -4l4 4h4l12 -4l12 28h-16zM552 980l4 -4h16q8 0 12 24h-16q-8 -2 -16 -20zM612 1000l-4 -20h4l12 -4v4 l8 20h-20zM36 876l4 -12l-4 -12q35 45 92 96v32q-83 -79 -88 -104h-4zM276 964l-4 -4v-4h20v4zM296 952h24v8h-16zM324 952h12v8h-4zM36 928v-4h4l16 16h-4q-16 -6 -16 -12zM116 908l-68 -80l4 -4h4q15 25 56 60h4l4 -4h4v28h-8zM32 744h8q60 84 84 84v36q-92 -97 -92 -120z M36 816v-8l12 4v4h-12zM36 712v-36l84 96l-4 4v4l4 20zM440 672h4q31 0 40 48q9 0 16 32h-16zM528 752v-12l8 8v4h-8zM396 672l16 -4h8q0 22 28 72v8q-35 0 -44 -44l-12 -32h4zM244 712q6 0 20 28h-8q-8 0 -12 -28zM288 740l-20 -48l4 -4h4l-4 -4v-8h8q0 23 24 60v4h-16z M308 676l12 -4l12 4v12l16 52h-4q-12 0 -40 -64h4zM376 740l-20 -56l4 -4l-8 -8h20l-4 4v8l20 56h-12zM40 644h8q26 48 52 48l4 -12q-72 -85 -72 -108q22 19 32 44l20 12h4q8 0 8 -12l-64 -80l4 -20q38 33 72 80v44l-4 4l8 24l-4 4l4 20v32zM516 724l-16 -36h8l16 36h-8z M36 480l4 -12h-4l-4 -4l4 -12l-4 -4l4 -4h4q25 56 48 56l4 -4v-8q0 -16 -44 -64q-12 -14 -16 -36v-4h4q0 8 48 60h8l12 -8l8 64l-4 12h4l-4 4l4 28v16h-4zM96 428q0 -10 -64 -80l-4 -32h4q8 0 8 16q12 0 52 52q12 0 12 40l-4 4h-4zM28 256v-4q47 60 64 60l4 -4v-12l-68 -80 l-4 -28v-4h4q0 16 48 60h12v-4q0 -9 -64 -100v-24h4q56 72 68 72h4l-4 40v24l4 4l-4 4l4 28v32l-4 16l4 16v4q-72 -69 -72 -100zM96 164l-68 -88v-8l16 -16h4q0 11 64 84l-12 28h-4zM124 112l-56 -64h40q44 43 44 60h-4l-24 8v-4zM184 104l-48 -60l28 -4h4q23 18 52 60z M200 40v-4l40 -4v4l40 56v4l-24 4q-8 0 -48 -60h-8zM540 96q0 -14 -48 -72l16 -4q24 0 24 24l40 52h-32zM264 28h36l-4 4v4l44 56h-24q-7 0 -52 -64zM368 92l-52 -64v-4l12 4l12 -4l48 64v4h-20zM368 20l4 4h4l24 -4q10 1 56 72h-20q-29 0 -68 -72zM484 92l-48 -68l28 -4 q2 13 52 72h-32zM596 92l-32 -48v-4q31 10 72 52h-40z" />
<glyph unicode="f" horiz-adv-x="794" d="M156 1164l48 -4l48 4v-4l4 4h8l4 -4l4 4l72 -8l12 4l4 -4h4l4 4l80 -8l80 4l32 -4l12 4l12 -4l36 4h20l4 -4l4 4l40 -8l-8 -12h8v8h4q22 0 28 -104l-12 -4l8 -12q-80 -92 -88 -92l-72 -12l-4 4h-4l-24 -4l-4 4l-12 -4l-92 -4v4l-4 -4h-88l-4 4l-4 -4h-12l-4 4l-4 -4h-4 l-56 4h-8l4 -40v-8h100l4 -4l12 4h8v-4l32 4l72 -8l12 4q36 -15 36 -60l-4 -4v-4l4 -12h-4l4 -4q-16 -68 -44 -68q-42 -68 -72 -68v4l-64 -8v4l-4 -4l-20 4h-4q-18 -16 -28 -16l-4 4v-52l-4 -4l4 -4l-4 -88v-72l4 -16l-16 -144l4 -4v-4l-4 -4v-4l4 -4l-4 -20v-28l-4 -36 l4 -4v-4q-17 -70 -60 -136l-24 -8q-36 0 -108 20l-4 -4h-4q-32 0 -32 124v452l-4 16l4 12l-12 128l4 20v8l-12 16v4l12 16l4 56l-8 160q3 32 8 32l-4 4v4q0 56 144 96zM112 1068l4 -12l-4 -4v-4l4 -12l-4 -44v-4l4 -16l-4 -4l8 -68l-4 -12l4 -28h-4l4 -4v-4l4 -108l-4 -104 l4 -28h-4l4 -4v-24l-4 -52l4 -12l-8 -208l4 -12h-4l4 -4v-12q0 -90 8 -112l-4 -24v-8l8 -40h56l20 4l4 -4l20 36l-4 4l4 20v32q1 80 8 80l-4 4v8l8 12v4l-4 20h4l-4 4l4 24l-4 20l4 36v52l4 4l-4 4v4l4 4l-8 28l4 12l-4 4v4q3 32 8 32l-4 4v12l4 36l-4 12h4l-4 4l4 20l-8 16 l4 16l-4 4v4q2 23 12 36l-12 12l12 12h44q67 0 168 16l4 -4l8 12l-8 8l8 56l-4 16l-60 4l-80 -4h-68l-24 -4q-31 0 -44 28l4 20v84q0 44 80 44h64l16 -4l12 4v-4l4 4h196l84 8l12 -4l8 8h4l4 -4q16 0 16 20h4l-4 4v8l8 12q-9 0 -20 56q-8 8 -32 8v4l-4 -4h-8l-68 -4v4l-4 -4 l-60 4h-36l-16 -4l-60 8l-12 -4v4l-4 -4l-28 4h-64l-4 4l-4 -4h-4l-4 4h-4l-28 -4l-4 4l-20 -4h-44l-4 4q-56 0 -56 -44zM80 1072l-8 -16v-4l16 8l-4 12h-4zM84 1032l-8 -20l-4 4h-4l-8 -8h8v-4h-12l4 -12l32 24l-4 4v4l4 4v4h-8zM560 944h4q17 3 72 52h4v8h-4 q-19 0 -76 -60zM504 940h16q0 13 64 56v4h-4l-12 -4v4q-12 0 -12 -20q-20 -5 -52 -40zM412 992q-13 0 -52 -32q-12 0 -12 -16h8q0 15 64 44h12l8 -8l-44 -36v-4h4q19 21 72 48l-4 4v4l-4 -4h-52zM508 996q0 -15 -64 -52v-4h12q19 7 76 56h-24zM284 944h8q45 40 60 40v4h-12 q-55 -37 -56 -44zM56 940l36 32h-8q-28 -13 -28 -32zM248 952v-4h12l-4 12zM84 932l4 -4v-8l-4 4h-8l-8 -8h4l12 4l8 -12v-12q-8 0 -8 -12l-4 4q-28 -18 -28 -36l-4 4h-8v-24q44 36 56 36v40l-4 28l-4 -4h-4zM36 772q52 52 64 52l-4 4v4l4 4v4l-4 4q-43 -27 -60 -60v-12z M36 736v-12l68 48l-4 20h-4zM36 684h4q53 40 64 40v20q-64 -50 -68 -60zM268 716v-20h4l16 16v4h-20zM316 716q0 -10 -28 -40h8l36 36v4h-16zM332 680v-8l44 40h-8zM96 696q0 -7 -56 -44l4 -4v-8l-4 -4v-4h4q50 40 60 40l-4 24h-4zM376 676h12l8 16h-4zM44 596v-8h4l56 36 l-4 24zM44 552v-20h4l56 36v4l-4 20q-53 -30 -56 -40zM44 496v-16l60 36l-4 4v4l4 4v4l-4 4q-27 -11 -56 -40zM44 432l60 36l-4 20q-60 -41 -60 -56h4zM44 388q45 29 56 48v4q-56 -40 -56 -48v-4zM44 364v-20q43 36 52 36v12q-34 -28 -52 -28zM44 316v-20h4l40 36l12 -4v4 l-4 16h-4q-32 -32 -48 -32zM44 244q47 40 56 40h4l-4 24h-4q-52 -46 -52 -64zM44 208v-20q48 48 60 48l-4 20zM44 164v-16l8 -8l52 48v20q-43 -44 -60 -44zM100 156l-16 -24h4l20 8l-4 16h-4zM44 108l4 -12q23 13 32 28v8zM48 60v-4l8 -8l56 48l-4 20zM172 84l-40 -56h4 q11 0 36 44h4v12h-4zM92 44v-8h4l40 40h-4q-31 -16 -40 -32z" />
<glyph unicode="g" horiz-adv-x="839" d="M644 1196l20 -4l28 4v-4l4 4h40q44 -8 44 -44h-4l12 -48l-4 -16l4 -20q-39 -144 -112 -144l-108 -8v4l-4 -4h-16l-4 4l-4 -4l-28 4h-36l-16 4l-12 -4v4l-4 -4h-4l-120 8q-3 -88 -12 -88v-8h4l-4 -40l8 -224h-4l4 -4v-4l-4 -4l4 -4l-4 -12l12 -140h-4q0 -71 44 -80l16 -8 l4 4l64 -12l12 4l36 -4h16v8l-12 56l4 4v4q-5 25 -24 32l-48 -8q-60 0 -60 40v12l8 12v16q0 104 24 104l56 20l4 -4h4q13 12 68 16v-4l4 4h4l4 -4h4l4 4l104 -12h4l4 -4l4 4h4q52 0 52 -52l16 -108l-4 -4v-4l4 -4l-8 -88l4 -16l-4 -40v-12l-4 -4l4 -4v-4q-9 -115 -32 -172 q-9 -3 -40 -56q-48 -24 -64 -24v4l-80 -16l-204 4l-80 -4l-124 32q-84 0 -84 44l-12 60h4l-8 40l4 4l-4 20v8l4 4q-7 0 -12 160l4 36l-4 4v4l4 16v12l-4 16q8 18 8 52v4l-4 12l4 20v56l4 4l-8 40l4 4v4l-8 112l4 12l-4 36v56l-4 20h4l-4 4l4 12l-4 64v20l4 24l-4 4 q0 84 148 168h8v-4l24 4l144 -4l56 8l4 -4l40 4h116zM400 1164l-76 -8l-32 4l-12 -4l-48 8l-16 -4l-4 4l-4 -4h-4l-4 4h-4q-44 0 -68 -80l-4 -88l8 -8v-8q0 -12 -16 -12l4 -12l-4 -20l4 -24l-4 -4h-4l4 -16l-4 -140h-4l4 -4l-4 -28l4 -116h4l-4 -4v-4l8 -152v-40l4 -16 l-4 -16l4 -16l-4 -4v-4l4 -4l-4 -24l8 -36l-4 -4l8 -60l-4 -4q0 -64 36 -64q24 -24 136 -24h112l16 -4l16 4h12l4 -4l4 4l40 -8l4 4h4l4 -4h4l4 4h4l12 -4q8 16 24 16l4 -16l64 12l4 -4h4q56 7 56 44l16 156l-4 4l4 20v40l4 4l-4 4v16l4 16l-4 12h4l-4 4v52q-9 76 -36 76 h-12l-4 -4h-4l-28 8l-4 -4l-56 8h-16l-4 4l-4 -4h-48q-20 -8 -20 -32l-4 -4h-4l12 -64l24 4q88 -17 88 -68l8 -36l-4 -72l4 -12q0 -18 -36 -24l-36 4l-16 -4l-36 4h-32l-16 4l-4 -4h-4q-116 20 -116 68l-8 52v16l-8 8l4 4v24l-4 20h4l-4 4v100l-4 52l4 44v8l-8 64v44l8 32 l-4 20l8 44l-4 4v4q17 116 28 116q32 20 92 20l84 -4l16 4l4 -4l28 4h68l20 4v-4q128 13 128 32v8h4q-10 96 -24 96h-40l-32 -4l-32 4h-28l-4 4l-4 -4h-112l-16 4l-16 -4v4l-4 -4h-48zM32 1052v-4h4q71 48 72 56q0 15 12 32h-4q-56 -41 -84 -84zM28 1012v-4h8v-4l-12 -4 l4 -16q72 59 72 72v4q-43 -21 -72 -48zM72 992v-4l4 -4v-4h-4l-4 4q-20 -6 -20 -28h8q0 15 36 24l-8 12q12 0 12 12h-4zM576 948h28l64 56h-4q-28 0 -88 -56zM348 952l16 -4q0 16 16 16l44 36h-20q-38 -24 -56 -48zM468 948h16q24 0 72 48l-20 4q-21 0 -68 -52zM468 996 l-4 -4v-4h4l12 4v4h-12zM328 984v-8h4l20 12v4h-4zM416 956l4 -4h4l36 32h-12zM656 960v-8l4 4h4l12 -4v4l16 24v4h-4q-24 -24 -32 -24zM24 956l4 -4v-4l-4 -4v-4h4l8 8l-8 8h-4zM28 912v-4l4 -16l-4 -12q47 40 60 40v24h-4l-52 -32h-4zM32 852v-12l56 40v8zM32 808v-20h12 l44 28v28h-8zM80 780q0 -8 -16 -8q0 -8 -36 -24l8 -12l-4 -4h4q48 19 48 40v8h-4zM32 700q5 -28 12 -28q30 15 36 28v24zM36 636l4 -12h-4l4 -20h4l40 32v32zM36 568l4 -20l-4 -12l48 36v28zM36 488l4 -4v-4l-4 -16h4q41 40 52 40l-4 32h-4q-41 -21 -48 -48zM420 496l4 -4 v-4l-8 -12l8 -8l8 16l-4 12h-8zM32 428l4 -12l-4 -12l60 44v28q-50 -48 -60 -48zM476 436h8l16 8v8q-20 0 -24 -16zM532 408v-8h4l28 8v16h-4q-18 -16 -28 -16zM84 420q0 -11 -52 -48v-28l64 48l-4 4v24h-8zM532 368v-16h4q22 0 32 20v20zM88 356l-56 -48l4 -4v-4l-4 -4v-4 l4 -16l-4 -4h4q60 45 60 56l-4 12l4 12l-4 4h-4zM544 320h12q0 8 12 8v8h-4zM92 284q0 -12 -16 -12l-32 -28l-4 4v-20l56 44v12h-4zM92 236q-30 -32 -52 -32v-12l4 -20h-4l4 -12l48 36v4h-8v8h4l12 -4l4 4v16zM48 128v-12l4 -4v-4q23 12 60 48l-4 16q-12 0 -60 -44zM52 80 q6 -16 12 -16h4q74 60 84 60q-4 12 -24 12h-4q-53 -56 -72 -56zM168 116l-56 -48l-4 -4v-4q16 -1 16 -8l64 52h4v8zM216 104l-48 -52l4 -4l-4 -4l12 -8l76 64l-24 4l-4 -4h-4l-4 4h-4zM660 104l-36 -56h4q8 0 44 52v4h-12zM216 32l20 -4h8l80 68l-20 4q-41 -20 -88 -68z M288 36v-4h20q43 44 56 44l16 20v4q-26 0 -76 -56zM544 36h8q35 0 76 60v4q-33 -4 -84 -64zM348 32h28q0 15 56 56v4l-4 4h-8q-52 -39 -72 -64zM400 36v-4l40 -4q0 22 32 40l24 24l-4 4h-16q-48 -40 -56 -56zM532 92l-68 -64h4l12 4l20 -4h16q0 15 44 60l-4 4l-4 -4h-4z" />
<glyph unicode="h" horiz-adv-x="779" d="M216 1208h36q100 0 100 -76l-4 -4v-4q9 -56 20 -56h4v20q0 100 52 100q0 8 80 16v-4l4 4h12l4 -4l4 4l52 -8l24 4v-4l4 4h24l8 -8v-12l-8 -12q11 0 24 -256h-4l4 -4l-4 -20v-28l-4 -4l4 -4l-4 -60v-16l-4 -4l4 -4v-4l-4 -24l4 -16h-4l4 -4v-32l4 -16l-4 -4l4 -20v-20 l-4 -24l4 -12h-4l4 -4v-12l-4 -24l4 -20h-4l4 -4v-20l-4 -4l4 -12l-4 -44l4 -4v-4l-4 -4v-4l4 -4l-4 -20v-124l-4 -4l4 -4v-4l-4 -24l4 -4l-8 -104l4 -16q-70 -120 -124 -120q-50 0 -120 16l-4 -4l-16 24v48l-4 16l4 12q-8 0 -8 12l4 4l-4 20v116l4 16l-4 16h4l-4 4l4 20v24 l-4 16l4 16l-4 16q8 18 8 52v36l4 16l-4 4q3 32 8 32l-4 4v8l4 4l-4 4v4q3 28 8 28l-4 4v4l4 24l-4 20l8 40l-4 4l12 156v20q0 36 -36 36l-4 4q-32 -6 -32 -16l4 -16l-4 -4l4 -20v-60l-4 -16l4 -4v-4l-4 -12v-8h4q-28 -605 -40 -652q-7 -1 -52 -76l-24 -8h-72l-24 -4 q-88 25 -88 60h4l-12 68l4 16l-8 24l8 20l-4 24h4l-4 4v60l-4 16l4 16v8l-4 16l4 16l-8 8l4 40v8l-8 16l8 12l-8 96l4 4v4l-4 4v4l4 4l-4 20v96l4 4l-4 4v48l-8 12h4l-4 12l4 16l-4 4l4 20v20l-4 28h4l-4 4v4l-8 132l8 32l-8 52q1 24 76 96q0 25 80 52zM128 1176 q-16 -24 -16 -44v-88l4 -32l-8 -76l4 -32h-4l4 -4v-4l-4 -24l4 -4v-4l-4 -4v-4l4 -4v-4l-4 -4l8 -52l-4 -4l4 -12l-8 -248l4 -28l-4 -4v-4l4 -12h-4l4 -4v-116q13 -240 40 -240v-4l-4 -4v-4l12 -4l84 4h12l12 -8l12 52l-4 4l4 28v32l4 4l-4 4l4 20v28l4 4l-4 4v4l4 4l-4 4v4 l4 24l-4 4q6 56 12 56l-4 4v12l4 4l-4 4l8 144h4l-4 4l4 20l-4 4v4l4 16h-4l4 4v16l4 96l-4 4l4 20v52l4 4l-4 4v108q0 72 84 72h16q62 0 68 -148v-20q-16 -203 -16 -292h-4l4 -4v-68l-4 -4l4 -4v-4l-4 -4l4 -4l-4 -40v-72l4 -16l-4 -16l4 -12l-4 -40v-52q0 -32 28 -40v-8 h48l32 16h52l4 20l-4 4l4 20v32l4 4l-4 4l4 20v112l-4 16l4 16v80l4 4l-4 12l4 4l-4 20v28l4 16l-4 16v20l4 4l-4 4v216l4 4l-4 4l8 60l-4 4l4 20v24l-4 28h4l-4 4v80l-4 20h4l-4 12q-2 92 -12 92l-92 8l-12 -4l-16 4l-28 -8l4 -4v-4l-4 -4l4 -28v-48q0 -35 -52 -40h-24 q-64 0 -64 44q0 88 -32 88l-68 8zM396 1112l44 28l-4 12q-40 -24 -40 -40zM88 1140l-8 -20h4l8 16v4h-4zM412 1092l4 -4l24 12v16zM64 1104l-36 -44h8l32 44h-4zM28 1024l4 -32l-4 -4h8l44 64l8 12v40q-60 -71 -60 -80zM396 1080v-4l8 8v4zM84 1032l-36 -56v-4l12 -4l28 36 v28h-4zM32 900v-8h8v-4l-4 -12q52 53 52 96l-52 -72h-4zM32 956v-24h4q0 11 20 32h-8zM352 924v-4h8l4 4h4l4 -4h4l40 20l-8 8h-4q-13 0 -52 -24zM408 912h8v-4l16 8l-4 12q-18 -8 -20 -16zM80 904q-13 -32 -20 -32l4 -12h4q0 12 12 12l4 4v28h-4zM424 892l4 -20v-16h4l12 4 v8q0 28 -8 28zM44 848v-8l-4 4h-4v-24h4l16 28h-12zM36 776l8 -8l40 52v24q-33 -30 -48 -68zM428 828v-16q20 0 20 8l-12 16zM424 768v-16q8 0 24 20l-4 4v4l4 12h-4q-20 0 -20 -24zM80 788l-36 -56v-28h4q40 56 40 68v16h-8zM420 696q20 7 20 40q-18 0 -20 -40zM48 676 l4 -4l-8 -8l4 -4h4l36 48l-4 4v4l4 12zM420 652l16 12v16h-4q-10 0 -16 -28h4zM44 604v-8h4l36 48v24q-40 -47 -40 -64zM416 620v-20l20 4l-4 28h-4zM44 536l40 56v20q-40 -44 -40 -76zM412 576l4 -4v-12l-4 -4v-4h4q20 8 20 32h-4zM80 552l-28 -52h8l24 32v20h-4zM404 484 l28 16v36q-23 0 -28 -52zM48 448l4 -16h8q0 30 28 32l-4 32zM400 456l4 -4v-4l-4 -12q32 14 32 20v20h-4zM84 440l-32 -52l4 -4l-4 -20v-8h8l24 36q0 16 8 16l-4 32h-4zM400 408v-24q32 12 32 44h-4q-28 -14 -28 -20zM400 352v-32h4q28 12 28 24l-4 12h4l-4 4v8l4 4v4h-4z M84 364l-32 -56l4 -12q32 39 32 56v12h-4zM400 296v-24l32 16v24h-4zM84 304l-28 -60v-12h8q11 36 28 36v16l-4 20h-4zM396 240v-16l4 -4v-4q32 14 32 32l-4 12l4 4h-4q-30 -15 -32 -24zM56 188l4 -12l-4 -4l4 -4h4q0 13 36 56l-4 20zM396 188l4 -36q32 14 32 20v12l-4 20 q-17 0 -32 -16zM96 192q-36 -66 -36 -92v-4h4q0 9 40 60l-4 4v4l4 4v4l-4 20h-4zM400 120l12 -4q24 9 24 16l-4 12q-32 -18 -32 -24zM68 56l4 -4h4l44 52l-8 28q-39 -49 -44 -76zM404 76l4 -20l-4 -4l4 -4h4l60 52q-11 0 -24 12q-44 -23 -44 -36zM508 32l12 -4q25 5 88 84 h-12q-88 -73 -88 -80zM440 40l36 -4l72 64h-4l-16 -4l-16 4q-55 -37 -72 -60zM128 88l-28 -44l4 -4l16 -4h8q11 4 32 40zM156 36v-4l4 4l20 -4h4l36 44v4h-4q-34 0 -60 -44zM240 76q0 -13 -28 -44h8q12 8 28 44h-8z" />
<glyph unicode="i" horiz-adv-x="390" d="M172 1188l12 -8h4l28 4v-4l4 4q68 -6 68 -24v-80l-4 -16l8 -48q-12 -237 -40 -508l-4 -112l4 -4l-4 -20v-8l-4 -120h-4l4 -4q0 -182 -112 -240q-112 0 -112 48l-8 36v76l-4 12l4 20v32q0 204 -12 236h4l-4 4v4l4 48l-4 72h4l-4 4v36l4 4l-4 4l4 20v16l-4 16q8 22 8 124 l8 12l-8 8v48l-4 20h4q-8 22 -8 56q0 121 72 176q24 48 92 48zM160 1148l-24 4q-32 0 -32 -124l4 -20h-4l4 -4v-4l-4 -4l4 -12l-4 -64l4 -4l-4 -20v-100l-4 -16l4 -12h-4l4 -4v-40l-4 -24l4 -4v-4l-4 -12l4 -4v-4l-4 -4v-4l4 -36h-4l4 -4v-4l-4 -4l4 -4v-4l-8 -92l4 -12 l-4 -28l4 -12h-4l4 -4v-4l-4 -4v-4l4 -20h-4l8 -28l-4 -4h-4l4 -4l-4 -120v-80l-4 -4l4 -4v-24q0 -68 20 -68l12 -4l16 4v-4q68 15 68 68l8 124h4l-4 4q8 64 8 176v44l4 44l-4 4l24 196v20l4 4l-4 4l4 20v40l4 4l-4 4l8 44l-4 12l4 40l-4 4l4 20v168q0 20 -24 20v4l-4 -4h-4 l-4 4l-4 -4h-4l-4 4zM40 1020l4 -4h8q0 10 28 40v16zM56 976h4q12 0 20 40v4q-8 0 -24 -44zM36 1016l-4 -4v-8l8 -8l4 16l-4 4h-4zM52 972l-4 -12v-4h4l8 16h-8zM36 876h12q12 52 32 52v28q-44 -64 -44 -80zM32 932v-4l8 8v4zM72 888l-20 -48v-4h4q0 12 24 28l-4 24h-4z M44 832l-8 -16v-4h4l8 8v12h-4zM60 796l4 -4l-4 -4h16v28zM72 756l-44 -104q8 1 24 40l28 28l-4 4v8l4 4l-4 4v8l4 4v4h-8zM72 684q-4 -21 -44 -92l4 -4h8q18 56 36 56v40h-4zM72 612q-44 -98 -44 -120v-4h4q30 74 48 80l-4 4v4l4 4l-4 32h-4zM68 516l-32 -84h8l-12 -20 l4 -12h4l8 20v8l-4 4v4q13 0 28 56h4l-4 4v4l4 12l-4 4h-4zM44 356h8q24 44 24 68q-6 0 -32 -68zM72 352q-32 -72 -32 -92q36 44 36 88v4h-4zM68 256q0 -13 -12 -28l4 -4l-24 -40v-40h4q16 65 32 80v32h-4zM68 160l-12 -40h4l12 12v28h-4zM72 88l-16 -36l20 -4l12 28z M156 64v-4l8 -8l12 16h-4zM96 40v-8l4 4l16 -8l12 32h-16zM148 44v-4l8 8v4z" />
<glyph unicode="j" horiz-adv-x="742" d="M664 1204q16 -6 16 -12l-8 -40l4 -4l-8 -68l4 -20h-4l4 -4l-12 -112l4 -12h-4l4 -4v-52q0 -90 -8 -112l4 -16h-4l4 -4v-4l-4 -4l4 -4v-8l-4 -4l4 -4q-2 -36 -8 -36l4 -4v-4l-4 -4l4 -12l-4 -28l4 -144v-184l-4 -16l4 -16l-4 -28l4 -16h-4l4 -12q0 -93 -44 -128 q-74 -80 -100 -80v4l-32 -8h-24q-68 0 -68 8l-4 -4l-76 8l-4 -4l-28 4h-52q-200 18 -200 36l-24 88q0 43 100 128h8l8 -8l4 4h24l4 -4l4 4h4l4 -4l4 4l56 -8l36 4v-4l4 4l20 -4h88l12 12q-9 0 -12 56q6 140 12 140l-4 4v4l4 4l-4 28l4 28l-4 52v8l4 4l-4 4v4l12 96l-4 4 q16 91 16 260v100q0 38 44 76q0 13 40 60l16 -4l28 8l52 -8l52 4h20zM516 1172l-8 -28q8 -24 8 -72h-4l4 -4v-4l-4 -16l4 -4l-24 -372v-24l-4 -16l4 -16l-8 -124l4 -4q-17 -215 -24 -232q-47 -28 -148 -28l-72 8l-20 -4l-96 8l-4 -4v-24l8 -64l16 4l16 -12v-4l-4 -4v-4 l24 -4l4 4h92l16 -4l4 4q28 -3 28 -8l4 4h4l4 -4l4 4l28 -4h48l32 -4l28 4l96 -8h16q44 28 44 56l-4 4v28l4 4l-4 4v4l4 188l-4 24l4 16l-4 4v4l4 4v12h-4l4 28l-4 136l8 92l-4 20l8 128v8l-4 72l4 68v12l4 12l-4 20v76l4 4l-4 4v8l4 20l-68 -4zM440 1060l-12 -20v-12h4 l12 20v12h-4zM448 1016l-20 -36v-4h4l20 36v4h-4zM480 1012l-56 -88l-4 -4v-12q17 16 64 100v4h-4zM476 944v-4l8 8v4zM420 860v-12l28 44v8q-10 -2 -28 -40zM412 772v-4h4q0 13 40 76q0 10 24 28l4 20h-4l-64 -100zM472 828q0 -12 -12 -24l-4 -12q24 17 24 36h-8zM448 788 l-32 -56l-4 4l-4 -28v-20h8l-4 4v4l44 92h-8zM468 756q-19 -42 -44 -68l4 -4v-8h-4l-20 4v-4l-8 -92v-36h4l20 44h-4l-12 12v8l68 140v4h-4zM464 680l-8 -24l12 4v20h-4zM444 644q-24 -33 -24 -44l4 -4h4l20 48h-4zM464 620l-60 -108q-5 0 -8 -28v-4h4q38 78 68 112v28h-4z M464 548l-24 -40v-4l4 4h16v-12q0 -11 -60 -112l-12 -28v-4h4q13 9 44 76l16 8l4 -4h4v8h4l-4 4l4 20v4l4 76v4h-4zM416 476q0 -17 -24 -44v-4h8l20 40v8h-4zM392 304v-8q27 50 44 60h4l8 -8q0 -11 -44 -88h4q30 0 44 20v68l4 60q-64 -93 -64 -104zM92 168v-4l12 12v4z M56 132l-4 4q0 -12 -12 -12l-4 -4v-24h4q0 8 40 52v8zM108 140l-64 -76v-8h28q0 14 52 68q-8 0 -8 12l-4 4h-4zM88 52l36 -4l44 56h-24zM200 104q0 -19 -48 -52v-8l28 -4q0 11 56 64h-36zM204 36h36q0 18 56 68h-28zM320 100q0 -17 -60 -64v-4l4 4h4l4 -4h4q21 28 68 68h-24 zM380 100q0 -8 -64 -60v-4h8v-4l4 4l20 -4l60 68h-28zM376 28h32l64 64v4h-28zM436 24h32q0 23 56 68v4h-12zM536 72l-4 -4v-4l12 4v4h-8zM484 28v-4h24q0 10 16 28v4q-30 -28 -40 -28z" />
<glyph unicode="k" horiz-adv-x="805" d="M224 1196v-4l4 4h36q28 -12 28 -76v-40h4q26 68 72 68q59 40 92 40v-4l4 4h112q101 0 120 -28q0 -28 -164 -152l-108 -100q40 -116 96 -232q84 -176 172 -440l44 -120l-4 -4v-4l4 -12q-9 0 -36 -44q-45 -52 -68 -52h-12l-44 12v-4l-8 -8h-4q-15 22 -40 24l-12 -4l-52 48 q0 42 -16 60l4 16q-7 32 -24 32l4 24l-104 312q-12 47 -52 136h-4q0 -63 -12 -128l4 -4q-13 -408 -60 -408q-19 -41 -44 -52h-8l-80 12l-24 -8q-44 29 -44 124v4l8 116l-4 12h4l-4 4q3 28 8 28l-4 4v4l4 60l-4 12l8 136h4l-4 4l4 20v8h-4l4 20v40l4 4l-4 4v4l4 64l-4 4v4 l4 16v12l-4 16l4 4v4l-4 4l4 12l-4 24l4 24l-12 152q67 129 112 180l76 4h4zM140 1156l-4 -56l4 -4v-4l-4 -4v-4l4 -16h-4l4 -4v-16l-4 -4l4 -4q-20 -223 -28 -512h-4l4 -4l-4 -208v-64q0 -112 24 -112q40 -4 48 -12q28 15 28 36l-4 4l4 4h4l-4 4l16 168h4l-4 4l4 48v12l4 4 l-4 4l16 280l8 24v32l4 36l-4 16q8 52 16 52h4q44 0 88 -184q6 0 12 -32q12 0 12 -8v-12l-4 -4l64 -188l32 -104q50 -131 84 -180l72 -20l12 4q41 -3 60 -20l4 4v4q-68 231 -168 464q-15 19 -132 280l-8 24h4l-8 32q12 0 92 88l176 140q0 10 -72 20l-4 -4h-96q-66 0 -92 -68 l-104 -116h-12q-16 7 -16 28q0 114 -12 164q-62 0 -116 -12zM336 1096v-8h4l8 8h-12zM56 976h8q34 75 40 76l4 -4h4v20q-56 -59 -56 -92zM300 1040l-4 -4v-20l20 20zM800 1020h8v-160h-8v8l4 16l-4 28v68l4 4l-4 4v20l4 4v4zM72 900l4 -4h4l28 44v16q-22 -23 -36 -56z M96 872v-4l8 8v4zM84 852l12 4v8zM68 824v-8h4l12 24v4zM88 788q9 0 12 20q-9 0 -12 -20zM284 804v-20h4v8h4l-4 12h-4zM72 764v-4h4l8 16v4zM276 716l4 -16q7 0 20 28l-4 4v4l8 12v16zM96 752l-24 -52v-4q18 24 28 24v32h-4zM316 716l-12 -48h8l12 36l-4 12h-4zM48 596v-12 h4q0 13 32 60l4 -4h8v36zM332 672q0 -23 -16 -48v-16h4q6 27 24 44l-8 20h-4zM300 664v-16h4v16h-4zM88 604l-16 -32l4 -4h4l8 8l4 -4v32h-4zM360 580l-12 -48v-4h8l12 52h-8zM48 532v-8h4l20 40v4zM376 532l-12 -48v-4l24 40l-4 12h-8zM392 484l-16 -44l8 -8l-4 -16v-4h4 l20 60l-4 12h-8zM84 480l-24 -48v-8l28 16v40h-4zM400 360l4 -4h4l16 56l-4 16q-15 -6 -20 -68zM80 408q-6 -32 -16 -32v-4l20 -8v44h-4zM436 380l-20 -60l8 -8l20 52l-4 16h-4zM68 332q0 -14 -36 -92v-8h8q0 21 32 64l-4 12l12 12zM452 324l-20 -52l4 -20h4l24 52 q-8 0 -8 20h-4zM468 268l-16 -60q5 -20 12 -20q0 23 20 56q-4 24 -12 24h-4zM492 212q-13 -60 -20 -60l4 -20h4q0 17 28 56l-8 24h-8zM64 156h8q0 10 12 20v24q-6 0 -20 -44zM28 164v-12h4l4 12h-8zM60 152l-8 -20v-4h4l8 20v4h-4zM524 144l-24 -72l12 -4l28 56l-8 20h-8z M88 136q0 -14 -12 -24l4 -20h8q10 0 16 36l-12 8h-4zM128 116q0 -19 -12 -28l12 -4q15 0 40 36l-4 -4h-36zM548 48v-4h4v8h4v-12q34 37 36 68l-4 4h-8q-7 0 -32 -64zM588 40l4 -4h4l8 8h-4l28 60h-4zM616 32l4 -4h12q0 21 40 72h-20q-9 -2 -36 -68z" />
<glyph unicode="l" horiz-adv-x="682" d="M160 1196l20 -8l68 8v-4l4 4h4q46 0 52 -92l-4 -136v-4l-4 -36l4 -12h-4l4 -4l-4 -20v-32l-4 -4l4 -4q-3 -52 -8 -52l4 -4l-4 -24l-4 -108h-4l4 -4l-4 -28v-36l-8 -128v-36l4 -128l48 -24l4 4l36 -8l4 4l20 -4h8l36 4l4 -4l24 4q160 0 160 -64v-8l-4 -92q-11 0 -56 -72 q-41 -44 -56 -44l-12 4l-4 -4h-4l-16 8l-4 -4h-40l-4 4q-20 -8 -72 -8h-20q-52 0 -84 12l-4 -4q-54 12 -156 20q-56 14 -56 68l-4 28h4l-4 4v4l4 12l-4 16l-4 120l-4 4v4l4 4l-4 20v4q0 135 -12 296v40l4 4l-4 4v28l4 4l-4 4v24l4 4l-4 4v4l4 4l-4 12l-4 176l-4 4v4l4 4v4 l-4 12q0 121 68 184q33 52 44 56h4l4 -4zM116 932l4 -28h-4l4 -4v-24l-4 -36l4 -4l-4 -20v-68q1 -28 8 -28v-8h-4l8 -136l-4 -12l4 -36v-36l4 -16l-4 -16l4 -4v-4l-4 -4v-4l4 -12l-4 -24l4 -4l-4 -16l-4 -136q0 -81 40 -108q30 -12 64 -12h236l120 -8q12 12 12 76 q0 44 -64 44l-48 4h-8l-48 -4v4l-4 -4h-12l-4 4l-4 -4h-20l-4 4l-4 -4q-117 0 -128 68v52l-4 44l4 4l-4 20v16l4 4l-4 4v8l4 4l-4 4q8 41 8 112h4l-4 4v16l4 4l-4 4v4l4 12l-4 4l12 96l-4 12l4 16l-4 4q12 86 12 164l4 4v4l-4 4l4 48v32l-4 16l8 24v60q0 52 -40 52h-68 q-48 0 -48 -12zM72 1108q-21 -29 -36 -84v-4h4q0 17 36 84v4h-4zM88 1088l-36 -96v-4l40 60v40h-4zM76 976q9 0 12 20q-9 0 -12 -20zM32 976v-40h4l4 20l-4 4l12 12v4l-4 -4h-4l-4 4h-4zM84 940l-4 -12h12v4zM32 908v-8h4l8 8h-12zM88 892l-16 -32v-4h8q0 12 12 12v24h-4z M64 844v-8l8 8v8zM52 824q0 -12 -8 -12l8 -8l8 16l-4 4h-4zM84 824l-4 -20l12 8l-4 12h-4zM68 784v-4h4l4 16q-8 0 -8 -12zM84 764q0 -14 -20 -48h4q9 0 20 40v8h-4zM52 760l-4 -12v-4h4l4 12v4h-4zM48 620l4 -4h4q0 24 40 68l-4 16q-28 -39 -44 -80zM92 648l-16 -40v-4h4 q3 16 20 16l-4 4v4l4 4l-4 16h-4zM44 604l-4 -16q8 0 8 12v4h-4zM72 600q-20 -55 -32 -68l4 -4h4l32 72h-8zM92 572l-32 -76q15 0 36 72v4h-4zM92 500q0 -14 -20 -44h12q0 15 16 36v8h-8zM44 472v-12h4l8 8v8zM68 452l-4 -20q9 0 12 20h-8zM96 444l-48 -116l4 -4h8 q2 23 40 80v40h-4zM48 412v-12l12 12h-12zM88 344l-32 -80v-4h8l32 64v20h-8zM56 176v-32q5 0 32 76l8 8v16l-4 20q-34 -55 -36 -88zM52 256v-12l8 8v4h-8zM96 184q0 -18 -28 -72l4 -16h4l32 72q-6 16 -12 16zM120 144l-28 -72v-12l32 -8l28 64zM172 108l-24 -56l20 -4h8 l28 52v4h-12zM388 104l4 -12l-28 -52l4 -12h8l44 76v4l-4 -4h-12l-4 4zM484 108q0 -14 -36 -68v-8h24l4 -4h4l-4 20l36 56zM292 32h12l36 72h-4q-18 -13 -44 -72zM404 32h16q7 0 16 40q7 1 24 32h-8q-7 -1 -48 -72zM200 52v-8l24 -4l28 60h-20q-7 0 -28 -48h-4zM280 100 l-24 -48l4 -4l-8 -8v-4h16l32 60v4h-20zM496 28h4q24 0 68 68h-28q-35 -39 -44 -68zM64 92v-12l8 -8v20h-8zM336 52l-8 -24h4l8 8v16h-4z" />
<glyph unicode="m" horiz-adv-x="790" d="M464 1184l4 -4v-4l4 4h92l4 -4h4l8 8q116 0 116 -52l4 -32l-24 -448l4 -20l-4 -112l4 -64l-4 -40l4 -4v-4l-8 -112l4 -84l-4 -32l4 -4v-4q-5 -46 -28 -72q-40 -96 -80 -96l-4 -4q-132 18 -132 56l-8 32h4l-4 4v28l-4 36l4 4l-12 96l4 4v4l-8 120h4l-4 4q0 184 20 312 l-4 12q8 0 8 20h4l-4 4v4l4 24l-4 12l4 4v4l-4 28l4 20h-8q-36 -70 -64 -92h-8l-20 20l-4 -4l4 -4v-4l4 -268h-4l4 -4v-4q-17 -356 -44 -356l-52 -80q-37 -28 -56 -28l-4 12l-12 -4l-40 8l-12 -4l-24 8l-4 -4q-68 0 -68 68q-12 71 -12 132v224l-4 16l4 16l-4 120l4 12 l-8 108l4 4l-4 28v20l4 16l-4 4v4l8 12q-12 25 -12 120q12 89 100 240h8l4 -4l4 4h44l12 4l16 -4l140 4q40 -15 40 -44h8q0 56 88 56zM616 1156l-12 -12l-72 8l-24 -4h-16q-26 -57 -76 -132q0 -16 -12 -16h-8l-32 60q-16 0 -16 16l8 28q-14 44 -32 44q-81 0 -124 -8l-4 4h-4 l-56 -4v-4l-4 -36l4 -4q-8 0 -16 -252h-4l4 -4l-4 -20v-36l4 -12l-4 -16l-4 -180h-4l4 -12l-4 -44l4 -4v-4l-4 -12l4 -12v-8h-4q5 -164 12 -200h-4l4 -4v-8l8 -80l-4 -4q18 -8 20 -16l-12 -24v-8l16 -4l24 8l8 -12l92 -4q24 30 24 60v40l4 4l-4 4l8 92h4l-4 4l8 44l-4 4v8 l4 16l-4 4l4 28v152l4 4l-4 4v52l-4 80h4l-4 12l4 4l-4 20v28l4 4l-4 4v4l4 12q-8 0 -8 12l4 12l-4 24h4l-4 4v4l4 4v4l-4 24h4l-4 4v20l4 4v4l-4 4h4l-8 52h4l-4 4v8l12 12h8l48 -68l-4 -4v-4q0 -37 40 -100q38 61 72 172l16 16h12q8 0 16 -68l-4 -4v-4l4 -56v-20l4 -4 l-28 -244l4 -4l-4 -80v-44l4 -20h-4l4 -4v-28l4 -64l-4 -4v-4l8 -80l-4 -4l4 -40v-52l4 -20h-4q12 -64 24 -64l28 4l60 -4q24 0 36 68l-4 20v32l4 4l-4 4v44l4 4l-4 4v28l4 4l-4 4v20l4 4l-4 4v4l4 20l-4 12l4 4v4l-4 4l4 28v4l-4 40l4 36l-4 4v4l4 4v4l-4 20h4l-4 4l8 40 l-4 4v4l8 20l-4 4v84l4 16l-4 4l4 20v44l-4 16l4 16v12l-4 28h4l-4 4v4l4 76v4l4 4l-4 4l4 88v20l-4 20h4q0 60 -36 60zM96 1104q0 -19 -12 -28l4 -4v-8q-15 0 -48 -104v-4h4q34 66 56 144v4h-4zM396 1056v-12h8l24 52zM332 936v-20l4 4h4l-4 16h-4zM88 928l-4 -20l4 -4h4 l4 20l-4 4h-4zM76 904v-20h4v20h-4zM32 900v-24q7 0 12 24h-12zM68 888l-32 -72q13 0 36 68v4h-4zM352 832h4l12 8l-4 12q-9 0 -12 -20zM84 784v-8h-4l4 -4v-4l-8 -16h8q0 12 8 12l-4 20h-4zM44 688q28 31 28 56q-8 0 -28 -56zM80 692l-40 -84l4 -4v-4l-8 -16h8l28 68l-4 4 q18 8 20 16v20h-8zM36 676v-12l8 8v4h-8zM80 608q0 -13 -12 -28h4l12 12h4l-4 16h-4zM64 576l-24 -64h4q28 46 28 64h-8zM436 536v-16h4v16h-4zM80 528l-8 -28h4l8 8v20h-4zM36 508v-16h4l4 16h-8zM48 460l-12 -32q7 0 16 28v4h-4zM80 456l-44 -96h16q12 50 36 80v16h-8z M436 456v-16h4l4 16h-8zM84 380l-28 -64v-4h4l32 52l-4 12l4 4h-8zM468 368h4l8 8h-4zM36 344v-4l8 8v4zM476 324l-12 -40h16v40h-4zM80 292h12v16zM44 292l-8 -20v-4l12 16v8h-4zM80 216h4q12 4 12 24v8q-8 0 -16 -32zM456 172v-4h4q0 13 24 48v16q-9 -2 -28 -60zM36 212 v-20h4l8 20h-12zM96 184l-24 -56l4 -4q-9 -12 -28 -12v-4q0 -52 12 -52q0 27 44 92l-4 28l4 4l-4 4h-4zM484 152l-12 -40v-8h4l12 44v4h-4zM40 140l4 -24h4l4 32h-4zM116 116l-20 -36l4 -16h-8v-12l20 -4q5 28 24 56v8zM164 104l-24 -60h4l32 -8h12l32 68l-24 4l-4 -4h-28z M236 100q0 -20 -8 -32h12l12 24v8h-16zM504 100l-8 -20h12l4 16l-4 4h-4zM452 80v-20h8l8 32zM524 36h8q15 3 24 36h-4q-28 0 -28 -36zM584 72l-12 -36l4 -4h4l28 40h-24z" />
<glyph unicode="n" horiz-adv-x="888" d="M104 1176l8 -8l48 4l56 -4l64 8q100 0 100 -44q33 -32 76 -284l24 -100h4v20l-4 60h4l-4 4v4l4 136l-8 40q0 84 60 108q37 33 92 40q64 -3 64 -8l4 4h4q76 -10 76 -36l-8 -60v-104l-4 -4l4 -4v-24l-4 -36l4 -4l-4 -20v-36l-4 -4l4 -4v-4l-4 -24l4 -16h-4l4 -4v-40l-4 -4 l4 -4l-4 -28v-68l-4 -4l4 -4v-8l-4 -4l4 -12l-4 -4v-4l4 -4l-4 -40v-12l4 -16l-4 -16l4 -16l-4 -4v-4l4 -4l-4 -32l4 -92q-19 -249 -56 -288q0 -18 -48 -60h-240l-24 20l4 4v4q-27 48 -44 100l-4 4v28l4 4q-8 28 -24 44l4 24l-28 104q-12 0 -20 16l12 32v4l-20 4v-4l-4 -224 l-8 -48l4 -12h-4l4 -12q-32 -92 -76 -92h-128q-36 0 -36 64l-4 4h-4l4 24l-16 196v32l-4 24l4 20l-8 16l8 36v56l-4 52l4 36l-4 4v4l4 16v8l-4 12l4 20v132l-4 24l4 12l-4 36h4l-4 4v16l4 4l-4 4v116l4 4l-8 44q0 69 96 148zM124 1124l4 -12q-3 -48 -8 -48l4 -4v-8l-4 -4 l4 -4v-40l4 -20h-4l4 -4v-28l4 -84l-4 -4l4 -20v-140l4 -20h-4l4 -4v-4l-4 -20l4 -12l-4 -4v-4l4 -24l-4 -4l4 -4q-8 0 -12 -360h4l-12 -84l4 -16h-4q4 -48 12 -48l40 -8q68 6 68 32l8 44l-4 4l4 20v76l4 4l-4 4l4 28v200l-8 12l12 32l-4 28l8 52l-4 24l8 24l-4 36v4l4 4 l-4 4v136l4 16l-4 4q2 76 20 76h4q32 0 68 -316h-4l4 -4v-16l20 -168l-4 -4v-4l40 -160l44 -136l12 -8l-4 -20q5 -36 20 -36l4 4l20 -4h32q0 11 140 20q36 5 36 68h4l-4 4q12 54 20 204l-4 64h4l-4 4l4 20v20l-4 32l12 420h4l-4 4l4 28v44l-4 16l4 12l-4 24l4 40v12h-4 l-128 12q-20 -15 -32 -48l4 -4l-4 -32l4 -4v-4l-4 -12l4 -16l-4 -12l4 -16l-4 -72l12 -136h-4l4 -4v-72l-4 -4l4 -4v-16l4 -100q-4 -232 -32 -232q-16 0 -56 196h4q-8 8 -12 68l-48 156h4l-72 312q-26 72 -56 72l-40 8q-18 -8 -52 -8h-12l-64 8h-8q-24 0 -24 -28zM100 1148 l-4 -16l4 -4h4v20h-4zM72 1116q-44 -60 -44 -72l52 72h-8zM28 1000l4 -20l68 92v32q-29 -33 -72 -104zM548 1096l-40 -72v-4h4l36 60l4 12v4h-4zM96 1036l-56 -84l12 -12q0 13 48 76v20h-4zM544 1032l-36 -60l4 -12h4q24 56 36 56v8zM32 876v-20h8q24 44 68 96l-4 32 q-6 0 -72 -108zM544 964q-24 -42 -24 -56v-4h4q28 47 28 60h-8zM32 932v-12h4l4 12h-8zM100 920l-68 -112v-16q69 104 76 104l-4 24h-4zM508 896v-12l8 8v4h-8zM100 856l-60 -104h4l4 -4h4q0 16 44 72q0 8 12 8v20zM284 856v-16h8l-4 16h-4zM284 836v-24h8l4 12l-4 12h-8z M548 836q-40 -64 -40 -100q48 67 48 88v4zM104 796l-48 -84h8q14 12 28 44h16v40h-4zM292 744l12 4v20q-12 -4 -12 -24zM520 684l36 60h4l-4 12l4 12q-40 -55 -40 -84zM32 732v-4l12 12v4zM100 724l-64 -100v-16q46 80 68 80v36h-4zM304 712l-4 -4v-12l12 12l-4 4h-4z M40 684h8l12 20v4h-4q-7 0 -16 -24zM520 608v-4h4l36 64v16h-4q-36 -35 -36 -76zM100 668l-68 -120l12 -4l36 68h12q8 0 8 -12q-64 -119 -64 -136v-4h4q41 88 60 88l4 36v84h-4zM312 668l-8 -20h4l8 8v12h-4zM292 632l-8 -20v-4h4l8 20v4h-4zM280 532l4 -4h4l32 64v24 q-8 -3 -40 -84zM316 536l-24 -60q7 0 28 48l12 4l-8 8h-8zM92 512l-56 -104v-20h8q31 80 52 80h4v44h-8zM328 488q-9 -48 -20 -48l4 -12h4l20 36v4l-4 20h-4zM556 488q0 -20 -8 -20l4 -20h4l4 32v8h-4zM280 448l-4 -12v-4h4l4 12v4h-4zM92 440l-52 -104l-4 -20l60 92h4l-4 4 v4l4 4l-4 4v4l4 12h-8zM336 416q-5 -28 -16 -28l8 -28h4l12 28l-4 28h-4zM72 328v-8l24 24v20zM340 308l4 -32h4l8 32l-4 24q-8 0 -12 -24zM64 316l-20 -44v-4h4l24 44v4h-8zM92 308l-48 -108l4 -4h4q22 53 36 60l4 -4h4v56h-4zM88 224l-28 -64h4l16 12l4 -12q0 -13 -28 -56 v-16h4q0 18 32 36l-4 4v52l4 16l-4 4v4l4 16v4h-4zM396 220v-8l4 -20h8l-8 28h-4zM408 168l8 -44l-12 -16l-4 4h-4l-4 -12l12 -32h4l20 56l-4 12h4l-12 32h-8zM88 96l-20 -40l4 -4v-12l-4 -4v-4h4l28 44q-5 20 -12 20zM436 80q0 -18 -16 -36l8 -24h16q0 18 16 40 q-16 8 -16 20h-8zM664 72l-16 -40h4l28 40h-16zM592 48l12 -16l-8 -12v-4l4 4h4l4 -4h4l20 52h-20zM116 64l-12 -20v-16l16 -4q10 1 28 28v4zM156 28v-4h20l24 8l-4 4v12l8 12h-8q-21 0 -40 -32zM532 20h20q0 16 16 40h-4q-32 -4 -32 -40zM480 52l-8 -28l4 -4h28l12 32h-36z " />
<glyph unicode="o" horiz-adv-x="652" d="M156 1220h28l160 -12l28 4l28 -4q24 12 68 12q84 -11 84 -84v-28l-4 -200h-4l4 -12l-4 -4v-4l4 -4v-4q-20 -177 -20 -276l-4 -12l4 -4l-4 -28v-56l4 -40h-4l4 -4v-68l-4 -16l4 -4l-8 -64l4 -4v-4q-7 -14 -16 -164q-19 0 -32 -44q-65 -84 -84 -84l-76 -8h-16l-4 4l-4 -4 l-180 20l-12 -4q-80 0 -80 48l-12 52h4l-4 4v20l4 36l-4 4l4 12l-4 220l4 60l-4 16l4 16l-4 28l4 32l-4 76l4 20l-8 124l4 4v4l-8 48l4 24v48l4 4l-4 4v92l4 4v4l-8 8q10 0 16 88q62 88 92 88zM112 1140v-72l-4 -4l4 -4l-4 -20v-84l4 -60h-4l4 -4l-4 -20v-112 q20 -302 20 -440v-56l4 -48l-28 -12l4 -4l-4 -28v-16q0 -12 36 -12v-4l4 4h4l60 -8l4 4h4l4 -4h4l4 4h4l4 -4l72 8v-4l4 4h4q32 -3 32 -8l4 4h16l4 -4l4 4l28 -4h24l16 4l16 -4q24 17 24 108v4h4l-4 4q16 115 16 204l-4 12h4l-4 4v4l4 4l-4 12q0 156 12 224l-4 12l4 12 l-4 12l8 8q9 260 16 260l-8 32l4 4l-4 4v4l4 12l-4 36v12l4 16q0 44 -64 48l-80 -8h-40l-156 12q-72 -8 -72 -52zM64 1128q0 -13 -12 -28v-4h4l16 32h-8zM276 1052l36 -4h16q36 -12 36 -80v-80l4 -16l-4 -12l4 -32l-4 -76v-76l4 -40h-4l4 -4l-4 -80v-36l-4 -4l4 -12l-4 -4 v-4l4 -4l-8 -40l4 -4q-10 -168 -40 -168l-40 -4q-64 0 -64 100l4 4l-4 20v8l4 4l-4 4v52l-4 228h4l-4 4v88l4 4l-4 4v36l4 16l-4 4v4q11 192 44 192zM264 1008h4l12 16h-4q-6 0 -12 -16zM276 972v-4h4q21 32 48 32v4l-8 12q-17 0 -44 -44zM148 1016l12 -12h-4l-8 8v4z M72 1008q0 -12 -28 -60l-4 -16l4 -32h4l20 52l12 36l-4 20h-4zM320 972q0 -12 -12 -12l-4 -4v-4l8 -8l20 16l-4 12h-8zM252 940q0 -52 -12 -84l4 -4l-4 -40v-96l4 -28h-4l4 -4v-24l-4 -12l8 -68h-4l4 -4v-176l4 -16l-4 -4q0 -80 36 -80h4v4q0 28 -8 28l4 28v84l4 4l-4 4v172 l4 44l-4 12l12 120q0 140 -28 140h-16zM320 912l4 -28h4v32l-4 -4h-4zM324 848v-20l-4 -4v-4h4l12 4l-4 24h-8zM324 784l4 -4v-4l-8 -8v-12l12 12v24zM316 724v-24l16 4v28zM72 704l-20 -60v-4q6 0 16 36l12 16v12h-8zM32 688v-4l8 8v4zM312 652v-20l20 12v28zM80 628 l-4 -12h12l-4 12h-4zM312 596v-36l20 12v16l4 28zM68 608l-4 -12v-8h4l4 16v4h-4zM52 572l-4 -16h8v16h-4zM32 436h8q28 92 44 92v20q-17 -16 -52 -112zM312 524v-16l20 8v24h-4zM324 480q0 -9 -16 -24l4 -12l-4 -12h4l16 8v32l4 4v4h-8zM80 468l-28 -76v-8h4l28 80v4h-4z M312 392v-28l8 8v28zM36 372l4 -4l-4 -16v-8h4q0 13 12 28h-16zM76 368l-28 -76l32 56v20h-4zM40 184v-32h4l36 84l-4 16h4l-4 4l4 20v4q-24 -28 -40 -96zM36 276v-12l8 8v4h-8zM44 100l4 -4v-28h4l24 48l-4 4l8 8v4l-8 16q-8 0 -20 -48h-8zM108 116q0 -12 -28 -64h4l4 -4h4 q28 50 28 68h-12zM260 112l-32 -56l-4 -12h28q6 0 24 48q21 20 32 20l4 -4v-4l-28 -60h24l28 52l12 16l-36 4zM440 108v-8l8 8v8zM156 112l-32 -60v-4h16q7 31 24 56v8h-8zM340 44h4q33 0 44 36l20 28v4h-28zM196 108q0 -13 -28 -56v-4l28 -4l28 64h-28z" />
<glyph unicode="p" horiz-adv-x="697" d="M160 1248h36l64 -8h56l16 -4l4 4l148 -16l4 4h4l24 -4l8 8q96 -12 96 -20l20 -144q8 0 8 -40v-48l4 -24l-4 -12l4 -28h-4l4 -4l-4 -28v-40q0 -21 -40 -48q-44 -88 -96 -88q-51 -12 -248 -16v-72l-4 -4l4 -4v-76l-4 -24l4 -4v-4l-4 -16v-8h4q-26 -364 -32 -364l4 -4v-8 q-17 -96 -72 -96h-32l-12 -8h-4l-84 20l-8 16l4 16q-12 33 -16 116l4 20l-4 12h4l-4 4v4l4 12l-4 24v8l4 4l-4 4v24l-4 48h4l-4 4l-8 368l4 48l-4 4v8h4l-4 168v44q0 153 28 188q53 76 76 76zM108 1208l-4 -64l4 -92h-4l4 -4v-84l-4 -88l12 -280h-4l8 -32l-4 -32l-4 -120 l4 -16h-4l4 -4v-4l-4 -116v-8l-4 -4l8 -44h-4l4 -12l4 -76l-4 -4q22 -16 68 -16q32 0 32 104q0 32 8 32l-4 4v4l8 40l-4 4v4q12 79 12 132v100l4 4l-4 4v8l4 4l-4 4q3 24 8 24l-4 20v24l4 4l-4 4v4l4 4l-4 12l4 24l-4 28l4 4v4l-4 4v4l4 44v16l4 4l-4 4v4l8 8h4l8 -8l40 16 l16 -4l28 4l4 -4h4l84 12v-4l4 4h8l4 -4q64 16 132 16h8q13 0 28 12l-4 4v80l4 16l-4 16v40q0 60 -16 108l4 4q-9 0 -12 48q-19 40 -48 40q-24 3 -24 8l-4 -4q-97 12 -168 12h-16l-4 4l-4 -4h-40l-96 8zM68 1116l-44 -80l4 -12l-4 -16v-4h4q30 88 48 88l-4 4v4l4 12l-4 4h-4 zM456 1112h8q52 -13 52 -84l8 -52q0 -68 -88 -68l-36 -4l-4 4l-96 -8q-64 11 -64 64v16h4l-4 4v48q0 76 60 76h12l24 -8h48q12 12 76 12zM468 1080q0 -22 -24 -36l4 -12h4q0 9 32 36l-12 12h-4zM364 1060l4 -4q18 4 24 20h-12zM316 1064v-4h12l8 8v4h-12zM72 1048l-8 -32h12 l4 12l-4 20h-4zM388 1032l-4 -4v-4l-20 4h-96v-88l48 -16q21 8 92 8h24l-8 80q-16 0 -16 16zM492 988l-12 -16v-4q10 12 20 12zM36 972l-8 -20v-4h4l8 20v4h-4zM72 972l-8 -20v-4h4l8 8v16h-4zM460 952v-4l8 8v4zM36 908l-12 -28v-12h4l12 36v4h-4zM72 908l-4 -20l4 -4h4v24 h-4zM72 852q0 -17 -40 -104l-8 -28v-8h4q31 79 52 108v24zM32 832l-8 -24v-4h4l8 20v8h-4zM516 736v-4q29 0 68 72h-16zM464 728l12 -4q14 0 24 44l24 28l-4 4h-4q-56 -57 -56 -72h4zM396 728v-4h24l48 68h-4q-34 0 -52 -48zM348 728l4 -4h20q0 15 32 60h-4q-32 0 -32 -16z M308 748l8 -8h-4l-4 4h-4l-16 -24q31 0 48 56l4 4h-4q-13 0 -28 -32zM268 772l4 -4v-4l-4 -16l16 20v4h-16zM80 764l-8 -16v-4h12v20h-4zM68 740l-4 -16q8 0 8 12v4h-4zM52 712q-13 -64 -32 -64l4 -4v-4l-4 -4v-4l4 -20h-4l4 -4v-16l-4 -16l4 -28h4l12 32q-12 0 -12 12 q0 30 32 120h-8zM80 692v-12l8 8l-4 4h-4zM76 676l-4 -16h8l4 16h-8zM80 612l-40 -100h4q7 0 24 52l20 20l-4 28h-4zM80 524l-24 -68q6 0 28 44v24h-4zM24 488v-32h4l12 40h-8zM76 428l-4 -24q8 0 12 24h-8zM24 412v-4l4 -48h4q0 22 12 48zM36 248v-24h4q16 53 44 88v40 q-11 -11 -48 -104zM32 344v-32h4q1 16 8 16zM80 248l-8 -20l12 -8l4 16l-4 12h-4zM44 96v-8h4q8 52 40 52v12l-4 28q-40 -67 -40 -84zM84 120l-28 -76l4 -4h12l28 60q-8 0 -8 20h-8zM120 84l-24 -52h16l28 52h-20zM160 68l-16 -32l4 -4l12 -4v8h4l-4 4v4l8 24h-8z" />
<glyph unicode="q" horiz-adv-x="772" d="M176 1200l172 -16l4 4h4q224 -30 224 -60q7 0 36 -44q16 -38 20 -72l-4 -20v-32l4 -12l-4 -20v-88l-4 -4l4 -4l-4 -28l-4 -140h-4l4 -4v-8l-4 -16l4 -12h-4l4 -4v-20l-4 -4l4 -4v-92l-4 -4l4 -4l-4 -20l4 -16l-4 -36v-40l-4 -16l4 -4v-4l-4 -44v-12l-4 -4l4 -4v-4l-4 -4 l4 -4q-8 -55 -8 -192v-88q0 -39 -24 -60q-19 -52 -32 -52h-48l-40 -8l-16 4l-36 -4h-8q-6 0 -12 16l4 4v4l-12 48l4 4v4q0 40 -32 40l-12 -4l-44 4h-16l-28 -4v4l-4 -4h-28l-56 12l4 -4v-12h-12q-8 0 -8 20l-28 4l-8 -8h-4q-24 24 -56 24t-32 144l-4 12h4l-4 12l-4 72l4 4v4 l-4 16v8l4 4l-8 44l4 24l-4 4v4l4 4v4l-4 4v4l4 4v4l-4 20l4 52h-4l8 12l-4 4v28l4 24l-4 4l4 20v168l-8 84h4l-8 52h4l-4 4v4l4 4l-4 28v36l4 4l-4 4q0 91 104 176q17 29 44 40q0 10 20 24zM128 1016l8 -116h-4l4 -4v-4l8 -196h-4l4 -4v-32l-4 -4l4 -4v-8l-4 -16l4 -16v-8 l-4 -4l4 -4l-8 -92l4 -4l-4 -20v-36q0 -59 -12 -92l4 -4l-4 -20v-4q0 -80 -8 -80l4 -4v-4l-4 -4q0 -12 12 -12l4 -4v-12q-16 -21 -16 -36v-24q24 0 24 -24q0 -12 236 -20q92 -11 92 -64l4 -48v-20h20q9 -9 44 -12q48 0 48 44v8h-4l4 40v48q0 120 12 208l-4 4q8 36 8 96v12 l4 4l-4 4v4l4 4v4l-4 20h4l-4 4v4l4 4l-4 4l4 40l-4 28h4l-4 4l4 16l-4 112h4l-4 4l4 20l8 136l-4 16l4 4v4l-4 4l4 28v52l4 4l-4 4v32q0 172 -212 172l-160 16q-18 -11 -88 -20q-13 0 -24 -132zM48 1016v-4h4l44 72v8q-43 -49 -48 -76zM36 940v-24l68 104v24 q-68 -81 -68 -104zM396 996h24q40 0 40 -128l8 -104h-4q8 -23 8 -88h-4l4 -4v-4l-4 -148h-4l4 -4v-4l-4 -20l4 -4l-4 -32l-4 -192q-10 -64 -60 -64l-40 4l-16 -4q-84 16 -84 116l-8 280l4 104l-4 20l4 28l-4 64q0 168 24 168q9 8 72 12l24 -8q4 12 24 12zM104 976l-56 -88 l8 -8l52 92v4h-4zM312 932v-16h4q17 10 40 48v4q-28 0 -44 -36zM384 968q0 -11 -32 -60v-4h8q0 11 48 64h-24zM284 960v-12h4l4 12h-8zM376 880v-4l48 48h8v4l-4 28zM104 912l-56 -84l8 -8l52 80v12h-4zM428 904q-5 -25 -44 -76v-8h4q0 12 12 12q13 36 36 36v8l-4 28h-4z M284 892l-8 -40l4 -4v-4l-4 -16l4 -16h-4l4 -4l-4 -20v-4l4 -12l-4 -20v-28l4 -20h-4l4 -4v-20l-4 -16l4 -4l-4 -20v-88l-4 -4l4 -4v-4q0 -296 36 -296q0 -9 64 -16l-8 80h4l-4 4v128l-4 24l4 12l-4 24l4 4v4l-4 4v4l4 4l-4 20v4l4 28l-4 32q0 250 -20 264q-8 12 -60 24z M36 872l4 -12l8 8v4h-12zM104 848l-56 -96h12l32 60q3 16 20 16l-4 4v4l4 4v4l-4 4h-4zM432 844q0 -26 -48 -64v-24h8q4 30 48 60l-4 28h-4zM108 788q0 -10 -16 -28v-4l20 -4v36h-4zM436 788q0 -12 -48 -80v-12h8q0 11 20 24q0 16 28 24l-4 44h-4zM76 740l-8 -20v-4h4l8 16 v8h-4zM108 728l-56 -100l-4 4v-28h4q33 84 60 84h4v16l-4 20l4 4h-8zM388 648v-16h8q19 43 52 64l-4 24q-28 -44 -56 -72zM56 700v-4l12 12h-4zM440 660l-16 -36h8q0 12 8 12l4 -4l4 4l-4 4v4l4 4l-4 12h-4zM108 656q0 -12 -16 -28v-12h4l12 4l4 -4l4 24l-4 16h-4zM412 616 l-8 -8q0 -12 -16 -12l4 -12q9 0 24 28v4h-4zM56 560v-4h8l20 48zM420 564v-8h8q0 12 12 12l4 4v20q-11 0 -24 -28zM104 580l4 -4v-4q-20 -22 -20 -36l24 8v40l-4 -4h-4zM392 540v-24h4l20 36h-4zM48 548l-4 -16l4 -4h4l4 20h-8zM436 536l-20 -44l24 16v28h-4zM80 532 l-24 -52h4q7 0 28 44v8h-8zM48 372q6 0 16 32q8 0 8 20h8l-4 4v4l16 24q20 0 20 8v36q-64 -88 -64 -128zM404 484l-12 -16v-4h4l12 20h-4zM52 476l-4 -24q8 0 12 24h-8zM428 448l12 4v20q-8 0 -12 -24zM104 420q0 -12 -48 -88l-12 -40l4 -4v-4l-4 -16v-4q8 0 16 28l-4 4 q5 0 40 76l12 12v28l4 4v4h-8zM424 400h4l12 12h-4zM428 316q0 -19 -32 -48v-8l36 36v20h-4zM48 228v-20h8q7 33 40 80v8q-13 -12 -32 -52l-8 -16h-8zM424 248l-4 -12v-4h4l4 12v4h-4zM88 224l-24 -56l4 -4l-12 -12v-20h4q0 16 32 60v32h-4zM84 128q-7 -44 -24 -44v-16 l36 48l-4 12h-8zM112 92l-20 -36l16 -4l28 36zM148 52q12 0 12 -8l-4 -4h4q7 1 28 36h-4q-23 -7 -36 -24zM196 40l8 -8h8l28 36h-16l-24 -28h-4zM260 48v-4l12 12v4zM308 56l-20 -28h32l8 24zM356 44v-16l20 -4l16 28v4zM404 20v-8h8q3 28 28 28v8l-8 8zM248 28l12 -4v12h-4 zM440 8q0 -14 -24 -44v-16h4l24 48v12h-4zM456 -44l-24 -48h16q10 0 20 40zM496 -64l-8 -24h4l12 4l4 -4l8 12v12h-20zM548 -68l-8 -16v-4q8 2 16 20h-8z" />
<glyph unicode="r" horiz-adv-x="772" d="M356 1156h12l4 -4l4 4l32 -4l140 -8l4 4h4q108 0 108 -80l16 -176q0 -173 -108 -228l-64 -12l-24 4h-32l-16 -16q72 -206 176 -552q-21 -88 -80 -88l-44 8l-4 -4h-4q-6 7 -128 16l-32 76l4 4q-10 0 -28 84h4l-24 120h-8l4 -4v-4l-4 -16l4 -4l-8 -64l4 -4l-4 -20v-72 q0 -25 -44 -88q0 -25 -60 -28l-4 4l-28 -4h-32q-80 0 -80 88l-16 180l4 4l-4 28v184l4 16l-4 12h4l-4 4v4l4 4l-4 12l4 4l-4 20v44l4 16l-4 4q20 203 24 328l-8 60q16 52 88 132l52 4l4 -4h4l16 4h4l4 -4q59 12 168 12zM264 1128v4l-4 -4h-8l-4 4l-4 -4h-4l-120 -4v-16 l-4 -16l4 -4l-4 -40v-24l-4 -4v-4l8 -8l-8 -8v-12l-16 -200l4 -32l-4 -16l4 -12h-4l4 -12l8 -120h-4l4 -4v-244l-4 -4l4 -4v-4l4 -232l16 -12l84 8l4 -4h4q20 2 20 28l-4 4l4 28v52l4 4l-4 4l4 20v36l4 4l-4 4l4 20v8h-4l8 60l-4 36l8 8v4l-8 12v24l12 52l-4 12l4 4v4l-4 16 h4l-4 4v4l4 4l-4 4v108l16 16h8q24 0 44 -224l60 -228q19 -38 36 -116l16 -8l8 8h4q0 -22 124 -24h8l4 -4v4q-44 167 -124 392l-80 260l8 8h8l4 -4l24 8h60l24 -4l24 12l24 -8h32l8 8l4 -4q48 0 48 108l4 28q-7 84 -12 84l4 20v12l-8 68h4q0 52 -152 52l-4 -4l-24 4l-144 4 v4zM48 1012h4q10 0 20 40q-22 -21 -24 -40zM300 1040h12l4 -4l4 4h8q168 0 168 -24l8 -104q0 -64 -96 -64l-124 -4q-12 12 -12 28q-27 0 -36 56l-4 28q0 84 68 84zM296 980h28l20 36q-32 0 -48 -36zM368 1016l-12 -24v-12h16q9 2 24 32zM404 980v-8q14 7 36 36l-4 4h-12z M268 1000v-8h12l8 16h-4zM460 1000q0 -14 -36 -36v-4q8 0 8 -12q32 40 40 40v4l-8 8h-4zM76 992l-8 -16v-4h8l4 16v4h-4zM56 956v-4h8l4 12h-4zM264 960v-4q16 -84 40 -84h4l88 4l8 24l-4 4v28l4 4q-8 24 -44 24h-96zM440 924v-8q32 28 32 40h-4zM56 948l-4 -12h4l4 4v8h-4z M80 928v-4l8 8v4zM468 920q-3 -20 -12 -20l-4 4l-20 -28h4q14 16 36 16v28h-4zM72 852v-12h8v12h-8zM464 728q-21 -17 -36 -44v-4h4q25 11 52 44l-4 4l-4 -4h-4l-4 4h-4zM44 724l-4 -20l8 8v12h-4zM504 708v-8h4l28 20v4h-16zM496 700l-8 -16v-4h12v20h-4zM72 644l-4 -20h12 l-4 20h-4zM24 612v-12l8 8v4h-8zM76 584l-12 -32l4 4h4l12 -8v36h-8zM76 516l-8 -32l12 4v28h-4zM40 512l-20 -72v-4h4l24 72l-4 4h-4zM292 504l-4 -20l8 8v12h-4zM300 440l-16 -52l4 -16h4q0 29 16 56l-4 12h-4zM76 432l-44 -108h8q15 64 40 64v44h-4zM24 392v-16h4l4 16 h-8zM316 372l-4 -16q8 0 8 12v4h-4zM60 308l8 -8l12 16v28zM20 316l4 -28h4l12 28l-4 4zM332 320v-16h8v8zM28 232v-36h4l28 100q-8 0 -32 -64zM76 256l-12 -36v-4h4q0 8 16 8l-4 32h-4zM332 228l4 -4q-12 0 -16 -44h12q6 48 24 48l-4 28h-4q-6 0 -16 -28zM364 208l-4 -32 l16 -4l-8 36h-4zM48 176q0 -12 -8 -12h-4l-4 4h-4l4 -44h4l16 48v4h-4zM76 172l-36 -104l4 -16h4q26 88 40 88q-4 32 -12 32zM380 160l-28 -80l8 -20h4q10 72 28 72l-8 28h-4zM88 88q0 -15 -16 -44v-12l20 -4l16 40q-16 0 -16 20h-4zM400 88l-12 -40l28 -8l8 20v8l-20 20h-4 zM120 28h36q10 0 20 40q-52 -5 -52 -32l-4 -4v-4zM208 68l-8 -20v-4h4l8 20v4h-4zM440 40h24l8 16v12h-16q-6 0 -16 -28zM504 64l-12 -28l20 -4q9 0 12 28h-4zM552 44v-8h4l24 24h-12z" />
<glyph unicode="s" horiz-adv-x="787" d="M228 1192l4 -4l36 4l44 -4l20 4q89 -12 152 -12v-4l4 4h4l4 -4l4 4l12 -4l188 16q12 -14 20 -80l-4 -16l4 -4v-4q-17 -68 -44 -68q-27 -88 -100 -88h-12l-268 -4l-8 -40l4 -24v-24l28 -4h12l20 4v-4l4 4l20 -4h16l156 -20h96q40 0 40 -76h-4l4 -12q8 -72 12 -304l4 -12 l-8 -24l4 -4v-4l-4 -4v-4l4 -12h-4l4 -4v-24l8 -76l-4 -40l4 -4h4l-8 -60l4 -4q-20 -24 -28 -24v-20q-67 -96 -120 -96v-4l-40 4l-76 -8l-120 4h-28l-24 -4l-168 12l-72 -4q-24 8 -24 32v40l-4 84q0 28 72 80q25 20 60 20l16 -4l4 4h4q73 -16 172 -16q136 0 136 24l-4 12 l4 4h4l-4 4v4l4 4l-4 4l4 20v40l4 16l-4 16l4 4l-12 24v4q3 24 12 24l-4 4v4l4 4l-8 36l12 20l-4 4v12l4 4v4q-20 0 -20 12l4 12l-16 12h-32l-16 4l-12 -4v4l-4 -4h-4l-4 4l-4 -4l-24 4q-288 0 -288 44l-8 76v44l-4 40h4l-4 4v24l4 4l-4 4v124l4 4l-4 4v8l4 4l-4 4v24l4 16 l-4 12q0 38 100 144h4l4 -4q20 13 76 28zM160 1112v-56q1 -108 8 -108l-4 -20v-44l4 -48h-4l4 -4v-32q0 -64 16 -104l4 4h12q8 0 8 -16q56 -3 56 -8l4 4q49 -8 152 -8q48 0 72 8q80 0 80 -80l4 -28l-4 -132l-4 -4v-4l4 -4q-10 -184 -44 -184l-28 -8v4l-32 -8v4l-108 -16 l-16 4l-32 -4l-176 20l-16 -4l4 -4v-4l-4 -4l4 -4v-4l-4 -4l8 -76v-16h44l96 -8h64l4 -4l12 4l180 4l4 4h4l20 -4q116 12 116 56l4 4l-4 4v4l8 12q-8 0 -8 12l4 64l-12 100l4 20l-4 244l-4 12h4l-12 68h4l-4 4v20l-8 48h-20l-4 4l-4 -4h-4l-4 4l-20 -4h-8v4l-12 -4l-172 20 l-40 4l-40 -4q-48 0 -48 44l-4 56v24q0 81 68 92h4v-4l56 8v-4l4 4h44l120 12v-4q21 8 84 8h20l4 -4h4l20 48l-4 4v4l4 4l-4 4v28l-4 28l-192 -8l-212 12h-44q-56 0 -76 -52zM116 1096q-40 -43 -40 -72q15 9 44 72h-4zM128 1076l-40 -80l4 -4l-20 -20v-12h4l56 80v36h-4z M628 1016q0 -8 -24 -28l-12 -20v-4q18 0 48 52h-12zM576 1012q-20 -40 -28 -40v-8l4 4l4 -4h12q0 11 28 48h-20zM532 1008l-24 -40v-4l4 -4h8l28 48h-16zM468 984v-12h16l16 32q-12 -2 -28 -20h-4zM128 1000l-40 -64q0 -24 -20 -24l8 -8h8l52 88v4l-4 4h-4zM324 972h12 l-8 -8l-4 4h-4l-4 -4v-8h24l32 36v4l-4 -4h-8l-4 4q-20 0 -32 -24zM400 996l-24 -36l16 -4l24 40h-4l-4 -4h-4zM440 996l-20 -36h12q0 9 24 36h-16zM460 968v-8h16l-8 8h-8zM132 904q0 -14 -24 -40l-28 -48l4 -4h8q29 64 48 64v28h-8zM100 776q28 44 40 44v28 q-40 -48 -40 -72zM124 760h4l16 8v24q-9 0 -20 -32zM108 736v-4q16 8 16 24zM140 744q0 -10 -32 -60l4 -12h4l32 48l-4 24h-4zM76 696v-4l8 -8v4zM152 688l-32 -44q0 -16 24 -20l28 48zM192 664l-20 -32v-8l20 -4l24 36v4zM220 620h16q7 0 24 28v4l-12 4q-28 -14 -28 -36z M80 648q6 -16 12 -16h4l4 20h-4zM272 628v-4l8 -8h4q11 5 28 36h-20zM320 628v-12h16l24 32h-24zM388 648l-20 -28v-4h36l12 24v4h-8v4l-4 -4h-4zM444 648l-16 -32v-4h12l28 36h-24zM476 620l4 -4v-4l-8 -12h12l36 48h-16zM532 632q-32 -45 -32 -56q28 32 44 40 q-6 16 -12 16zM540 592q-5 -18 -32 -52l4 -4v-4l-4 -12v-4h4q5 21 36 36l-4 40h-4zM540 524l-36 -56v-28h4q21 44 36 44v40h-4zM500 380v-12h4l40 56l-4 20l4 4h-4q-40 -47 -40 -68zM532 368l-32 -60q40 34 40 56v4h-8zM524 300l-16 -32h12l8 16v16h-4zM88 196l-24 -36v-4 l32 28l-4 12h-4zM92 156q-56 -72 -56 -104v-8h4q0 15 60 92l-4 20h-4zM64 48v-4h8l40 52l-4 12zM108 52v-8h12l20 -4l36 48v4h-32q-10 -4 -36 -40zM208 92l-44 -52h32q0 10 32 44v4zM560 44h4l36 48h-4q-36 -32 -36 -48zM420 36h16q0 9 32 48v4h-8zM460 36h28q0 9 36 52h-20 q-16 -9 -44 -52zM216 36h32l32 48h-20q-30 -25 -44 -48zM276 40l4 -4h8q15 9 36 48h-8q-21 -14 -40 -44zM352 84l-36 -52h4q30 0 40 28l20 20v4l-4 -4h-4zM408 84l-32 -48h20q0 12 32 48h-20zM540 76v-8h4l8 8h-12zM520 44v-4h16l8 24h-8z" />
<glyph unicode="t" horiz-adv-x="869" d="M116 1156l4 -4h4l4 4h4l4 -4l28 4l32 -4l12 4v-4l4 4h4l84 -8l12 4v-4l4 4l68 -4h24l4 -4l4 4l20 -4h40l24 4l4 -4l48 4h152l16 -4l4 4q52 0 52 -36v-8l-4 -4l12 -104q-52 -108 -116 -108l-60 -4l-20 4l-32 -4h-16v-68l4 -48h-4l4 -4l-4 -20l-4 -220l4 -4v-4l-4 -16v-44 l-4 -4l4 -4l-4 -20v-104l-4 -4l4 -4l-4 -28v-32l4 -12l-4 -20q0 -152 -24 -152q-11 -35 -60 -64l-8 -8h-8l-8 8l8 16l-24 4q0 -20 -8 -20h-8q-8 0 -8 16l-4 4h-24l-24 -12q0 14 -36 24l-8 60l4 20v132l4 4l-4 4l8 44l-4 4l4 20v80l4 4l-4 4v8l4 24l-4 4v4l4 12v8h-4l4 28v48 l-4 16l4 16l-4 16l8 44l-4 4l4 20v32l-4 12l4 20v84l4 4l-4 4l4 20v36l-16 4l8 20h-4q-76 24 -164 24h-12l-4 4l-4 -4h-8l-52 4l-20 -4q-28 14 -28 20v16l-4 68h4l-4 4v36q0 46 64 72q0 12 52 12zM192 1124l-20 4h-40l-40 -4l8 -76h-4q0 -44 40 -44l60 4q172 -18 172 -40 q13 0 24 -64l-4 -4v-4l4 -24h-4l4 -4v-52l4 -20q-8 0 -8 -12l4 -12h-4l4 -4v-16l-4 -4l4 -4l-4 -20v-192l-4 -4l4 -4v-192l-4 -4l4 -4l-4 -20v-8h4l-4 -20v-20l4 -20h-4l4 -4l-4 -20v-20l-4 -88q24 -2 24 -12l4 4l20 -4h4q64 0 64 16q5 76 12 76l-4 4l4 20l-4 4l4 4v56l4 36 l-4 4l4 20v12l-4 20h4l-8 32l4 16l-4 4v8h4l4 168v164l4 4l-4 4v72l4 4l-4 4v72l4 4l-4 4v4l8 24l-4 12q17 28 92 28l148 8v4l-16 112l4 4l-24 4l-4 -4h-4l-64 4l-16 -4l-36 4l-100 -4l-4 4h-4l-12 -4l-152 8l-20 -4l-64 8zM64 1088q-32 -39 -32 -48q32 40 40 40zM28 980 l40 52v4q-40 -34 -40 -56zM72 1004q0 -22 -32 -44v-4h28q0 17 16 32q-8 0 -8 16h-4zM96 964v-12h16l20 24h4v4h-12q-28 -5 -28 -16zM148 956l8 -8h16l20 28v4h-20q-8 0 -8 -16zM204 952l8 -8h4l28 28v4q-25 0 -40 -24zM684 920h4q13 0 52 52h-20zM256 952v-8l8 -8h4l24 32 h-20zM660 968l-24 -52h20q0 16 24 48v4h-20zM296 936q0 -9 20 -12l20 32l-8 8zM596 920l4 -4h8l16 48h-4q-19 -21 -24 -44zM560 932v-8l20 28v4q-7 0 -20 -24zM336 908l4 -4l-12 -28h8q13 32 28 32l-4 24h-4zM340 852l4 -4v-4q-10 0 -12 -20l-4 -4v-8q22 23 24 40h-12z M360 808q0 -11 -32 -44v-20h4q23 52 36 52l-4 12h-4zM356 740v-4l8 8v4zM324 692v-16h4q0 14 20 44v4q-6 0 -24 -32zM320 560v-4q6 0 24 40h20v40h-4q-39 -51 -40 -76zM360 576l-40 -80v-4h4q7 27 40 52l-4 16l4 12v4h-4zM360 504q0 -13 -16 -28l4 -4v-8q-18 0 -28 -44v-8h4 q0 16 40 68v24h-4zM352 420q-36 -63 -36 -76v-4h4q7 44 28 44l12 -4v4l4 4l-4 12l4 4v4l-4 12h-8zM356 372l-44 -104v-8h4q12 52 44 52l-4 12l8 44l-4 4h-4zM312 192v-4h4q20 60 44 60l-4 4l4 4v36q-46 -78 -48 -100zM312 120v-16h4q0 17 44 88v20q-18 -24 -48 -92zM348 120 q-13 -52 -36 -52v-8l20 -4l20 48v16h-4zM372 76l-12 -20l28 -4q6 0 12 16zM428 64l-4 -12l4 -4h12l16 16h-28z" />
<glyph unicode="u" horiz-adv-x="745" d="M204 1247h8q50 0 57 -96l4 -23l-4 -4l4 -19l8 -147l-4 -11q8 -44 8 -150v-123l4 -27h-4l4 -4v-4l-4 -12l4 -15l-4 -19l8 -70h-4l4 -3v-23l-4 -4l11 -104l-4 -27q0 -116 20 -116q23 -11 80 -11h8v4l-4 11l8 8l-8 8l4 3v4l-4 16h4l-4 4l4 19l-4 19l4 23v12l-4 27l4 34v73 l-8 16l8 34v4q-19 0 -19 12l15 58v30l-4 158l12 143v19l4 4l-4 4l4 15l-4 62q0 86 100 173l19 -8q0 12 43 12h34l20 -4l-4 4v3l4 4h11q27 0 27 -42h-4l4 -4v-35l-4 -3l4 -4v-4l-4 -4l4 -4v-46l4 -135q13 0 19 -46h-4l8 -27l-4 -4v-4l4 -15h-4l4 -4v-81l-4 -61l4 -4v-4 q-12 -17 -12 -177h-3l3 -4l-3 -38v-35l-4 -4l4 -4l-4 -19v-8h4l-4 -27v-38l4 -15q-15 -228 -47 -228q-58 -111 -119 -111h-96l-19 4l-23 -4h-16l-69 -4q-235 12 -235 65q-22 65 -31 181h4l-4 4v54l-4 15l4 4l-7 77l3 23l-15 243l4 15v20l-4 26h4l-4 4l12 312l-4 12l7 30v39 q0 80 58 100q10 19 31 19l8 -7zM123 955h-4l4 -4v-4l-4 -4l4 -4l-4 -38v-23l4 -16l-4 -27v-119q0 -151 20 -273l-4 -4q29 -304 54 -304l111 -12l23 8l4 -12h23q15 12 27 12l4 -16q100 8 100 20h4l8 -8l46 4h31l19 15l11 -7q35 0 35 161q5 0 8 77l-4 4v4l4 23v65l4 4l-4 4v4 l4 50l-8 50l4 4h4l-4 27l4 146v62l-4 15l4 4l-20 277l4 12l-4 11h4l-4 4v4l4 4l-4 4v46l-3 4v3l-50 -7v4q-58 0 -58 -50l7 -100v-70l-3 -4l3 -3v-8l-3 -4l3 -4l-3 -46v-4l3 -354h-3l3 -4l-3 -27v-88l-4 -16l4 -4v-3l-4 -4v-4l4 -4l-4 -19q0 -173 -62 -173q0 -8 -27 -8h-4v8 h-7v-8q-27 0 -27 8l-4 -4h-8q-104 0 -104 73h4l-4 4v27q0 130 -11 284v127l-4 16l4 15v16l-4 15l4 15l-4 35h4l-4 4v35l-4 15l4 4l-8 69l4 4l-4 23q-6 223 -34 223h-8q-66 -4 -66 -15q-11 0 -19 -246zM96 1201q-58 -95 -58 -162v-4h4q25 71 47 93l7 -8h4v12l-4 19l4 23v27 h-4zM54 1174l-4 -12v-3h4l4 11v4h-4zM447 1101l26 42v4q-26 -26 -26 -46zM439 1024v-19h11q16 50 47 80l-4 20v31q-54 -88 -54 -112zM92 1105l-61 -143v-31h4q65 157 65 174h-8zM450 958l8 -7l35 73v19zM35 893l3 -12l-7 -23v-7q11 0 50 111q11 0 15 58q-8 -7 -58 -123z M489 970l-54 -104h8q7 0 27 46l23 16v42h-4zM435 935v-23h4q0 23 11 23v4h-3zM89 931l-47 -119v-8h8l42 97v30h-3zM485 893l-38 -77l-20 -38l12 -8q10 37 54 88l-4 35h-4zM89 851q-54 -123 -54 -139h11q25 85 46 92v47h-3zM27 839v-4l8 8v4zM423 831v-11h4l4 19zM485 816 l-58 -115v-12q40 68 50 73l8 -8v-15q-58 -93 -58 -123v-16q44 81 50 81l8 -7v-12l-35 -77l-19 -35v-7h12l38 77q0 11 12 11v185h-8zM27 785v-23q7 0 11 19l-3 4h-8zM85 758l-39 -100h4l23 43l19 7v50h-7zM89 689q-54 -131 -54 -154v-15h3q32 98 47 111h4l3 -4h4l-4 62h-3z M42 654q-9 -30 -15 -30l4 -20h4l15 50h-8zM92 616q0 -22 -57 -143l3 -38h4q23 86 58 139l-4 42h-4zM450 512l4 -4h4q12 35 35 35v42zM100 539l-46 -139l4 -4h7q23 85 43 85l-4 58h-4zM447 508l-4 -15q7 0 7 11v4h-3zM485 504l-54 -127l4 -15l-4 -4v-8h4q21 67 46 93l12 -4 v58zM435 489v-12h4l4 12h-8zM54 304l4 -27l-12 -4l4 -23h4q0 24 61 139l-3 61q-8 0 -54 -134zM431 285l4 -12h8q22 70 42 70l4 61q-32 -49 -58 -119zM42 373v-30h4l8 30h-12zM69 235h8q29 73 46 73l-4 38q-12 0 -50 -111zM477 296l-23 -54h4q14 0 23 51v3h-4zM119 285 l-46 -104v-4h4q29 69 50 69l-4 39h-4zM50 216v-8h8l-4 -4v-8h4l11 35q-5 0 -11 -15h-8zM123 223l-50 -92l4 -4q-12 0 -12 -8v-4l4 -3v-4l-4 -4l4 -4h8l15 35l-3 4v7q15 0 15 20q9 0 19 19h12l-4 38h-8zM135 169l-43 -80q12 0 12 -8l-15 -23l11 -4q0 10 46 92q-5 23 -11 23z M158 119q-25 -32 -35 -57q12 0 12 -12l4 -4h11l31 62zM204 108l-15 -27q-16 -25 -16 -39l8 -7q9 0 38 61l8 8zM493 35h11q31 0 50 69h-15q-38 -36 -46 -69zM219 46v-11l27 -4h4q0 10 31 58l4 11h-31q-35 -33 -35 -54zM458 65l4 -3v-12q0 -12 -15 -12v-3h19l38 65h-4 q-31 0 -42 -35zM308 96l-27 -46q12 0 12 -8v-4l-4 -3v-4h7q11 4 35 61zM396 58q16 -2 16 -12v-4q-12 0 -12 -7h27l-4 11l24 46h-27q-7 0 -24 -34zM354 89l-23 -43l12 -11h15l31 54h-35z" />
<glyph unicode="v" horiz-adv-x="798" d="M68 1176h4q8 0 8 -12l68 12h28q72 0 132 -500q8 0 12 -76h4l16 56l-4 4v12q8 5 36 180q11 29 40 192q15 25 72 84q0 31 148 36h8l16 4q24 -5 24 -12v-4l-16 -12l4 -12l-40 -232l4 -4q-68 -254 -116 -516q-57 -284 -92 -284q-29 -92 -100 -92h-24l-44 4l-4 -4h-4 q-84 9 -84 40l-20 56h4l-12 24l4 4l-4 4v12l4 4q-48 199 -56 284h4l-4 12l-44 316q-5 79 -16 108l4 4v4l-24 100l-4 4l8 24v36l-8 12l4 4l-4 28v12q0 38 68 84zM92 1148v-68q0 -66 16 -128h-4q16 -132 48 -248h-4l24 -104l-4 -4q49 -300 100 -484l4 -4l4 4h108q52 0 84 200 l16 56h-4q56 267 120 516l40 252h-20l-28 -4v4q-52 0 -52 -28q-8 -9 -24 -96l4 -4q-7 -3 -36 -132q-56 -231 -100 -524q-13 -40 -28 -44q-16 0 -28 104q-40 202 -64 392q-35 246 -84 344l-32 4zM32 1064v-12h8q11 36 28 36v4l-4 28q-12 0 -32 -56zM440 1032h8l28 44h-4 q-18 -15 -32 -44zM36 1000l4 -20h4q9 44 24 60v16zM424 948v-8h4q39 71 64 100v16q-56 -58 -56 -88q-12 0 -12 -20zM428 896v-4h4q52 67 52 96zM76 956q-24 -52 -24 -68v-4h4q0 17 28 48v16zM80 880v-4l8 8v4zM408 880v-8l20 8v8zM408 812v-4q10 0 44 56v16q-44 -47 -44 -68 zM96 804l-20 -52v-4h4q15 36 24 36l-4 20h-4zM392 800v-16l16 16h-16zM384 724v-16q56 71 56 92h-4q-28 -31 -52 -76zM80 676v-4h4q0 33 32 60l-4 20q-8 0 -32 -76zM72 744v-16h4l4 12l-4 4h-4zM120 704l-20 -56v-8h4q0 32 24 32v8l-4 4v4h4l-4 16h-4zM400 688h16v12h-4z M360 628h8l24 44v4q-32 -36 -32 -48zM128 644v-12h8v12h-8zM400 644l-8 -24h4l8 8v16h-4zM356 564v-4q23 24 32 52h-4q-28 -22 -28 -48zM104 588l4 -4h4v12zM136 588l-16 -40v-4l4 4l16 20h4v20h-8zM348 508l4 -12q40 35 40 68zM116 540l-8 -28q8 0 12 24v4h-4zM112 456 l4 -4v-4l-4 -36q11 0 28 72l16 20l-4 28zM360 448h4l4 4h4l-4 4v4l4 12q-7 0 -12 -24zM160 460q-33 -92 -40 -92l4 -36h4q32 92 44 92l-8 36h-4zM172 380q-17 -50 -32 -68l4 -4h4l28 56v16h-4zM436 360q8 -2 16 -20l-4 -4q-20 5 -20 12v4zM180 320l-32 -56v-12l32 56l8 8v4 h-8zM156 200v-12h8q8 52 36 52v12l-8 8l4 4v8q-29 -38 -40 -72zM200 220v-20l8 8l-4 12h-4zM168 136v-8h4l28 68q-32 -43 -32 -60zM228 116l-32 -64v-8l20 -4v4l24 48l-8 24h-4zM188 112l-4 -12h8v12h-4zM256 76l-4 -12l4 -4l-12 -12l4 -12h16q9 0 12 20l-4 4l12 16h-28z M308 76l-8 -44h20l12 44h-24zM356 44h4q19 10 28 32h-20q-12 -2 -12 -32z" />
<glyph unicode="w" horiz-adv-x="1079" d="M796 1180q10 -12 108 -12h20q30 0 40 -32q-52 -270 -64 -384q-40 -154 -68 -320q-12 -36 -20 -108h-4l4 -4l-48 -228l-72 -92q-180 19 -192 32l-40 76h-4q-15 -18 -56 -44q-35 -60 -68 -60l-20 -4v4l-4 -4h-16l-36 4l-4 -4h-4q-56 0 -72 100q-32 83 -64 320h4l-8 28h4 q-8 11 -12 60l4 4q-12 0 -20 112q-52 305 -80 416l-4 28l4 4v4l-4 4v4q0 22 68 84h60l16 4l4 -4h4l4 4l20 -4h48q17 0 56 -108q36 -71 84 -400l52 -224h4q0 26 64 28l32 4l32 -36l40 132l-4 4q12 84 28 136l-8 12q17 0 44 168q35 98 52 228q11 26 44 48zM816 1148 q-14 -14 -64 -160l4 -4v-4q-54 -193 -76 -344l4 -4l-68 -324l4 -4l-12 -8h-4l-20 4v4l4 4v4q-15 0 -20 32q-19 17 -48 76q-10 0 -12 16h-4l-36 -52l-44 -52h-8q-16 0 -96 456q-28 82 -32 140q-64 204 -72 212h-64l-4 4q-44 0 -44 -28v-4q44 -127 72 -312q54 -509 112 -672 q13 -36 24 -36q103 0 128 36q14 52 32 52q0 48 40 48q26 -19 48 -104l20 -28l56 -8l24 4l20 -4q33 16 60 16l4 -4l4 4l-4 4q28 114 64 340q20 60 72 344l4 4l-4 4l12 56l-4 4q32 187 52 260q0 24 -32 24h-52zM716 1044h8q32 10 32 36q8 0 8 20h-4q-35 -18 -44 -56zM72 1096 l-36 -72l4 -20h4q25 72 36 72h4v4l-8 16h-4zM712 1004v-4l20 -4l4 4v12h-8zM100 1008l-24 -56h8l4 4q11 28 24 28l-8 24h-4zM692 924h4q21 0 28 44q-32 -10 -32 -44zM72 856l4 -20h4q0 23 44 100v20l-28 -60q-9 0 -20 -40h-4zM76 948l-8 -16l4 -4h4l8 12zM68 920l-8 -20v-4 h4l8 20v4h-4zM672 884v-24q9 8 28 8l4 28v4zM128 892l-24 -60h4q8 0 8 24l24 4v12l-4 20h-8zM656 804l20 4l12 -8l8 48q-40 -33 -40 -44zM120 796q28 0 28 -8v-4q0 -21 -12 -36h4l12 4l4 -4v4l-8 92q-7 0 -28 -48zM92 724q10 0 28 68q-28 -29 -28 -68zM644 752v-4h4l16 8 l12 -4l8 40q-11 0 -40 -40zM128 736l-8 -20v-4h8l4 20v4h-4zM632 688l32 -4l8 48h-4q-36 -15 -36 -44zM156 720l-48 -116v-20h8q34 92 48 92l-4 44h-4zM100 656q9 0 20 48v4q-11 0 -20 -52zM620 640v-12h4l24 8h12v8l4 28h-4q-28 -12 -40 -32zM164 640l-44 -108l4 -12h4 q27 91 36 92h4v28h-4zM608 584v-12l28 16l12 -8l8 40h-4zM172 572l-24 -64h4q6 0 24 48l4 4v12h-8zM600 524v-8l4 4h12l20 -4l8 44h-4q-20 -9 -40 -36zM184 508l-32 -88h-8l-4 4h-4v-4l8 -52h8q0 16 40 124l-4 16h-4zM592 472v-8l16 4l12 -4l12 36h-8q-18 -7 -32 -28z M128 496v-8q2 -40 12 -40l8 48h-4l-12 -4zM576 416h32l8 32q-27 -14 -40 -32zM196 432l-4 -24h4l4 4h4l-4 20h-4zM184 400l-16 -44v-4h4l20 40zM580 384v-8l8 -28h4l12 40zM160 252l4 -12q8 4 44 96h8v4l-4 28q-10 0 -20 -48q-10 0 -24 -68h-8zM152 336v-32h4l8 32h-12z M220 296l-36 -76l4 -4q-4 -32 -12 -32l8 -20h4q26 100 40 100h4q-4 32 -12 32zM232 228q0 -27 -20 -68v-8h4q8 36 20 36l4 -4h4v4q-3 40 -12 40zM484 144v-12h4q0 18 24 52v8q-28 -29 -28 -48zM244 160l-32 -100l12 -8q20 88 32 88l-8 20h-4zM508 128l-8 -16v-4l16 20h-8z M516 68v-4l8 -8h4q0 12 16 36l-4 20q-24 -25 -24 -44zM264 96l-8 -20v-20h-8v-28h8l8 28h-4l12 36l-4 4h-4zM296 68q0 -28 -8 -28l4 -12h24l12 36h-12zM356 68v-16h8l8 16h-16zM556 68l-4 -24h20q6 0 12 16l-20 8h-8zM652 36v-4l20 -4l16 28l-4 4q-23 0 -32 -24zM608 56 l-4 -16l20 -4l8 20h-24z" />
<glyph unicode="x" horiz-adv-x="798" d="M536 1188h28l4 -4l4 4l16 -4l100 4q64 0 64 -24l-48 -144q-100 -266 -100 -284l-16 -52l12 -80v-8l-4 -4q24 -70 68 -252l92 -232l-68 -88l-4 -4h-4l-28 4l-12 -12h-4q-10 0 -12 16l-20 -4h-4l-4 4l-20 -12h-8q-45 23 -48 32q-27 56 -44 172q-5 2 -20 88l-44 156h-4 q0 -26 -64 -220l-44 -164q-24 0 -72 -64q-17 -8 -68 -12l-60 12h-32l-4 4l-4 -4q-60 11 -60 28v16l92 236q72 163 144 384q-1 9 -24 24l4 20v8q0 8 -24 8q0 52 -20 52h-8v28l-4 4v4l-4 -4h-8l-8 8l4 4v4l-4 12h4q-99 210 -100 260q60 72 96 72l4 4h24q80 -1 80 -8l4 4h28 l24 4q32 -4 32 -12l-4 -28l68 -212h4q8 70 40 180q61 36 92 76zM664 1156l-104 -4q-68 -312 -108 -356l-16 -16h-12q-9 5 -32 88l-4 4l4 4l-28 84l4 4l-48 116q-18 8 -20 16l4 4l-4 28v24l-48 -4h-80l-8 -8q0 -13 48 -120q0 -21 84 -216l44 -108h4q0 -81 -92 -256l-124 -312 l-8 -24l32 -8l4 4h8l92 8l8 -8h4q14 8 48 160l100 304l32 28h12q13 0 36 -80l-4 -4l44 -148q24 -172 40 -236l4 4h4l20 -4l44 4q32 -1 32 -8l20 4h16v4l-32 76h4q-91 213 -132 472q60 210 92 260l72 220h-4l-32 4l-12 -4v4l-4 -4h-4zM480 1100v-4h4q44 20 44 28v8h-4z M72 1100l4 -12q9 0 16 40q-12 -6 -20 -28zM108 1092v-12l8 8v4h-8zM144 1084q0 -19 -24 -48l4 -4v-4l-20 -20l4 -28q22 33 40 84l4 4v8zM460 1056v-4l8 -8q44 21 44 28l4 12h-4q-41 -28 -52 -28zM92 1064l-4 -28q7 0 16 28h-12zM164 1040v-4l4 -20h12zM452 1012l-4 4l-8 -24 h4l60 32v12q-40 -24 -52 -24zM152 1020l-8 -24l4 -4v-4q-14 0 -20 -44l4 -12h4q12 54 32 76zM180 992q0 -17 -12 -32v-24q-12 0 -20 -28l4 -24h4l20 48h-4q0 13 28 28l-12 32h-8zM432 960v-16h4q48 13 48 24l12 24h-4q-47 -32 -60 -32zM204 940q0 -22 -24 -56v-12h8 q0 19 20 32h4q9 0 12 -20q-5 0 -24 -52h-4v-8l8 -8q12 52 36 52q-25 63 -36 72zM420 908l8 -8q44 8 44 32zM432 872l4 -20h4l4 20v4zM244 848l-24 -68q6 -16 12 -16q8 48 28 48l-12 36h-4zM268 788l-20 -52l8 -20h4q0 27 24 52q-8 18 -16 20zM532 752v-12h-4l-8 8l4 4h8z M292 732l-12 -32l4 -4h4l12 20l-4 16h-4zM276 696v-16h8v8zM300 664q0 -11 -72 -96l-8 -28q80 82 80 104l4 16v4h-4zM444 552l-16 -44h4l20 32l-4 12h-4zM256 536l-44 -52q-24 -4 -24 -36q48 60 64 60l8 28h-4zM456 496l4 -20v-4q0 -8 -12 -8v-20h4l16 36q-6 16 -12 16z M472 436l-8 -28v-4h4l8 8q0 12 8 12zM492 396q0 -25 -12 -40v-4h4l16 36zM152 308q36 16 36 52q-36 -37 -36 -52zM504 336l-4 -28h12v28h-8zM512 292l-8 -20h4l-4 -4v-16h8q0 12 12 12l-8 28h-4zM112 216h4q32 17 32 44q-19 -12 -36 -44zM524 232l-12 -40l12 8l4 -4h4v4 l-4 32h-4zM84 196l-4 -16l12 16h-8zM532 172q0 -16 -12 -32l4 -4v-24h8q3 24 12 24l-8 36h-4zM44 100v-4h8q56 24 56 68q-56 -64 -64 -64zM552 100l-4 -20l12 -12l-8 -12v-8h8l20 48h-4l-4 -4h-4zM592 60v-8l20 -4h20l20 44l-4 4q-48 0 -48 -28zM660 56v-12h12l40 48h-4 q-32 0 -48 -36zM44 48v-4l20 4l20 -4q0 9 24 36v4l-20 4q-17 0 -44 -40zM188 36h12q28 15 44 44h-4q-37 0 -52 -44zM116 44l36 -8v4l24 32v4h-4q-36 0 -56 -32z" />
<glyph unicode="y" horiz-adv-x="846" d="M628 1220h36l24 -4l12 4l28 -16l8 -24q-56 -200 -120 -332q-20 -28 -64 -136q-58 -114 -124 -304l-140 -308q-22 -11 -100 -96l-48 -4q-140 5 -140 52q32 125 100 296l60 152q36 114 36 144q-16 65 -72 176q-10 47 -52 136q-32 79 -32 112v16q28 62 100 120h4l16 -4 l52 12h44q38 0 80 -120q31 -60 48 -160h8l76 220q43 46 96 60h8l4 -4q20 12 52 12zM516 1036l4 -4v-4q-19 -23 -56 -124h4q-22 -73 -60 -96l-4 -4h-4q-23 0 -32 80q-7 0 -24 96q-8 0 -8 16h4q-36 118 -76 188l-52 4l-44 -12h-20l-20 4q16 -12 56 -180l112 -300 q16 -25 16 -48v-4q0 -58 -120 -380q-20 -81 -48 -152q34 -8 88 -8q35 0 56 76q12 0 68 152q15 19 104 244q0 18 112 256q69 114 132 348l-76 8q-68 -15 -68 -56q-30 -88 -44 -100zM496 1140h8q36 12 36 28h-4q-35 -17 -40 -28zM124 1120q-40 -95 -40 -112l4 -16h4 q21 67 40 96l-4 32h-4zM472 1080h4q40 0 44 36q-47 -25 -48 -36zM80 1096l-8 -20v-16h4l8 32v4h-4zM464 1052q0 -15 -12 -32h16q24 12 24 36l-4 -4h-24zM104 948l4 -4h4q20 66 36 92l-4 16q-6 -1 -36 -100zM432 956q36 8 36 36h-4q-32 -10 -32 -36zM152 988l-4 -12l4 -4v-4 l-16 -36l4 -12l-4 -4h12q0 23 16 44v4q0 21 -12 24zM176 928l-16 -44l4 -12q8 0 8 24l4 4l4 12h4l-4 16h-4zM408 892h4q28 0 28 36q-26 0 -28 -32zM192 872l-16 -68l4 -4h4l4 12l-4 4l20 40q-8 0 -8 16h-4zM400 860l4 -12l16 16h-12l-4 -4h-4zM152 844v-12l8 8v12zM200 760 v-12h4l16 44l-4 4l8 8l-4 12q-12 0 -20 -56zM236 768l-24 -68l4 -12h4q0 14 24 60l-4 20h-4zM252 716l-20 -64v-4h4q0 12 28 48q-5 20 -12 20zM272 668l-32 -68v-8q40 28 40 52v24h-8zM228 540h8l24 28v4zM192 512l-4 -20h8l8 16l-4 4h-8zM236 508l-12 -20h4q6 0 12 16v4h-4 zM164 388v-8q53 41 56 64h-4zM140 364v-8l20 20v8zM108 276h4q10 2 72 76v4q-76 -68 -76 -80zM156 284q0 -7 -60 -56q-20 -27 -20 -40q70 72 80 72l4 24h-4zM104 176v-4h4q0 12 12 12l12 -4v4l8 32q-27 -20 -36 -40zM112 148l-76 -80l-4 -16h4q84 71 84 96h-8zM64 44v-4h4 l4 4h4l20 -8l40 44v4l-20 8zM124 32h36q0 10 28 44h-24z" />
<glyph unicode="z" horiz-adv-x="831" d="M508 1220h32q116 0 116 -32l28 -272q0 -10 -32 -40l-212 -296q-4 -17 -80 -116l-76 -128l16 -4l16 4v-4l4 4h76l96 8l32 -4l4 4l20 -4h80l16 4q76 0 76 -48l8 -32q-12 -80 -12 -168q-49 -92 -92 -92l-48 -4l-16 4h-8l-16 -4l-32 8l-4 -4l-48 8l-48 -8l-44 4l-12 -4v4 l-4 -4h-4l-4 4l-4 -4h-32l-4 4l-4 -4l-152 16l-4 -4l-12 4l-64 -4q-41 0 -48 116h-4l4 24l-4 52h4l-4 4v4q0 55 124 216q48 51 192 292q32 44 104 188l20 24v4l-208 4l-80 -4l-12 4q-38 -12 -72 -12h-36q-40 0 -40 112q0 46 80 136q0 19 80 24h56l16 -4l68 12l24 -4z M324 1180l-28 4q-31 -8 -160 -12v-4l4 -52l-4 -32l4 -20l-4 -4v-4l4 -12l-4 -20h32l28 8q2 -16 32 -16l24 4l28 -4l48 8l12 -4q85 4 152 16q48 -8 48 -20v-16l-88 -116q-66 -129 -116 -200l-172 -280l-28 -52l-16 -56l4 -4v-28l4 -24l-4 -4v-4l8 -52l-4 -12q5 -52 16 -52 l12 12h4q8 0 8 -12h28l60 8l84 -8l12 4l24 -4h8q77 0 116 8l28 -4l4 4h4l4 -4l52 4l80 -4q12 0 12 20h4l-4 20l8 112l-8 32l-56 4l-12 -4l-20 8l-24 -8l-84 8q0 -6 -192 -12q-52 0 -52 32q57 105 336 488l72 108l-16 140h4q-10 124 -24 124l-4 -4l-48 8l-4 -4l-20 4l-4 -4 h-4l-4 4h-4zM100 1164v-4h12v8zM108 1124q0 -11 -68 -80l-12 -24v-4l4 -28h4l32 52l-4 4v8q12 0 40 44q8 0 8 20v8h-4zM64 1116l-32 -44v-4h4l32 48h-4zM108 1060q-3 -19 -72 -96h-4l8 -8h12l44 68q0 8 12 8l4 20v8h-4zM108 1004l-36 -48h20q48 0 48 28l12 12zM436 964v-4h4 q34 0 52 36v4l-12 4q-19 0 -44 -40zM188 1000l-24 -36v-4h4l12 4v-4l4 4h28q0 19 8 28zM324 996l-20 -32l44 -4l20 36l-4 -4h-32l-4 4h-4zM376 968v-8h36q0 10 16 28v8h-28zM248 992l-16 -24v-4h44l12 24zM88 284l-4 -16h8v16h-4zM92 224l-12 -28h8l8 16v12h-4zM64 180 l-28 -52v-12q25 33 36 64h-8zM92 160q0 -10 -36 -60v-20h-12v-4l4 -20l44 88l8 8v8h-8zM100 108q0 -13 -20 -40v-4h8v-4q0 -12 -16 -12v-8l20 4h16l16 36l-24 12l4 12v4h-4zM188 40l40 -4q0 12 28 56h-4q-56 0 -56 -44zM284 92l-32 -56l4 -4h24q0 16 32 52v4h-20l-4 4h-4z M484 92q-13 -32 -24 -32v-4h4l12 4l4 -4v-4l-24 -16l8 -8h32l-4 4v4l20 44v12h-28zM560 92q-24 -28 -36 -60h-4v-4l40 -4l-4 20q8 31 20 44zM616 92l-24 -36l4 -12q-18 -8 -20 -16h24l40 60zM132 44l36 -4q0 15 16 40v8h-24q-14 -12 -28 -44zM308 44l4 -16l16 4l16 -4h8 q0 14 24 48l-4 12h-24zM416 88l-36 -56h4l20 -4q22 0 28 36q8 0 12 24h-4l-20 -4zM636 36h4l44 52h-4z" />
<glyph unicode="{" />
<glyph unicode="|" />
<glyph unicode="}" />
<glyph unicode="~" />
<glyph unicode="&#xa1;" horiz-adv-x="330" d="M132 1144q104 0 104 -60v-4q0 -22 -48 -96l-28 -8v4l-4 -4l-44 8l-76 -12q-30 0 -36 104q70 60 88 60q16 8 44 8zM92 1116q0 -68 20 -68h4q96 12 96 28q0 36 -32 36l-24 4h-64zM40 1048l-4 4h-4v-4l4 -24l28 20v24h-4q-6 0 -12 -16l-4 -4h-4zM68 1016h4l12 12h-4z M100 1012v-4h28q28 14 28 20h-4zM188 956l4 -4v-12q0 -14 -76 -20l-4 -20v-4l4 -76l-4 -24l8 -112h-4l8 -36h-4l4 -4v-4l-4 -4v-4l4 -4l-4 -20v-24l4 -24l-4 -12l4 -28h-4l4 -4l-4 -32l4 -4l-4 -20v-92l-4 -4l4 -4v-4l-8 -84v-16l4 -20h-4l8 -40l-4 -12q0 -81 24 -100 l-4 -12h4q76 0 76 36l8 40l-4 4q8 44 8 136v16l-28 368h4l-4 4v32l-4 16l4 4l-4 24l-8 168l12 16h4l8 -8l-8 -8l12 -56l-4 -4v-4l4 -4v-4l-4 -4l4 -40v-24l-4 -4l12 -108h-4l4 -4v-40l4 -48h-4l4 -4v-28q0 -47 8 -64l-4 -4v-4l4 -24l-4 -4q8 -11 12 -52h-4l8 -40l-4 -4l8 -8 l-4 -4l4 -28v-48l-8 -76l4 -4q0 -95 -36 -132q-20 -45 -32 -48h-84q-44 0 -44 140v24l-8 8l4 4v4l-4 4v12h4l-12 160v12l-4 20h4l-4 4v4l4 4l-8 40l4 12l-12 140l4 52l-4 16l4 20l-4 112v8l4 4l-4 4q0 86 84 140l28 4v-4zM72 888l-20 -44v-4h4l20 32v16h-4zM76 832 q0 -11 -28 -44v-12q10 0 36 40l-4 16h-4zM80 776l-32 -48v-16h4q23 24 36 24v20l-4 20h-4zM52 660v-12l40 32v36h-4q-36 -34 -36 -56zM48 608v-20q34 28 48 52v16q-11 -2 -48 -48zM92 600l-24 -40v-4h4l24 40v4h-4zM48 544l8 -8l4 4v12h-4zM92 552l-8 -16l4 -4h12l-4 20h-4z M56 460h4q40 28 40 60zM60 424v-24h4q0 8 36 44v16q-28 -36 -40 -36zM60 368l4 -32l32 28v32q-22 -28 -36 -28zM84 324q0 -13 -20 -40h8v8q14 0 20 28l-4 4h-4zM84 268l-16 -32l4 -12h8q0 12 12 12l-4 32h-4zM72 188v-4l4 -20q15 8 20 24l-4 12l4 12zM92 148l-16 -24v-8 l20 20v12h-4zM80 72l4 -12l20 16l-4 20q-14 -7 -20 -24zM112 56q-9 -24 -20 -24v-4h8l20 24l-4 4h-4zM132 24h8l20 20h-8q-17 -9 -20 -20z" />
<glyph unicode="&#xa2;" horiz-adv-x="1139" />
<glyph unicode="&#xa3;" />
<glyph unicode="&#xa4;" />
<glyph unicode="&#xa5;" horiz-adv-x="1262" />
<glyph unicode="&#xa6;" />
<glyph unicode="&#xa7;" />
<glyph unicode="&#xa8;" horiz-adv-x="1024" d="M375 1308q41 0 56 -40l16 -100q-10 -13 -32 -88l-24 -8q-164 0 -164 40l-12 80v8q0 50 116 104zM295 1232l12 -64l-4 -4l12 -8q100 0 100 20q0 40 -24 100h-12q-84 0 -84 -44zM267 1184v-12l8 8l-4 4h-4zM283 1136l-16 -24l28 -4l8 16l-16 12h-4zM331 1108l20 -4h12 l12 24h-8q-29 0 -36 -20zM734 1308q41 0 56 -40l16 -100q-10 -13 -32 -88l-24 -8q-164 0 -164 40l-12 80v8q0 50 116 104zM654 1232l12 -64l-4 -4l12 -8q100 0 100 20q0 40 -24 100h-12q-84 0 -84 -44zM626 1184v-12l8 8l-4 4h-4zM642 1136l-16 -24l28 -4l8 16l-16 12h-4z M690 1108l20 -4h12l12 24h-8q-29 0 -36 -20z" />
<glyph unicode="&#xa9;" horiz-adv-x="1674" />
<glyph unicode="&#xaa;" horiz-adv-x="648" />
<glyph unicode="&#xab;" horiz-adv-x="944" d="M174 479l342 303h14v-37l-205 -266l205 -266v-37h-14zM487 479l342 303h14v-37l-205 -266l205 -266v-37h-14z" />
<glyph unicode="&#xac;" horiz-adv-x="577" d="M116 621l36 -5l46 5q169 -14 169 -56l21 -165q-6 -41 -31 -41l-72 -15q-30 5 -30 15l-6 -5h-5q-19 0 -30 103q-114 0 -139 41v10l5 5l-5 5l5 52v36l16 5l10 -11q0 21 10 21z" />
<glyph unicode="&#xad;" horiz-adv-x="670" d="M504 232h36q68 0 68 -120q-1 -25 -52 -104l-28 -4h-16l-4 4l-4 -4h-44l-16 -4l-16 4l-48 -4l-44 4l-36 -4l-48 4h-8l-16 -4q-108 0 -108 56l-12 80q0 14 76 76h8l16 -12q42 16 296 32zM420 192l-4 4l-120 -12v4q-84 -11 -84 -20v-24l-4 -24q0 -36 112 -36l184 12l4 -4h4 l28 4l4 -4h4l24 8l4 12l-4 4v20q0 46 -20 64h-48q-63 0 -84 -8zM184 88q-11 -32 -28 -32v-12l12 -4q3 13 24 28h4l-4 20h-8zM532 68l-12 -32h4l12 -4l24 32zM224 64l-16 -24v-8h28l-4 20l8 8v4h-16zM400 64l-24 -36l28 4h8l12 28zM460 64l-20 -32v-4l20 4h12l4 -4h4 q0 17 12 36h-32zM280 60l-16 -24v-4h28l8 20v4zM320 32h20l16 24l-4 4q-17 -4 -32 -28z" />
<glyph unicode="&#xae;" horiz-adv-x="1674" d="M751 1099v-374l3 -8q23 -56 56 -81q29 -22 56 -22h6q31 4 61.5 38.5t46.5 97.5q13 50 13 103q0 13 -1 27q-4 67 -28 124.5t-56.5 76t-63.5 18.5h-93zM984 576l82 -116q100 -141 150 -141h34v-50h-346v50h45q30 0 30 22q0 29 -69 114l-75 102q-42 0 -84 42v-159 q0 -121 36 -121h53v-50h-316v50h43q37 0 37 121v538q0 121 -37 121h-43v70h356q64 -1 125 -42q60 -41 92.5 -114t32.5 -152q0 -78 -32 -150.5t-114 -134.5zM840 1456q145 0 280 -56.5t239 -160.5q102 -101 158.5 -238t56.5 -283q0 -147 -56.5 -282t-162.5 -240 q-105 -105 -239 -159.5t-283 -54.5q-146 0 -278 55.5t-238 160.5q-106 104 -161.5 237.5t-55.5 282.5q0 148 55.5 283t159.5 238q102 104 238.5 160.5t286.5 56.5zM357 1197q-95 -96 -146 -219.5t-51 -259.5q0 -137 51 -259t148 -219q98 -96 219 -147t256 -51 q137 0 259.5 50.5t219.5 145.5q97 98 149 221.5t52 258.5q0 134 -52 259.5t-145 219.5q-96 96 -220 147.5t-258 51.5q-137 0 -262 -51.5t-220 -147.5z" />
<glyph unicode="&#xaf;" horiz-adv-x="670" />
<glyph unicode="&#xb0;" horiz-adv-x="674" d="M339 1372q-86 0 -147.5 -61t-61.5 -148t61 -147t148 -60t147 60t60 147t-60.5 148t-146.5 61zM339 1442q115 0 196 -81.5t81 -196.5q0 -114 -82 -196t-197 -82q-117 0 -197 81t-80 197t81.5 197t197.5 81z" />
</font>
</defs>
</svg>
